<svg width="42" height="42" viewBox="0 0 42 42" fill="none" xmlns="http://www.w3.org/2000/svg">
<path d="M40.349 17.3105C40.3323 16.9874 40.4739 17.7967 40.4691 17.8291C40.4544 18.0466 40.3597 17.4561 40.349 17.3105Z" fill="#1A2A4F"/>
<path fill-rule="evenodd" clip-rule="evenodd" d="M20.7455 0.0517578C19.6037 0.149607 18.3082 0.184104 17.1234 0.413086C16.9617 0.441596 16.4134 0.54428 16.4916 0.591797C17.4906 0.386178 18.7507 0.186966 19.7309 0.177734C19.7619 0.177461 19.6514 0.239898 19.7689 0.242188C19.9873 0.243188 20.6948 0.135445 20.8168 0.161133C20.8307 0.166626 20.4338 0.244335 20.5561 0.289062C20.7156 0.346763 20.8142 0.309469 20.9086 0.257812C21.0014 0.207061 21.0906 0.142953 21.226 0.146484C21.4408 0.14051 22.8381 0.346847 23.1947 0.318359C23.5777 0.267445 22.1623 0.169977 22.2699 0.116211C23.2353 0.106704 24.2036 0.316442 25.0941 0.490234C25.11 0.493304 24.9848 0.410656 25.1869 0.444336C25.5383 0.504729 25.6114 0.604568 25.7758 0.65625C25.9536 0.709492 26.5909 0.868703 26.6664 0.922852C26.6754 0.929534 26.5275 0.967828 26.5072 0.964844C26.2248 0.919378 26.1513 0.797179 26.1264 0.789062C26.0325 0.761018 25.9306 0.775204 25.8451 0.751953C25.7043 0.713748 25.634 0.659726 25.4457 0.614258C25.316 0.583309 25.4261 0.677908 25.3012 0.647461C25.2522 0.632247 24.7867 0.381468 24.7103 0.53125C24.7126 0.490331 28.0967 1.51607 28.892 1.85254C28.619 1.72003 28.344 1.59154 28.0639 1.4707C28.7259 1.75977 29.5683 2.00294 29.5434 2.20215C31.956 3.3353 34.1354 4.94173 35.9271 6.89551C36.2333 7.2561 35.9733 7.14086 36.5043 7.70508C36.4052 7.52706 36.3036 7.34966 36.1986 7.17383C36.4617 7.47733 37.5077 8.89702 37.6762 9.12891C37.6993 9.15772 37.823 9.13588 38.0766 9.5C38.2992 9.82452 38.2612 9.9233 38.3578 10.1094C38.4387 10.2658 38.5579 10.425 38.5805 10.4727C38.5973 10.509 38.5618 10.5483 38.6019 10.6357C38.7282 10.9124 38.7325 10.6294 38.7357 10.9717C38.6949 10.9107 38.6541 10.8495 38.6127 10.7891C38.7732 11.1193 38.9358 11.5917 38.6518 11.1387C38.6021 11.0611 38.6828 11.1069 38.6498 11.0469C37.2655 8.74462 38.3195 10.6127 38.8148 11.4121C38.8742 11.654 39.4816 12.8584 39.4769 12.9111C39.4818 12.9762 39.3403 12.7875 39.4105 13.084C39.4459 13.1466 40.0847 14.8131 39.7777 14.2373C39.7201 14.1169 39.4367 13.3066 39.35 13.1191C39.4019 13.6197 39.9801 14.6186 40.0082 14.75C40.1411 15.2496 39.5799 13.8454 39.9144 14.958C40.1519 15.8165 40.0172 14.9848 40.1547 15.3027C40.2391 15.4833 40.367 16.4938 40.4994 16.4375C40.5881 16.7764 40.4694 16.5923 40.473 16.6357C40.4808 16.6826 40.6516 17.3416 40.6527 17.5674C40.6531 17.5944 40.5645 17.5234 40.5619 17.5508C40.5629 17.6069 40.669 18.2535 40.6762 18.2803C40.6832 18.2943 40.7293 18.1326 40.7533 18.1943C40.784 18.267 40.8363 18.9021 40.8559 18.9346C40.8913 18.9759 40.7906 18.2013 40.8773 18.3223C40.9042 18.6877 41.002 19.2691 41.0746 19.5088C41.0547 19.4504 41.0272 19.0971 41.0219 18.9746C41.1392 19.0229 41.1859 19.7858 41.0834 19.5303C41.139 19.6929 41.1569 19.5794 41.2055 19.6699C41.2181 19.6936 41.2312 19.9284 41.2514 19.9736C41.2568 19.9681 41.2883 19.7357 41.3119 19.7822C41.3592 19.869 41.3655 20.5887 41.3519 20.6484C41.3234 20.8142 41.2824 20.2272 41.2328 20.1807C41.2239 20.1953 41.1452 20.6656 41.1352 20.6787C41.0512 20.7074 41.1042 20.1596 41.0277 20.2217C41.0146 20.3572 40.9996 20.4934 40.9838 20.6289C40.9102 20.1079 40.8926 19.148 40.7768 18.9102C40.8754 19.6723 40.8795 20.4769 40.6791 20.4775C40.5957 20.4762 40.5397 20.1535 40.518 20.166C40.4446 20.2155 40.5318 20.6598 40.5277 20.6826C40.5231 20.6963 40.5184 20.703 40.5141 20.7031C40.4717 20.7003 40.4289 20.0642 40.4047 20.0303C40.3667 19.9792 40.2261 20.2637 40.1918 20.2656C40.1859 20.2527 40.1347 19.8082 40.0824 19.9609C40.0312 20.1149 40.0373 20.5048 40.0307 20.5215C39.9987 20.5939 39.9506 19.9128 39.9262 19.8945C39.9158 19.8878 39.8643 20.2472 39.8451 20.2617C39.8272 20.271 39.7788 19.9968 39.7152 19.8916C39.6686 19.8133 39.6457 20.0473 39.6371 20.0068C39.6341 19.9767 39.599 19.3478 39.5863 19.3145C39.5717 19.2694 39.5306 19.4201 39.516 19.3994C39.4958 19.369 39.4989 19.1668 39.4818 19.1943C39.4727 19.2204 39.3404 20.0097 39.2885 20.0059C39.2091 20.0003 39.3533 19.172 39.0707 19.9482C39.069 19.9535 39.0981 20.1372 39.0961 20.1426C39.04 20.2574 38.9323 19.6726 38.9672 20.3906C38.9318 20.0735 38.9056 19.8987 38.8852 19.8135C38.8995 20.1082 38.9076 20.4048 38.9076 20.7031C38.9076 21.2702 38.8808 21.8311 38.8295 22.3848C38.8606 22.2201 38.9092 21.9572 38.89 22.3252C38.8333 23.2296 38.6331 23.5768 38.8744 23.7734C39.108 23.1253 39.0133 22.2879 39.0228 22.0869C39.0411 21.7751 39.0723 22.1 39.0902 22.0645C39.0966 22.0514 39.1105 21.7825 39.1146 21.7773C39.338 21.5981 39.0279 22.9829 38.9818 23.417C39.0296 23.3053 39.0768 23.1927 39.1225 23.0791C39.1028 23.239 39.0819 23.3979 39.058 23.5576C39.2303 22.8086 39.089 23.5313 39.2182 23.751C39.2478 23.7982 39.2681 23.2855 39.2748 23.877C39.3691 23.4561 39.3806 23.5955 39.3891 23.2041C39.4579 23.2213 39.3976 24.1067 39.3549 24.4541C39.6527 23.2534 39.2978 23.9085 39.5678 22.873C39.5092 22.6681 39.4649 23.1725 39.4555 23.1299C39.4265 22.9782 39.5475 22.637 39.4105 22.21C39.3875 22.1414 39.279 22.4173 39.3148 21.998C39.3194 21.9517 39.409 21.689 39.4144 21.6904C39.4704 21.7302 39.4326 21.9963 39.4555 22.0088C39.4776 22.0159 39.4829 21.7215 39.4887 21.7207C39.5614 21.7164 39.5011 21.9716 39.5258 21.9355C39.5808 21.8587 39.7994 20.7811 39.6674 22.1953C39.6594 21.0134 39.6066 22.0408 39.5912 22.4961C39.5878 22.6122 39.6288 22.6468 39.6254 22.8145C39.6209 23.0305 39.5663 23.2769 39.558 23.3877C39.548 23.5077 39.7535 22.8487 39.5727 23.8193C39.7611 23.339 39.7561 22.4421 39.8549 21.9551C40.0578 20.9615 39.9888 22.6659 39.9652 22.8447C39.9639 22.892 40.0399 22.7408 40.0404 22.7715C40.046 22.8268 39.8884 23.7851 39.9135 23.8887C39.9458 23.9902 39.9685 23.5355 40.0209 23.5117C40.0643 23.5002 39.9189 24.6741 40.0541 24.0469C40.1519 23.6094 40.1147 22.7895 40.2709 22.665C40.2171 23.317 40.1304 23.965 40.0111 24.6064C40.1374 24.2688 40.2548 23.9228 40.3627 23.5742C40.2705 24.3109 40.0798 24.9239 39.9818 25.623C40.5539 24.0166 39.9959 26.1933 39.9867 26.2227C39.9988 26.2367 40.3185 25.622 40.3676 25.5215C40.2986 26.1229 39.7324 27.8751 40.2445 26.9082C40.1492 27.0797 40.0861 27.5448 40.0912 27.5605C40.1927 27.5321 40.4694 26.523 40.4828 26.7061C40.5035 26.9198 40.3103 27.151 40.2182 27.4395C39.7124 28.9121 40.2614 28.6847 39.5082 30.0938C39.5356 30.0722 39.5629 30.05 39.5902 30.0283C38.7867 31.5685 37.7902 33.0036 36.6342 34.292C36.2999 34.8959 35.0596 36.2383 34.3471 36.7832C34.209 36.9006 33.4779 37.3862 33.4105 37.416C33.2995 37.4728 33.832 37.0585 33.5639 37.21C33.5125 37.2546 32.2834 38.0808 32.4047 38.0723C32.5502 37.9885 32.9595 37.664 33.0375 37.627C33.6455 37.4524 29.6539 39.7522 29.4057 39.7744C29.5084 39.754 29.6116 39.733 29.7143 39.7109C29.4448 39.8224 29.1709 39.9285 28.8978 40.0283C28.999 39.9654 29.0994 39.9016 29.1996 39.8369C28.8878 39.9578 28.4767 40.1364 28.1781 40.2256C28.13 40.2398 28.2322 40.141 28.1195 40.1797C28.0062 40.2183 28.0552 40.2854 27.8939 40.3516C27.7137 40.43 26.8414 40.6517 26.5424 40.7305C25.4283 41.0463 24.2785 41.3101 23.1186 41.3984C24.3037 41.1989 23.0949 41.2904 22.767 41.3389C22.6949 41.3459 22.7153 41.5177 21.5141 41.5273C20.9945 41.5232 21.1526 41.4167 20.9086 41.3877C20.7935 41.3728 20.589 41.3762 20.183 41.3965C21.1551 41.5621 20.196 41.5493 19.4252 41.498C19.2909 41.4953 18.2252 41.3716 17.7592 41.2998C17.5987 41.2783 17.341 41.314 17.1283 41.2773C16.982 41.252 16.8796 41.1911 16.6644 41.1494C15.6553 40.9522 14.6768 40.6796 13.7152 40.3154C14.3453 40.3327 13.303 40.0761 13.2631 40.0439C13.0563 39.9098 14.091 40.2819 13.6947 40.0986C13.1226 39.8943 12.5603 39.6654 12.0092 39.4121C12.4502 39.6474 11.3371 39.2782 11.1801 39.1133C11.153 39.3416 8.86028 37.5835 8.51601 37.333C8.43995 37.2855 8.84978 37.7249 7.78847 36.8457C7.67532 36.7485 7.75245 36.7428 7.68886 36.6973C7.6507 36.6704 7.32326 36.6173 7.15566 36.3486C7.0996 36.2462 7.68279 36.6469 6.51894 35.6328C6.83089 36.1983 4.93257 34.1722 4.68593 33.7178C4.73198 33.8109 4.77791 33.9043 4.82558 33.9971C4.55206 33.5705 4.45445 33.5325 4.38613 33.4414C4.11306 33.0731 3.79408 32.5295 3.55507 32.1787C3.27723 31.7683 3.18396 31.8224 2.91836 31.3037C2.96878 31.434 3.0212 31.5644 3.07461 31.6943C2.8661 31.3491 2.66808 30.9984 2.47988 30.6416C3.05653 31.3873 2.38541 30.4655 2.35195 30.3975C2.29227 30.2948 2.42289 30.4188 2.32461 30.2461C2.31432 30.2285 2.27789 30.28 2.13418 30.0088C1.83873 29.4377 1.94919 29.4985 1.83535 29.2549C1.82559 29.2338 1.81305 29.3303 1.61757 28.9102C1.02177 27.5559 1.64806 28.9044 1.683 28.9521C1.72445 29.012 1.69397 28.4837 2.15175 29.6396C1.99308 29.2542 2.06051 29.1762 2.04336 29.1328C2.02513 29.0957 1.73077 28.4409 1.71425 28.4004C1.55434 28.0833 1.61196 28.3932 1.57656 28.335C1.54272 28.2858 1.31292 27.4427 1.07656 27.3047C1.10954 26.8533 1.29024 27.4879 1.56875 28.1299C1.63516 28.2114 1.40007 27.4849 1.39004 27.4453C1.07594 26.5112 1.11728 27.0682 0.964254 26.8906C0.884458 26.7956 0.859039 26.3783 0.84609 26.7734C0.577599 25.9067 0.804237 26.4144 0.797262 26.3555C0.787683 26.2663 0.670253 25.9698 0.665426 25.9297C0.657796 25.8717 0.750614 26.0561 0.708394 25.8311C0.700978 25.7939 0.538406 25.4543 0.620504 25.9248C0.474963 25.305 0.429168 25.3661 0.507223 25.1279C0.177006 24.7474 0.584423 24.7878 0.56484 24.6182C0.516449 24.1664 0.354044 24.3255 0.339254 24.3047C0.241432 24.1491 0.131703 22.8829 0.0873007 22.5723C0.230653 22.6819 0.196605 23.5733 0.257223 23.7637C0.439288 24.3976 0.200388 22.8404 0.437887 23.2891C0.365768 23.099 0.295516 22.9046 0.228902 22.7119C0.309419 22.3391 0.391727 22.8508 0.284566 21.8779C0.177086 21.7262 0.347023 22.5672 0.260152 22.4023C0.205627 22.3057 0.161329 21.7402 0.139059 21.7266C0.108795 21.7162 0.173913 22.2292 0.126363 22.1523C0.00365646 21.9771 0.0504433 20.0966 0.138082 21.5244C0.123694 21.1784 0.262172 20.9757 0.260152 20.7031C0.259928 20.6624 0.256655 20.62 0.24941 20.5752C0.235907 20.4919 0.19009 20.614 0.141988 20.7031C0.100796 20.7793 0.0568417 20.8307 0.0277304 20.7031C0.00104071 20.5814 -0.016563 20.2939 0.0238241 19.7168C0.110281 19.6808 0.0245835 20.4715 0.0345663 20.4951C0.0444493 20.5235 0.24231 20.3835 0.254293 20.3584C0.267528 20.273 0.281629 18.3519 0.460348 17.9619C0.313343 18.1034 0.665406 16.5266 0.684957 16.3516C0.684667 16.305 0.580191 16.4606 0.583394 16.4102C0.601518 16.0909 0.926806 15.2992 1.04433 14.9268C1.17188 14.5112 1.10297 14.5443 1.10879 14.5215C1.17068 14.3378 1.16357 14.4974 1.19961 14.3848C1.24508 14.2111 1.67497 13.0658 1.69863 13.0078C1.70135 12.9921 1.56385 13.1489 1.65175 12.8975C1.66982 12.8544 1.72367 12.9086 2.01504 12.1709C2.37722 11.287 1.64599 12.7333 1.73281 12.3389C2.09742 11.8249 1.98432 11.7965 2.06484 11.6484C2.09395 11.5967 2.375 11.2539 2.59218 10.8428C2.447 11.1446 2.30849 11.4511 2.17812 11.7598C2.33528 11.47 2.61063 10.8948 2.76308 10.6689C2.83654 10.5591 2.85751 10.6942 2.99746 10.4463C3.02809 10.394 2.96345 10.0789 2.67617 10.7803C2.58317 10.7964 2.79874 10.5058 2.86464 10.3525C2.87343 10.3279 2.81841 10.1805 2.99257 10.0381C3.04058 10.0074 3.0398 10.6526 3.58828 9.31738C3.60669 9.2744 3.48143 9.38244 3.49843 9.33984C3.5104 9.30907 3.72705 9.01911 3.74648 8.98145C3.76422 8.94353 3.62491 9.06072 3.64394 9.01562C3.74656 8.7781 4.09654 8.62104 3.7875 9.03711C3.90559 8.9082 4.02505 8.78058 4.14589 8.65527C3.91885 8.71864 4.27174 8.4102 4.41445 8.21875C5.34461 6.99963 4.63334 7.74341 4.75918 7.50586C4.97307 7.12742 4.95251 7.535 5.30996 7.01074C5.34606 6.96674 4.74412 7.45191 5.80312 6.39551C5.65369 6.55776 5.50676 6.72292 5.36269 6.88965C5.55109 6.88808 5.89665 6.29922 5.93398 6.26172C6.33418 5.83204 6.08172 6.14241 6.66445 5.48926C6.71721 5.43125 6.86715 5.34253 6.97988 5.21875C7.44732 4.70351 6.27253 5.79775 6.20937 5.79883C6.16397 5.7812 7.44954 4.62975 7.52187 4.60938C7.75223 4.49175 6.94058 5.13546 7.14004 5.06445C7.19463 5.00826 9.09989 3.45792 9.55605 3.24609C10.0548 2.96547 10.3765 3.0067 10.2689 2.81836C10.5146 2.91866 10.563 2.72473 10.6273 2.68945C11.406 2.28106 11.41 2.28641 12.0805 1.94238C12.2293 1.86799 12.3847 1.86862 12.434 1.83496C12.4627 1.81511 12.3763 1.77769 12.5219 1.69043C12.7225 1.55704 14.0595 1.1211 14.1732 1.13477C14.2807 1.13594 13.6226 1.34633 13.7611 1.36426C14.2325 1.19853 14.6875 1.03383 15.1732 0.901367C15.3755 0.847018 15.2848 0.918639 15.3715 0.895508C15.4078 0.882721 16.0949 0.667449 16.0668 0.660156C15.9768 0.613143 13.8433 1.28684 14.3842 1.04395C14.4889 0.993099 14.9027 0.969847 14.8061 0.87207C16.7373 0.31236 18.7474 0.0385348 20.7455 0.0517578ZM22.3773 41.3984C22.372 41.3815 21.9596 41.4057 21.9418 41.4082C21.7989 41.4367 22.3826 41.4574 22.3773 41.3984ZM26.7113 40.6641C26.8295 40.5584 25.7866 40.8181 26.0756 40.8047C26.141 40.8034 26.5816 40.7023 26.7113 40.6641ZM14.0648 40.3984C14.1795 40.4373 14.6832 40.6242 14.6977 40.6035C14.7173 40.5735 14.142 40.3614 14.0648 40.3984ZM0.384176 23.3936C0.275498 23.1905 0.453533 24.2897 0.565816 24.3672C0.54732 24.221 0.392752 23.4203 0.384176 23.3936ZM0.313863 22.0039C0.346519 22.3563 0.593737 22.7021 0.524801 22.2744C0.517196 22.2296 0.341557 21.9644 0.313863 22.0039ZM0.428121 19.0039C0.318419 19.2841 0.301731 19.7828 0.418355 19.665C0.443035 19.1208 0.310118 19.7249 0.428121 19.0039ZM40.2484 17.0957C40.3915 17.4193 40.5436 18.9734 40.5482 19.0537C40.5624 19.1158 40.6437 18.6342 40.6332 19.3809L40.6566 19.2754C40.7457 18.7386 40.4812 18.106 40.473 18.0322C40.4668 17.9526 40.5613 18.0647 40.5619 18.0479C40.5654 18.0059 40.4222 17.1578 40.4047 17.1191C40.3949 17.0917 40.3148 17.2617 40.2484 17.0957ZM40.2836 18.0938C40.3203 18.3604 40.3307 18.7804 40.4066 18.9199C40.384 18.6534 40.3675 18.23 40.2836 18.0938ZM39.8187 16.0654C39.9045 16.7223 40.0561 16.6422 40.0893 16.8301C40.1312 17.0924 39.9855 17.0982 39.932 17.0547C40.063 17.2497 40.2152 18.1597 40.2807 18.6914C40.2717 18.2194 40.2218 17.455 40.1527 16.9932C40.1341 16.8615 40.0707 16.743 40.0512 16.6309C40.0199 16.4518 40.1084 16.5974 40.1078 16.585C40.0866 16.3444 39.8967 16.0745 39.9945 16.5713C39.9381 16.4014 39.8796 16.2326 39.8187 16.0654ZM0.786519 17.25C0.78582 16.9508 0.60972 17.6157 0.634176 17.7461C0.644408 17.8094 0.785375 17.3803 0.786519 17.25ZM39.8852 17.042C39.9072 16.7121 39.6481 16.8791 39.6439 16.9199C39.6334 17.0866 39.8414 17.6174 39.8852 17.7285C39.7037 16.906 39.8711 17.1974 39.8852 17.042ZM39.6381 17.2598C39.7115 17.0036 39.4173 16.846 39.5375 17.1924C39.5436 17.209 39.6332 17.2697 39.6381 17.2598ZM40.0424 15.6904C40.0543 15.9887 40.2585 16.557 40.2484 16.4023C40.2461 16.3322 40.1088 15.7304 40.0424 15.6904ZM39.3812 15.6494C39.2742 15.3746 39.4155 16.1114 39.5228 16.2334C39.4859 16.0921 39.413 15.7282 39.3812 15.6494ZM39.5346 14.9795C39.5501 15.078 39.8547 16.0993 39.7904 15.6719C39.7874 15.6327 39.5567 14.9263 39.5346 14.9795ZM39.182 13.2246C38.7901 12.9225 39.6198 14.3276 39.4613 14.5879C38.9172 12.9413 39.6243 15.7407 39.5434 14.4922C39.7403 15.4825 39.6821 14.7945 39.7689 14.9297C39.8621 15.0749 39.9713 15.6368 40.0385 15.5898C39.9418 15.2521 39.8368 14.9192 39.7221 14.5869C39.666 14.9635 39.4953 14.2725 39.5394 13.999C39.4731 13.9175 39.4059 13.8354 39.3383 13.7549C39.4761 13.5262 39.1415 13.587 39.182 13.2246ZM38.6371 13.2617C38.714 13.4177 38.8462 13.8708 38.9125 13.918C38.867 13.7648 38.7111 13.3169 38.6371 13.2617ZM1.72402 13.5811C1.79543 13.4409 1.9693 12.9472 1.85 13.1533C1.8308 13.1849 1.68833 13.5813 1.72402 13.5811ZM38.9066 13.5322C38.8692 13.2769 38.681 13.2902 38.8393 13.5361C38.8463 13.5454 38.9069 13.5419 38.9066 13.5322ZM39.0131 13.0361C38.9318 12.6871 38.8104 12.9221 38.9613 13.1396C38.9705 13.1508 39.0167 13.0525 39.0131 13.0361ZM38.2973 10.7363C38.4263 10.9759 39.2865 12.7166 39.3187 12.8057C39.3336 12.8274 39.391 12.8227 39.3881 12.8105C39.3827 12.7044 38.4774 10.9519 38.2973 10.7363ZM38.392 12.2178C38.3827 12.0378 38.1422 11.9486 38.2572 12.1885C38.2915 12.2593 38.3923 12.237 38.392 12.2178ZM37.4955 10.5908C37.3063 10.1369 37.3239 10.4888 37.4926 10.7051C37.5003 10.7093 37.5001 10.6026 37.4955 10.5908ZM37.6596 9.34082C37.8069 9.75802 38.6854 10.7463 38.2055 10.04C38.1955 10.0263 38.2228 10.2022 38.0541 9.91797C38.0402 9.89425 38.0804 9.80519 37.8266 9.47656C37.7748 9.40997 37.6579 9.33185 37.6596 9.34082ZM37.7719 9.79785C37.3841 9.25255 38.0268 10.3644 37.9916 10.1885C37.9899 10.1762 37.8134 9.85527 37.7719 9.79785ZM37.2338 9.56152C37.3323 9.68992 37.542 10.0805 37.5932 10.0781C37.5018 9.94579 37.2867 9.5564 37.2338 9.56152ZM3.6039 9.66699C3.55894 9.65185 3.31939 10.0727 3.37832 10.0342C3.39799 10.019 3.63771 9.68018 3.6039 9.66699ZM37.476 9.18359C37.5283 9.27142 38.0775 10.1332 37.9027 9.79785C37.8896 9.76586 37.5166 9.17274 37.476 9.18359ZM36.0443 7.22852C36.049 7.28344 36.5887 7.94891 36.6156 7.97949C36.9248 8.25572 36.1075 7.26051 36.0443 7.22852ZM8.88125 4.13184C8.73222 4.24896 8.32783 4.53197 8.28554 4.61816C8.46181 4.46693 8.97705 4.16049 8.88125 4.13184ZM10.8969 2.86523C10.5391 2.97916 10.6297 3.09179 10.8617 2.95801C10.9426 2.91168 10.9086 2.86303 10.8969 2.86523ZM11.3744 2.61621C11.2589 2.68521 11.0086 2.77705 10.9887 2.79102C10.8112 2.91851 11.1864 2.82641 11.3744 2.61621ZM12.0394 2.15234C11.8998 2.21163 11.8406 2.35587 11.8568 2.35547C12.0257 2.32507 12.1937 2.12505 12.0394 2.15234ZM16.0453 0.764648C16.0501 0.691813 15.3169 0.921268 15.6234 0.898438C15.7014 0.891177 16.0424 0.787605 16.0453 0.764648ZM25.6127 0.811523C25.4381 0.750886 24.6685 0.601114 24.9584 0.704102C25.0055 0.718079 25.5905 0.846347 25.6127 0.811523ZM23.3383 0.25C22.8215 0.254529 24.9463 0.618116 24.4027 0.439453C24.3642 0.419841 23.3906 0.243881 23.3383 0.25Z" fill="#1A2A4F"/>
<path d="M27.9721 40.3789C27.8195 40.5098 26.9999 40.685 27.1322 40.6123C27.1653 40.6009 28.0225 40.3259 27.9721 40.3789Z" fill="#1A2A4F"/>
<path d="M40.5551 25.75C40.6007 25.359 41.167 24.2087 40.8227 25.5L40.8236 25.499C40.7272 25.8325 40.7293 25.6128 40.724 25.6279C40.4678 26.3231 40.6211 26.1633 40.6049 26.2783C40.5634 26.5253 40.4445 26.4478 40.3744 26.8633C40.4972 26.1811 40.3476 26.7864 40.2934 26.793C40.0812 26.8081 40.6497 25.9458 40.6859 25.5957C40.6922 25.5485 40.5424 25.873 40.5551 25.75Z" fill="#1A2A4F"/>
<path d="M40.6527 26.3135C40.7552 26.2415 40.5754 26.7847 40.5355 26.8584C40.5218 26.8857 40.5219 26.4096 40.6527 26.3135Z" fill="#1A2A4F"/>
<path d="M41.5316 25.1592C41.5313 25.173 41.4588 25.4718 41.4535 25.4814C41.3342 25.7321 41.5481 24.8407 41.5316 25.1592Z" fill="#1A2A4F"/>
<path d="M40.5072 24.7734C40.5997 24.5161 40.4859 25.1349 40.4232 25.3076C40.3959 25.3009 40.501 24.7957 40.5072 24.7734Z" fill="#1A2A4F"/>
<path d="M38.9584 22.1982C38.9771 22.4334 38.8796 22.941 38.8715 23.1533C38.8717 23.1772 39.0636 23.0692 38.9027 23.3682C38.7986 23.5697 38.8746 22.4019 38.9584 22.1982Z" fill="#1A2A4F"/>
<path d="M39.6684 22.5957C39.7238 22.3837 39.6983 22.8646 39.6596 23.0059C39.6263 23.0159 39.6611 22.6285 39.6684 22.5957Z" fill="#1A2A4F"/>
<path d="M40.5131 21.4912C40.5676 21.5161 40.4728 22.4629 40.4506 22.627C40.4208 22.5293 40.4628 21.4612 40.5131 21.4912Z" fill="#1A2A4F"/>
<path d="M40.3559 20.709C40.3638 20.68 40.5279 20.7552 40.5023 20.9629C40.4087 21.6137 40.3547 21.1304 40.3988 22.498C40.3437 21.9216 40.3277 22.4599 40.2953 22.3457C40.2708 22.254 40.3217 21.9255 40.2416 22.1133C40.3416 21.8631 40.3511 20.7603 40.3559 20.709Z" fill="#1A2A4F"/>
<path d="M39.7914 21.123C39.8069 21.1104 39.8122 21.5743 39.7982 21.627C39.7333 21.9031 39.7183 21.199 39.7914 21.123Z" fill="#1A2A4F"/>
<path d="M39.931 21.1719C39.9649 21.1593 39.961 21.5512 39.9535 21.584C39.9093 21.8001 39.9096 21.3163 39.931 21.1719Z" fill="#1A2A4F"/>
<path d="M0.488668 16.9629C0.504452 16.9219 0.319872 18.549 0.317769 18.6143C0.306139 18.6533 0.17755 18.6237 0.160543 18.6641C0.149644 18.6872 0.144624 19.3488 0.130269 19.4346C0.125323 19.4591 0.120468 19.4784 0.116598 19.4922C0.161129 19.396 0.128313 19.9914 0.0853476 19.9717C0.0673846 19.9566 0.0969649 19.5498 0.101949 19.5342C0.103568 19.5281 0.105311 19.5226 0.106832 19.5176C0.043557 19.5932 0.165965 18.2052 0.068746 18.4961C0.0738717 18.0854 0.168481 18.5649 0.164449 18.2559C0.164193 18.1516 0.0220658 18.0312 0.179098 17.501L0.180074 17.499C0.226884 17.3442 0.233902 17.5295 0.251363 17.5029C0.258799 17.488 0.41263 17.0151 0.357809 17.4229C0.281272 18.0476 0.237051 17.4654 0.18691 17.7979C0.178587 17.8398 0.182573 18.4811 0.206441 18.4463C0.208735 18.4411 0.212686 18.2503 0.224019 18.2197C0.266187 18.1046 0.306684 18.1678 0.310934 18.1514C0.317594 18.0948 0.386979 17.094 0.488668 16.9629Z" fill="#1A2A4F"/>
<path d="M40.9525 17.3086C41.0481 17.4578 41.144 18.6692 41.0541 18.3555C41.0492 18.3007 40.8341 17.0919 40.9525 17.3086Z" fill="#1A2A4F"/>
<path d="M40.7318 16.9678C40.7999 17.0686 41.0011 18.2896 40.9877 18.3418C40.9653 18.7162 40.7545 17.0654 40.7318 16.9678Z" fill="#1A2A4F"/>
<path d="M40.7465 17.7803C40.7199 17.3847 40.468 16.5483 40.6674 16.875C40.7672 17.0397 40.7084 17.1708 40.7113 17.1934C40.7421 17.4152 40.8255 17.8717 40.7465 17.7803Z" fill="#1A2A4F"/>
<path d="M40.7992 16.9775C40.82 16.9059 40.9489 17.0465 40.9242 17.1992C40.9132 17.2644 40.8345 17.1594 40.7992 16.9775Z" fill="#1A2A4F"/>
<path d="M1.08535 13.9219C1.17431 13.7198 1.33156 13.5204 1.30703 13.6377C1.29927 13.668 1.10429 14.0689 1.0414 14.2832C0.8561 14.916 0.979716 14.7784 0.969137 14.8154C0.957829 14.8572 0.794735 15.2388 0.740621 15.459C0.606433 16.0095 0.586262 16.2734 0.388082 17.0225C0.423785 16.5737 0.274093 16.7956 0.406637 16.3096C0.411155 16.3538 0.41551 16.3982 0.420309 16.4424C0.533417 15.7335 0.806516 14.9515 1.06582 14.1719C1.13225 13.9739 0.975069 14.174 1.08535 13.9219Z" fill="#1A2A4F"/>
<path d="M39.4926 13.0059C39.622 13.1127 40.2421 14.9965 40.3012 15.3076C40.1279 15.0611 40.1361 14.8233 40.0121 14.4609C39.9784 14.3638 39.9482 14.4021 39.9447 14.3916C39.8863 14.2242 39.9746 14.3346 39.9398 14.2305C39.9287 14.1572 39.3513 12.841 39.4926 13.0059Z" fill="#1A2A4F"/>
<path d="M39.5033 12.8047C39.6996 12.9538 39.9858 13.9042 39.6859 13.2959C39.6576 13.238 39.6012 12.9669 39.5033 12.8047Z" fill="#1A2A4F"/>
<path d="M38.9896 11.1309C39.0445 11.0673 39.3838 11.8062 39.4818 11.9922C39.3528 11.8529 39.1389 11.3847 38.9896 11.1309Z" fill="#1A2A4F"/>
<path d="M4.98379 7.08301C5.21672 6.91917 4.46242 7.71718 4.43691 7.79004C4.33 7.78914 4.92007 7.12171 4.98379 7.08301Z" fill="#1A2A4F"/>
<path d="M35.9203 6.73145C35.7975 6.53963 36.2948 7.01147 36.39 7.19727C36.4042 7.31433 35.942 6.75718 35.9203 6.73145Z" fill="#1A2A4F"/>
<path d="M8.17128 4.11035C10.5796 2.34706 10.1149 2.84303 8.05507 4.25C8.01934 4.21014 8.02431 4.22787 8.17128 4.11035Z" fill="#1A2A4F"/>
<path d="M26.7894 1.00586C26.7065 0.972937 26.8133 0.766751 27.142 0.958984C27.1843 0.983824 26.9514 0.974505 26.9838 0.999023C27.0063 1.01013 27.7538 1.28762 27.7924 1.2998C27.8315 1.30715 27.8125 1.22407 27.8529 1.22949C27.9008 1.23605 28.3432 1.46416 28.5814 1.56152C29.0315 1.74364 29.1027 1.71489 29.14 1.72949C29.2476 1.77538 29.4106 1.89243 29.6244 1.99121C30.7113 2.47238 32.3062 3.37485 32.9848 4.04004C32.3356 3.51106 31.6293 3.12891 30.8949 2.74219C31.1714 2.7434 29.7696 2.25666 30.5971 2.52637C30.2621 2.30084 27.0885 1.04892 26.7894 1.00586Z" fill="#1A2A4F"/>
<path d="M11.4086 2.0918C11.3355 2.18807 11.0291 2.32968 10.8266 2.43652C10.8444 2.38302 11.2644 2.17382 11.4086 2.0918Z" fill="#1A2A4F"/>
<path d="M12.8197 1.46484C12.9039 1.51766 12.2292 1.73858 12.0131 1.85547C11.924 1.80285 12.5955 1.56573 12.8197 1.46484Z" fill="#1A2A4F"/>
<path d="M16.8578 0.170898C16.7399 0.247622 16.2224 0.332768 15.9838 0.390625C16.1227 0.291168 16.5743 0.223853 16.8578 0.170898Z" fill="#1A2A4F"/>
<path d="M19.8842 0C19.8594 0.045136 19.39 0.0320776 19.2221 0.0537109C19.2458 0.00563389 19.7152 0.0131993 19.8842 0Z" fill="#1A2A4F"/>
</svg>
