<svg width="48" height="48" viewBox="0 0 48 48" fill="none" xmlns="http://www.w3.org/2000/svg">
<g clip-path="url(#clip0_33_2519)">
<path d="M39.6125 8.78564C40.1647 8.78576 40.6125 9.23343 40.6125 9.78564V15.0483C43.3852 16.8677 45.2169 20.0027 45.217 23.5669C45.217 27.115 43.4012 30.237 40.6496 32.0601V43.2144L33.0305 40.0415L25.4123 43.2144V36.9644H4.04218C3.48989 36.9644 3.04218 36.5166 3.04218 35.9644V9.78564C3.04218 9.23336 3.48989 8.78564 4.04218 8.78564H39.6125Z" fill="#C3DDEB"/>
<path d="M41.2237 19.8273C41.2648 19.8782 41.3781 20.1128 41.432 20.2111C41.3069 20.1342 41.0801 19.6437 41.2237 19.8273ZM43.5421 32.7351C43.5222 32.6035 43.5023 32.472 43.4824 32.3405C43.4695 32.7142 43.4841 33.2167 43.4652 33.5635C43.462 33.6203 43.4044 33.4731 43.4018 33.6073C43.3993 33.7416 43.478 33.7157 43.4864 33.911C43.4956 34.13 43.4408 35.133 43.4421 35.4804C43.4474 36.7795 43.4924 38.0898 43.4597 39.3916C43.4015 38.0477 43.3422 39.4019 43.3674 39.7783C43.3733 39.8617 43.5196 39.8484 43.4828 41.1967C43.4594 42.0536 43.2501 41.2622 43.355 42.692C43.4835 41.7268 43.4913 42.4421 43.4945 43.2144C43.5813 45.4702 41.6718 46.6278 39.5559 45.8407C39.4565 45.7998 39.3562 45.7584 39.2587 45.7185C39.1212 45.6621 38.0219 45.1805 37.5301 44.9827C37.3618 44.9151 37.0772 44.8796 36.8543 44.789C36.701 44.7266 36.6015 44.6397 36.3737 44.5472C35.3121 44.1153 34.2704 43.6851 33.2161 43.2307C33.9111 43.3067 32.7622 42.9507 32.7162 42.9213C32.4843 42.7668 33.6321 43.2283 33.1933 43.0093C32.7945 42.8474 32.3957 42.6855 31.9968 42.5236L34.0642 42.5235C33.8313 42.623 33.5984 42.7224 33.3654 42.8219C33.8927 42.6285 32.7435 43.2607 32.4971 43.2934C32.6616 43.4135 29.5624 44.3515 29.1321 44.5938C29.0425 44.6444 29.6928 44.4667 28.2459 45.0267C28.0891 45.0873 28.1276 45.0143 28.0481 45.0527C28.0006 45.0757 27.77 45.3526 27.4205 45.3983C27.2943 45.4148 27.9682 45.0177 26.4455 45.6952C24.5098 46.5902 22.8069 45.3454 22.7249 43.2144C22.7244 43.1945 22.7239 43.1742 22.7234 43.1536C22.7173 43.1787 22.7115 43.1989 22.7059 43.2144C22.7885 45.3604 24.5034 46.614 26.4528 45.7127C26.5115 45.7096 26.5133 45.7259 26.4712 45.7568C24.4874 46.6741 22.7421 45.3983 22.6581 43.2144C22.5783 42.8868 22.6384 40.6384 22.674 40.1602C22.6511 40.2747 22.6283 40.3892 22.6055 40.5037C22.6671 39.9371 22.6093 39.8348 22.6124 39.7072C22.6251 39.1928 22.6833 38.4856 22.678 38.0064C22.6725 37.5006 22.5859 37.4495 22.5992 36.9644L25.4123 39.7774C25.3597 39.776 25.302 39.7734 25.238 39.7693C25.2961 39.7781 25.3542 39.7868 25.4123 39.7955L22.5811 36.9644C22.5665 37.0614 22.552 37.1584 22.5374 37.2554C22.5386 37.1584 22.5398 37.0614 22.541 36.9644L25.4123 39.8357C25.0578 39.8312 24.7034 39.8268 24.3489 39.8224C25.3944 39.6825 24.1234 39.8158 24.0397 39.8188C23.9061 39.8239 24.098 39.7666 23.8746 39.7737C23.8515 39.7749 23.8849 39.8288 23.5407 39.8349C22.8213 39.8474 22.935 39.7796 22.633 39.7803C22.6053 39.7807 22.7022 39.8293 22.1806 39.8407C20.5227 39.8773 22.1889 39.8035 22.2525 39.7968C22.336 39.7879 21.7675 39.5849 23.1758 39.6569C22.7029 39.634 22.6554 39.5441 22.6021 39.5419C22.555 39.5401 21.7358 39.5527 21.6906 39.5558C21.2878 39.5863 21.6422 39.6477 21.5637 39.6587C21.4995 39.6676 20.5125 39.5876 20.2812 39.7723C19.8089 39.6019 20.5529 39.6175 21.3448 39.5913C21.4604 39.5564 20.5907 39.5224 20.545 39.5225C19.4232 39.5228 20.0443 39.6629 19.799 39.7525C19.6702 39.7993 19.2131 39.7038 19.6351 39.8294C18.6169 39.8427 19.2344 39.7698 19.1686 39.7591C19.0694 39.7432 18.7131 39.7793 18.6685 39.7745C18.6031 39.7674 18.8306 39.7239 18.5725 39.7085C18.5296 39.7063 18.1138 39.7812 18.65 39.8169C17.9336 39.8063 17.9926 39.8701 17.7497 39.7415C17.2563 39.9848 17.3916 39.5977 17.1973 39.584C16.6807 39.5481 16.8306 39.7391 16.8033 39.7485C16.6153 39.8082 15.1851 39.7425 14.8309 39.7701C14.9706 39.6325 15.9647 39.7686 16.187 39.7419C16.9281 39.653 15.1425 39.6731 15.6807 39.5002C15.4551 39.5476 15.2294 39.5951 15.0038 39.6426C14.5901 39.5314 15.177 39.483 14.0636 39.5236C13.8815 39.6195 14.8508 39.5084 14.6563 39.584C14.5417 39.6284 13.8961 39.6379 13.8834 39.6613C13.8707 39.6894 14.4542 39.6561 14.3622 39.6994C14.1614 39.7928 12.0332 39.7039 13.6533 39.6529C13.2014 39.6545 12.9686 39.4686 12.5767 39.5265C12.3233 39.5641 13.7489 39.8208 11.6101 39.7737C11.5646 39.686 12.4652 39.7478 12.4886 39.7411C12.5214 39.7314 12.3585 39.5334 12.3303 39.5236C12.2305 39.4914 10.0464 39.5975 9.58494 39.498C9.76762 39.6124 7.93455 39.5184 7.73488 39.5533C7.68172 39.5629 7.88039 39.633 7.82357 39.6404C7.46911 39.6846 6.51033 39.5594 6.06556 39.5562C5.56781 39.5525 5.63086 39.6131 5.60304 39.613C5.38402 39.6096 5.55901 39.5685 5.42511 39.5686C5.27555 39.5688 4.4766 39.5642 4.04218 39.5653C3.49588 39.5654 3.11279 39.4433 3.05022 39.4301C2.9754 39.4069 3.76244 39.7195 2.68778 39.3967C2.59911 39.3584 2.58073 39.3477 2.23314 39.1405C1.93374 38.91 1.07812 38.546 0.536871 36.9658C0.398142 36.4899 0.388096 36.1587 0.380125 35.9644C0.369143 35.8626 0.357177 35.8848 0.344101 35.9644C0.308079 36.3595 0.440729 37.1825 0.709054 37.7015C0.965936 38.2198 1.18571 38.4955 0.837225 38.0673C0.256063 37.0364 0.286139 36.3505 0.26081 35.9644C0.249785 35.829 0.214306 35.7896 0.219622 35.6845C0.223088 35.6193 0.326119 35.1342 0.319601 34.6073C0.336326 34.9855 0.35305 35.3636 0.369774 35.7417C0.38784 35.37 0.365479 34.6481 0.385888 34.3418C0.395823 34.1924 0.480463 34.3156 0.478177 33.991C0.477231 33.9221 0.271021 33.6488 0.363548 34.499C0.289917 34.567 0.337865 34.1624 0.317038 33.9747C0.313792 33.9463 0.190783 33.8344 0.267231 33.5947C0.28604 33.5372 0.644868 34.1637 0.385156 32.5479C0.376785 32.4959 0.331847 32.6768 0.322531 32.6259C0.316222 32.5911 0.3344 32.1787 0.328025 32.1331C0.321184 32.0865 0.272124 32.2857 0.26247 32.2302C0.212726 31.9457 0.407306 31.5723 0.39248 32.1589C0.416529 31.9628 0.440578 31.7668 0.464626 31.5707C0.317978 31.7805 0.423365 31.2627 0.418848 30.9914C0.389985 29.2526 0.294606 30.417 0.245258 30.118C0.166024 29.6372 0.416983 30.0044 0.341575 29.2906C0.334525 29.2246 0.227996 30.0874 0.288106 28.4027C0.292257 28.6513 0.296407 28.9 0.300558 29.1486C0.442399 29.0053 0.290828 28.2507 0.288838 28.1927C0.269363 27.5312 0.320496 27.9784 0.247455 26.996C0.240897 26.9083 0.275903 26.7172 0.258442 26.5296C0.186504 25.7519 0.214789 27.5557 0.157364 27.6051C0.129226 27.6284 0.136312 25.6885 0.149673 25.622C0.208899 25.3392 0.175759 26.5013 0.249286 26.2798C0.275393 26.199 0.221773 23.4341 0.250385 22.8794C0.28368 22.2393 0.475991 21.9512 0.259907 21.9471C0.472012 21.7665 0.327296 21.6069 0.328757 21.525C0.348392 20.5352 0.350532 20.5333 0.330222 19.6845C0.325807 19.497 0.390163 19.3388 0.379296 19.2725C0.372733 19.2339 0.303862 19.306 0.282613 19.117C0.253543 18.8544 0.324379 17.2765 0.36245 17.1592C0.400521 17.0419 0.37896 17.8256 0.441554 17.6851C0.447882 17.1179 0.432394 16.5739 0.438991 16.0029C0.441919 15.7657 0.485729 15.8876 0.4866 15.7851C0.487138 15.7415 0.448559 14.9225 0.432399 14.9572C0.394821 15.0385 0.42008 17.5675 0.343406 16.9015C0.328591 16.7731 0.429548 16.3191 0.306783 16.3913C0.333908 14.1894 0.361032 11.9875 0.388156 9.78564C0.388837 9.57836 0.407229 9.36858 0.443912 9.16113C0.412109 9.36828 0.398013 9.57803 0.401437 9.78564C0.475039 11.0398 0.400365 12.4321 0.408594 13.7318C0.409657 13.9182 0.397816 14.5482 0.459866 14.4716C0.475929 13.3154 0.4436 11.8779 0.484036 10.7676C0.485374 10.732 0.541122 10.8625 0.549957 10.7294C0.561757 10.5514 0.519064 10.0859 0.502352 9.78564C0.495045 9.36779 0.570093 9.03743 0.610312 8.90669C0.620485 8.85649 0.516626 9.44277 0.564043 9.78564C0.584812 9.84968 0.60715 9.88667 0.625399 9.8319C0.630706 9.81597 0.635257 9.80056 0.639109 9.78564C0.781767 8.73175 0.709516 8.28996 1.35364 7.45325C1.55753 7.18949 2.58935 6.23075 4.04218 6.27249C4.57937 6.30044 5.20394 6.32262 5.43309 6.27621C5.85888 6.18978 4.2482 6.22603 4.36717 6.15536C5.45698 6.08434 6.56045 6.16018 7.59019 6.15133C7.60832 6.15111 7.4508 6.09572 7.68056 6.08797C8.08039 6.07449 8.18534 6.15305 8.37994 6.16561C8.58981 6.17899 9.33202 6.16773 9.43126 6.19638C9.44391 6.20013 9.29354 6.27805 9.27073 6.28024C8.94744 6.31236 8.83258 6.21122 8.80316 6.20993C8.69264 6.20609 8.58405 6.24483 8.48322 6.24252C8.31721 6.23867 8.22579 6.20284 8.00667 6.19967C7.85548 6.19736 8.00138 6.26618 7.85568 6.26303C7.80219 6.2616 7.22525 6.10445 7.17145 6.26486C7.15476 6.31544 11.8728 6.38039 12.3444 6.33994C11.9399 6.32065 11.5354 6.30136 11.1309 6.28207C11.9523 6.32902 12.9391 6.20085 13.009 6.39048C16.0552 6.40598 19.1014 6.42148 22.1476 6.43699C22.6915 6.45314 22.3933 6.57499 23.2882 6.53953C23.0569 6.50071 22.8257 6.46189 22.5944 6.42307C23.0531 6.4503 25.0855 6.50351 25.4144 6.47837C25.457 6.47508 25.5161 6.36479 26.024 6.35532C26.4746 6.34695 26.547 6.42958 26.7879 6.44541C26.9902 6.45847 27.2174 6.43682 27.2774 6.44138C27.3235 6.44503 27.3417 6.49556 27.4525 6.50437C27.8024 6.53161 27.5188 6.38935 27.8662 6.55271C27.7816 6.55894 27.6971 6.56516 27.6125 6.57139C28.0348 6.59504 28.6117 6.6692 27.9897 6.7058C27.8827 6.71211 27.9746 6.66323 27.8948 6.66331C24.7713 6.6724 27.2655 6.76742 28.3601 6.69151C28.6413 6.76394 30.2168 6.71972 30.2691 6.73399C30.342 6.75467 30.0723 6.81256 30.4257 6.86254C30.5001 6.87312 32.6066 6.83256 31.8481 6.92883C31.6916 6.94868 30.6816 6.92782 30.4381 6.93066C31.011 7.08418 32.3538 6.86423 32.5048 6.86986C33.1139 6.89379 31.3346 7.00291 32.7069 7.02075C33.7621 7.03444 32.7714 6.93193 33.1773 6.88818C33.4053 6.86362 34.5995 6.97655 34.567 6.83031C34.9769 6.8147 34.737 6.89213 34.7876 6.8977C34.8371 6.90259 35.643 6.85882 35.9046 6.88964C35.9364 6.89347 35.8365 6.96948 35.8693 6.9757C35.9331 6.98635 36.7103 6.97116 36.7415 6.96472C36.7614 6.96024 36.5761 6.89369 36.6523 6.87755C36.741 6.85895 37.489 6.87461 37.5302 6.85558C37.5884 6.82682 36.6651 6.84577 36.819 6.77135C37.2446 6.79009 37.938 6.74043 38.2189 6.68053C38.1501 6.69765 37.7374 6.70011 37.5942 6.69408C37.6616 6.58509 38.5476 6.58657 38.2447 6.67284C38.4372 6.62651 38.3058 6.60193 38.4142 6.55821C38.4427 6.54713 38.7163 6.54485 38.769 6.52598C38.7758 6.52222 38.4935 6.4811 38.5501 6.45896C38.6524 6.41896 39.4819 6.42796 39.5498 6.43845C39.7408 6.46819 39.0645 6.50418 39.0081 6.55015C39.0001 6.55721 39.5753 6.6473 39.584 6.65526C39.6176 6.74062 38.9776 6.6791 39.0508 6.75597C39.209 6.7722 39.3673 6.78844 39.5256 6.80468C38.9151 6.88251 37.7855 6.84249 37.4943 6.93102C38.3995 6.90468 39.3468 6.90779 39.3449 7.10718C39.3442 7.19115 38.9537 7.24037 38.9688 7.26172C39.0264 7.33812 39.5685 7.25513 39.5885 7.25916C39.605 7.26382 39.6125 7.26835 39.6125 7.27276C39.6125 7.27276 39.6125 7.27277 39.6125 7.27277C39.6124 7.3175 38.8396 7.3497 38.801 7.37013C38.736 7.40641 39.0799 7.55573 39.0794 7.58876C39.0674 7.5954 38.517 7.63074 38.7027 7.68838C38.8906 7.7466 39.3723 7.74788 39.3892 7.75393C39.4812 7.78876 38.6386 7.82052 38.6135 7.84109C38.6002 7.85149 39.0527 7.91538 39.0659 7.93375C39.0772 7.95218 38.7333 7.9924 38.5978 8.05057C38.4967 8.0938 38.7909 8.12693 38.7392 8.13371C38.7022 8.1382 37.9061 8.13746 37.867 8.14506C37.8087 8.1563 37.9951 8.20795 37.968 8.22087C37.9295 8.23944 37.6724 8.2208 37.7059 8.23991C37.731 8.25416 38.7277 8.43222 38.7213 8.47979C38.7099 8.56091 37.6544 8.37425 38.6365 8.6944C38.6434 8.6965 38.8824 8.67375 38.8891 8.67572C39.0366 8.73462 38.2702 8.82523 39.2074 8.80939C37.4641 8.91169 38.9904 8.93134 38.7325 9.06795C38.6329 9.12045 37.9571 9.1421 37.954 9.14998C38.0196 9.21659 38.2349 9.16493 38.3081 9.19759C38.3484 9.21584 37.7438 9.28626 37.8799 9.33199C37.9502 9.35556 38.592 9.34717 38.6185 9.35177C38.8725 9.39513 38.5611 9.44183 38.6169 9.47262C38.6539 9.49327 39.0412 9.49491 39.0513 9.49863C39.0676 9.50636 38.5417 9.58979 38.4322 9.61911C38.3489 9.64168 38.6615 9.67703 38.6034 9.68687C38.2533 9.74569 37.5084 9.59566 38.2262 9.80589C38.27 9.81878 38.5415 9.81357 38.5495 9.81614C38.7173 9.87574 38.2174 9.88089 38.128 9.92967C37.9744 10.0137 38.6929 9.96687 38.0954 10.026C38.5437 10.081 38.7934 10.0787 39.3179 10.0633C37.8656 10.1061 37.353 10.3237 38.9654 10.3182C38.4525 10.3148 38.5094 10.4377 38.3564 10.4398C38.2613 10.441 37.5176 10.3189 37.8585 10.5929C37.9013 10.6271 38.3531 10.5836 38.2116 10.6537C37.1273 10.6358 38.1886 10.6983 38.1897 10.7075C38.1757 10.8689 35.5263 10.7367 35.0711 10.7551C34.5429 10.7765 34.0734 10.9037 33.9586 10.9038C33.5808 10.9039 33.8943 10.8393 33.8098 10.8156C33.7242 10.792 32.65 10.9158 32.5963 10.909C32.3882 10.8817 32.5994 10.8052 32.5778 10.8013C32.3201 10.7544 30.8774 10.8143 30.4735 10.7965C30.486 10.8462 31.2969 10.8501 30.7906 10.9298C30.201 11.0228 30.1673 10.804 30.1518 10.7943C27.4505 10.7964 24.7491 10.7985 22.0477 10.8006C22.0814 10.917 23.8475 10.8292 23.8877 10.8445C24.1236 10.9353 21.1401 10.9336 20.7741 10.8925C21.0521 10.9176 21.3302 10.9428 21.6082 10.9679C21.1335 11.1018 20.0828 10.9279 19.3961 10.987C19.1743 11.0061 19.6003 11.0578 19.5914 11.0613C19.3421 11.1133 18.9421 11.0732 19.2412 11.0034C18.6325 11.0703 18.7215 10.9965 18.2544 10.991C18.2303 10.9908 18.4309 11.0448 18.0613 11.0672C17.8882 11.0776 16.9647 11.0778 16.841 11.125C16.7902 11.1449 17.2587 11.3544 17.3165 11.1741C18.3209 11.262 17.6374 11.092 18.0276 11.0961C18.0875 11.097 17.9498 11.1977 18.9325 11.1503C18.7453 11.3318 17.6137 11.1961 17.4198 11.2181C17.0198 11.2632 18.6682 11.3569 18.9706 11.2155C18.8293 11.3571 19.0876 11.2346 19.455 11.2404C19.8573 11.2467 19.6819 11.2889 19.8996 11.2891C20.4948 11.2902 20.2481 11.1902 20.7387 11.2803C20.2604 11.0013 21.5788 11.2435 21.963 11.3166C21.3378 11.3307 20.7127 11.3449 20.0876 11.359C20.1234 11.3737 20.1591 11.3883 20.1948 11.403C20.0302 11.4009 19.8655 11.3988 19.7009 11.3968C19.7273 11.3827 19.7537 11.3687 19.78 11.3547C18.931 11.4459 18.7239 11.3433 18.6546 11.3422C17.7634 11.3303 16.734 11.3312 15.8329 11.3308C15.6978 11.3308 15.7905 11.4221 14.8052 11.3506C14.4909 11.3279 14.7877 11.2568 14.4314 11.2675C13.9857 11.4605 13.9942 11.3066 13.8616 11.3063C13.4814 11.3063 13.249 11.3541 13.2139 11.3547C12.7441 11.3621 12.0561 11.3541 11.5401 11.3612C11.5304 11.362 11.7989 11.4213 11.4637 11.4037C11.346 11.3975 10.2902 11.1443 9.36728 11.2268C9.60733 11.2439 9.84738 11.261 10.0874 11.2781C9.80514 11.2542 7.82726 11.318 8.3109 11.3858C8.60735 11.4272 9.33111 11.264 9.4105 11.4209C8.75231 11.374 5.11719 11.4442 4.83418 11.4078C4.79504 11.4026 5.03588 11.3516 4.9818 11.3451C4.94366 11.3406 4.24889 11.3502 4.04218 11.3372C4.0725 11.3359 4.09588 11.3335 4.11059 11.3311C4.14295 11.3255 4.10475 11.3228 4.04218 11.3161C4.12894 11.302 4.28908 11.2839 4.26895 11.2715C4.26141 11.2678 4.17 11.2633 4.04218 11.2603C4.26765 11.2622 4.59231 11.1798 4.81772 11.0401C5.04733 10.9057 5.18841 10.7404 5.22642 10.7301C5.10326 10.8781 4.8174 11.1066 4.57936 11.1969C4.34625 11.2876 4.21119 11.3254 4.50689 11.2801C4.59043 11.2746 4.92154 11.0585 4.98742 11.0005C5.40722 10.644 4.88144 11.3985 4.04218 11.3864C4.33687 11.3873 4.62508 11.3848 4.71967 11.385C4.51386 11.4014 4.28544 11.4106 4.04218 11.4152C4.84658 11.4563 5.69583 10.695 5.66695 9.78564C5.66143 10.3243 5.65892 10.8604 5.68003 11.3334C5.62692 11.8131 5.59879 10.6223 5.55479 11.165C5.46358 12.2909 5.62823 11.4646 5.63499 11.4995C5.68857 11.7792 5.40141 12.7317 5.61997 12.7322C5.58707 13.1403 5.55952 13.0082 5.58811 13.5842C5.60325 13.5085 5.61839 13.4327 5.63352 13.3569C5.76013 13.9964 5.44072 15.3499 5.41635 15.2485C5.35114 14.9757 5.45286 14.2708 5.45041 14.2106C5.44679 14.1215 5.225 13.8752 5.42331 12.9C5.27456 12.5007 5.32291 14.4456 5.22152 13.5606C5.23816 14.1583 5.13462 16.6172 5.19991 16.9711C5.20844 17.0134 5.35665 16.8166 5.28122 17.4241C5.24529 17.7125 5.24357 17.0171 5.2098 17.1491C5.10617 17.5551 5.17246 23.0776 5.17794 24.1266C5.1781 24.1947 5.13211 24.1697 5.13253 24.2367C5.13381 24.4422 5.20241 25.1912 5.18124 25.5591C5.26638 24.7969 5.273 26.2771 5.26364 26.6536C5.24937 27.2251 5.16842 27.1898 5.15121 27.4367C5.08485 28.3882 5.27704 29.8626 5.09737 30.6019C5.27569 30.5614 5.00994 31.8805 5.00838 32.4805C5.0071 32.9506 5.1251 33.6325 5.19698 32.9981C5.18877 33.8094 5.22204 34.6635 5.23287 35.4246C5.23469 35.5504 5.18196 35.3772 5.18673 35.5919C5.18754 35.6113 5.23922 35.6382 5.24459 35.8226C5.24606 35.8722 5.24737 35.9194 5.24851 35.9644C5.25155 35.5634 5.08298 35.326 4.99076 35.2143C4.88998 35.0988 4.83488 35.0744 4.81435 35.0717C4.77185 35.0698 4.83703 35.1663 4.70946 35.0832C4.55864 34.9927 4.43285 34.9559 4.3421 34.932C4.80443 35.059 5.11918 35.5463 5.0989 35.9644C5.09214 35.5477 5.08641 35.2088 5.08565 35.0682C5.03732 35.167 5.03386 35.5347 5.0436 35.9644C5.05679 35.6787 4.91078 35.3451 4.68931 35.1637C4.47052 34.9711 4.18549 34.9173 4.04218 34.9293C4.04421 34.9294 4.04623 34.9295 4.04823 34.9297C4.0551 34.9301 4.04994 34.94 4.04218 34.9518C4.05413 34.9703 4.07089 34.9943 4.06067 34.9943C4.06032 34.9943 4.05997 34.9943 4.05961 34.9943C4.05454 34.9943 4.04871 34.9944 4.04218 34.9945C4.28138 34.9976 5.41752 34.9736 5.17533 34.9007C5.11362 34.8823 4.63479 34.8809 4.04218 34.8861C4.09398 34.8865 4.1481 34.8909 4.20291 34.8998C4.01337 34.8649 4.16107 34.8098 4.1276 34.8032C4.1011 34.7991 4.07268 34.7962 4.04218 34.7948C4.46102 34.7733 5.30784 34.8345 5.62044 34.8432C5.69649 34.8453 5.69104 34.8001 5.70352 34.8C6.00614 34.8103 5.88198 34.9392 6.19241 34.8063C6.74043 34.9669 5.16538 34.8301 5.27636 34.9344C5.36162 35.0148 8.86007 34.9716 8.84963 34.8451C8.8617 34.8586 8.9098 34.8754 9.00848 34.8945C9.22728 34.937 10.201 34.9237 10.3691 34.9004C10.3974 34.8958 10.3861 34.773 10.4213 34.7718C10.5092 34.769 11.6994 34.8653 12.1439 34.7927C11.9039 34.7755 11.6638 34.7583 11.4238 34.7411C12.8734 34.74 12.6494 34.7034 12.1664 34.6667C12.1422 34.6664 12.1187 34.6617 12.0957 34.6612C11.7213 34.6341 11.2413 34.6079 11.2341 34.5982C11.2066 34.5613 13.6661 34.5407 13.193 34.6546C13.1271 34.6702 11.9891 34.6195 12.5526 34.7008C12.6511 34.715 13.382 34.6918 13.4203 34.7008C13.6772 34.7604 12.0813 34.8395 12.2764 34.9242C12.6637 34.8436 13.1608 34.886 13.605 34.8652C13.8071 34.8558 13.8568 34.7942 13.8817 34.7931C14.2544 34.777 14.0452 34.8416 14.1697 34.8399C14.2364 34.8388 14.9708 34.7014 14.832 34.8908C17.2518 34.7515 15.5014 34.7516 14.017 34.7623C14.486 34.6933 15.4056 34.7267 15.8182 34.7107C15.9663 34.7049 15.8785 34.6416 16.1286 34.629C16.6434 34.603 19.1009 34.6756 19.7412 34.6927C19.348 34.7151 19.463 34.7839 19.7664 34.7792C20.07 34.7744 19.815 34.6825 19.8742 34.6726C19.9377 34.6623 21.3616 34.7057 21.5985 34.6938C20.5265 34.7271 20.7684 34.7958 21.6782 34.803C21.5467 34.8227 21.4152 34.8425 21.2836 34.8623C21.8169 34.8345 22.9382 34.9392 23.2465 34.9081C23.2949 34.9031 23.1211 34.8453 23.1483 34.8425C23.4187 34.818 24.3387 34.8769 24.3815 34.8572C24.4178 34.8408 24.0254 34.7924 24.171 34.7685C24.2014 34.7635 24.5797 34.8415 24.9523 34.8224C25.0906 34.8153 25.0073 34.7607 25.0421 34.7575C25.2618 34.7377 25.2171 34.7855 25.4123 34.8035C26.6336 34.8533 27.6229 35.743 27.5731 36.9644C27.5673 37.0271 27.5646 37.1146 27.5682 37.2436C27.5791 37.6323 27.669 37.9218 27.6392 38.4589C27.7538 36.6953 27.706 38.1778 27.7407 38.9152C27.7462 39.0334 27.8453 38.9321 27.7971 39.6382C27.6179 38.1355 27.7024 40.0666 27.7004 40.4616C27.6998 40.4833 27.6344 40.4907 27.6334 40.6844C27.6334 40.7008 27.6776 40.6773 27.681 40.8573C27.7129 42.565 27.663 41.4731 27.6195 41.7975C27.6009 41.9356 27.6634 42.7661 27.6649 42.9897C27.665 43.041 27.6195 43.0177 27.6209 43.2144L24.5631 41.1755C24.5638 41.1752 24.5644 41.1749 24.5651 41.1747C24.8888 41.0363 25.1611 40.8699 25.3742 40.777C25.3991 40.7664 25.428 40.8328 25.8255 40.6418C25.9374 40.5881 26.0558 40.5109 25.8854 40.5593C25.5351 40.6592 25.0267 40.9028 24.5396 41.1189L27.6822 43.2144C27.6747 42.8881 27.6737 42.5733 27.6997 42.3229C27.7421 41.913 27.7584 42.6638 27.7645 43.2144L24.5079 41.0429C24.744 40.9415 24.9407 40.8589 24.9696 40.8467C25.003 40.8326 24.675 41.0081 25.025 40.8701C25.3238 40.752 25.8176 40.4109 26.27 40.2519C26.3045 40.2398 26.6983 40.1906 26.6844 40.2031C26.6714 40.2134 26.138 40.4605 26.2286 40.4561C26.2393 40.4554 26.5836 40.3112 26.6374 40.3136C26.7032 40.3163 26.9567 40.5064 27.0329 40.4821C27.2282 40.419 27.0814 40.4128 27.2052 40.3659C27.4707 40.2652 28.4103 39.9613 28.4034 39.8617C28.2512 39.919 28.0989 39.9763 27.9467 40.0337C28.778 39.6769 28.4066 39.788 28.5181 39.7223C28.6381 39.6515 28.6342 39.7432 28.9187 39.6332C28.9807 39.6093 30.1518 39.1027 30.117 39.0794C29.487 39.4019 29.689 39.2065 29.6582 39.2173C29.5415 39.2586 29.4179 39.3726 29.2644 39.4353C28.184 39.8755 29.2351 39.3391 28.9718 39.4234C28.8813 39.4526 28.7259 39.5706 28.6878 39.5838C28.564 39.6265 28.5372 39.5678 28.4588 39.6062C28.2756 39.6956 28.5299 39.6884 28.5169 39.699C28.371 39.8216 27.686 40.0299 28.0573 39.7678C27.7978 39.8372 27.8153 39.9605 27.6019 39.9971C27.1777 40.0704 27.7676 39.8513 27.9188 39.7711C28.461 39.4834 28.6462 39.4564 29.4387 39.1092C29.7241 38.9842 30.0423 38.7883 30.1745 38.7297C30.2578 38.6929 31.1298 38.5505 31.0305 38.2463C31.3367 38.1507 31.8661 38.1396 32.1867 38.0155C32.5968 37.864 33.4777 37.831 33.8742 38.0154C33.8887 38.022 33.9032 38.028 33.9174 38.0334C34.2062 38.1442 34.1588 38.0022 34.1871 38.0093C34.2306 38.0199 34.5722 38.1719 34.6951 38.2057C34.8391 38.2453 34.7874 38.1771 35.0112 38.2513C35.5679 38.4359 35.5095 38.5364 35.5621 38.5664C36.1733 38.9146 35.9541 38.6459 36.1021 38.6933C36.2397 38.7375 38.0807 39.5725 38.4893 39.6977C38.3207 39.6525 38.152 39.6072 37.9834 39.562C38.2417 39.7474 38.5898 39.7654 38.5456 39.8866C38.6836 39.7187 39.2203 40.0928 39.3997 40.1617C39.4704 40.1887 39.4785 40.1537 39.5665 40.1887C39.9105 40.3253 40.6698 40.672 40.862 40.7326C41.693 40.9948 39.6936 40.0228 39.5353 39.9484C39.8573 40.085 41.7019 40.8027 40.9007 40.3607C40.7768 40.2924 40.5111 40.2826 40.4368 40.2556C39.9341 40.0722 40.3542 40.1568 40.3186 40.1334C40.2578 40.0942 39.902 40.0334 39.82 39.9888C39.7926 39.9741 40.0058 39.981 39.5358 39.7836C39.7954 39.8124 41.0951 40.4182 41.2752 40.4746C41.3311 40.4921 41.0902 40.2625 41.7355 40.6066L37.8248 43.2144C37.8351 43.1062 37.8496 42.9752 37.8693 42.8167C37.8548 42.8309 37.8402 42.8451 37.8257 42.8593C37.8197 42.1766 37.8137 41.4938 37.8078 40.8111C37.8412 40.8853 37.9084 41.2686 37.8942 40.7858C37.8859 40.5079 37.8114 40.7135 37.8092 40.6882C37.7887 40.4387 37.8135 36.0239 37.8052 35.1683C37.8025 34.8773 37.7426 34.066 37.7415 34.0042C37.7355 33.6343 37.7745 32.3245 37.766 32.0632C37.766 32.0621 37.7659 32.0611 37.7659 32.0601C37.7981 31.2707 38.381 30.0653 39.0569 29.6561C39.1477 29.588 39.0231 29.5978 39.1101 29.5423C39.1912 29.4899 39.143 29.5962 39.168 29.582C39.4161 29.5053 40.6935 28.2061 40.9432 27.8514C40.8035 28.0723 39.9732 29.1121 39.9997 29.1119C40.0086 29.1139 40.28 28.9233 40.311 28.858C40.4301 28.816 40.5757 28.4287 40.7279 28.2901C40.7447 28.2732 40.758 28.4065 41.0013 28.1218C41.0854 28.0222 41.2265 27.7139 41.4674 27.4652C41.5823 27.2485 41.9744 26.5844 42.2044 25.8905C42.4462 25.2017 42.5301 24.5073 42.4912 24.4154C42.4883 24.4104 42.408 24.764 42.4012 24.5173C42.3857 24.1907 42.5323 24.5004 42.5802 24.1199C42.5834 24.092 42.5984 23.8346 42.5925 23.5669C42.5881 23.2745 42.5569 22.9765 42.5496 22.9588C42.4303 22.6491 42.4475 23.5678 42.4235 23.5548C42.4038 23.5206 42.344 22.7691 42.338 22.7392C42.3422 22.7075 42.5371 23.3132 42.407 22.576C42.4028 22.6628 42.397 22.7489 42.3897 22.8353C42.3229 22.4927 42.4011 22.448 42.3945 22.3627C42.3675 22.0954 42.1814 21.8532 42.2239 21.4008C42.2342 21.2794 42.3366 21.4452 42.3388 21.43C42.3578 21.2794 42.1518 21.1647 42.1947 20.9313C42.1939 20.9135 42.4437 21.3413 42.1313 20.5504C42.1435 20.6087 42.1551 20.6672 42.1659 20.7256C42.109 20.6186 41.7225 19.8578 41.6593 19.761C41.503 19.4628 41.7275 19.6707 41.5376 19.3867C41.5669 19.6235 40.9696 18.7946 41.0704 18.7875C40.893 18.745 40.3827 18.0332 40.0594 17.7679C39.8662 17.5909 39.4078 17.3194 39.3422 17.2715C39.2812 17.2226 39.3115 17.18 39.2607 17.1084C38.7082 16.7128 38.1208 15.7274 38.1485 15.0483C38.1576 15.0176 38.1649 14.978 38.1691 14.9244C38.1744 14.8557 38.1128 14.1381 38.1999 13.5083C38.2166 13.3862 38.3594 13.1298 38.3951 13.3567C38.4561 13.7451 38.3411 14.4797 38.4255 14.4703C38.5157 14.4593 38.462 13.4698 38.4738 13.2035C38.5283 11.9739 38.6242 12.6839 38.6532 12.6523C38.7238 12.5703 38.7216 11.8984 38.728 11.8704C38.7561 11.7542 38.812 12.2303 38.855 12.2375C38.9111 12.2462 39.0123 11.5985 39.0312 11.7458C39.058 11.9565 38.9737 12.5517 38.9777 12.5894C39.0321 13.0806 39.1616 12.4073 39.2253 12.2218C39.2449 12.1655 39.277 12.3896 39.2828 12.343C39.3699 11.6311 39.1007 12.1929 39.1187 11.7194C39.1347 11.2969 39.2199 11.8405 39.2246 11.8244C39.2297 11.8035 39.2344 11.2984 39.2645 11.2193C39.2796 11.1803 39.4451 12.4933 39.5194 12.4384C39.503 12.0195 39.4866 11.6006 39.4703 11.1817C39.5671 11.1488 39.4958 11.7514 39.5058 11.8137C39.5258 11.9392 39.5748 11.5893 39.6054 11.6043C39.6249 11.6124 39.6944 12.023 39.723 11.652C39.7329 11.5246 39.665 11.257 39.7343 10.7927C39.8229 12.4086 39.8773 11.2888 39.9116 11.2412C39.9459 11.1945 40.0266 11.966 40.0123 11.0296C40.2007 10.989 40.0718 11.0497 40.105 11.3158C40.1457 11.6418 40.2077 10.8884 40.1606 12.0798C40.2488 12.012 40.2426 11.0544 40.2496 11.0037C40.256 10.96 40.2994 11.1728 40.3141 11.0969C40.4845 10.1992 40.4067 10.8158 40.5155 10.5558C40.5252 10.5327 40.5656 9.68424 40.5814 10.3302C40.6102 11.5069 40.4853 11.9988 40.7524 12.1965C40.8685 11.3261 40.696 10.2714 40.6931 10.0069C40.6889 9.60186 40.7434 10.0214 40.7587 9.97149C40.7611 9.96297 40.7612 9.87421 40.7613 9.78564C40.7623 9.68041 40.7424 9.57681 40.7439 9.5738C40.7789 9.48563 40.841 9.57446 40.8528 9.78564C40.8758 10.2394 40.7764 11.3082 40.8022 11.7216C40.8328 11.5695 40.8633 11.4174 40.8938 11.2653C40.895 11.4717 40.8962 11.678 40.8975 11.8844C40.9588 10.9013 40.9207 11.8498 41.0857 12.0949C41.1228 12.1499 41.0592 11.504 41.1623 12.2408C41.186 11.6974 41.2197 11.8708 41.1732 11.3787C41.2394 11.3914 41.314 12.4985 41.3479 12.9352C41.4223 11.3925 41.1796 12.2722 41.308 10.9386C41.2261 10.6913 41.2421 11.3279 41.2285 11.276C41.1799 11.0897 41.2571 10.6531 41.0868 10.1264C41.0588 10.0406 40.9728 10.4036 40.9769 9.86653C40.9771 9.85253 40.9813 9.82282 40.9877 9.78564C41.0174 9.62188 40.984 9.33287 40.9852 9.3369C41.0422 9.36595 41.1051 9.62621 41.1039 9.78564C41.1062 9.83079 41.1093 9.8635 41.1165 9.86765C41.1237 9.87184 41.1273 9.83618 41.129 9.78564C41.1395 9.62175 41.0708 9.36122 41.0713 9.36003C41.1539 9.31887 41.1757 9.83622 41.1818 9.76026C41.2223 9.68878 41.1742 9.15669 41.0535 8.9276C41.0049 8.81206 40.986 8.75976 41.0635 8.85453C41.1269 8.94882 41.3395 9.21129 41.3472 9.78564C41.3459 9.87283 41.3438 9.9711 41.341 10.0815C41.3346 9.96668 41.3288 9.8686 41.3234 9.78564C41.2826 9.24927 41.1354 9.11706 41.1617 9.16355C41.1719 9.21108 41.273 9.46105 41.2731 9.78564C41.275 10.0061 41.2822 10.2757 41.2926 10.4666C41.3005 10.6129 41.3436 10.6499 41.3585 10.8584C41.3779 11.1265 41.3572 11.4403 41.3651 11.5791C41.3739 11.7283 41.4757 10.8804 41.4453 12.1067C41.5457 11.4888 41.4408 10.4021 41.5077 9.78564C41.5084 9.77393 41.509 9.76232 41.5095 9.75079C41.5136 9.1496 41.3783 8.96236 41.4422 9.01062C41.4865 9.05706 41.6421 9.36391 41.6544 9.78564C41.6807 10.1821 41.6916 10.7411 41.6984 10.8482C41.7022 10.9065 41.7604 10.7112 41.764 10.75C41.7694 10.8135 41.7425 12.0049 41.7907 12.1224C41.8388 12.2396 41.7885 11.686 41.8387 11.6492C41.8725 11.6243 41.9324 13.0615 41.9555 12.2835C41.9713 11.7472 41.8355 10.7588 41.9815 10.5923C41.9936 11.3809 42.0057 12.1696 42.0177 12.9582C42.0733 12.5266 42.1288 12.0949 42.1844 11.6633C42.202 12.5484 42.1393 13.3136 42.2188 14.1543C42.3968 12.1342 42.3609 14.8103 42.3825 14.8397C42.3955 14.8495 42.5399 14.0544 42.5664 13.9264C42.5868 14.186 42.6034 14.6404 42.6252 15.0483L41.7167 13.3656C42.4335 13.7965 42.9954 14.1954 42.2995 13.5219C42.5021 13.7114 43.0834 14.057 43.0804 14.0489C43.0796 13.9162 41.8586 13.0837 42.0896 13.1724C42.3687 13.2619 42.6231 13.5831 42.96 13.847C44.618 15.2826 44.5358 14.5693 45.834 16.4461C45.8212 16.4001 45.8081 16.3542 45.7948 16.3083C47.1734 18.3792 47.9284 20.8674 47.9419 23.3358C47.9521 23.4047 47.9617 23.482 47.9701 23.5668C48.1322 24.663 47.7987 27.0154 47.318 28.1194C47.2408 28.3698 46.6542 29.4974 46.5874 29.5683C46.4914 29.7166 46.9116 28.8442 46.6824 29.2192C46.6717 29.3211 45.5482 31.1195 45.6626 31.0165C45.812 30.8288 46.1798 30.1781 46.2509 30.0783C46.4999 29.7381 45.9006 30.9358 44.899 32.0795C43.9209 33.246 42.5151 34.24 42.2256 34.4387L43.503 32.0601C43.5043 32.0793 43.5057 32.0933 43.5073 32.1019C43.5101 32.088 43.5129 32.074 43.5157 32.0601L42.2326 34.4493C42.3507 34.3951 42.4681 34.3391 42.5849 34.2812C42.4777 34.3526 42.3694 34.4225 42.2601 34.4908L43.5654 32.0601C43.5576 32.2851 43.5499 32.5101 43.5421 32.7351ZM41.8377 20.5756C41.7179 20.4739 41.6107 20.1329 41.4883 19.9597C41.3236 19.7139 40.8248 19.467 41.1677 19.4884C41.4212 19.8296 41.6458 20.1935 41.8377 20.5756ZM41.704 26.5989C41.8528 26.3552 41.9069 26.6193 41.7465 26.8062C41.7275 26.827 41.4955 26.9217 41.704 26.5989ZM42.4294 23.7328C42.4321 23.7448 42.4182 23.9929 42.4143 24.001C42.3444 24.2182 42.3849 23.4768 42.4294 23.7328ZM37.9418 42.1537C37.9352 41.7205 37.797 42.0342 37.8539 42.3036C37.8575 42.3206 37.9421 42.1822 37.9418 42.1537ZM37.9454 41.8456C38.0692 41.5091 37.8184 40.8314 37.8436 41.3702C37.8462 41.4224 37.9394 41.8612 37.9454 41.8456ZM42.1144 25.6757C42.152 25.7203 42.0404 25.9948 41.9851 26.1077C41.9469 26.0901 42.0864 25.7962 42.1144 25.6757ZM37.8652 35.2446C37.9025 35.2619 37.9005 33.8521 37.8513 33.7561C37.8722 33.9786 37.8317 35.2284 37.8652 35.2446ZM37.9176 38.86C37.9241 38.8243 37.9143 38.3373 37.8814 38.3515C37.8382 38.5892 37.8884 39.0209 37.9176 38.86ZM39.0868 39.6018C39.0592 39.5993 39.3154 39.9328 38.5706 39.4733C38.4612 39.4059 38.9006 39.5296 38.8619 39.5053C38.7803 39.4555 38.7141 39.4205 38.6592 39.3963C39.0374 39.535 39.4265 39.6882 39.459 39.7155C39.6113 39.8439 39.0989 39.6031 39.0868 39.6018ZM35.5442 38.2955C35.4545 38.2952 34.9726 38.0747 34.8668 38.0154C34.8487 38.005 34.9665 37.9568 34.7437 37.8713C34.5649 37.8029 34.7935 37.9977 34.4549 37.8407C34.1126 37.6822 34.6027 37.8153 34.5741 37.7983C34.543 37.78 34.1725 37.6541 34.0536 37.5846C33.5728 37.361 32.5046 37.4009 32.0072 37.5846C31.9762 37.5929 31.957 37.5936 31.9563 37.583C31.9559 37.5765 31.9697 37.5658 31.9937 37.5522C32.4977 37.366 33.5799 37.3256 34.0671 37.5522C34.2121 37.5929 34.6356 37.7888 34.7588 37.8324C34.9455 37.8984 34.7495 37.7453 35.0492 37.8855C35.2375 37.9735 35.0866 38.0363 35.1248 38.0586C35.1569 38.0771 35.8528 38.2946 35.5433 38.2948C35.5436 38.295 35.5439 38.2953 35.5442 38.2955ZM38.5567 39.3592C38.5862 39.3672 38.6198 39.379 38.6592 39.3963C38.6249 39.3837 38.5906 39.3715 38.5567 39.3592ZM42.1766 21.3338C42.1871 21.4859 42.0118 21.0802 41.9923 20.909C42.0293 20.8914 42.178 21.3085 42.1766 21.3338ZM38.1758 39.3029C37.635 39.0462 38.0563 39.1784 38.5567 39.3592C38.3925 39.3145 38.3574 39.3891 38.1758 39.3029ZM40.311 28.858C40.2918 28.8649 40.2739 28.8636 40.2573 28.8488C40.3088 28.8319 40.3212 28.8379 40.311 28.858ZM39.5133 29.4993C39.2729 29.7652 39.8421 29.3299 39.8029 29.2902C39.7906 29.2791 39.524 29.4902 39.5133 29.4993ZM37.9352 42.7094C37.9418 42.6657 38.1457 43.3452 37.9927 42.3586C37.9687 42.8852 37.9465 42.3296 37.9286 42.3379C37.8891 42.3544 37.9093 42.8828 37.9105 43.2144L41.7026 40.6857C41.6111 40.648 41.5365 40.6155 41.4969 40.5935C41.413 40.6058 41.5296 40.6589 41.6886 40.7195L37.947 43.2144C37.9412 43.0259 37.9238 42.7859 37.9352 42.7106C37.9352 42.7102 37.9352 42.7098 37.9352 42.7094ZM27.2663 39.5958C27.3563 39.5 27.7139 39.3698 27.952 39.2741C27.862 39.3699 27.5044 39.5001 27.2663 39.5958ZM11.1382 11.4209C9.38017 11.4707 9.15242 11.2516 10.761 11.3382C10.7925 11.34 11.2449 11.3987 11.1382 11.4209ZM5.62071 16.2066C5.52521 16.3723 5.50985 15.8241 5.54929 15.464C5.55816 15.3826 5.65489 15.0813 5.67381 15.4253C5.55805 15.4143 5.51384 15.9463 5.62071 16.2066ZM37.8403 39.2295C37.6551 39.2213 37.1778 38.9735 36.9208 38.8561C37.1001 38.8739 37.6175 39.1151 37.8403 39.2295ZM5.36124 11.3067C5.17595 11.2994 5.05083 11.3825 5.08284 11.3894C5.22605 11.4212 5.57239 11.354 5.36124 11.3067ZM39.4335 39.9037C39.4415 39.9482 38.7722 39.7092 38.7627 39.6033C38.9002 39.6679 39.4265 39.8749 39.4335 39.9037ZM27.724 39.4361C27.8331 39.4116 27.3196 39.663 27.1529 39.7117C27.1501 39.6689 27.6524 39.4523 27.724 39.4361ZM5.59141 9.87905C5.58419 10.045 5.58199 10.4595 5.61558 10.5055C5.65756 10.5625 5.64325 9.9546 5.59141 9.87905ZM33.253 11.2624C33.274 11.2775 32.6319 11.3862 32.3465 11.3587C31.8045 11.306 33.2303 11.2517 33.253 11.2624ZM7.11532 11.2638C7.63862 11.3428 7.05761 11.2663 7.08052 11.3495C7.43266 11.3525 8.30862 11.3566 7.70638 11.2748C7.58907 11.259 7.27948 11.2692 7.11532 11.2638ZM6.6326 11.236C6.5765 11.263 6.19933 11.3479 6.52539 11.3418C6.67613 11.3389 6.9191 11.2445 6.6326 11.236ZM29.2751 11.2994C28.8061 11.2257 30.9561 11.2652 31.0179 11.2781C31.0506 11.2849 31.072 11.2913 31.0842 11.2968C31.1631 11.2734 31.5692 11.2692 31.6163 11.3283C31.4945 11.3234 31.162 11.3286 31.1234 11.3221C31.1068 11.3193 31.0944 11.3167 31.0858 11.314C30.9425 11.3653 29.365 11.3133 29.2751 11.2994ZM25.7125 11.2235C26.2491 11.1149 26.3442 11.2996 26.2979 11.3056C25.7136 11.3812 26.0947 11.2449 26.0768 11.2386C26.0359 11.2279 25.6209 11.2912 25.7142 11.2235C25.7136 11.2235 25.713 11.2235 25.7125 11.2235ZM28.5448 11.269C28.5669 11.2666 29.0174 11.2723 29.036 11.2752C29.4052 11.3373 28.1303 11.3214 28.5448 11.269ZM30.9865 38.24C30.6817 38.3471 30.9476 38.1626 31.155 38.1028C31.1721 38.0982 31.2555 38.1455 30.9865 38.24ZM6.37496 11.2543C6.30017 11.2415 4.38692 11.193 4.50189 11.2957C4.66436 11.2836 6.83905 11.3364 6.37496 11.2543ZM5.48593 20.1801C5.48673 19.8427 5.58355 20.2106 5.54746 20.3906C5.53405 20.4573 5.4858 20.2652 5.48593 20.1801ZM40.2832 40.3527C40.6271 40.4383 40.4916 40.5752 40.2347 40.402C40.2247 40.3952 40.2697 40.3493 40.2832 40.3527ZM5.5416 17.4847C5.60028 18.6483 5.29332 18.3727 5.39694 16.86C5.41061 16.9073 5.42429 16.9547 5.43796 17.002C5.48401 15.256 5.45959 16.8826 5.47678 17.3102C5.48331 17.4726 5.53455 17.3364 5.54197 17.4836C5.54185 17.484 5.54172 17.4844 5.5416 17.4847ZM5.48008 21.9544C5.2622 23.075 5.40408 20.9357 5.3757 20.3221C5.46567 20.917 5.45205 21.6914 5.54416 20.6381C5.56198 22.1782 5.4752 21.5371 5.46799 21.5985C5.4599 21.6713 5.48943 21.9066 5.48008 21.9544ZM5.47861 18.9986C5.47226 18.9338 5.51661 18.4458 5.50937 18.27C5.5838 18.5158 5.52183 19.4286 5.47861 18.9986ZM21.9775 11.2741C22.0181 11.2158 22.1183 11.1728 22.5035 11.1946C22.3845 11.2239 22.1385 11.2491 21.9775 11.2741ZM42.0004 20.1967C41.9193 20.0127 41.7403 19.652 41.7473 19.7896C41.7524 19.8024 41.9719 20.2093 42.0004 20.1967ZM5.4636 11.4389C5.45643 11.4953 5.45161 12.9543 5.51597 12.4504C5.53537 12.2984 5.52713 10.9709 5.4636 11.4389ZM8.37321 11.2144C8.2511 11.2138 7.75509 11.2248 7.74454 11.2386C7.71098 11.2862 8.31985 11.26 8.37321 11.2144ZM41.5477 19.2814C41.5431 19.2523 41.169 18.7558 41.1848 18.8303C41.2252 18.9612 41.5823 19.3668 41.5477 19.2814ZM29.9556 38.8173C29.8939 38.8454 29.7868 38.8213 29.7649 38.8297C29.7137 38.85 28.5786 39.3492 28.9846 39.092C29.0523 39.049 30.711 38.3921 30.9282 38.3103C31.0445 38.3561 30.3093 38.5726 30.1416 38.6522C30.1121 38.6663 30.1207 38.7415 29.9559 38.8168C29.9558 38.817 29.9557 38.8172 29.9556 38.8173ZM23.9842 11.2126C24.0389 11.1573 25.4964 11.1207 25.4795 11.1877C24.9811 11.196 24.4827 11.2043 23.9842 11.2126ZM23.2438 11.2034C22.9329 11.1643 23.6612 11.1514 23.8759 11.1686C23.8782 11.2058 23.2892 11.2091 23.2438 11.2034ZM5.60878 11.0078C5.46233 11.0214 5.91273 11.102 5.81197 11.1177C5.7474 11.1275 5.42015 11.0972 5.31578 11.1225C5.28617 11.1305 5.62 11.2063 5.71655 11.203C5.85369 11.1987 5.72068 11.139 5.87035 11.1386C6.36724 11.1373 6.80778 11.1799 7.27361 11.1789C7.31567 11.1787 6.98945 11.1365 7.34826 11.1371C7.4037 11.1371 7.73685 11.1999 8.16608 11.1906C9.11404 10.9962 9.81005 11.1871 11.013 11.117C10.9676 11.0987 10.068 11.0496 10.015 11.0478C9.00949 11.0158 7.20809 11.0123 6.15493 11.0119C5.8847 11.0117 6.01593 11.0528 5.89954 11.0543C5.80754 11.0555 5.91692 10.9793 5.60878 11.0078ZM42.0846 20.2754C42.1138 20.1548 41.9179 19.8706 41.8116 19.6821C41.7916 19.7814 42.012 20.0749 42.0846 20.2754ZM16.7002 11.1444C16.5582 11.1474 16.118 11.1245 16.0816 11.1474C16.0347 11.1773 16.6701 11.1962 16.7002 11.1444ZM27.7462 42.1085C27.7441 42.0947 27.7482 41.7532 27.7506 41.7402C27.8116 41.4351 27.7991 42.4596 27.7462 42.1085ZM22.3855 34.6158C22.1265 34.6252 21.8652 34.649 21.7782 34.5872C21.9432 34.5967 22.4159 34.5728 22.3855 34.6158ZM11.1128 34.6176C11.1663 34.6985 10.3867 34.6461 10.2394 34.6389C10.294 34.603 11.0736 34.5594 11.1128 34.6176ZM21.9214 11.0203C22.398 11.0251 22.2974 10.9026 22.6 10.958C22.6494 10.9674 22.809 11.2224 22.2851 11.1269C22.1909 11.1097 22.5597 11.0491 21.9214 11.0203ZM5.39951 16.6136C5.34602 16.4924 5.3619 16.1135 5.36618 15.8575C5.40592 15.9149 5.39569 16.4315 5.39951 16.6136ZM40.9106 18.352C40.8598 18.1638 40.2389 17.6463 40.3485 17.8219C40.3682 17.8409 40.8429 18.2609 40.9106 18.352ZM36.6278 38.9888C36.2127 38.8803 37.0181 39.2357 37.297 39.2889C37.1794 39.244 36.6558 38.9962 36.6278 38.9888ZM13.8205 34.6616C13.8001 34.664 13.3496 34.6583 13.3294 34.6554C12.9601 34.5933 14.2351 34.6092 13.8205 34.6616ZM25.0725 34.714C24.9101 34.7629 23.8427 34.7234 23.6035 34.6744C23.8337 34.6029 25.2739 34.6528 25.0725 34.714ZM19.9602 11.0551C20.3002 11.0525 20.6229 11.0676 20.9352 11.0888C20.8695 11.13 19.9961 11.0859 19.9602 11.0551ZM12.1664 34.6667C12.1422 34.6664 12.1187 34.6617 12.0957 34.6612C12.1197 34.663 12.1433 34.665 12.1664 34.6667ZM12.3495 11.0261C12.0645 11.0099 12.1237 11.0854 12.1412 11.0877C12.3556 11.1121 12.6721 11.0445 12.3495 11.0261ZM42.0756 20.0014C42.1031 19.9012 41.8793 19.5975 41.7785 19.4086C41.7678 19.4887 41.9942 19.8494 42.0756 20.0014ZM5.34054 23.1545C5.26668 23.5125 5.18088 22.0559 5.22848 21.749C5.27411 21.7263 5.35065 23.1021 5.34054 23.1545ZM37.8068 39.5904C37.8126 39.6507 38.402 39.8263 38.2917 39.7531C38.2219 39.7066 37.8037 39.5532 37.8068 39.5904ZM5.25961 21.0165C5.24332 20.8796 5.29599 20.5606 5.32809 20.6729C5.36924 20.8171 5.26427 21.0518 5.25961 21.0165ZM4.63064 10.802C4.66094 10.7839 4.87877 10.654 5.00883 10.4994C5.14036 10.3496 5.22114 10.2125 5.15082 10.4163C5.02549 10.6909 4.91338 10.657 4.87032 10.7033C4.89024 10.8911 3.32997 11.3239 4.63064 10.802ZM5.29403 31.3125C5.27351 31.0089 5.29734 30.6418 5.29586 30.324C5.32888 30.4535 5.33788 31.1833 5.29403 31.3125ZM35.6239 38.6969C35.6837 38.7452 37.533 39.5293 36.5052 39.0293C36.4452 39.0003 35.4423 38.5504 35.6239 38.6969ZM21.9214 11.0203C21.8613 11.0197 21.7919 11.0171 21.7115 11.0119C21.7914 11.0139 21.8609 11.0176 21.9214 11.0203ZM16.5082 11.0122C16.6179 10.9734 16.0651 10.963 15.902 10.9837C15.8517 11.0311 16.4931 11.0177 16.5082 11.0122ZM5.24166 30.2999C5.21943 30.1168 5.24316 29.7845 5.24056 29.5578C5.27669 29.5962 5.27836 30.2207 5.24166 30.2999ZM9.66352 34.8055C9.29997 34.7841 8.85259 34.7939 8.8457 34.8381C8.83815 34.8312 8.82051 34.8239 8.79125 34.8165C8.76169 34.8092 8.37222 34.8298 8.20301 34.8147C7.18996 34.7251 12.115 34.7621 9.2605 34.8868C9.39484 34.8597 9.52918 34.8326 9.66352 34.8055ZM27.5587 38.0688C27.5049 38.2751 27.5723 38.853 27.5935 38.703C27.608 38.5986 27.6128 37.8622 27.5587 38.0688ZM18.5765 34.8498C18.6382 34.8594 19.2024 34.8218 19.2169 34.7934C18.8926 34.7636 18.2955 34.8052 18.5765 34.8498ZM27.4957 39.655C27.4876 39.7845 27.5743 39.9497 27.5781 39.9345C27.6098 39.8029 27.544 39.4375 27.4957 39.655ZM20.9341 10.7866C20.7414 10.7618 20.1271 10.8246 19.9933 10.8819C19.9685 10.8708 19.9013 10.8563 19.7784 10.839C19.7787 10.839 19.7791 10.839 19.7795 10.839C19.6134 10.8159 14.6486 10.7906 17.9788 10.9009C18.0831 10.9044 17.9406 10.853 18.365 10.8621C18.393 10.8627 18.407 10.9047 18.4935 10.9068C18.6928 10.9112 19.7542 10.9376 19.9675 10.9038C19.9693 10.9116 19.9831 10.919 20.0124 10.9258C20.274 10.9863 21.0836 10.8058 20.9341 10.7866ZM17.4578 34.8575C17.5713 34.8731 17.9308 34.8583 17.968 34.8213C17.7898 34.8031 17.1943 34.8212 17.4578 34.8575ZM35.623 38.8611C35.8249 38.9782 36.388 39.151 36.2361 39.0549C36.1429 38.996 35.3902 38.7263 35.623 38.8611ZM21.058 34.8377C19.7314 34.794 20.7414 34.8413 20.5382 34.8956C20.7115 34.8763 20.8847 34.857 21.058 34.8377ZM27.0736 10.9269C26.8621 10.9144 27.1107 10.8072 27.3436 10.8654C27.4167 10.8838 27.192 10.9337 27.0736 10.9269ZM36.6254 10.8936C36.4448 10.7985 37.3266 10.8544 36.9829 10.9196C36.9669 10.9218 36.6383 10.8972 36.6254 10.8936ZM29.9509 10.8548C29.8073 10.9195 29.7138 10.9271 29.3093 10.9112C29.9081 10.8929 29.3527 10.8357 29.9509 10.8548ZM8.84963 34.8451C8.8473 34.8425 8.84532 34.8405 8.8457 34.8381C8.8483 34.8405 8.84944 34.8427 8.84963 34.8451ZM27.5125 40.9022C27.4577 41.0682 27.4617 41.5337 27.5169 41.395C27.522 41.3816 27.553 40.9703 27.5125 40.9022ZM19.9933 10.8819C20.0154 10.8917 20.0042 10.898 19.9675 10.9038C19.9658 10.8965 19.9753 10.8896 19.9933 10.8819ZM27.4679 38.4033C27.5088 38.4199 27.5247 37.7116 27.5199 37.6831C27.4489 37.2766 27.4654 38.1108 27.4679 38.4033ZM39.9245 40.7147C39.9599 40.7248 39.783 40.5368 39.6337 40.5194C39.5182 40.5061 39.792 40.6771 39.9245 40.7147ZM31.3244 10.8284C31.5487 10.8285 31.8645 10.8284 31.9227 10.8786C31.7724 10.8709 31.3198 10.8652 31.3244 10.8284ZM36.2802 10.8247C36.015 10.8837 35.4095 10.8835 35.0228 10.8738C35.0157 10.7962 36.0313 10.843 36.2802 10.8247ZM21.5425 10.8156C21.5241 10.8124 20.9616 10.7893 21.0385 10.8412C21.1507 10.9174 21.7012 10.8438 21.5425 10.8156ZM38.9377 40.2431C38.6918 40.1794 39.1839 40.5034 39.4615 40.5271C39.6041 40.5393 38.9792 40.2538 38.9377 40.2431ZM27.4408 42.3554C27.4708 42.6874 27.5244 41.8647 27.4701 41.7498C27.4657 41.9027 27.4301 42.2375 27.4408 42.3554ZM19.5094 34.9908C20.5554 35.1475 19.9857 34.8617 19.8001 34.8868C19.774 34.8904 19.4838 34.9871 19.5094 34.9908ZM39.5775 16.7762C39.4684 16.7276 39.7864 17.041 39.8606 17.0353C39.9095 17.0295 39.6498 16.8055 39.5775 16.7762ZM4.3421 34.932C4.29584 34.918 4.24931 34.9073 4.20291 34.8998C4.23737 34.9077 4.28271 34.9168 4.3421 34.932ZM26.7017 40.7073C25.9369 40.7862 26.0738 40.9139 26.0144 40.9376C25.8859 40.9886 25.5662 41.0569 25.3295 41.1661C25.5954 41.0284 25.8613 40.8907 26.1272 40.753C25.9894 40.7997 25.2072 41.0879 24.6208 41.314L27.4709 43.2144C27.4814 42.8227 27.4849 42.5106 27.4711 42.4941C27.4201 42.4326 27.4361 43.077 27.4316 43.0958C27.4273 43.1139 27.3626 43.1647 27.3184 43.2144L24.6794 41.4547C24.7107 41.4655 24.7397 41.4717 24.7587 41.4658C24.8528 41.4359 26.4347 40.7802 26.7017 40.7073ZM21.6968 34.9663C21.5286 34.9494 21.4808 34.8931 21.4026 34.9066C21.376 34.9112 21.3717 34.9649 21.2808 34.9787C21.4195 34.9746 21.5581 34.9704 21.6968 34.9663ZM27.8424 40.0168C28.06 39.9972 27.1877 40.3335 27.1572 40.3383C26.9926 40.3587 27.6645 40.0328 27.8424 40.0168ZM27.4202 38.7569C27.4164 38.791 27.3959 39.5087 27.4323 39.5029C27.4601 39.313 27.4681 38.3535 27.4202 38.7569ZM21.1686 34.9824C20.9164 34.9761 20.4398 34.9221 20.4945 35.0029C20.4948 35.0029 20.4952 35.0029 20.4956 35.0029C20.7199 34.9961 20.9442 34.9892 21.1686 34.9824ZM38.0772 40.0696C38.4591 40.368 38.3173 40.1328 37.9513 39.9354C37.8134 39.9406 38.0146 40.0208 38.0772 40.0696ZM39.4208 40.733C39.5318 40.8044 40.7783 41.2959 40.6157 41.1545C40.558 41.1042 39.8234 40.8645 39.7924 40.8465C39.7454 40.8194 40.0012 40.8443 39.6162 40.7002C39.6286 40.733 39.3826 40.7088 39.4208 40.733ZM38.4026 40.2943C38.7936 40.5632 38.9593 40.4367 38.6371 40.302C38.5113 40.2492 38.3469 40.2558 38.4026 40.2943ZM36.6576 39.551C36.8053 39.6311 37.2065 39.8252 37.5127 39.8877C37.1357 39.7251 36.7588 39.5626 36.3818 39.4001C36.325 39.4133 36.5284 39.4809 36.6586 39.5514C36.6583 39.5513 36.6579 39.5512 36.6576 39.551ZM39.0704 10.3622C38.7015 10.311 39.5514 10.2914 39.5874 10.304C39.6941 10.3457 39.2353 10.385 39.0704 10.3622ZM40.2405 12.2695C40.2609 12.167 40.328 12.0999 40.2928 11.8743C40.2433 12.1013 40.1937 12.3282 40.1441 12.5552C40.2577 12.7315 40.218 12.3815 40.2405 12.2695ZM40.6554 11.4028C40.6581 11.4349 40.8328 11.2598 40.7162 11.6739C40.6375 11.9538 40.5608 10.432 40.6382 10.1573C40.6742 10.4608 40.633 11.1268 40.6554 11.4028ZM40.5106 8.22701C40.4991 8.21312 40.7305 8.32714 40.9235 8.5234C41.122 8.71419 41.2587 8.98195 41.2766 9.04001C41.3649 9.35067 41.2822 9.11487 41.0995 8.83718C40.9211 8.55098 40.5704 8.29541 40.5106 8.22701ZM41.378 10.5816C41.4119 10.3105 41.4337 10.9112 41.4142 11.0902C41.3817 11.1075 41.373 10.6235 41.378 10.5816ZM35.3344 7.83304C35.0409 7.71435 34.7785 7.96984 35.2299 7.91837C35.2515 7.91594 35.3469 7.83885 35.3344 7.83304ZM41.361 8.8671C41.4591 9.1177 41.3909 8.96596 41.244 8.74178C41.099 8.51368 40.8179 8.26087 40.6741 8.16342C40.6684 8.14088 40.8708 8.25363 41.0419 8.42888C41.2171 8.60004 41.3458 8.82963 41.361 8.8671ZM35.1278 7.55031C34.7381 7.46491 34.8753 7.75154 34.924 7.76309C35.1246 7.8087 35.8124 7.6962 35.9529 7.66823C34.9235 7.71125 35.3113 7.59055 35.1278 7.55031ZM33.3305 7.72244C32.969 7.75301 33.8929 7.8115 34.0692 7.73159C33.8895 7.73541 33.4333 7.7136 33.3305 7.72244ZM31.1364 7.63051C30.942 7.62025 30.3639 7.59567 30.2669 7.64077C30.4791 7.6326 31.0543 7.67692 31.1364 7.63051ZM30.6963 7.49538C30.3925 7.4341 30.3196 7.61264 30.6699 7.55947C30.6835 7.55741 30.7074 7.49878 30.6963 7.49538ZM28.9882 7.43092C28.7889 7.35991 28.5614 7.53283 28.8844 7.53749C28.9803 7.53856 29.0093 7.43906 28.9882 7.43092ZM34.64 7.24195C34.3546 7.21146 33.9869 7.33529 34.5962 7.34889C34.3822 7.36781 34.1681 7.38673 33.9541 7.40565C34.7523 7.47506 34.6937 7.30333 34.9229 7.31043C35.2432 7.32052 35.2179 7.46223 35.1536 7.50673C35.4162 7.41991 36.5318 7.41852 37.1766 7.40199C36.6099 7.36555 35.6903 7.30239 35.1312 7.2793C34.9715 7.27262 34.8166 7.31148 34.6804 7.30714C34.4622 7.29996 34.656 7.244 34.6411 7.24195C34.6408 7.24195 34.6404 7.24195 34.64 7.24195ZM26.743 7.42836C26.1572 7.34792 26.5276 7.52158 26.8587 7.49062C26.8728 7.48823 26.7576 7.43032 26.743 7.42836ZM40.3776 7.40258C41.1557 7.72772 41.2425 7.98563 41.4291 8.19061C41.5634 8.42426 41.9463 8.67866 42.0428 9.78564C42.0547 9.94242 42.071 10.1357 42.0925 10.3768C41.989 9.68884 42.0181 10.3387 41.9764 10.2044C41.9434 10.0967 41.9707 9.69309 41.9042 9.92771C41.9125 9.89258 41.9195 9.84409 41.9255 9.78564C41.9806 9.26612 41.6549 8.34453 41.0112 7.89961C40.3862 7.42147 39.6749 7.43537 39.6266 7.42987C39.6279 7.42987 39.6293 7.42988 39.6306 7.42989C39.5421 7.43719 39.7659 7.20359 40.3776 7.40258ZM31.1335 7.17639C30.9382 6.96568 30.8615 7.30013 30.4774 7.12549C29.9659 7.37909 31.8902 7.12553 32.1231 7.33973C30.0334 7.31484 33.5038 7.55198 32.0451 7.23133C33.2468 7.34771 32.4389 7.19162 32.6244 7.15076C32.8228 7.10724 33.5025 7.15454 33.468 7.07605C33.4676 7.07605 33.4673 7.07605 33.4669 7.07605C33.0512 7.08154 32.6354 7.08704 32.2197 7.09253C32.6266 7.26184 31.777 7.21107 31.4889 7.07312C31.3704 7.10754 31.252 7.14197 31.1335 7.17639ZM33.4865 7.33534C33.4456 7.33146 32.5413 7.35519 32.5997 7.38917C32.7204 7.41084 34.0038 7.38486 33.4865 7.33534ZM37.4662 7.29835C37.1415 7.29793 36.6395 7.2649 36.4626 7.32874C36.7873 7.32917 37.2894 7.36222 37.4662 7.29835ZM20.7477 7.28626C20.3339 7.33865 21.6081 7.35417 21.2394 7.29212C21.2213 7.2892 20.7681 7.28382 20.7477 7.28626ZM30.1922 7.20826C29.7715 7.14386 29.9703 7.34883 30.282 7.29542C30.3001 7.29227 30.2117 7.21119 30.1922 7.20826ZM41.6603 8.30398C41.6963 8.30404 42.1862 8.96253 42.1664 9.78564C42.1638 10.0959 42.1552 10.4252 42.1555 10.5249C42.1321 10.4677 42.1138 10.1172 42.1086 9.78564C42.1221 8.94262 41.606 8.27853 41.6603 8.30398ZM38.0376 7.11047C37.3916 6.9299 36.5149 7.13847 36.4188 7.13391C36.3232 7.12927 36.4731 7.05033 36.4513 7.04822C36.4017 7.04379 35.3836 7.05041 35.3344 7.05591C35.2991 7.06019 35.4833 7.17112 35.2732 7.20606C35.6831 7.14303 37.5442 7.18246 37.6408 7.17017C37.7156 7.16035 37.1516 7.04387 38.0365 7.11047C38.0368 7.11047 38.0372 7.11047 38.0376 7.11047ZM36.1786 7.10974C36.4329 7.15624 35.7197 7.16206 35.5471 7.1449C35.1636 7.1065 36.1459 7.10423 36.1786 7.10974ZM34.4632 7.06689C34.3818 7.05646 33.6467 7.04699 33.5842 7.09875C33.9321 7.1659 34.648 7.09119 34.4632 7.06689ZM26.2839 7.07385C26.093 7.08048 25.568 7.0407 25.5379 7.08594C25.729 7.07934 26.2539 7.11909 26.2839 7.07385ZM42.5349 13.0345C42.5727 12.7174 42.5882 13.4522 42.57 13.6666C42.5398 13.6782 42.5316 13.0615 42.5349 13.0345ZM30.121 6.77574C30.0079 6.76199 27.7019 6.79631 27.3784 6.81749C27.6948 6.8517 29.9802 6.85433 30.0839 6.83764C30.1142 6.83264 30.1354 6.77791 30.121 6.77574ZM35.1081 6.75487C35.3196 6.68826 35.4576 6.76815 35.4842 6.76915C35.7457 6.77934 36.2879 6.76433 36.169 6.82848C35.7076 6.8026 34.6872 6.88715 35.1081 6.75487ZM26.12 6.77245C25.3369 6.79717 26.841 6.86734 26.6437 6.79772C26.631 6.79351 26.2009 6.76985 26.12 6.77245ZM30.3786 6.75633C30.5513 6.70251 32.858 6.74893 33.2283 6.74901C32.8966 6.84828 32.6293 6.77288 32.1837 6.77794C32.0635 6.77942 32.0956 6.82072 32.0827 6.82079C31.8745 6.8227 32.0303 6.775 31.902 6.77428C31.8209 6.77395 30.1355 6.83217 30.3786 6.75633ZM35.2288 6.70872C35.3578 6.67054 36.7981 6.65426 36.856 6.66441C37.2895 6.73988 35.3407 6.72202 35.2288 6.70872ZM30.167 6.66807C30.415 6.5527 31.5606 6.62997 30.7766 6.68748C30.7017 6.69272 30.3846 6.6427 30.167 6.66807ZM26.2036 6.66258C26.1651 6.65919 25.3488 6.63613 25.3341 6.67284C25.4521 6.6871 26.642 6.6999 26.2036 6.66258ZM26.6268 6.53843C26.6071 6.53931 26.7985 6.61001 26.4158 6.60105C26.3839 6.60021 26.3244 6.52066 25.8433 6.54978C25.7456 6.55578 25.5943 6.6084 25.6053 6.61168C26.1063 6.73651 27.6152 6.49742 26.6268 6.53843ZM35.2552 6.64427C35.1776 6.61069 35.3648 6.51103 35.5336 6.5615C35.606 6.5833 35.471 6.6431 35.2552 6.64427ZM23.6149 6.63035C24.0894 6.56991 22.5996 6.55849 22.5237 6.57395C22.5715 6.6116 23.5674 6.63626 23.6149 6.63035ZM43.0014 13.7771C43.0014 13.7768 43.0014 13.7764 43.0014 13.776C42.9877 14.1752 42.9375 13.928 42.9359 13.9467C42.862 14.797 42.9759 14.5714 42.9893 14.7044C43.0069 14.8769 42.9632 14.9282 42.9386 15.0483L41.8886 13.1035C41.9604 13.1701 42.066 13.2488 42.2694 13.365L42.9373 15.0483C42.8526 15.0483 42.8881 15.0483 42.8388 15.0483L42.1637 13.411C42.1529 13.4976 42.0077 13.3982 41.8011 13.2369L42.7791 15.0483C42.8139 14.6988 42.9169 14.1661 42.8908 13.9208C42.885 13.8656 42.8208 14.2734 42.8026 14.1319C42.7434 13.6718 43.0538 12.2453 43.0014 13.7771ZM35.6638 6.55271C35.849 6.49365 37.2538 6.55094 36.8813 6.59959C36.8214 6.60739 35.3917 6.6388 35.6638 6.55271ZM8.72221 39.2844C8.3846 39.3356 9.16706 39.3956 9.31214 39.3559C9.38411 39.336 8.87051 39.262 8.72221 39.2844ZM14.2084 39.5031C14.6096 39.4927 15.0325 39.2796 14.5334 39.3126C14.4804 39.3163 14.1624 39.4735 14.2084 39.5031ZM0.612947 21.3583C0.536779 21.7772 0.678301 21.7523 0.676304 21.4447C0.675622 21.3362 0.615358 21.3451 0.612947 21.3583ZM3.40473 39.3154C3.45764 39.3275 3.7309 39.3785 4.04217 39.3743C4.19185 39.3699 4.37293 39.3588 4.362 39.3386C4.2932 39.3312 4.16211 39.3298 4.04218 39.3329C3.39977 39.3369 2.85352 39.1524 3.40473 39.3154ZM0.592805 21.2253C0.618311 21.4737 0.720671 21.0461 0.620638 20.7425C0.628843 20.8967 0.590199 21.1997 0.592805 21.2253ZM29.3014 6.35532C29.0935 6.41343 28.505 6.39587 28.1671 6.40586C28.1306 6.33057 29.06 6.36897 29.3014 6.35532ZM12.5054 39.4174C12.8852 39.3643 12.0715 39.3209 12.1462 39.391C12.1565 39.3948 12.4904 39.4197 12.5054 39.4174ZM4.41376 6.32858C4.13771 6.37349 5.01424 6.43389 4.773 6.35495C4.7611 6.35173 4.4289 6.32609 4.41376 6.32858ZM8.2413 6.35459C8.03189 6.33944 7.13874 6.3441 7.48634 6.38791C7.54033 6.39464 8.22558 6.39572 8.2413 6.35459ZM43.0435 14.728C43.0885 14.6624 43.1011 14.8561 43.1011 15.0483L41.9778 12.9677C42.1221 13.0621 42.259 13.1653 42.2956 13.198C42.3152 13.2158 42.1208 13.1367 41.9316 13.038L43.017 15.0483C43.0016 14.9214 43.0008 14.7905 43.0435 14.728ZM0.600862 24.0789C0.610538 24.2957 0.59215 24.8578 0.632724 24.9568C0.624325 24.6917 0.681685 24.0076 0.600862 24.0789ZM10.7738 39.4178C11.1045 39.5018 11.6696 39.4935 11.5299 39.3837C10.9057 39.3911 11.607 39.4824 10.7738 39.4178ZM0.502347 19.8293C0.495937 20.0031 0.601388 20.1363 0.606355 20.1167C0.653621 19.9283 0.543376 19.6566 0.502347 19.8293ZM0.589143 32.8723C0.544079 32.8824 0.564532 33.4395 0.593538 33.3652C0.603275 33.3408 0.625612 32.8642 0.589143 32.8723ZM22.0045 6.32968C21.7492 6.28855 22.5288 6.24834 22.7594 6.29636C22.8716 6.36555 22.0368 6.33441 22.0045 6.32968ZM0.528716 15.0094C0.461838 14.9835 0.49965 15.8543 0.555084 15.5112C0.568954 15.4253 0.551077 15.0185 0.528716 15.0094ZM5.58464 6.19198C5.00049 6.27173 7.45342 6.32835 6.80885 6.22897C6.76277 6.22189 5.63551 6.18525 5.58464 6.19198ZM9.59067 6.24179C9.48989 6.233 9.54012 6.00828 9.95721 6.09493C10.0119 6.10617 9.75585 6.16558 9.8006 6.17916C9.82692 6.18691 10.7338 6.21847 10.7756 6.21322C10.8205 6.20727 10.7676 6.13524 10.8132 6.12716C10.8646 6.11813 11.4228 6.1814 11.7152 6.18209C12.2662 6.18328 12.3257 6.12333 12.3708 6.12313C12.5025 6.12273 12.7237 6.1653 12.9905 6.16525C14.3354 6.16477 16.3923 6.11395 17.4585 6.24106C16.5097 6.19001 15.6056 6.24417 14.6615 6.26083C14.938 6.13569 13.2726 6.35725 14.2467 6.21286C13.7982 6.24418 9.92101 6.26923 9.5918 6.24179C9.59142 6.24179 9.59105 6.24179 9.59067 6.24179ZM15.7918 39.5661C15.5454 39.6428 16.8099 39.6255 16.9173 39.5368C16.7503 39.5245 15.8224 39.5574 15.7918 39.5661ZM9.95764 39.7532C9.84019 39.7665 9.72874 39.9164 9.11288 39.8404C9.11232 39.8404 9.11176 39.8404 9.1112 39.8404C8.93113 39.8182 9.13631 39.7816 9.10334 39.7686C9.09131 39.7633 8.52973 39.6887 8.99613 39.6767C9.70742 39.6583 9.0631 39.7882 9.44237 39.7898C9.48873 39.79 10.2065 39.7088 10.1648 39.691C10.1605 39.6889 9.94448 39.7061 9.90881 39.6986C9.7741 39.6708 9.83967 39.624 9.82069 39.6217C9.75855 39.616 8.62347 39.6958 8.4584 39.6261C8.40476 39.6037 10.2679 39.5518 10.3405 39.5635C10.3864 39.5709 10.367 39.7009 10.4145 39.7137C10.439 39.72 11.1884 39.6713 11.2857 39.6833C11.3139 39.6867 11.3355 39.6905 11.3514 39.6935C11.238 39.6533 11.9166 39.6562 11.8958 39.7016C11.884 39.7194 11.4169 39.7091 11.4002 39.706C11.3929 39.7047 11.3865 39.7028 11.3806 39.7016C11.4773 39.7506 9.89577 39.7484 10.2372 39.8213C9.77871 39.8613 10.3022 39.7143 9.95764 39.7532ZM7.75396 39.8334C7.8013 39.8197 7.84863 39.8061 7.89597 39.7924C7.09338 39.8259 6.16725 39.76 5.24268 39.7605C5.00807 39.7606 5.27798 39.8442 4.97045 39.8213C4.7241 39.803 4.45147 39.7255 4.5854 39.7082C4.61809 39.7039 5.11964 39.7544 5.37066 39.7492C6.11179 39.7338 5.92456 39.6621 5.96789 39.6602C6.01571 39.6582 6.48216 39.7086 6.73688 39.7063C7.37731 39.7005 7.66986 39.6565 8.54484 39.714C8.03986 39.7613 8.31649 39.864 7.75396 39.8334ZM0.325827 11.3311C0.280693 11.3006 0.320737 10.7754 0.314108 10.5846C0.359354 10.6146 0.319195 11.1402 0.325827 11.3311ZM43.4245 35.2783C43.3505 35.117 43.3321 36.3261 43.3938 36.0075C43.4075 35.937 43.424 35.4302 43.4245 35.2783ZM43.3795 40.7101C43.4 40.8718 43.4533 40.2205 43.396 40.2217C43.3776 40.2227 43.3768 40.6892 43.3795 40.7101ZM0.24599 30.8724C0.243671 30.8418 0.260167 30.3969 0.263935 30.3829C0.342578 30.0882 0.297125 31.5526 0.24599 30.8724ZM35.7812 44.2429C36.3203 44.4148 34.7619 43.7431 35.2167 43.9995C35.2394 44.0122 35.7552 44.2347 35.7812 44.2429ZM33.5986 43.3487C33.7244 43.3983 34.2691 43.6512 34.2851 43.6334C34.3102 43.6043 33.6856 43.3172 33.5986 43.3487ZM0.222552 19.712C0.139099 19.7771 0.202298 18.9858 0.191789 18.7106C0.275299 18.6453 0.212013 19.437 0.222552 19.712ZM0.161026 24.707C0.0952396 21.3708 0.27354 22.1063 0.201677 24.9057C0.148139 24.9098 0.165169 24.9176 0.161026 24.707ZM0.170914 20.4349C0.224377 20.5562 0.208524 20.9351 0.204241 21.191C0.16707 21.145 0.180523 20.6196 0.170914 20.4349ZM43.5392 33.8386C43.6067 34.0478 43.5234 34.9744 43.4956 34.8096C43.4896 34.7713 43.502 33.7617 43.5392 33.8386ZM0.174576 30.5929C0.0934162 30.6706 0.126522 29.6688 0.144546 29.5921C0.217045 29.2829 0.156663 30.5118 0.174576 30.5929ZM0.151138 14.9768C0.0875664 14.7999 0.120264 14.2975 0.121108 13.9743C0.175466 14.1215 0.152282 14.7026 0.151138 14.9768ZM0.101331 17.3096C0.0988913 17.2893 0.104631 16.8386 0.107557 16.8185C0.169649 16.4492 0.153747 17.7241 0.101331 17.3096ZM43.6119 13.2237C43.614 13.2387 43.6099 13.58 43.6075 13.5919C43.5465 13.8965 43.559 12.8722 43.6119 13.2237Z" fill="#C3DDEB"/>
<path d="M17.9001 24.9433C17.9393 24.9488 17.9781 24.9548 18.0085 24.9502C18.0428 24.9454 18.0918 24.9683 18.1404 24.9912C18.1743 25.0072 18.2089 25.0228 18.238 25.0293C18.2664 25.0354 18.2963 25.0231 18.3249 25.0107C18.3594 24.9959 18.3934 24.9812 18.4216 25.001C18.4273 25.0054 18.4352 25.0306 18.4441 25.0615C18.4504 25.0837 18.4573 25.1094 18.4656 25.1328C18.5015 25.1328 18.538 25.1338 18.574 25.1357C18.5752 25.1324 18.5766 25.1284 18.5779 25.125C18.6076 25.0454 18.6488 24.9371 18.7058 25.0019C18.7201 25.0185 18.7289 25.0489 18.737 25.0762C18.7451 25.103 18.7529 25.1266 18.7634 25.1318C18.7754 25.1373 18.79 25.1214 18.8054 25.1035C18.827 25.0783 18.8515 25.05 18.8757 25.0762C18.8773 25.0779 18.8788 25.0801 18.8806 25.082C18.8982 25.1007 18.9241 25.1283 18.9499 25.1836C19.0268 25.1984 19.1045 25.2164 19.1814 25.2353C19.3097 25.267 19.4388 25.3028 19.5671 25.3389C19.6295 25.3568 19.69 25.4327 19.7341 25.5537C19.7783 25.6751 19.8034 25.8317 19.8035 25.9931C19.8034 26.1545 19.7782 26.3111 19.7341 26.4326C19.69 26.5537 19.6295 26.6295 19.5671 26.6474C19.4654 26.676 19.3632 26.705 19.2615 26.7314C19.2562 26.7347 19.2501 26.7382 19.2449 26.7412C19.2054 26.7639 19.1683 26.8092 19.1316 26.8545C19.1232 26.8648 19.1146 26.8756 19.1062 26.8857C19.0416 26.9629 18.9172 26.9314 18.8484 26.914C18.8473 26.9138 18.8456 26.9133 18.8445 26.9131C18.8283 26.909 18.8125 26.9084 18.7947 26.9072C18.7517 26.9044 18.693 26.9007 18.572 26.8515C18.5368 26.8534 18.5008 26.8535 18.4656 26.8535C18.0842 26.8535 17.7024 26.7899 17.321 26.7129C17.3164 26.7133 17.3111 26.7135 17.3064 26.7139C17.2109 26.7218 17.0919 26.7311 17.0173 26.7031C16.9226 26.6672 16.8573 26.6342 16.8044 26.6055C16.5015 26.5435 16.1981 26.4877 15.8953 26.4648C15.8004 26.4577 15.7049 26.4541 15.6101 26.4541C15.523 26.4541 15.4355 26.4563 15.3484 26.4609C15.2976 26.4777 15.2486 26.4981 15.2038 26.5166C15.1409 26.5426 15.0842 26.5656 15.0378 26.5732C14.9261 26.5914 14.799 26.5623 14.7048 26.541C14.6897 26.5376 14.6751 26.5341 14.6619 26.5312C14.5872 26.5418 14.5119 26.5539 14.4372 26.5654C14.4323 26.559 14.4267 26.5518 14.4216 26.5449C14.3578 26.4593 14.2793 26.4603 14.156 26.4619C14.1023 26.4626 14.0397 26.4632 13.9665 26.457C13.9193 26.453 13.8946 26.4193 13.8747 26.3916C13.8689 26.3834 13.8637 26.3753 13.8581 26.3691C13.8392 26.3481 13.8192 26.3716 13.7956 26.3984C13.7651 26.4333 13.7278 26.4747 13.6794 26.4375C13.5248 26.3168 13.4557 26.3979 13.404 26.4599C13.389 26.478 13.375 26.4947 13.3611 26.5039C13.3155 26.5335 13.25 26.5041 13.2009 26.4639C13.1619 26.4324 13.084 26.4638 13.0251 26.5039C13.0029 26.519 12.9726 26.5201 12.9372 26.5205C12.9005 26.5209 12.8577 26.5211 12.8122 26.5381C12.6974 26.5811 12.6358 26.6024 12.5867 26.6191C12.5728 26.6238 12.5595 26.6283 12.5466 26.6328C12.5055 26.6471 12.4538 26.659 12.4021 26.6709C12.3403 26.6851 12.2771 26.6995 12.2292 26.7187C12.1052 26.6983 11.9803 26.6727 11.8562 26.6474C11.7925 26.6342 11.7313 26.56 11.6863 26.4385C11.6413 26.3167 11.616 26.1576 11.616 25.9931C11.616 25.8286 11.6412 25.6696 11.6863 25.5478C11.7313 25.4264 11.7925 25.3521 11.8562 25.3389C11.9845 25.3127 12.1136 25.2864 12.2419 25.2656C12.3983 25.2403 12.5553 25.2226 12.7117 25.2226C12.8209 25.2227 12.9305 25.2273 13.0398 25.2344C13.0509 25.2351 13.0628 25.2355 13.074 25.2363C13.1656 25.1959 13.2574 25.1587 13.322 25.1455C13.3751 25.1349 13.4148 25.1564 13.448 25.1748C13.4709 25.1875 13.4919 25.199 13.5124 25.1972C13.5234 25.1962 13.5387 25.1933 13.5564 25.1904C13.6307 25.1781 13.7571 25.1578 13.8718 25.1972C13.9227 25.2149 13.9824 25.2493 14.0388 25.2822C14.1196 25.3294 14.1951 25.3738 14.2331 25.3603C14.2998 25.3369 14.3766 25.3563 14.4441 25.374C14.5085 25.3909 14.5653 25.4061 14.5974 25.3789C14.6356 25.3465 14.669 25.3592 14.7175 25.3789C14.7513 25.3926 14.7931 25.4093 14.8494 25.416C14.9142 25.4238 14.9607 25.4473 14.9997 25.4668C15.0546 25.4942 15.0963 25.5145 15.1579 25.4765C15.2262 25.4346 15.298 25.4078 15.3542 25.4209C15.3798 25.4269 15.4097 25.4254 15.4402 25.4238C15.4806 25.4218 15.5234 25.4204 15.5622 25.4355C15.5941 25.4481 15.6209 25.4796 15.6443 25.5078C15.6515 25.5166 15.659 25.5248 15.6658 25.5322C15.691 25.5318 15.7167 25.5312 15.7419 25.5303C15.746 25.5252 15.7512 25.5194 15.7556 25.5137C15.7783 25.4843 15.8061 25.4476 15.8406 25.4297C15.8952 25.4015 15.9442 25.4195 15.9949 25.4385C16.0342 25.4532 16.0758 25.4684 16.1228 25.4629C16.1547 25.459 16.1914 25.4464 16.2273 25.4336C16.2811 25.4144 16.3349 25.3952 16.3718 25.4072C16.3855 25.412 16.3973 25.4324 16.4089 25.4521C16.4097 25.4535 16.4111 25.4547 16.4119 25.456C16.5018 25.4408 16.5924 25.424 16.6824 25.4062C16.69 25.4012 16.6982 25.3955 16.7058 25.3906C16.7438 25.3663 16.7813 25.3421 16.8054 25.3086C16.8319 25.2724 16.8976 25.2508 16.9665 25.2285C17.0118 25.2139 17.0592 25.1988 17.0974 25.1787C17.1197 25.1673 17.142 25.1878 17.1638 25.209C17.1841 25.2287 17.2055 25.2491 17.2283 25.2441C17.2396 25.2414 17.2524 25.2326 17.2654 25.2236C17.2767 25.2158 17.289 25.2073 17.3015 25.2021C17.3137 25.1977 17.3409 25.2085 17.3747 25.2226C17.3958 25.2315 17.42 25.2418 17.4451 25.25C17.5115 25.2371 17.5788 25.2243 17.6453 25.2129C17.6591 25.1948 17.6719 25.1707 17.6814 25.1406C17.6882 25.1191 17.694 25.0926 17.6999 25.0664C17.7081 25.0306 17.7167 24.9934 17.7283 24.9639C17.7373 24.9409 17.7484 24.9318 17.7556 24.9414C17.7588 24.946 17.7612 24.9545 17.7634 24.9619C17.766 24.9702 17.7685 24.9771 17.7712 24.9775C17.7732 24.9767 17.7755 24.9709 17.7781 24.9639C17.7823 24.952 17.7883 24.9364 17.7966 24.9355C17.8282 24.9335 17.865 24.9385 17.9001 24.9433Z" fill="#1A2A4F"/>
<path d="M17.9001 19.5342C17.9393 19.5396 17.9781 19.5456 18.0085 19.541C18.0427 19.5362 18.0918 19.5592 18.1404 19.582C18.1743 19.598 18.2088 19.6136 18.238 19.6201C18.2665 19.6262 18.2963 19.6139 18.3249 19.6015C18.3594 19.5867 18.3934 19.5721 18.4216 19.5918C18.4273 19.5959 18.4352 19.6213 18.4441 19.6523C18.4504 19.6744 18.4573 19.7003 18.4656 19.7236C18.5015 19.7236 18.538 19.7247 18.574 19.7265C18.5752 19.7233 18.5766 19.7192 18.5779 19.7158C18.6075 19.6363 18.6488 19.5281 18.7058 19.5928C18.7201 19.6093 18.7289 19.6398 18.737 19.667C18.7451 19.6938 18.7529 19.7174 18.7634 19.7226C18.7754 19.7282 18.79 19.7123 18.8054 19.6943C18.827 19.6692 18.8516 19.641 18.8757 19.667C18.8773 19.6687 18.8788 19.6709 18.8806 19.6728C18.8982 19.6915 18.9241 19.7192 18.9499 19.7744C19.0269 19.7892 19.1045 19.8072 19.1814 19.8262C19.3098 19.8578 19.4388 19.8936 19.5671 19.9297C19.6295 19.9475 19.69 20.0236 19.7341 20.1445C19.7783 20.2659 19.8034 20.4226 19.8035 20.584C19.8034 20.7453 19.7782 20.902 19.7341 21.0234C19.69 21.1445 19.6295 21.2203 19.5671 21.2383C19.4654 21.2668 19.3632 21.2959 19.2615 21.3222C19.2563 21.3255 19.2501 21.329 19.2449 21.332C19.2054 21.3547 19.1682 21.4001 19.1316 21.4453C19.1232 21.4556 19.1146 21.4665 19.1062 21.4765C19.0416 21.5537 18.9172 21.5223 18.8484 21.5049C18.8472 21.5046 18.8456 21.5042 18.8445 21.5039C18.8283 21.4998 18.8125 21.4992 18.7947 21.498C18.7517 21.4953 18.6931 21.4915 18.572 21.4424C18.5368 21.4442 18.5008 21.4443 18.4656 21.4443C18.0842 21.4443 17.7024 21.3807 17.321 21.3037C17.3165 21.3041 17.3111 21.3043 17.3064 21.3047C17.2108 21.3126 17.0919 21.322 17.0173 21.2939C16.9226 21.258 16.8573 21.225 16.8044 21.1963C16.5015 21.1343 16.1982 21.0786 15.8953 21.0556C15.8004 21.0485 15.7049 21.0449 15.6101 21.0449C15.523 21.0449 15.4355 21.0472 15.3484 21.0517C15.2976 21.0685 15.2486 21.0889 15.2038 21.1074C15.1409 21.1334 15.0842 21.1564 15.0378 21.164C14.9261 21.1822 14.799 21.1531 14.7048 21.1318C14.6897 21.1284 14.6751 21.1249 14.6619 21.1221C14.5872 21.1326 14.5119 21.1447 14.4372 21.1562C14.4323 21.1498 14.4267 21.1426 14.4216 21.1357C14.3579 21.0503 14.2792 21.0511 14.156 21.0527C14.1023 21.0534 14.0397 21.054 13.9665 21.0478C13.9193 21.0438 13.8946 21.0101 13.8747 20.9824C13.8689 20.9743 13.8637 20.9661 13.8581 20.9599C13.8393 20.9391 13.8191 20.9625 13.7956 20.9892C13.765 21.0241 13.7278 21.0656 13.6794 21.0283C13.5249 20.9077 13.4557 20.9887 13.404 21.0508C13.3891 21.0687 13.375 21.0855 13.3611 21.0947C13.3154 21.1244 13.25 21.095 13.2009 21.0547C13.162 21.0232 13.084 21.0547 13.0251 21.0947C13.0029 21.1098 12.9726 21.1109 12.9372 21.1113C12.9005 21.1117 12.8576 21.112 12.8122 21.1289C12.6975 21.1719 12.6358 21.1932 12.5867 21.2099C12.5729 21.2146 12.5594 21.2192 12.5466 21.2236C12.5055 21.2379 12.4538 21.2498 12.4021 21.2617C12.3403 21.2759 12.2771 21.2903 12.2292 21.3096C12.1051 21.2891 11.9803 21.2635 11.8562 21.2383C11.7925 21.225 11.7313 21.1509 11.6863 21.0293C11.6413 20.9075 11.616 20.7484 11.616 20.584C11.616 20.4195 11.6412 20.2604 11.6863 20.1387C11.7313 20.0174 11.7926 19.9429 11.8562 19.9297C11.9845 19.9036 12.1136 19.8772 12.2419 19.8564C12.3983 19.8311 12.5553 19.8135 12.7117 19.8135C12.8209 19.8135 12.9305 19.8181 13.0398 19.8252C13.0509 19.8259 13.0628 19.8263 13.074 19.8271C13.1656 19.7867 13.2575 19.7495 13.322 19.7363C13.375 19.7257 13.4148 19.7472 13.448 19.7656C13.4709 19.7783 13.4919 19.7899 13.5124 19.7881C13.5234 19.787 13.5387 19.7842 13.5564 19.7812C13.6307 19.769 13.7571 19.7486 13.8718 19.7881C13.9227 19.8057 13.9824 19.8401 14.0388 19.873C14.1196 19.9202 14.1951 19.9647 14.2331 19.9512C14.2998 19.9278 14.3766 19.9471 14.4441 19.9648C14.5085 19.9818 14.5652 19.9969 14.5974 19.9697C14.6356 19.9374 14.6691 19.95 14.7175 19.9697C14.7513 19.9834 14.7931 20.0001 14.8494 20.0068C14.9142 20.0147 14.9607 20.0381 14.9997 20.0576C15.0547 20.085 15.0963 20.1053 15.1579 20.0674C15.2262 20.0255 15.298 19.9986 15.3542 20.0117C15.3799 20.0177 15.4097 20.0162 15.4402 20.0146C15.4806 20.0126 15.5235 20.0112 15.5622 20.0264C15.5942 20.0389 15.6209 20.0704 15.6443 20.0986C15.6515 20.1074 15.659 20.1157 15.6658 20.123C15.691 20.1226 15.7167 20.122 15.7419 20.1211C15.746 20.1161 15.7512 20.1102 15.7556 20.1045C15.7783 20.0751 15.8062 20.0384 15.8406 20.0205C15.8952 19.9924 15.9442 20.0104 15.9949 20.0293C16.0343 20.044 16.0758 20.0592 16.1228 20.0537C16.1547 20.0498 16.1914 20.0372 16.2273 20.0244C16.281 20.0052 16.3349 19.986 16.3718 19.998C16.3855 20.0028 16.3973 20.0232 16.4089 20.043C16.4097 20.0442 16.4111 20.0456 16.4119 20.0469C16.5018 20.0316 16.5924 20.0148 16.6824 19.9971C16.69 19.992 16.6982 19.9863 16.7058 19.9814C16.7437 19.9571 16.7814 19.9329 16.8054 19.8994C16.832 19.8633 16.8977 19.8416 16.9665 19.8193C17.0117 19.8047 17.0592 19.7896 17.0974 19.7695C17.1197 19.7582 17.1421 19.7786 17.1638 19.7998C17.1841 19.8196 17.2054 19.84 17.2283 19.8349C17.2395 19.8322 17.2524 19.8234 17.2654 19.8144C17.2767 19.8066 17.289 19.7981 17.3015 19.793C17.3137 19.7886 17.341 19.7993 17.3747 19.8135C17.3958 19.8223 17.4199 19.8326 17.4451 19.8408C17.5115 19.828 17.5788 19.8151 17.6453 19.8037C17.659 19.7856 17.6719 19.7614 17.6814 19.7314C17.6881 19.7099 17.694 19.6833 17.6999 19.6572C17.708 19.6215 17.7167 19.5841 17.7283 19.5547C17.7373 19.5319 17.7484 19.5228 17.7556 19.5322C17.7588 19.5367 17.7612 19.5454 17.7634 19.5527C17.766 19.561 17.7685 19.5679 17.7712 19.5683C17.7731 19.5673 17.7756 19.5616 17.7781 19.5547C17.7823 19.5429 17.7884 19.5272 17.7966 19.5264C17.8282 19.5244 17.865 19.5293 17.9001 19.5342Z" fill="#1A2A4F"/>
<path fill-rule="evenodd" clip-rule="evenodd" d="M23.3025 9.95604C23.7103 9.96148 24.1089 9.9675 24.4265 9.96287C24.7823 9.95768 25.2897 9.98088 25.7976 10.0039C26.1519 10.0199 26.5069 10.0354 26.8113 10.042C27.1096 10.0484 27.4206 10.0359 27.7214 10.0234C28.0822 10.0085 28.4294 9.99348 28.7244 10.0137C28.784 10.0178 28.8589 10.0429 28.9519 10.0742C29.0177 10.0963 29.0933 10.1222 29.1794 10.1455C29.5551 10.1455 29.9317 10.1465 30.3074 10.1484C30.3204 10.1451 30.3349 10.1412 30.3484 10.1377C30.6569 10.0581 31.0795 9.9497 31.6726 10.0146C31.8232 10.0312 31.9182 10.0614 32.0036 10.0889C32.0875 10.1158 32.1626 10.1394 32.2722 10.1445C32.397 10.1503 32.5452 10.1342 32.7058 10.1162C32.9313 10.0909 33.1836 10.0626 33.4363 10.0889C33.4534 10.0906 33.4718 10.0928 33.491 10.0947C33.6742 10.1134 33.9456 10.1406 34.2156 10.1963C35.0069 10.211 35.7983 10.2283 36.5896 10.2471C36.6057 10.2473 36.6223 10.2483 36.6384 10.249C37.5289 10.2679 38.2853 11.0803 38.2517 11.9482C38.2305 12.7694 38.2085 13.5911 38.1863 14.4121C38.1705 14.9862 38.1053 15.5387 38.0076 15.9765C38.1584 16.0759 38.319 16.1836 38.4851 16.2978C39.1736 16.7778 39.4955 17.0975 39.7546 17.3476C39.8277 17.4199 39.8946 17.4883 39.9607 17.5576C40.1703 17.7768 40.4148 18.065 40.6413 18.373C40.9135 18.7406 41.1592 19.1377 41.3367 19.4453C41.7366 20.2746 42.0097 21.1615 42.1511 22.0635C42.2248 22.5285 42.1955 22.9854 42.0906 23.3164C41.9855 23.6453 41.8226 23.8224 41.6589 23.8222C41.4938 23.8217 41.3376 23.6482 41.2009 23.3633C41.0641 23.0749 40.9523 22.6986 40.865 22.3027C40.6907 21.5058 40.3976 20.7392 40.0046 20.0322C39.5262 19.1707 38.9011 18.397 38.1706 17.7431C37.6599 17.2857 37.0936 16.8895 36.488 16.5674C36.4257 16.5342 36.3618 16.5013 36.2986 16.4697C35.7628 16.2523 35.2092 16.1034 34.8191 16.0146C34.4971 15.9405 34.2641 15.8747 34.0622 15.8222C33.9228 15.7864 33.7996 15.7581 33.6716 15.7451C33.6028 15.7382 33.509 15.7307 33.3962 15.7246C33.2158 15.7148 32.9873 15.7085 32.7312 15.7119C32.33 15.7163 31.8684 15.7476 31.4324 15.7939C31.115 15.8266 30.7451 15.8731 30.3933 15.9433C29.8911 16.0412 29.43 16.1916 29.2165 16.3076C28.8411 16.5085 28.4081 16.733 28.0417 16.9639C27.6918 17.1824 27.4017 17.4037 27.2654 17.5596C27.1032 17.7456 26.9419 17.8772 26.7126 18.0879C26.5544 18.2346 26.3627 18.4207 26.1355 18.7012C25.8742 19.026 25.694 19.2625 25.5456 19.4678C25.3397 19.757 25.1922 19.9879 25.0613 20.3662C24.9166 20.7867 24.7912 21.2287 24.6824 21.5732C24.6321 21.731 24.5882 21.9143 24.5495 22.1074C24.4984 22.3616 24.4575 22.6322 24.4148 22.8789C24.3795 23.0821 24.3354 23.2492 24.2995 23.4004C24.2885 23.4469 24.2781 23.4924 24.2693 23.5361C24.2664 23.6309 24.266 23.7267 24.2663 23.8222C24.2666 23.8936 24.2671 23.9652 24.2693 24.0361C24.2751 24.0628 24.2819 24.091 24.2888 24.1201C24.3234 24.2655 24.3691 24.4459 24.4089 24.664C24.4729 25.0122 24.5057 25.3174 24.5574 25.6406C24.5979 25.8914 24.651 26.1532 24.7507 26.4404C24.8187 26.636 24.9123 26.8533 25.0144 27.0625C25.1659 27.3748 25.3378 27.6686 25.4431 27.8808C25.4824 27.9605 25.5034 28.0369 25.5251 28.1123C25.5266 28.1174 25.5276 28.1238 25.529 28.1289C25.8403 28.6186 26.2042 29.074 26.6091 29.4853C26.6467 29.5184 26.6853 29.5515 26.7234 29.584C26.9097 29.7433 27.0984 29.888 27.2351 29.9648C27.3826 30.0488 27.7123 30.3045 28.0837 30.5332C28.326 30.6839 28.5853 30.825 28.8044 30.9228C28.9322 30.9802 29.0394 31.0592 29.1531 31.1387C29.2589 31.2126 29.3703 31.2865 29.5046 31.3389C29.5719 31.365 29.647 31.3872 29.7273 31.4092C29.7979 31.4285 29.8736 31.4481 29.9509 31.4707C30.0226 31.4916 30.1767 31.5584 30.3777 31.6338C30.5013 31.6803 30.6454 31.7303 30.7966 31.7754C31.2073 31.8616 31.6226 31.9169 32.0398 31.9404C32.1277 31.9296 32.2053 31.9105 32.2663 31.8838C32.31 31.8647 32.347 31.8401 32.3845 31.8154C32.4359 31.7816 32.4891 31.7459 32.5603 31.7178C32.6159 31.6958 32.6814 31.6877 32.7253 31.6972C32.7272 31.6977 32.7294 31.6978 32.7312 31.6982C32.7487 31.7029 32.7632 31.7109 32.7761 31.7178C32.7923 31.7263 32.8073 31.7337 32.8249 31.7334C32.8376 31.733 32.851 31.7264 32.8669 31.7187C32.8929 31.7063 32.9271 31.6907 32.9783 31.6885C33.1686 31.6807 33.3882 31.6708 33.6003 31.6523C33.837 31.6321 34.0676 31.6005 34.2478 31.5605C34.45 31.5163 34.7432 31.4718 35.0339 31.4072C35.2369 31.3626 35.4386 31.3088 35.6081 31.25C35.7738 31.1927 35.9383 31.1093 36.0925 31.0234C36.2779 30.9203 36.4505 30.8132 36.6111 30.7461C36.6435 30.7325 36.6945 30.7331 36.7576 30.7324C36.8021 30.7319 36.8542 30.7302 36.9099 30.7236C36.924 30.715 36.9378 30.7049 36.9519 30.6963C36.9872 30.5511 37.0425 30.4167 37.1189 30.3076C37.2407 30.134 37.4006 30.0361 37.5652 30.0361C37.5994 30.0362 37.6332 30.0415 37.6667 30.0498C37.7498 29.9441 37.8589 29.8369 38.0144 29.7431C38.091 29.6967 38.1531 29.6805 38.2087 29.666C38.2632 29.6517 38.3128 29.6383 38.363 29.5967C38.4202 29.5489 38.4711 29.4745 38.5242 29.3935C38.5989 29.2795 38.6784 29.1506 38.7956 29.0547C38.8036 29.0482 38.8132 29.0415 38.822 29.0342C38.9069 28.9639 39.031 28.8572 39.1736 28.7627C39.4778 28.391 39.7521 27.9923 39.991 27.5722C40.3895 26.8716 40.6897 26.1079 40.8708 25.3125C40.9598 24.9251 41.0719 24.5555 41.2078 24.2724C41.3435 23.993 41.4969 23.8228 41.6589 23.8222C41.8196 23.8221 41.9793 23.996 42.0847 24.3183C42.1899 24.6427 42.2236 25.0901 42.1579 25.5469C42.0521 26.2894 41.8568 27.0238 41.5749 27.7265C41.562 27.764 41.5485 27.8017 41.5349 27.8389C41.433 28.1161 41.3479 28.3818 41.2507 28.6455C41.2285 28.7059 41.2053 28.767 41.1814 28.8271C41.0072 29.2931 40.4181 30.0455 40.0505 30.4111C40.0441 30.4178 40.0374 30.4249 40.031 30.4316C39.9454 30.5199 39.8643 30.6045 39.7683 30.7012C39.5366 30.9268 39.2284 31.2517 38.4646 31.7529C38.3992 31.801 38.3311 31.8453 38.2644 31.8916C38.2734 32.0772 38.2849 32.2627 38.2927 32.4482C38.3181 33.0512 38.3347 33.6548 38.3347 34.2578C38.3347 34.6795 38.331 35.1017 38.324 35.5234C38.3232 35.5666 38.3228 35.6101 38.322 35.6533C38.3625 36.0076 38.3997 36.3621 38.4128 36.6113C38.4236 36.8164 38.402 36.9665 38.3835 37.0947C38.3708 37.183 38.3593 37.2618 38.3611 37.3408C38.362 37.3833 38.3639 37.4418 38.3669 37.5117C38.3792 37.7976 38.4006 38.2836 38.3611 38.7265C38.3435 38.9229 38.3091 39.1513 38.2761 39.3691C38.2289 39.6804 38.1847 39.9712 38.198 40.1181C38.2217 40.3758 38.2011 40.6725 38.1833 40.9336L38.1745 41.0224C38.106 41.4501 37.7235 41.6687 37.3425 41.4199C37.1356 41.2808 36.9537 41.1593 36.8328 41.1211C36.6884 41.0755 36.5858 41.0005 36.4333 40.8896C36.3275 40.8126 36.1971 40.7179 36.0124 40.6035C35.7994 40.4715 35.6576 40.3627 35.5369 40.2705C35.3669 40.1406 35.2384 40.043 35.0134 39.957C34.7634 39.8614 34.5106 39.7463 34.3288 39.626C34.2461 39.5712 34.1474 39.5155 34.0447 39.458C33.9084 39.3817 33.7646 39.3019 33.6423 39.2139C33.5415 39.1412 33.4691 39.0619 33.405 38.9922C33.3851 38.9705 33.3653 38.9501 33.3464 38.9306C33.2611 38.8819 33.1761 38.8325 33.0906 38.7842C33.0744 38.7807 33.0566 38.778 33.0388 38.7744C32.9912 38.7648 32.9375 38.7527 32.8796 38.7373C32.8203 38.7664 32.7601 38.7944 32.699 38.8222C32.5598 38.8856 32.4149 38.9523 32.2605 39.0478C32.1552 39.113 32.0391 39.1943 31.9245 39.2754C31.7544 39.3958 31.5862 39.5153 31.4568 39.5762C31.4083 39.5989 31.3576 39.6049 31.3083 39.6103C31.3052 39.6107 31.3017 39.611 31.2986 39.6113C31.0058 39.798 30.7132 39.986 30.4216 40.1748C30.3982 40.1942 30.3738 40.214 30.3503 40.2334C30.2353 40.328 30.1232 40.4203 30.0593 40.4961C29.9902 40.5782 29.7808 40.7238 29.5603 40.8769C29.4159 40.9772 29.2661 41.0813 29.1482 41.1728C29.0793 41.2263 28.9975 41.2497 28.9138 41.2734C28.8358 41.2955 28.7553 41.3187 28.6814 41.3672C28.6444 41.3915 28.6066 41.4227 28.5671 41.456C28.5325 41.4853 28.4959 41.5167 28.4558 41.5459C28.4462 41.5528 28.4322 41.5615 28.4158 41.5703C27.8481 41.8572 27.279 41.5687 27.3142 40.9336C27.3161 40.8789 27.325 40.7962 27.3357 40.6982C27.3445 40.6168 27.3548 40.5237 27.363 40.4267C27.3501 40.1698 27.3374 39.9122 27.3259 39.6553C27.3078 39.6018 27.2838 39.5553 27.2536 39.5185C27.232 39.4922 27.2059 39.4693 27.1794 39.4463C27.1435 39.415 27.1065 39.3825 27.0769 39.3379C27.0537 39.3028 27.0448 39.2611 27.0544 39.2334C27.059 39.2206 27.0674 39.2101 27.0749 39.2012C27.0835 39.1911 27.0907 39.1818 27.0906 39.1709C27.0903 39.1628 27.0843 39.1538 27.0769 39.1435C27.065 39.1271 27.0493 39.1056 27.0486 39.0732C27.0465 38.9511 27.0515 38.8117 27.0564 38.6758C27.0618 38.5246 27.0678 38.3765 27.0632 38.2588C27.0581 38.1268 27.0812 37.9382 27.1042 37.75C27.1203 37.6188 27.1358 37.4867 27.1423 37.374C27.1487 37.2636 27.1362 37.1484 27.1238 37.0371C27.1088 36.9033 27.0938 36.7744 27.114 36.665C27.1182 36.643 27.1435 36.6152 27.1745 36.581C27.1967 36.5566 27.2225 36.528 27.2458 36.4961C27.2458 36.3569 27.2469 36.2173 27.2488 36.0781C27.2454 36.0732 27.2415 36.0675 27.238 36.0625C27.2082 36.0196 27.1764 35.9698 27.1492 35.914C26.7 36.0136 26.1293 36.0752 25.5369 36.0869C24.2019 36.113 22.8661 36.1393 21.531 36.1601C19.9048 36.1855 18.2783 36.2031 16.6521 36.2031C15.5144 36.2031 14.3767 36.1994 13.239 36.1924C13.1219 36.1916 13.0045 36.1912 12.8874 36.1904C11.9317 36.231 10.9775 36.2671 10.3054 36.2803C9.75066 36.2911 9.34615 36.2695 8.99974 36.251C8.76133 36.2382 8.55011 36.2277 8.33666 36.2295C8.22204 36.2304 8.06542 36.2323 7.8767 36.2353C7.37484 36.2433 6.64484 36.2547 5.86693 36.251C5.12456 36.2633 4.40298 35.7207 4.20873 35.0127C4.16003 34.8474 4.13593 34.6696 4.14037 34.4912C4.1593 34.0372 4.18673 33.5397 4.21361 33.0615C4.26085 32.221 4.30525 31.4367 4.29173 31.041C4.26799 30.3461 4.2876 29.5488 4.30541 28.8447C4.32239 28.1733 4.33767 27.5861 4.31029 27.2519C4.2775 26.8527 4.2905 26.5119 4.31029 26.0058C4.32402 25.6547 4.34065 25.2233 4.3474 24.6377C4.35519 23.9618 4.37865 23.4836 4.39818 23.0771C4.42567 22.505 4.44596 22.0742 4.40795 21.4326C4.3657 20.7198 4.33894 19.9744 4.35228 19.3877C4.35835 19.1205 4.35676 18.815 4.35521 18.4971C4.35316 18.076 4.35177 17.6329 4.36693 17.2285C4.37943 16.8953 4.41091 16.6197 4.4392 16.376C4.44801 16.3 4.45621 16.2268 4.46361 16.1562C4.4632 15.8909 4.4626 15.6256 4.46166 15.3603C4.45651 15.3174 4.45093 15.2717 4.44505 15.2246C4.41555 14.988 4.3791 14.6969 4.36107 14.3369C4.33255 13.767 4.35089 13.2668 4.36986 12.7392C4.37898 12.4856 4.38877 12.2254 4.3933 11.9482C4.39566 11.6968 4.46225 11.4324 4.60228 11.1943C4.83014 10.7896 5.32426 10.4536 5.86693 10.4482C5.88643 10.4476 5.90603 10.4469 5.92552 10.4463C6.48567 10.427 7.03921 10.4079 7.42357 10.4199C7.56731 10.4244 7.69091 10.4449 7.81322 10.4648H7.81517C7.82347 10.4662 7.83226 10.4674 7.84056 10.4687C8.77638 10.4534 9.71236 10.4367 10.6482 10.4189C10.7293 10.4138 10.8121 10.4083 10.8933 10.4033C11.2901 10.3788 11.6761 10.355 11.9275 10.3213C12.2003 10.2847 12.8856 10.2636 13.6072 10.2412C14.0798 10.2265 14.5686 10.2117 14.9675 10.1914C15.2008 10.1795 15.4224 10.2003 15.6501 10.2217C15.8625 10.2416 16.0807 10.2619 16.3191 10.2568C16.4384 10.2543 16.5673 10.2455 16.7048 10.2363C16.826 10.2283 16.9545 10.2201 17.0886 10.2148C17.2133 10.21 17.4914 10.221 17.8474 10.2353C18.0673 10.2442 18.3176 10.2544 18.5798 10.2627C19.2731 10.2498 19.9666 10.2371 20.6599 10.2256C20.8044 10.2075 20.9297 10.1835 21.029 10.1533C21.1003 10.1316 21.162 10.1056 21.2244 10.0791C21.309 10.0431 21.3967 10.0062 21.5173 9.97655C21.6119 9.95334 21.7237 9.94446 21.7986 9.95409C21.8334 9.95858 21.8602 9.96694 21.8845 9.97459C21.9123 9.98335 21.9372 9.99042 21.9675 9.99022C21.9893 9.99004 22.012 9.98401 22.0398 9.97655C22.0845 9.96453 22.1437 9.94878 22.2322 9.94823C22.5615 9.94618 22.9358 9.95114 23.3025 9.95604ZM28.8445 33.4306C28.8478 33.4511 28.8512 33.4717 28.8542 33.4922C28.8769 33.6452 28.922 33.7876 28.9675 33.9297C28.978 33.9623 28.9886 33.9955 28.9988 34.0283C29.0761 34.2778 29.0445 34.7588 29.0271 35.0234C29.0268 35.0281 29.0264 35.0334 29.0261 35.0381C29.022 35.1006 29.0214 35.1601 29.0203 35.2295C29.0175 35.3954 29.0139 35.6201 28.9646 36.0879C28.9664 36.2239 28.9665 36.3601 28.9665 36.4961C28.9665 37.5285 28.933 38.5613 28.8874 39.5937C29.1026 39.4994 29.2687 39.4308 29.4119 39.373C30.4541 38.8429 31.4936 38.3072 32.5163 37.7431C32.5345 37.7331 32.5538 37.7229 32.572 37.7129C32.704 37.6255 32.9575 37.6427 33.0994 37.7129C33.3951 37.891 33.693 38.0667 33.9919 38.2392C34.2836 38.4077 34.5768 38.5738 34.8708 38.7383C35.0492 38.8218 35.2215 38.8983 35.3806 38.9687C35.604 39.0676 35.8031 39.1555 35.9617 39.2383C36.3438 39.4379 36.7527 39.7073 37.0564 39.9072C37.0698 39.9161 37.0834 39.925 37.0964 39.9336C37.0963 39.8976 37.0965 39.8604 37.0964 39.8222C37.0957 39.615 37.0951 39.3745 37.1013 39.0918C37.1053 38.9097 37.139 38.8157 37.1667 38.7392C37.1748 38.717 37.1831 38.6959 37.1892 38.6748C37.2102 38.6016 37.1868 38.5237 37.1599 38.4326C37.1249 38.3145 37.083 38.1724 37.1208 37.9853C37.2418 37.3881 37.1605 37.1239 37.0984 36.9248C37.0802 36.8666 37.0636 36.8138 37.0544 36.7597C37.0249 36.5841 37.0542 36.3337 37.0945 36.1445C37.1263 35.9944 37.0947 35.6934 37.0544 35.4658C37.0393 35.3797 37.0382 35.2629 37.0378 35.126C37.0375 34.9842 37.0373 34.8199 37.0203 34.6445C36.9771 34.201 36.956 33.9649 36.9392 33.7754C36.9344 33.7214 36.9301 33.6703 36.9255 33.6201C36.9112 33.4612 36.8993 33.264 36.8874 33.0644C36.8799 32.939 36.8683 32.8128 36.8601 32.6943C35.5686 33.2864 34.1416 33.581 32.7312 33.5478C31.648 33.5255 30.5731 33.3177 29.5661 32.9365C29.5324 32.9252 29.4971 32.9143 29.4626 32.9023C29.2445 32.829 29.0143 32.7362 28.7869 32.6347C28.8061 32.9001 28.8266 33.1654 28.8445 33.4306ZM5.86693 11.5137C5.63648 11.4995 5.41237 11.7064 5.41283 11.9482C5.40619 12.5549 5.40064 13.1619 5.39623 13.7685C5.38905 14.7555 5.38549 15.7425 5.38548 16.7295C5.38548 17.6385 5.3877 18.548 5.39232 19.457C5.40917 19.9862 5.42944 20.4894 5.44798 20.956C5.47405 21.6119 5.49707 22.1964 5.50463 22.6787C5.52281 23.8406 5.49373 25.1589 5.4724 26.1377C5.46892 26.2974 5.46548 26.4483 5.46263 26.5879C5.4732 27.3651 5.48525 28.1427 5.49681 28.9199C5.49038 28.9718 5.48318 29.025 5.4763 29.0781C5.39053 29.7415 5.3917 30.5572 5.3933 31.8408C5.39399 32.3998 5.39462 33.0478 5.38841 33.8105C5.38595 34.1127 5.37194 34.3249 5.35521 34.4912C5.3449 34.5455 5.34148 34.5924 5.34252 34.6367C5.34341 34.6703 5.34685 34.7025 5.35521 34.7344C5.38409 34.845 5.49241 34.9343 5.62181 34.9697C5.69767 34.9908 5.77926 34.9959 5.86693 34.9853C6.08068 34.9723 6.32196 34.9683 6.60033 34.9892C8.21088 35.1102 8.92082 35.0279 9.45775 34.9658C9.61525 34.9476 9.75886 34.932 9.90502 34.9228C10.3789 34.8932 11.0539 34.9226 11.5642 34.9629C11.9688 34.9948 12.7783 34.9631 13.3923 34.9228C13.6244 34.9076 13.9387 34.9066 14.3083 34.9062C14.691 34.9059 15.1345 34.9058 15.6081 34.8887C16.8051 34.8454 17.4415 34.8244 17.9529 34.8076C18.0986 34.8028 18.2343 34.7985 18.3699 34.7939C18.7984 34.7796 19.3304 34.7678 19.8689 34.7558C20.5134 34.7416 21.168 34.7273 21.6658 34.708C22.956 34.7285 24.2468 34.754 25.5369 34.7793C26.1439 34.7913 26.7283 34.8549 27.1824 34.959C27.184 34.9455 27.1854 34.9315 27.1892 34.918C27.191 34.9116 27.1931 34.9045 27.1951 34.8974C27.2137 34.8295 27.2411 34.7288 27.2966 34.6289C27.3115 34.3319 27.3294 34.0342 27.3484 33.7373C27.38 33.2423 27.4158 32.7468 27.4519 32.2519C27.4603 32.1382 27.4823 32.0268 27.5154 31.9228C26.9668 31.5252 26.6332 31.2017 26.3689 30.9297C24.7535 29.4053 23.7073 27.3292 23.4275 25.1592C23.369 24.7151 23.3408 24.2698 23.3425 23.8222C23.3435 23.5831 23.353 23.3475 23.3708 23.1094C23.418 22.4812 23.5259 21.8562 23.6941 21.248C23.7781 20.8907 23.8759 20.5525 23.9822 20.2441C24.1315 19.8103 24.298 19.4331 24.4587 19.1347C24.8417 18.412 25.4397 17.6914 25.9353 17.2197C26.0156 17.1421 26.0936 17.0704 26.1658 17.0049C26.5495 16.6205 26.9669 16.2674 27.4119 15.9521C27.4453 15.9372 27.4799 15.9219 27.5144 15.9072C27.9501 15.7268 28.431 15.4259 29.2576 15.0898C29.6182 14.9458 30.0455 14.7998 30.5622 14.6836C30.8959 14.6099 31.0745 14.6154 31.2195 14.6191C31.2619 14.6204 31.3029 14.6218 31.3425 14.6221C31.479 14.6229 31.6176 14.582 31.7839 14.5381C31.9973 14.4816 32.2628 14.4189 32.613 14.4521C32.6531 14.456 32.6927 14.46 32.7312 14.4639C33.7577 14.5769 34.2169 14.6067 34.5837 14.6113C34.6942 14.6149 34.7961 14.6204 34.8972 14.6347C35.226 14.6795 35.6742 14.8435 35.991 15.0058C36.2012 15.1092 36.5984 15.2591 36.9538 15.4033C36.9136 15.094 36.8871 14.7568 36.8777 14.4121C36.8555 13.5911 36.8334 12.7694 36.8122 11.9482C36.8058 11.8923 36.7821 11.849 36.7449 11.8144C36.7348 11.8079 36.724 11.8025 36.7136 11.7978C36.6676 11.7773 36.623 11.7877 36.5896 11.8115C36.4251 11.829 36.2627 11.8479 36.1003 11.8672C36.0124 11.8776 35.924 11.8882 35.8357 11.8984C35.163 11.9758 33.8656 11.9441 33.1521 11.9267C33.1391 11.9265 33.126 11.926 33.113 11.9258C32.9437 11.9217 32.7831 11.9211 32.5954 11.9199C32.1479 11.9171 31.5429 11.9136 30.281 11.8642C29.9139 11.8661 29.5465 11.8662 29.1794 11.8662C25.2143 11.8662 21.2491 11.8027 17.2839 11.7256C17.234 11.726 17.1829 11.7261 17.1316 11.7265C16.1371 11.7345 14.9035 11.7441 14.1286 11.7158C13.1435 11.6799 12.4741 11.6469 11.9245 11.6181C9.90537 11.5784 7.88612 11.5412 5.86693 11.5137Z" fill="#1A2A4F"/>
</g>
<defs>
<clipPath id="clip0_33_2519">
<rect width="48" height="48" fill="white"/>
</clipPath>
</defs>
</svg>
