<svg width="100%" height="100%" viewBox="0 0 48 48" fill="none" xmlns="http://www.w3.org/2000/svg">
<g clip-path="url(#clip0_33_2521)">
<path d="M41.1087 13.6432C41.0534 14.1535 40.9606 14.6851 40.8156 15.2213C40.7277 15.3852 40.3907 15.2054 40.4252 15.5089C40.558 15.4669 40.6914 15.4219 40.8238 15.3747C40.7752 15.4332 40.6819 15.5827 40.595 15.7418C40.6395 15.8313 40.6689 15.9312 40.6731 15.9829C41.0578 16.0309 41.515 16.0837 41.3895 16.0925C41.4337 16.0963 41.4782 16.0996 41.5224 16.1034C41.4482 16.1328 41.3733 16.1617 41.2991 16.1911C41.6775 16.2441 41.9046 16.3068 41.8607 16.3212C41.8464 16.3239 41.653 16.322 41.6169 16.3199C41.5497 16.3156 41.525 16.2989 41.3991 16.2925C41.3732 16.2912 41.2863 16.3141 41.4991 16.3336C41.5221 16.3323 41.4191 16.3099 41.4676 16.313C41.8258 16.3368 41.5323 16.4044 41.6744 16.424C41.7436 16.4289 41.8134 16.4341 41.8826 16.439C41.8481 16.4417 41.8131 16.4446 41.7785 16.4473C41.7188 16.4387 41.6589 16.4298 41.5991 16.4212C41.5597 16.4243 41.602 16.4384 41.5443 16.439C41.5299 16.4385 41.3675 16.419 41.3539 16.4199C41.368 16.4234 41.5848 16.4454 41.6087 16.4514C41.6354 16.4583 41.4683 16.4609 41.4717 16.4678C41.4866 16.4937 41.6176 16.5317 41.5169 16.5459C41.3434 16.5029 41.1619 16.5105 41.2375 16.5253C41.2572 16.5289 41.696 16.5731 41.584 16.587C41.5117 16.5958 40.8804 16.5171 41.1936 16.576C41.6376 16.6005 41.6054 16.6173 41.6183 16.6349C41.6127 16.6392 41.5543 16.6539 41.5717 16.6651C41.5854 16.6699 41.8068 16.6982 41.8141 16.7034C41.8077 16.7057 41.692 16.697 41.6977 16.702C41.7235 16.7261 41.7309 16.7481 41.6868 16.765C41.0961 16.6923 41.427 16.7484 41.4032 16.7472C41.2411 16.7359 41.1969 16.7074 41.095 16.7061C41.1121 16.7208 41.1285 16.7367 41.1457 16.7513C41.2199 16.7483 41.646 16.816 41.4511 16.8007C41.9773 16.8523 40.9873 16.8119 41.1621 16.839C41.2003 16.8447 41.4589 16.8592 41.3388 16.876C41.3254 16.8778 41.1697 16.8611 41.1799 16.8637C41.1845 16.8647 41.3257 16.8804 41.4183 16.8924C41.7214 16.8621 41.9813 16.8502 41.9484 17.0568C41.9881 17.0356 42.0279 17.0136 42.0676 16.9924C42.1311 17.4059 42.1944 17.8201 42.258 18.2335C42.6711 18.2654 43.0283 18.5982 43.0552 18.8116C43.0609 18.8544 42.9356 19.1156 42.9073 19.1417C42.8527 19.1899 42.7778 19.0472 42.6812 19.1554C42.6615 19.1781 42.6938 19.5397 42.8881 19.4485C42.899 19.4032 42.7582 19.3194 42.799 19.2841C43.0946 19.0353 43.1679 20.1583 43.3223 20.1636C43.3803 20.1188 43.4383 20.074 43.4963 20.0293C43.4857 20.1051 43.4754 20.181 43.4648 20.2567C43.3987 20.2496 43.3322 20.2419 43.2662 20.2348C43.2539 20.322 43.33 20.4089 43.299 20.4964C43.2937 20.5108 43.1188 20.537 43.1196 20.5663C43.1212 20.5956 43.3466 20.5148 43.384 20.5457C43.4242 20.5819 43.3337 20.8352 43.3607 20.9033C43.4631 21.158 43.6801 21.3771 43.673 21.669C43.4151 21.4561 43.3353 21.7837 43.4333 21.8347C43.4558 21.8457 43.876 21.7027 43.8607 22.0073C43.8506 22.2014 43.1943 22.2454 43.5922 22.4306C43.9405 22.0694 43.9834 22.2956 44.0552 22.4635C44.0676 22.4926 44.0846 22.7541 44.1387 22.8539C44.158 22.8878 44.3957 22.8696 44.4182 22.9155C44.433 22.9473 44.3223 23.0122 44.3442 23.0594C44.4481 23.2795 44.5328 23.5024 44.5688 23.7456C43.9581 23.801 44.3593 23.932 44.3387 23.9525C44.2029 24.0588 44.0764 23.8264 44.0127 23.9566C44.0758 24.0871 44.1386 24.2178 44.2017 24.3484C44.2351 24.2136 44.7301 24.3383 44.5606 24.4484C45.0551 24.2596 44.3328 25.2185 44.5332 25.2607C44.5706 25.2661 44.7236 25.1104 44.7606 25.2839C44.8186 25.4685 44.8819 25.7009 44.9414 26.0045C44.9849 26.2361 44.8078 26.1867 44.8497 26.3017C44.8758 26.3628 45.4708 26.7208 45.251 27.251C45.2107 27.3441 45.0743 27.1211 45.0017 27.1811C44.9166 27.2434 44.9722 27.565 45.0127 28.7907C45.2732 28.301 45.3815 29.1806 45.1633 30.2728C44.9642 31.3686 44.3511 32.5468 44.1031 32.8631C44.2374 32.7521 44.3701 32.6361 44.5004 32.5152C43.993 33.1652 44.0563 33.3542 43.9593 33.5111C43.657 33.9762 43.1579 34.4714 42.7333 34.8918C42.7365 35.0017 42.7235 35.1241 42.7018 35.1343C42.6073 35.1656 42.5893 35.1135 42.5621 35.0631C42.5022 35.1228 42.4447 35.1803 42.3908 35.2357C42.4125 35.4167 42.4458 35.6452 42.395 35.7137C42.2937 35.8488 41.7096 35.9101 42.3662 35.911C41.7216 35.9491 42.161 35.9827 42.1566 36C42.1276 36.1016 42.1107 36.1539 42.1087 36.2014C42.105 36.4442 42.1187 36.6585 42.1128 37.1096C42.1093 37.3038 41.8941 37.4449 41.9183 37.515C41.9326 37.5572 42.1519 37.5093 42.1881 37.715C42.2696 38.016 41.638 39.5847 41.4607 39.6396C41.3167 39.7163 41.6277 38.9721 41.3991 39.0547C41.2173 39.5972 41.0597 40.1284 40.7868 40.6369C40.6717 40.8464 40.6084 40.6761 40.5594 40.7656C40.5459 40.8067 40.2371 41.569 40.2895 41.5642C40.3623 41.5584 40.7185 41.0035 40.9772 40.4958C41.2412 39.9902 41.4323 39.5455 41.4224 39.9109C41.4178 40.0564 40.9507 40.3633 41.3196 40.4465C40.2753 42.5823 38.5268 44.2786 36.4294 45.2532C37.471 44.4156 38.7635 43.7052 39.6252 42.608C39.7463 42.4648 40.1512 41.9697 39.9498 41.9231C39.2635 42.8411 38.2845 43.9187 37.2869 44.4203C37.2559 44.4357 37.2668 44.2245 37.1444 44.2737C36.9258 44.3701 36.3698 44.9985 36.2089 44.9915C36.1845 44.9878 36.4766 44.5813 36.2883 44.5203C35.8227 44.355 36.1055 45.1125 35.8143 45.234C35.5871 45.36 33.9863 45.478 33.6528 45.7559C33.2898 46.1096 34.8304 45.6408 34.776 45.8531C33.847 46.3489 32.7528 46.3215 31.8063 46.3093C31.7236 46.3085 31.6414 46.3078 31.5597 46.3079C31.5417 46.3088 31.6967 46.4813 31.4624 46.4983C31.0517 46.5229 30.9604 46.2712 30.772 46.2148C30.5651 46.1607 29.8193 46.0712 29.7406 45.9586C29.7332 45.9436 29.9254 45.7436 29.9474 45.7408C30.2708 45.704 30.3372 46.0157 30.3666 46.0285C30.4741 46.056 30.5964 45.953 30.694 45.9709C30.8558 46.0005 30.9341 46.1189 31.1515 46.1435C31.301 46.1598 31.17 45.9426 31.3118 45.96C31.3467 45.9667 31.6149 46.2017 31.8063 46.1846C31.893 46.1773 31.9598 46.1184 31.9734 45.9655C31.9749 45.9474 31.9145 45.9305 31.8063 45.912C31.3993 45.8489 30.2963 45.7207 29.294 45.3942C28.2868 45.0868 27.4139 44.6103 27.2146 44.56C27.5259 44.798 27.8562 45.0202 28.2023 45.2216C27.5659 44.8379 26.6383 44.6582 26.7146 44.2135C26.5603 44.2313 26.3935 44.2256 26.3174 44.2354C26.2861 44.2403 26.3302 44.3619 26.3284 44.371C26.3169 44.3722 26.3074 44.3667 26.2969 44.3628C26.6404 44.5748 27.0556 44.8167 27.4927 45.0148C28.4456 45.4698 29.4648 45.7167 29.6132 45.7901C29.706 45.8373 29.5057 46.4991 29.1461 46.1339C29.101 46.0871 29.4003 45.9777 29.3652 45.9257C29.3305 45.9016 28.4977 45.551 28.4571 45.5422C28.4085 45.5439 28.3846 45.7678 28.3324 45.775C28.2696 45.7845 27.8083 45.3985 27.5475 45.2682C27.0507 45.0255 26.9161 45.1438 26.8735 45.1244C26.754 45.0596 26.6233 44.8371 26.3968 44.6929C26.1235 44.534 25.8293 44.3291 25.5339 44.097C25.2362 44.2404 24.977 44.4311 25.001 44.5929C24.9882 44.5536 24.9582 44.5081 24.9079 44.4587C24.7954 44.3509 24.413 44.447 24.3503 44.523C24.3403 44.5382 24.387 44.9083 24.3723 44.9134C24.3299 44.9298 23.8111 44.6814 23.6353 44.9025C23.7381 44.9518 23.8428 44.9994 23.9504 45.0449C23.3279 45.0778 23.4194 45.1746 23.6353 45.2847C23.6458 45.2854 23.6567 45.2994 23.6668 45.3011C23.8336 45.3793 24.0572 45.4435 24.0627 45.4723C24.0757 45.5409 23.6657 45.6171 23.3901 45.5655C23.2119 45.5337 23.0959 45.4565 23.1819 45.323C23.1951 45.3026 23.298 45.3227 23.3901 45.3285C23.5086 45.336 23.6046 45.3217 23.4641 45.1847C23.4532 45.1741 23.4258 45.1709 23.3901 45.171C23.2818 45.1717 23.0979 45.2004 23.086 45.1792C23.0263 45.0732 23.2298 44.9583 23.3901 44.823C23.5104 44.7227 23.6071 44.6128 23.5709 44.5039C23.5174 44.5919 23.4549 44.6324 23.3901 44.6504C23.2717 44.6833 23.145 44.6421 23.0257 44.6778C22.9424 44.7036 22.9105 44.8872 22.8997 44.8901C22.738 44.9292 22.8399 44.7394 22.7874 44.7408C22.762 44.7446 22.4099 45.1298 22.5271 44.5628C21.4673 44.8438 22.1886 44.9704 22.8367 44.9806C22.6208 45.1793 22.2248 45.0344 22.0408 45.0532C21.9734 45.0605 21.9825 45.2569 21.8641 45.2764C21.6128 45.3325 20.5796 44.839 20.3423 44.6778C20.5296 44.6719 20.5475 44.4572 20.4203 44.4271C20.2923 44.3961 20.2998 44.6961 20.2655 44.7162C20.2239 44.7396 19.6859 44.377 19.5793 44.36C19.9926 44.4494 20.0281 44.2838 19.808 44.1203C19.7556 44.1441 19.6984 44.1717 19.6327 44.197C19.377 44.2886 19.4589 43.9729 19.2341 44.1614C19.2352 44.2812 19.2243 44.3674 19.2122 44.4299C19.3129 44.4481 19.4049 44.4615 19.3669 44.6189C19.3338 44.5848 19.2443 44.5542 19.1889 44.5162C19.1137 44.6692 18.9643 44.47 18.8985 44.5093C18.6293 44.6684 18.5244 44.8845 18.4985 44.9011C18.1591 45.1076 17.6188 45.3228 17.215 45.4901C17.2073 45.4953 17.4852 45.5856 17.1972 45.634C17.0767 45.657 16.0392 45.2023 15.3712 45.5655C15.5717 45.5824 15.776 45.5937 15.9808 45.5983C15.7481 45.6154 14.1586 46.0083 14.5698 46.1613C14.8408 46.2669 15.3641 45.6858 15.5123 46.1394C15.2345 46.1241 14.3987 46.2649 13.5712 46.2791C12.667 46.3089 11.7549 46.1828 11.6412 46.1011C11.6117 46.08 11.8384 45.9631 11.7973 45.9353C11.765 45.9202 11.0708 45.8147 10.996 45.7285C10.9517 45.6817 11.2712 45.6606 11.259 45.5997C11.2379 45.5623 10.4441 45.277 10.3385 45.4367C10.5617 45.4324 11.1187 45.6508 10.7727 45.7271C10.7262 45.7345 10.559 45.5569 10.5056 45.5668C9.99186 45.6652 11.3414 45.9963 11.5576 46.0148C10.6368 46.1047 9.41864 45.3908 8.46867 45.0449C8.18734 44.7131 9.11424 45.1021 8.7714 44.7737C8.09138 44.0876 8.44178 44.8504 8.40977 44.8573C8.10256 44.883 7.91622 43.7259 7.54952 44.2724C7.32612 43.9926 7.46509 43.995 7.0331 43.771C7.05397 43.8461 7.07595 43.9218 7.09886 43.997C6.40006 43.9686 6.24788 42.4644 6.38244 42.482C6.66716 42.4983 6.86078 43.093 6.90845 43.1231C6.98078 43.1647 7.52023 42.774 7.77828 43.7025C8.27641 43.5203 7.02038 42.7366 7.73856 42.908C7.3115 42.6968 6.30749 41.1682 6.03314 41.0547C5.99493 41.0438 5.7132 41.433 5.63452 40.9204C5.60176 40.6802 5.90411 41.1065 5.93177 40.9656C5.97005 40.7519 5.36398 39.8527 4.95235 38.7794C4.51723 37.7157 4.32153 36.509 4.29621 36.1288C4.29243 36.079 4.43327 36.0879 4.42908 36.0398C4.42112 35.9508 4.33408 35.7289 4.28799 35.5C4.25684 35.4534 4.2392 35.4068 4.2647 35.374C4.0062 35.5428 3.98557 35.2137 4.01403 35.1302C4.05767 35.0039 4.30384 35.0121 4.35648 34.9576C4.5581 34.7464 3.97413 34.419 4.51949 34.2549C3.97812 34.2638 4.78596 33.9703 4.79071 33.8371C4.79396 33.7328 4.43502 33.5813 4.21676 33.722C4.24151 33.542 4.14144 33.3525 4.10854 33.1837C4.10513 33.1657 4.1697 33.1737 4.21265 33.17C4.19992 33.1583 4.18806 33.1459 4.17566 33.1344C4.13172 33.1275 4.08244 33.1177 4.07293 33.096C4.06136 33.0675 4.05628 33.0411 4.05101 33.0193C3.28392 32.2884 3.23307 32.0524 3.2661 32.0673C3.31882 32.07 3.56442 32.2792 3.45925 32.0276C3.35061 31.8362 2.5004 30.7456 2.38257 30.3742C2.35181 30.2942 2.4903 30.2801 2.37572 29.9742C2.17655 29.4324 1.9261 28.9471 1.8593 28.5606C1.858 28.5153 2.04854 28.4837 1.93464 27.777C1.90597 27.5788 1.82788 27.3485 1.76889 27.64C1.53939 28.6447 2.36536 30.4127 2.77845 31.4289C2.96385 31.9114 2.60857 31.4868 2.28258 30.8495C1.94773 30.2168 1.72709 29.3665 1.71273 29.2838C1.69679 29.2253 1.95375 29.8166 1.82369 29.1838C1.7438 28.7751 1.42231 28.1163 1.35932 27.4346C1.33913 27.4082 1.33314 27.3813 1.35247 27.3565C1.36158 27.3477 1.6817 27.2635 1.7004 27.2674C1.71451 27.2719 1.78419 27.4014 1.87711 27.3825C1.8875 27.3792 1.8862 27.2974 1.95519 27.2866C2.0408 27.2734 2.85783 27.2387 2.88941 27.2209C2.94044 27.1758 2.75442 27.204 2.76475 27.1757C2.79249 27.1127 3.03813 26.8939 2.75105 26.8866C2.73399 26.9227 2.71607 26.9588 2.699 26.9948C2.6694 26.7942 2.54745 26.8795 2.49353 26.851C2.43601 26.8206 2.68639 26.829 2.71133 26.762C2.71655 26.7472 2.66396 26.4637 2.55791 26.4688C2.7267 26.6255 2.41418 26.5671 2.4086 26.5743C2.38876 26.6017 2.56413 26.6375 2.56065 26.6743C2.53293 26.9324 2.25639 26.6721 2.18532 26.7332C2.16275 26.7543 2.31074 26.7955 2.30312 26.8044C2.27835 26.8335 2.08318 26.8344 2.09902 26.8538C2.13686 26.8978 2.40783 26.847 2.42641 26.8496C2.59985 26.89 2.38414 27.0481 2.08258 26.9496C1.97516 27.0085 2.33934 27.0154 2.19491 27.062C1.90511 27.155 1.97837 27.0164 1.93053 26.9784C1.75675 26.8428 1.89785 26.802 1.84971 26.6099C1.83256 26.5412 1.65576 26.4602 1.64424 26.4277C1.63809 26.4075 2.25754 26.2156 1.28809 26.2099C1.38238 26.1358 2.02138 26.0192 1.99217 25.9428C1.96457 25.8747 1.62286 25.8971 1.60863 25.8908C1.58778 25.881 1.61463 25.7969 1.56616 25.7689C1.50866 25.7363 1.37828 25.7524 1.32507 25.7004C1.19364 25.5713 1.53902 25.5738 1.56479 25.5606C1.82664 25.4064 1.33444 25.4735 1.29083 25.4401C1.25415 25.4082 1.44517 24.9595 1.31959 24.8648C1.38949 24.9031 1.45928 24.9416 1.52918 24.9798C1.74753 24.9111 1.39239 24.8387 1.78396 24.8374C1.15369 24.8235 1.57159 24.6819 1.55794 24.6388C1.55122 24.622 1.44341 24.6228 1.43877 24.6018C1.41996 24.5196 1.5057 24.334 1.4511 24.2895C1.21591 24.097 0.82406 24.5904 0.800433 24.6292C0.807406 24.5515 0.666006 24.1122 0.362091 24.3141C0.31626 24.3453 0.596738 24.4006 0.608658 24.4182C0.681427 24.5367 0.429084 24.4434 0.404555 24.4525C0.365635 24.4683 0.610455 24.5469 0.581262 24.5675C0.567733 24.5734 0.342216 24.5308 0.337434 24.6429C0.115618 24.5871 0.295743 24.2703 0.244287 24.2278C0.22563 24.213 -0.250015 24.3053 0.211411 24.0333C0.167572 24.0364 0.123747 24.0398 0.0799085 24.0429C0.0617317 23.8914 0.0432926 23.7396 0.0251158 23.5881C0.12685 23.6046 0.331363 23.6897 0.288121 23.5826C0.263033 23.5209 0.0357995 23.5663 0.0292253 23.5607C-0.0325867 23.5026 0.0420458 22.5263 0.0168969 22.3361C0.00869274 22.2715 -0.172865 22.0909 -0.176247 22.0772C-0.194247 21.995 -0.0770871 21.7057 -0.102277 21.6471C-0.118685 21.611 -0.306366 21.6443 -0.299531 21.6128C-0.291012 21.5828 -0.107194 21.6135 -0.0995376 21.6046C-0.0334155 21.5303 -0.2735 20.9682 -0.100907 20.8348C-0.152653 20.9162 0.211905 21.3224 0.341544 21.3156C0.359242 21.3138 0.498492 21.2154 0.430582 21.195C0.589071 21.1613 0.107045 21.0443 0.201822 20.9813C0.214999 20.9746 0.482448 21.0022 0.531949 20.8909C0.548728 20.8522 0.338442 20.7504 0.574413 20.6485C0.513159 20.5683 0.588459 20.3042 0.623726 20.0704C0.649706 19.3834 0.736126 18.7166 0.618247 18.6033C0.60247 18.5945 0.453132 19.0018 0.36757 18.7047C0.260548 18.3018 0.741537 18.7117 0.853856 18.2855C0.852087 18.2261 1.08637 16.9819 1.08672 16.9294C0.911417 16.459 0.478066 17.5332 0.457978 17.5212C0.369968 17.4653 0.584179 16.5006 0.627836 16.4678C0.658042 16.4432 0.792443 17.3132 0.945633 16.3651C0.864724 16.4522 0.784458 16.5418 0.705915 16.6322C0.759286 16.1701 1.04147 16.2241 1.09357 16.1295C1.25972 15.8433 1.02704 15.3134 1.73191 15.0692C1.91692 15.0098 1.94758 15.2812 1.97437 15.2747C2.13487 15.2352 2.03402 15.0272 2.09354 14.8898C2.02688 14.7265 1.98611 14.5717 1.98806 14.4528C1.98585 14.3767 2.15048 14.0062 2.18532 13.9788C2.24823 13.9259 2.29725 14.1865 2.41271 14.0569C2.43025 14.0273 2.47111 13.5913 2.34011 13.5186C2.32356 13.5488 2.30577 13.5785 2.28942 13.609C2.31415 13.6874 2.3539 13.7814 2.3223 13.8049C2.26893 13.8452 2.23059 13.8317 2.19902 13.7857C2.1658 13.8503 2.13125 13.9146 2.09902 13.9802C2.06902 13.8836 2.10121 13.7876 2.15792 13.6925C2.11608 13.5452 2.10355 13.2993 2.11135 13.057C2.11267 13.0014 2.11819 12.9454 2.12094 12.8898C2.05246 12.9635 1.98353 13.0393 1.94834 13.0953C1.89981 12.9549 2.01503 12.782 2.13053 12.6748C2.14482 12.4356 2.15399 12.2416 2.11135 12.2104C2.03927 12.2455 1.96664 12.2813 1.89492 12.3172C1.93601 12.2053 1.97918 12.0911 2.02368 11.9789C2.07962 12.0311 2.13553 12.0831 2.19217 12.1337C2.24128 12.0076 2.21526 11.8252 2.28668 11.7091C2.2986 11.6902 2.46652 11.7619 2.47983 11.7159C2.49314 11.67 2.25443 11.6506 2.23737 11.5775C2.21827 11.4951 2.43759 11.1592 2.45791 11.0337C2.52509 10.5659 2.51189 10.0427 2.75927 9.59405C2.77851 10.1347 3.09878 9.69504 3.07159 9.54063C3.06221 9.50548 2.63565 9.36391 2.92639 8.91188C3.11732 8.62929 3.5851 9.15094 3.50582 8.53518C2.93174 8.73868 3.11902 8.37172 3.25378 8.0626C3.27524 8.00773 3.54608 7.626 3.63048 7.44344C3.65809 7.38017 3.51086 7.17218 3.55377 7.08865C3.58341 7.03151 3.71693 7.05596 3.76061 6.97359C3.96657 6.58963 4.20221 6.23855 4.49072 5.94212C4.81604 6.49744 4.80466 5.9567 4.84003 5.96129C5.02397 5.99139 4.79594 6.34925 4.97975 6.28183C5.10895 6.08924 5.24358 5.90342 5.37836 5.72569C5.19867 5.81554 5.17076 5.2028 5.37014 5.2805C5.22064 5.1566 5.32139 5.06282 5.50713 4.99283C5.82711 4.86944 6.40764 4.82778 6.41395 4.67778C6.41762 4.6274 6.06921 4.5732 6.55641 4.32573C6.60991 4.30085 6.69299 4.43822 6.70709 4.40792C6.71115 4.38571 6.49044 3.92231 6.7564 4.06958C6.85447 4.1259 6.82945 4.55306 7.23995 4.08738C6.72847 3.8093 7.81339 3.35702 8.07143 3.37782C7.99998 3.33876 7.92733 3.30072 7.85499 3.26275C8.13208 3.31737 8.08066 3.14874 8.12759 3.13262C8.31772 3.07097 8.63558 3.10616 8.79058 3.01482C8.97286 2.90839 8.84261 2.6148 9.12482 2.62853C9.04198 2.58689 8.95865 2.54509 8.87414 2.50524C9.04291 2.44857 9.21302 2.39618 9.38371 2.34772C9.16575 2.89119 9.468 2.33787 9.50014 2.31484C9.54337 2.28202 9.53543 2.47031 9.60836 2.42032C9.61562 2.41396 9.54628 2.2645 9.66726 2.20115C9.92092 2.07153 9.9455 2.2824 10.0549 2.24361C10.0609 2.23421 9.98609 2.10804 10.1659 2.01622C10.7518 1.72926 10.1993 2.12039 10.1796 2.15183C10.1585 2.18822 10.5409 2.70885 9.97821 2.66551C10.1665 2.67409 10.2663 2.92531 10.2878 2.92989C10.3051 2.92903 10.5712 2.80878 10.5892 2.79428C10.703 2.66552 10.5307 2.52073 10.5481 2.48059C10.5664 2.44594 10.9693 2.58986 10.9234 2.02581C11.2113 2.4908 10.9343 2.50265 10.6796 2.65592C10.6692 2.76808 10.9947 2.78885 11.0097 2.78606C11.391 2.694 11.0853 2.32922 11.1124 2.04362C11.1293 1.89443 11.3571 2.14297 11.1234 1.80253C11.4915 1.68538 11.3066 1.94899 11.3371 1.9765C11.382 2.01606 11.4896 1.88604 11.5097 1.89568C11.5369 1.91265 11.4797 2.05804 11.5795 2.08745C11.5948 2.09156 11.708 1.84068 11.4932 1.76828C11.7603 1.75396 11.7097 1.56733 11.8562 1.93951C11.9272 1.18335 12.0451 2.34901 12.1151 2.38607C12.3013 2.47139 12.1848 1.90914 12.1891 1.87376C12.2362 1.68258 12.7554 1.83355 12.8672 1.74637C12.8473 2.16429 12.4809 1.77923 12.4069 1.86965C12.1817 2.16321 12.7809 2.04392 12.6439 2.58469C12.7041 2.43466 12.7678 2.2843 12.8329 2.13539C12.9889 2.46465 12.8097 2.62091 13.1548 2.48196C13.2016 2.18763 12.9074 2.53876 12.9576 2.30662C12.9876 2.16969 13.1965 2.13199 13.1987 2.06142C13.2 1.97541 13.0132 2.0844 13.037 1.95184C13.0967 1.66088 13.7953 1.92089 13.274 2.08471C13.402 2.07794 13.4774 2.50306 13.5712 2.4984C13.5855 2.49771 13.6007 2.48701 13.6164 2.46415C13.6449 2.42093 13.603 2.28579 13.5712 2.14087C13.5441 2.01607 13.5246 1.88316 13.5712 1.79568C13.6161 1.71245 13.7216 1.66869 13.9397 1.71897C13.9456 1.98177 13.6632 1.79658 13.648 1.81212C13.6377 1.84143 13.6838 2.43827 13.6918 2.47374C13.7119 2.56659 14.4245 2.27485 14.5548 2.59565C14.5265 2.24145 15.1057 2.59384 15.1876 2.50387C15.2102 2.47765 15.1732 2.2562 15.1958 2.23676C15.3407 2.12151 15.61 2.55366 15.7575 2.59565C15.925 2.64184 15.9439 2.4592 15.9534 2.46141C16.0276 2.48866 15.9398 2.59643 15.9862 2.60661C16.0584 2.61953 16.5304 2.76965 16.5616 2.75455C16.5712 2.74821 16.5489 2.52352 16.667 2.5162C16.6878 2.51601 16.6055 2.74737 16.9492 2.74496C17.3711 2.74834 16.7795 2.36229 17.0163 2.16553C17.1557 2.60035 17.2609 2.25 17.3218 2.30114C17.3434 2.32 17.4125 2.67525 17.6026 2.72852C17.4514 2.72401 17.3009 2.72356 17.1519 2.72579C17.2641 2.82133 17.5381 2.85253 17.6204 2.95317C17.6597 3.00229 17.5227 3.22309 17.6328 3.26138C17.6559 3.26856 17.9934 2.72709 17.5917 2.86825C17.6501 2.65061 17.7382 2.84186 17.8273 2.81071C17.8436 2.7991 18.0255 2.48094 18.019 2.72852C18.0122 2.79665 17.3716 3.68766 18.2286 3.21618C18.2571 3.20152 18.2556 3.05014 18.2848 3.03262C18.3056 3.02138 18.4202 3.13679 18.4437 3.12714C18.4684 3.11498 18.467 2.94971 18.4985 2.93263C18.6649 2.84604 18.5203 3.43473 18.3478 3.29837C18.3801 3.39573 18.4108 3.49436 18.4396 3.59151C18.5761 3.16042 18.5989 3.53098 18.6903 3.56548C19.2792 3.79521 19.06 3.34144 19.2286 3.26412C19.5068 3.14864 19.0018 3.73375 19.3409 3.67233C19.3709 3.66504 19.2791 3.22299 19.6998 3.70931C19.6175 3.67009 19.5344 3.63049 19.4505 3.59288C19.2666 3.9824 19.7337 3.74687 19.7615 3.75315C19.993 3.83954 19.772 3.87212 20.1875 3.89698C20.2249 3.89952 20.2175 4.02553 20.3025 4.023C20.6569 4.01531 20.0861 3.69705 20.1655 3.54494C20.2124 3.46723 20.774 3.91134 20.7614 3.95999C20.7293 4.16297 20.4635 3.82796 20.3902 4.05451C20.3738 4.12998 21.2122 4.61495 21.2751 4.80791C21.3613 5.02786 21.0112 5.50519 21.4737 5.03941C21.2615 5.29717 21.249 5.34635 21.2902 5.33803C21.3283 5.33016 21.412 5.27247 21.4203 5.28187C21.5965 5.54738 21.591 5.55179 21.823 5.7161C21.8743 5.75338 21.7621 5.92162 21.8011 5.91609C21.8255 5.91135 21.9657 5.75748 22.0559 5.76267C22.1361 5.76683 22.2357 5.99082 22.2805 6.18184C22.3463 6.14015 22.353 5.95862 22.3737 5.96129C22.5576 5.99139 22.3296 6.34925 22.5134 6.28183C22.6426 6.08924 22.7772 5.90342 22.912 5.72569C22.7323 5.81554 22.7044 5.2028 22.9038 5.2805C22.7543 5.15661 22.8551 5.06282 23.0408 4.99283C23.3608 4.86944 23.9413 4.82778 23.9476 4.67778C23.9513 4.6274 23.6029 4.5732 24.0901 4.32573C24.1436 4.30085 24.2267 4.43822 24.2408 4.40792C24.2448 4.3857 24.0241 3.92231 24.2901 4.06958C24.3881 4.1259 24.3631 4.55306 24.7736 4.08738C24.2621 3.8093 25.3471 3.35702 25.6051 3.37782C25.5336 3.33876 25.461 3.30072 25.3887 3.26275C25.6657 3.31737 25.6143 3.14874 25.6613 3.13262C25.8514 3.07097 26.1692 3.10616 26.3242 3.01482C26.5065 2.90839 26.3763 2.6148 26.6585 2.62853C26.5756 2.58689 26.4923 2.54509 26.4078 2.50524C26.5766 2.44857 26.7467 2.39618 26.9174 2.34772C26.6994 2.89119 27.0017 2.33787 27.0338 2.31484C27.077 2.28202 27.0691 2.47031 27.142 2.42032C27.1493 2.41396 27.08 2.2645 27.2009 2.20115C27.4546 2.07153 27.4792 2.2824 27.5886 2.24361C27.5946 2.23421 27.5198 2.10804 27.6995 2.01622C28.2855 1.72926 27.733 2.12038 27.7132 2.15183C27.6922 2.18822 28.0746 2.70885 27.5119 2.66551C27.7002 2.67409 27.7999 2.92531 27.8215 2.92989C27.8387 2.92903 28.1049 2.80878 28.1228 2.79428C28.2366 2.66551 28.0643 2.52073 28.0817 2.48059C28.1001 2.44594 28.503 2.58986 28.4571 2.02581C28.745 2.4908 28.4679 2.50265 28.2132 2.65592C28.2029 2.76808 28.5284 2.78885 28.5434 2.78606C28.9247 2.694 28.6189 2.32922 28.6461 2.04362C28.663 1.89443 28.8908 2.14297 28.657 1.80253C29.0252 1.68538 28.8403 1.94899 28.8707 1.9765C28.9157 2.01606 29.0233 1.88604 29.0433 1.89568C29.0706 1.91265 29.0134 2.05804 29.1132 2.08745C29.1285 2.09156 29.2417 1.84068 29.0269 1.76828C29.2939 1.75396 29.2434 1.56733 29.3899 1.93951C29.4608 1.18335 29.5788 2.34902 29.6488 2.38607C29.835 2.47139 29.7185 1.90914 29.7228 1.87376C29.7699 1.68258 30.289 1.83356 30.4008 1.74637C30.381 2.16429 30.0145 1.77923 29.9406 1.86965C29.7154 2.16321 30.3145 2.04392 30.1775 2.58469C30.2377 2.43466 30.3014 2.2843 30.3666 2.13539C30.5226 2.46465 30.3434 2.62091 30.6885 2.48196C30.7352 2.18763 30.441 2.53876 30.4912 2.30662C30.5213 2.16969 30.7302 2.13199 30.7323 2.06142C30.7336 1.97541 30.5468 2.0844 30.5707 1.95184C30.6304 1.66088 31.329 1.92089 30.8077 2.08471C30.9356 2.07795 31.011 2.50307 31.1049 2.4984C31.1191 2.49771 31.1343 2.487 31.1501 2.46415C31.1786 2.42093 31.1367 2.28578 31.1049 2.14087C31.0778 2.01606 31.0583 1.88316 31.1049 1.79568C31.1497 1.71245 31.2553 1.66869 31.4734 1.71897C31.4792 1.98177 31.1968 1.79658 31.1816 1.81212C31.1713 1.84143 31.2175 2.43827 31.2255 2.47374C31.2455 2.56659 31.9582 2.27485 32.0884 2.59565C32.0602 2.24145 32.6394 2.59384 32.7213 2.50387C32.7439 2.47765 32.7069 2.2562 32.7295 2.23676C32.8744 2.12152 33.1437 2.55366 33.2911 2.59565C33.4587 2.64184 33.4776 2.4592 33.487 2.46141C33.5612 2.48867 33.4734 2.59643 33.5199 2.60661C33.5921 2.61954 34.0641 2.76965 34.0952 2.75455C34.1049 2.74821 34.0825 2.52351 34.2007 2.5162C34.2215 2.51601 34.1391 2.74737 34.4829 2.74496C34.9047 2.74834 34.3132 2.36229 34.55 2.16553C34.6893 2.60035 34.7945 2.25 34.8555 2.30114C34.877 2.32002 34.9462 2.67525 35.1363 2.72852C34.9851 2.72401 34.8345 2.72356 34.6856 2.72579C34.7978 2.82133 35.0717 2.85253 35.1541 2.95317C35.1933 3.0023 35.0564 3.22309 35.1664 3.26138C35.1896 3.26856 35.527 2.72709 35.1253 2.86825C35.1838 2.65061 35.2719 2.84187 35.3609 2.81071C35.3773 2.79909 35.5592 2.48095 35.5527 2.72852C35.5458 2.79667 34.9052 3.68765 35.7623 3.21618C35.7908 3.20152 35.7893 3.05014 35.8185 3.03262C35.8392 3.02139 35.9539 3.13679 35.9774 3.12714C36.0021 3.11497 36.0006 2.94971 36.0321 2.93263C36.1986 2.84605 36.0539 3.43473 35.8815 3.29837C35.9138 3.39573 35.9445 3.49436 35.9732 3.59151C36.1098 3.16042 36.1326 3.53098 36.2239 3.56548C36.8129 3.79521 36.5936 3.34144 36.7623 3.26412C37.0405 3.14864 36.5354 3.73375 36.8746 3.67233C36.9046 3.66503 36.8128 3.22299 37.2335 3.70931C37.1512 3.67009 37.0681 3.63049 36.9842 3.59288C36.8003 3.98242 37.2674 3.74685 37.2951 3.75315C37.5266 3.83954 37.3056 3.87212 37.7211 3.89698C37.7585 3.89952 37.7512 4.02553 37.8362 4.023C38.1906 4.0153 37.6198 3.69705 37.6992 3.54494C37.7461 3.46722 38.3077 3.91134 38.2951 3.95999C38.263 4.16297 37.9972 3.82796 37.9239 4.05451C37.9075 4.12999 38.7459 4.61496 38.8088 4.80791C38.8949 5.02786 38.5449 5.50519 39.0074 5.03941C38.7951 5.29718 38.7827 5.34635 38.8238 5.33803C38.862 5.33016 38.9457 5.27246 38.954 5.28187C39.1302 5.54738 39.1246 5.55179 39.3567 5.7161C39.408 5.75338 39.2958 5.92162 39.3348 5.91609C39.3591 5.91135 39.4994 5.75748 39.5896 5.76267C39.7167 5.76926 39.8933 6.32938 39.8224 6.43251C39.7551 6.53294 39.6436 6.28393 39.5238 6.43936C39.6257 6.5991 39.7732 6.71837 39.8704 6.89003C39.9097 6.96163 39.7772 7.00383 39.795 7.03386C39.8032 7.04597 40.058 7.21324 40.0923 7.17769C40.1766 7.08247 39.6014 6.42205 39.9224 6.46813C39.9857 6.47794 39.8319 6.78441 40.1183 6.54484C40.5201 7.23934 40.8677 8.01488 41.1155 8.81737C40.6752 8.49039 40.6613 7.91364 40.3841 7.50508C40.3474 7.44906 40.2589 7.24074 40.1142 7.36536C40.2897 7.72817 40.6253 8.13432 40.684 8.55025C40.6853 8.56335 40.5137 8.59393 40.5087 8.64751C40.5008 8.7455 40.8674 8.899 40.821 8.97352C40.809 8.98659 40.5402 8.92548 40.4293 9.02695C40.1427 9.28255 40.898 8.99856 40.932 9.10777C40.9626 9.19642 40.7882 9.85638 41.0594 9.91322C41.3569 9.97884 41.0723 9.46364 41.2854 9.43241C41.6244 9.7413 41.519 10.2033 41.6279 10.5516C41.63 10.558 41.7803 10.4645 41.8224 10.5406C41.8948 10.674 41.6689 10.7619 41.6457 10.8365C41.6225 10.9179 41.7038 11.1658 41.6237 11.2145C41.6132 11.2205 41.37 11.2097 41.3621 11.2036C41.2484 11.1144 41.541 11.019 41.5429 11.0077C41.5468 10.9678 41.4256 10.9539 41.4251 10.9187C41.425 10.8604 41.5236 10.8069 41.5169 10.7296C41.5122 10.6763 41.321 10.7705 41.3183 10.72C41.3195 10.7036 41.7358 10.3911 41.258 10.4899C41.1398 10.5383 41.2079 12.1008 41.3101 12.2214C41.3584 12.0906 41.4042 11.9548 41.447 11.8173C41.338 12.0955 41.745 12.3806 41.1717 12.4364C41.1736 12.6488 41.1687 12.8549 41.158 13.057C41.1484 13.2389 41.1313 13.4244 41.1114 13.6131C41.1225 13.5908 41.1553 13.5917 41.2142 13.6282C41.2312 13.6422 41.3883 13.9188 41.3868 13.9323C41.3801 14.1844 41.1136 13.7825 41.1087 13.6432ZM12.1275 45.8682C11.9805 45.8259 11.8372 46.0567 11.8603 46.0819C11.9682 46.197 12.2826 46.0341 12.1275 45.8682ZM13.5712 45.8394C13.9116 46.0281 13.6672 45.9159 13.5712 45.9997C13.549 46.0192 13.5351 46.0496 13.5384 46.097C13.5488 46.0973 13.5598 46.098 13.5712 46.0983C13.8822 46.1118 14.5355 46.0719 14.0466 45.86C13.9508 45.8174 13.7056 45.8554 13.5712 45.8394ZM32.8925 45.8668C32.4459 45.8823 32.0105 45.923 32.3295 46.0613C32.3733 46.096 33.4944 46.0803 33.5514 46.0353C33.8166 45.8615 33.3393 45.8544 32.8925 45.8668ZM13.1795 45.7449C13.1339 45.8261 12.8086 46.0671 13.0795 46.0627C13.2062 46.0596 13.4083 45.778 13.1795 45.7449ZM16.5698 45.6298C16.5998 45.6305 17.0147 45.6829 16.9506 45.7737C15.525 46.3469 15.2065 45.7008 16.5698 45.6298ZM12.9699 45.7901C12.9012 45.7752 11.4028 45.4142 11.4316 45.7134C11.5618 45.744 13.3356 46.0833 12.9699 45.7901ZM14.5712 45.6381C14.4748 45.648 14.08 45.7071 14.0712 45.7477C14.0503 45.8962 14.5445 45.7831 14.5712 45.6381ZM31.6734 45.5915C31.6195 45.5758 30.9895 45.5388 30.9611 45.6559C31.1563 45.73 31.9991 45.7303 31.6734 45.5915ZM16.5684 44.9271C16.5166 44.892 15.811 44.9323 15.7643 44.9299C15.1953 44.9951 14.3082 45.0905 13.5712 45.0751C13.3045 45.072 13.0572 45.0599 12.8466 45.0436C12.6451 45.0271 12.7316 45.1588 12.6439 45.1559C12.5737 45.152 12.679 44.9316 12.4384 44.9915C12.3215 45.0195 12.6372 45.3014 12.5576 45.3408C12.5034 45.3659 12.261 45.2448 12.1699 45.3079C12.142 45.3292 12.3746 45.5937 12.4548 45.5915C12.5649 45.5895 12.4794 45.399 12.5959 45.4093C12.9401 45.4393 13.2466 45.5543 13.5712 45.5751C13.6112 45.5776 13.6514 45.5786 13.6918 45.5778C13.7242 45.5769 13.4696 45.4517 13.7493 45.4504C13.7933 45.4511 14.0596 45.6367 14.4 45.5805C15.0763 44.9253 15.7 45.4143 16.5684 44.9271ZM24.1134 45.4093C24.0707 45.1675 24.4289 45.2935 24.4997 45.3052C24.4902 45.4181 24.1449 45.586 24.1134 45.4093ZM22.9052 45.2915C22.917 45.2855 23.1127 45.3103 23.1216 45.3189C23.2812 45.514 22.7102 45.4422 22.9052 45.2915ZM34.5774 45.3627C34.7879 45.1602 33.9425 45.211 34.224 45.3805C34.2447 45.3879 34.5657 45.3755 34.5774 45.3627ZM9.70151 45.3189C9.57946 45.2491 9.26583 45.1058 9.18783 45.1805C9.08926 45.2786 9.58473 45.4459 9.70151 45.3189ZM38.0307 44.4819C38.0894 44.6132 37.5716 44.835 37.4143 44.9545C37.3677 44.8247 37.8857 44.6215 38.0307 44.4819ZM10.9275 44.5367C10.8934 44.506 10.2634 44.47 10.4481 44.7066C10.5816 44.8726 10.6814 44.6586 10.7207 44.6696C10.7605 44.6909 11.6399 45.221 10.9275 44.5367ZM24.6805 44.7696C24.8444 44.8115 25.0299 44.7459 25.0065 44.6134C25.0136 44.6334 25.0256 44.6541 25.0421 44.6737C25.0588 44.6934 25.2085 44.6001 25.2887 44.6285C25.776 44.8298 23.6679 45.0605 24.8092 44.4997C24.7682 44.5901 24.7247 44.6799 24.6805 44.7696ZM21.4313 44.4806C21.3955 44.4241 21.2403 44.4311 21.1956 44.5354C21.2558 44.6091 21.5149 44.6135 21.4313 44.4806ZM8.70428 44.4244C8.66577 44.3972 7.68495 43.7583 7.91938 44.1395C7.98428 44.27 8.94631 44.7806 8.70428 44.4244ZM20.971 44.3819C20.9549 44.3477 20.6925 44.3855 20.6587 44.4641C20.7646 44.5956 21.048 44.5456 20.971 44.3819ZM17.4396 44.3025C17.2237 44.3434 17.3478 44.5326 17.3656 44.5381C17.5509 44.5413 17.6881 44.2521 17.4396 44.3025ZM26.2544 44.3381C26.1886 44.2773 26.146 44.1624 26.1311 44.2614C26.1708 44.2866 26.2122 44.3119 26.2544 44.3381ZM26.3544 43.9258C26.3045 43.844 26.0283 43.8972 25.738 44.0094C25.823 44.0652 25.9243 44.1291 26.0366 44.2011C26.1171 44.098 26.465 44.1278 26.3544 43.9258ZM20.7354 43.8573C20.5094 43.2696 20.4167 44.1582 20.519 44.1148C20.5376 44.1041 20.7388 43.8748 20.7354 43.8573ZM26.3982 43.86C26.3791 43.9103 26.3842 43.961 26.4297 44.0066C26.4516 44.0281 26.509 44.0204 26.5886 43.9943C26.5246 43.9502 26.461 43.9057 26.3982 43.86ZM20.2573 43.6628C20.2506 43.6885 20.2528 43.7226 20.2423 43.7655C20.2266 43.7536 20.2729 43.6789 20.2573 43.6628ZM5.40028 42.3176C5.53714 42.0287 5.85415 42.3409 5.97012 42.6354C5.99435 42.7012 5.96019 43.0888 5.71671 42.9176C5.97406 42.68 5.78605 42.2782 5.40028 42.3176ZM41.0224 42.0039C41.0842 42.2729 40.6879 42.6793 40.4662 42.9532C40.4392 42.7271 40.8629 42.2601 41.0224 42.0039ZM5.71534 41.6382C5.90119 41.6142 6.04689 41.8709 6.17012 42.0286C6.04879 42.0754 5.81051 41.7453 5.71534 41.6382ZM4.95372 41.3259C4.29125 40.6046 5.18358 40.3507 5.60301 41.4793C5.54749 41.4745 5.49162 41.4687 5.4359 41.4629C6.18746 42.6441 5.42745 41.5918 5.19618 41.3314C5.10544 41.2353 5.04019 41.4123 4.95372 41.3259ZM40.069 41.3642C40.2348 41.4976 40.562 40.6897 40.2484 40.9026C40.1731 40.9559 40.0186 41.3202 40.069 41.3642ZM4.69346 40.73C4.3885 40.6728 4.21093 39.9111 4.48935 40.167C4.52838 40.2068 4.59935 40.6179 4.69346 40.73ZM42.058 40.2547C41.7423 40.5664 42.2664 39.2686 42.2634 39.7479C42.2658 39.7725 42.0795 40.2316 42.058 40.2547ZM3.83458 39.2109C3.85308 39.1453 4.04559 39.2391 4.07156 39.3027C4.17338 39.5581 3.78636 39.3925 3.83458 39.2109ZM3.64828 37.9246C4.09192 36.9087 4.04519 38.6544 4.34141 39.0753C3.91748 38.738 3.764 38.1004 3.77294 39.015C3.3239 37.8165 3.75827 38.2481 3.7565 38.1945C3.7636 38.1313 3.62951 37.9693 3.64828 37.9246ZM4.49346 38.4506C4.57139 38.5334 4.50163 38.8149 4.38114 38.7671C4.22519 38.7017 4.47108 38.428 4.49346 38.4506ZM42.4415 37.1096C42.7051 37.0618 42.4216 37.8946 42.3881 38.189C42.1322 38.2113 42.4581 37.409 42.4415 37.1096ZM3.88252 36.9082C4.05986 36.6161 4.49447 37.6444 4.42908 37.8931C4.28844 37.956 3.84459 36.96 3.88252 36.9082ZM41.2676 36.7301C41.2679 36.8858 41.4914 37.0504 41.6032 36.9233C41.6255 36.8044 41.4788 36.6988 41.3827 36.6521C41.3445 36.6784 41.3061 36.7043 41.2676 36.7301ZM42.5347 36.0699C42.6265 36.0778 42.6177 36.1528 42.6264 36.2014C42.6285 36.2582 42.6311 36.308 42.636 36.3452C42.5956 36.3119 42.5679 36.2622 42.5497 36.2014C42.4961 36.1656 42.5249 36.1103 42.5347 36.0699ZM42.5429 35.2864C42.705 35.2855 42.6541 35.2835 42.6662 35.3274C42.8661 36.0316 42.3249 35.877 42.5429 35.2864ZM4.08115 34.322C4.14838 34.3627 4.07739 34.4361 4.08526 34.4864C3.97554 34.4779 3.96982 34.3397 4.08115 34.322ZM3.92225 34.096C3.98462 34.1634 3.9123 34.246 3.91677 34.3165C3.81644 34.2878 3.78899 34.1247 3.92225 34.096ZM4.45237 32.5275C4.44074 32.5805 4.44117 32.6604 4.45374 32.7495C4.44616 32.7424 4.43294 32.7404 4.41675 32.7371C4.43047 32.7506 4.44561 32.7619 4.45922 32.7741C4.4579 32.7657 4.4549 32.7577 4.45374 32.7495C4.46085 32.7561 4.46466 32.7645 4.46059 32.7755C4.51054 32.82 4.55871 32.8515 4.60031 32.8659C4.57429 32.8053 4.55839 32.7541 4.57976 32.7207C4.54403 32.6564 4.49993 32.5894 4.45237 32.5275ZM4.77153 32.6508C4.75793 32.6021 4.72671 32.5409 4.67565 32.5001C4.70757 32.5515 4.74009 32.6016 4.77153 32.6508ZM4.25237 32.3139C4.16457 32.2437 4.09918 32.2326 4.10443 32.3344C4.10361 32.3456 4.15472 32.4192 4.22498 32.5111C4.26127 32.4557 4.30032 32.4034 4.31539 32.3714C4.30903 32.3651 4.30245 32.3594 4.29621 32.3536C4.25874 32.3477 4.18799 32.3467 4.18799 32.3467C4.19512 32.3314 4.22137 32.3216 4.25237 32.3139ZM3.19624 32.3412C3.35209 32.8894 2.36877 31.3938 2.84694 31.8152C2.86149 31.8359 3.1813 32.3173 3.19624 32.3412ZM4.38251 31.307C4.37485 31.358 4.34684 31.3771 4.30854 31.3851C4.35074 31.4146 4.39945 31.4693 4.45237 31.5577C4.37 31.5279 4.28679 31.4971 4.20443 31.4673C4.13919 31.548 4.17013 31.648 4.30443 31.6495C4.28353 31.6512 4.26097 31.6554 4.23868 31.6618C4.22083 31.6671 4.25434 31.7229 4.24552 31.7646C4.34553 31.9562 4.48836 32.1969 4.63181 32.4303C4.82506 32.3396 4.68892 31.6459 4.32497 31.6481C4.36611 31.6454 4.41758 31.6344 4.47565 31.6125C4.60385 31.5636 4.564 31.349 4.49346 31.3111C4.48871 31.309 4.44184 31.3079 4.38251 31.307ZM3.43596 30.9933C3.09804 30.5902 3.6042 31.7868 3.86882 31.8166C3.78562 31.697 3.68294 31.4678 3.59075 31.2755C3.56384 31.2476 3.54608 31.2193 3.55103 31.1933C3.50826 31.1075 3.46908 31.0351 3.43596 30.9933ZM4.17018 31.3837C4.13272 31.3801 4.10538 31.3813 4.10306 31.4016C4.09712 31.4138 4.10279 31.4402 4.11539 31.4783C4.12968 31.4394 4.14584 31.4053 4.17018 31.3837ZM4.0469 31.0385C4.07094 31.1104 4.09022 31.1737 4.10991 31.2248C4.09477 31.1101 4.09768 31.0276 4.10991 30.9728C4.08865 30.9945 4.06817 31.0169 4.0469 31.0385ZM4.17292 30.0564C4.04423 30.0285 4.051 30.2787 4.07293 30.5016C3.86381 30.3975 3.96512 30.1933 3.91677 30.1016C3.90845 30.0861 3.86133 30.0811 3.80992 30.0756C3.84196 30.2761 3.88471 30.4631 3.92773 30.6303C4.10332 30.6299 4.32784 30.928 4.56606 30.8879C4.32163 30.8021 4.44887 30.6918 4.38662 30.5934C4.35868 30.5495 4.17894 30.5374 4.16744 30.5317C4.13952 30.4844 4.19115 30.4778 4.24005 30.4769C4.23195 30.4546 4.22319 30.4322 4.21676 30.4084C4.16757 30.3773 4.12835 30.344 4.19895 30.3262C4.18214 30.2365 4.1719 30.1433 4.17292 30.0564ZM3.1346 27.3072C2.84756 27.377 2.77832 27.4141 2.79215 27.4346C2.81165 27.613 2.98166 27.5941 2.98118 27.6455C2.97724 27.835 2.83072 28.3145 2.93324 28.6879C2.78385 28.2847 2.67115 27.8627 2.59763 27.4346L2.59215 27.4291L2.58668 27.4346C2.55275 27.6722 2.51295 28.5342 2.68804 29.3413C2.84665 30.1491 3.1919 30.8501 3.25241 30.8509C3.42037 30.8653 2.96543 29.9991 2.98255 29.9591C2.98648 29.9103 3.3417 29.6262 3.33186 29.5427C3.30425 29.4529 2.99004 28.2715 3.06063 27.4346C3.07839 27.3752 3.10162 27.3259 3.1346 27.3072ZM4.29073 30.4742C4.3027 30.473 4.31084 30.4729 4.30991 30.4673C4.30991 30.4673 4.30344 30.4625 4.29484 30.4577C4.29337 30.4634 4.29224 30.469 4.29073 30.4742ZM4.31949 30.3167C4.35866 30.3162 4.40697 30.3177 4.4647 30.3208C4.41746 30.2609 4.37453 30.2124 4.3373 30.1742C4.33293 30.2232 4.32564 30.2716 4.31949 30.3167ZM4.25237 29.6249C4.22522 29.6449 4.22485 29.6875 4.24552 29.718C4.26877 29.696 4.29567 29.703 4.32497 29.7496C4.33664 29.7476 4.34994 29.7443 4.36333 29.7372C4.40979 29.7117 4.36455 29.6331 4.25237 29.6249ZM2.53051 27.0154C2.72911 26.9693 2.65449 27.1745 2.63188 27.1825C2.49679 27.218 2.36771 27.0532 2.53051 27.0154ZM0.763448 26.9894C0.82235 26.9659 0.92709 27.0922 0.868924 27.1305C0.745817 27.1274 0.72522 27.0054 0.763448 26.9894ZM0.574413 26.9291C0.737939 26.9557 0.685405 27.0406 0.675779 27.0976C0.512674 27.071 0.564701 26.986 0.574413 26.9291ZM1.34836 26.2373C1.61264 26.2174 1.36089 26.3866 1.38808 26.4277C1.39529 26.4349 1.61477 26.4398 1.63328 26.4798C1.63631 26.4948 1.44774 26.5144 1.44562 26.5195C1.44325 26.533 1.51683 26.8066 1.27028 26.7017C1.2294 26.6832 1.32368 26.2904 1.34836 26.2373ZM1.03056 26.173C1.03788 26.169 1.26891 26.1564 1.2196 26.2195C1.16367 26.2906 0.957867 26.2205 1.03056 26.173ZM0.825089 25.588C0.928885 25.6065 0.874678 25.7243 0.831939 25.7511C0.820787 25.7553 0.551397 25.7354 0.571673 25.788C0.589184 25.8302 0.867002 25.767 0.82235 25.8497C0.777228 25.9329 0.579022 25.8218 0.564824 25.8291C0.5465 25.8392 0.670988 25.9688 0.508662 25.9647C0.388954 25.9614 0.469825 25.8223 0.44428 25.788C0.41087 25.7446 0.210875 25.7969 0.253875 25.7237C0.281508 25.678 0.63044 25.7029 0.651123 25.6935C0.665477 25.6854 0.463041 25.5247 0.825089 25.588ZM1.8593 25.5374C1.92489 25.5209 1.9639 25.0747 1.76204 25.3278C1.75063 25.3425 1.66061 25.5871 1.8593 25.5374ZM2.14833 25.3812C2.09241 25.4057 2.21486 25.5823 2.32093 25.5237C2.41352 25.4723 2.24035 25.3419 2.14833 25.3812ZM1.56479 25.1442C1.57594 25.1725 1.49402 25.2995 1.50589 25.3059C1.68642 25.3999 1.7413 25.2059 1.56479 25.1442ZM2.94694 25.3223C3.04986 25.3327 3.00263 25.2851 3.0483 25.2524C3.10032 25.2152 3.1756 25.1163 2.99351 25.0483C2.97793 25.1395 2.96252 25.2312 2.94694 25.3223ZM0.763448 25.0374C0.957004 25.076 0.819912 25.1952 0.790844 25.2579C0.631686 25.2197 0.702916 25.0929 0.763448 25.0374ZM0.29086 24.8798C0.356984 24.9172 0.605815 24.918 0.578522 24.962C0.490204 25.0947 0.368189 24.9978 0.29086 24.8798ZM1.70588 24.9004C1.65717 24.9186 1.7149 25.0176 1.81547 25.0141C1.97755 25.0078 1.78267 24.8719 1.70588 24.9004ZM2.8442 24.9168C3.2352 24.8131 2.74162 24.8634 2.61544 24.9552C2.79045 24.9828 2.78062 24.9338 2.8442 24.9168ZM0.236068 24.6648C0.418378 24.6226 0.342019 24.7471 0.352502 24.7497C0.380344 24.7552 1.01284 24.6761 0.59496 24.8675C0.533578 24.8956 0.367107 24.7945 0.344283 24.8045C0.300198 24.8253 0.27979 24.842 0.275792 24.8552C0.223271 24.7662 0.198122 24.6744 0.236068 24.6648ZM3.09488 24.8319C3.39211 24.7289 2.84347 24.7052 2.84146 24.7826C2.84049 24.8129 3.05196 24.8466 3.09488 24.8319ZM0.793584 24.6538C0.90925 24.6484 1.02067 24.8059 0.734681 24.8168C0.755327 24.7832 0.721655 24.6583 0.793584 24.6538ZM2.50997 24.5949C2.37863 24.5651 2.30781 24.7157 2.32504 24.7264C2.43377 24.7823 2.76808 24.6538 2.50997 24.5949ZM2.92228 24.3045C2.84852 24.3207 3.03385 24.4912 3.01954 24.499C2.99682 24.5104 2.77024 24.4575 2.81543 24.5484C2.89311 24.5431 3.11247 24.5952 3.13597 24.5853C3.20615 24.5562 3.12905 24.2593 2.92228 24.3045ZM2.49627 24.484C2.48329 24.4759 2.16234 24.5272 2.28805 24.5593C2.38534 24.584 2.5443 24.5145 2.49627 24.484ZM0.392227 23.9278C0.236341 23.9326 0.385662 24.1282 0.318257 24.1717C0.597322 24.2057 0.34661 24.0418 0.412774 24.01C0.438755 24.002 1.04939 24.1498 0.586741 23.9319C0.513753 24.0485 0.446465 23.926 0.392227 23.9278ZM0.44291 23.8182C0.819048 23.7436 0.0579446 23.5932 0.134701 23.7128C0.149442 23.7263 0.420347 23.8198 0.44291 23.8182ZM44.3798 23.5552C44.274 23.588 44.2476 23.7495 44.4319 23.7032C44.4157 23.6781 44.4446 23.5361 44.3798 23.5552ZM44.2346 23.2443C44.0576 23.1791 44.1103 23.5374 44.2538 23.3744C44.2608 23.3663 44.2432 23.2474 44.2346 23.2443ZM0.248396 23.0429C0.117976 23.0957 0.270766 23.1909 0.359351 23.1552C0.378114 23.146 0.347686 23.0398 0.248396 23.0429ZM0.157988 22.0224C0.220367 22.0725 0.0985895 22.3478 0.199083 22.3525C0.312272 22.3563 0.306801 22.0444 0.157988 22.0224ZM43.5456 21.8964C43.4927 21.9143 43.5215 22.0085 43.5305 22.0101C43.6003 22.0222 43.7099 21.8414 43.5456 21.8964ZM0.360721 21.3964C0.305661 21.3975 0.303266 21.5004 0.311408 21.5046C0.516063 21.6101 0.507437 21.395 0.360721 21.3964ZM0.430582 21.195C0.404254 21.2005 0.36309 21.2042 0.29634 21.2046C0.369538 21.19 0.409066 21.1887 0.430582 21.195ZM43.2963 20.8786C43.0722 20.9177 43.1005 21.178 43.2566 21.0553C43.2913 21.028 43.3049 20.9095 43.2963 20.8786ZM43.5305 20.48C43.7387 20.4569 43.5617 20.7223 43.4703 20.717C43.4503 20.7151 43.4183 20.5004 43.5305 20.48ZM-0.0241976 20.3814C0.0909359 20.2941 0.552797 20.3619 0.360721 20.4334C0.333581 20.4419 -0.177693 20.4986 -0.0241976 20.3814ZM0.163467 20.0704C0.302224 20.0817 0.233237 20.1707 0.199083 20.2088C0.06878 20.2074 0.174745 20.1083 0.159358 20.0704H0.163467ZM0.356612 18.0691C0.121229 18.3114 0.338638 17.3939 0.433322 17.7431C0.435113 17.7593 0.364774 18.0589 0.356612 18.0691ZM40.8183 17.1596C40.8797 17.167 40.9214 17.1687 40.9443 17.1691C40.9068 17.1664 40.863 17.1621 40.8101 17.1568C40.8132 17.1574 40.8183 17.1596 40.8183 17.1596ZM41.3785 16.8965C41.2525 16.8833 40.9951 16.8482 41.1114 16.8897C41.1734 16.8944 41.2246 16.9016 41.2662 16.9061C41.3038 16.9024 41.3415 16.9004 41.3785 16.8965ZM41.5717 16.7459C41.5643 16.7426 41.6377 16.7392 41.5703 16.7322C41.4601 16.7207 41.383 16.7253 41.5717 16.7459ZM41.7676 16.4664C41.9712 16.4911 41.7188 16.4822 41.6347 16.4705C41.6166 16.468 41.6558 16.4536 41.7676 16.4664ZM42.1456 16.0569C42.1511 16.0578 42.1392 16.0626 42.1319 16.0623C41.9468 16.0492 41.9862 16.034 42.1456 16.0569ZM40.4854 15.9596C40.5041 15.9621 40.5233 15.9652 40.543 15.9678C40.5269 15.9608 40.5103 15.9532 40.4936 15.9445C40.4912 15.9497 40.4878 15.9544 40.4854 15.9596ZM40.3827 15.2473C40.269 15.2369 40.12 15.5188 40.132 15.5377C40.2704 15.732 40.4257 15.282 40.3827 15.2473ZM41.1443 15.2445C41.2849 15.1856 41.3467 15.4748 41.1854 15.5185C40.9728 15.506 41.1289 15.2527 41.1443 15.2445ZM1.89766 14.3925C1.99537 14.4469 1.73367 14.9261 1.70725 14.9473C1.52253 15.0633 1.66455 14.4981 1.89766 14.3925ZM41.532 11.2748C41.6725 11.2332 42.1636 11.1801 41.9566 11.3447C41.9258 11.3686 41.7333 11.3089 41.695 11.331C41.6743 11.3471 41.6239 11.6641 41.6402 11.6748C41.6606 11.6873 41.8755 11.6419 41.9018 11.6543C41.9294 11.6714 41.7635 11.8809 41.7703 11.9762C41.7846 12.1576 41.9655 12.1623 41.9676 12.1775C41.9717 12.2215 41.8486 12.304 41.8539 12.3899C41.8666 12.5874 41.9069 12.8258 41.9059 13.057C41.9055 13.337 41.8429 13.6242 41.6183 13.7967C41.7671 13.5473 41.6766 13.2964 41.6128 13.057C41.6014 13.0138 41.5909 12.9704 41.5826 12.9268C41.9656 13.0066 41.2797 12.5049 41.7265 12.7967C41.6471 12.667 41.4534 11.4236 41.4963 11.2913L41.532 11.2748ZM2.27436 13.5117C2.2728 13.5161 2.27607 13.5214 2.27573 13.5268C2.28021 13.5213 2.28491 13.5159 2.28942 13.5104C2.28461 13.5109 2.27948 13.5105 2.27436 13.5117ZM2.25655 11.2488C2.27087 11.266 2.18306 11.6244 2.07573 11.583C1.88045 11.4808 2.18149 11.1745 2.25655 11.2488ZM2.63736 10.8721C2.59111 10.8903 2.50817 11.0617 2.49764 11.1159C2.70801 11.2096 2.84206 10.7963 2.63736 10.8721ZM41.0744 10.9077C41.1062 10.8295 41.0219 10.5377 40.9197 10.6831C40.9047 10.7055 40.9517 10.9283 41.0744 10.9077ZM41.3196 9.88856C41.0331 9.76554 41.1017 10.6331 41.332 10.3392C41.3505 10.3154 41.3465 9.90357 41.3196 9.88856ZM40.795 9.62419C40.6354 9.58086 40.5595 9.92298 40.7594 9.76802C40.7675 9.76117 40.804 9.62719 40.795 9.62419ZM3.15378 9.19817C3.11668 9.11807 2.87912 9.29668 3.04419 9.35433C3.09654 9.37223 3.15776 9.20943 3.15378 9.19817ZM41.0265 8.15437C41.1544 8.10376 41.1328 8.33382 41.1799 8.39135C41.0512 8.43857 41.077 8.20968 41.0265 8.15437ZM39.8375 7.32289C40.0119 7.21717 39.7502 7.03663 39.6772 7.22838C39.6591 7.27543 39.7792 7.35739 39.8375 7.32289ZM40.8019 6.701C40.9997 6.65041 41.0219 6.86661 41.084 6.97359C40.9145 7.01144 40.8563 6.7894 40.8019 6.701ZM4.17566 6.67497C4.16207 6.67798 4.03346 6.83365 4.03046 6.85031C4.03995 7.10239 4.43622 6.62429 4.17566 6.67497ZM4.49483 6.12704C4.47103 6.16933 4.2835 6.29884 4.3373 6.3421C4.42441 6.40935 4.62938 6.26109 4.49483 6.12704ZM21.4025 6.03116C21.3802 5.97728 21.1163 6.16295 21.1094 6.17773C21.0412 6.31548 21.3447 6.15413 21.4025 6.03116ZM38.9362 6.03116C38.9138 5.97728 38.6499 6.16295 38.643 6.17773C38.5749 6.31548 38.8784 6.15413 38.9362 6.03116ZM40.4197 5.9065C40.4331 5.91333 40.5154 6.0498 40.5128 6.06129C40.4431 6.28105 40.2022 5.88422 40.4197 5.9065ZM20.9121 5.90924C20.8065 5.91311 20.6697 6.21572 20.9505 6.07088C20.9009 6.05473 20.9233 5.90929 20.9121 5.90924ZM38.4458 5.90924C38.3402 5.91311 38.2034 6.21572 38.4841 6.07088C38.4346 6.05473 38.457 5.90929 38.4458 5.90924ZM20.8409 5.92431C20.9187 5.6739 20.6204 5.98379 20.6861 6.04211C20.7092 6.06263 20.8364 5.93411 20.8409 5.92431ZM38.3745 5.92431C38.4524 5.67389 38.154 5.9838 38.2197 6.04211C38.2428 6.06263 38.37 5.93414 38.3745 5.92431ZM22.0614 5.49145C22.2357 5.30516 22.2723 5.63592 22.3573 5.6887C22.1783 5.86879 22.1478 5.53971 22.0614 5.49145ZM39.595 5.49145C39.7694 5.30516 39.8059 5.63592 39.8909 5.6887C39.712 5.86878 39.6814 5.53971 39.595 5.49145ZM20.2779 5.34214C20.2088 5.32031 20.1109 5.16406 20.008 5.2394C20.089 5.27255 20.133 5.54092 20.2779 5.34214ZM37.8115 5.34214C37.7425 5.3203 37.6446 5.16406 37.5417 5.2394C37.6227 5.27255 37.6667 5.54091 37.8115 5.34214ZM21.7655 5.09283C21.8567 5.02451 21.9485 5.17875 22.0121 5.20516C21.8658 5.28562 21.8145 5.16164 21.7655 5.09283ZM39.2992 5.09283C39.3903 5.02451 39.4822 5.17875 39.5457 5.20516C39.3995 5.28562 39.3482 5.16164 39.2992 5.09283ZM20.9902 4.19286C21.9835 4.80964 21.4346 5.03136 20.8587 4.24217C20.9611 4.11672 20.9257 4.15515 20.9902 4.19286ZM38.5238 4.19286C39.5171 4.80964 38.9683 5.03136 38.3923 4.24217C38.4947 4.11671 38.4594 4.15515 38.5238 4.19286ZM17.8615 3.72849C17.9154 3.60272 17.7099 3.57939 17.6985 3.67096C17.6965 3.70243 17.818 3.82933 17.8615 3.72849ZM35.3952 3.72849C35.4491 3.60271 35.2436 3.57939 35.2322 3.67096C35.2302 3.70243 35.3517 3.82932 35.3952 3.72849ZM16.3684 3.31207C16.3588 3.29334 16.1932 3.27624 16.1739 3.37371C16.2168 3.44495 16.427 3.43549 16.3684 3.31207ZM33.9021 3.31207C33.8925 3.29334 33.7268 3.27624 33.7076 3.37371C33.7505 3.44495 33.9607 3.43549 33.9021 3.31207ZM18.9793 3.12577C18.993 3.12499 19.1141 3.24809 19.1149 3.26275C19.0933 3.5232 18.6828 3.14033 18.9793 3.12577ZM36.513 3.12577C36.5267 3.12499 36.6478 3.24811 36.6486 3.26275C36.627 3.5232 36.2165 3.14032 36.513 3.12577ZM14.7602 3.2696C14.8832 3.12813 14.6598 2.919 14.6013 3.03399C14.5739 3.0916 14.7074 3.3316 14.7602 3.2696ZM32.2939 3.2696C32.4169 3.12813 32.1935 2.919 32.135 3.03399C32.1076 3.09159 32.2411 3.3316 32.2939 3.2696ZM19.1779 2.98742C19.2726 2.75623 19.5627 3.03967 19.5573 3.10249C19.5451 3.35125 19.2351 2.95422 19.1779 2.98742ZM36.7116 2.98742C36.8063 2.75623 37.0964 3.03968 37.091 3.10249C37.0788 3.35125 36.7687 2.95422 36.7116 2.98742ZM13.1124 2.54497C12.9848 2.58192 12.8962 3.23644 13.0398 3.12851C13.054 3.11664 13.1296 2.6341 13.1124 2.54497ZM30.646 2.54497C30.5185 2.58192 30.4299 3.23644 30.5734 3.12851C30.5877 3.11664 30.6633 2.6341 30.646 2.54497ZM13.6356 2.79702C13.5238 2.95739 13.761 3.09061 13.7425 2.87784C13.7397 2.8661 13.6402 2.79005 13.6356 2.79702ZM31.1693 2.79702C31.0575 2.95739 31.2946 3.09061 31.2761 2.87784C31.2734 2.8661 31.1739 2.79005 31.1693 2.79702ZM14.1616 2.81208C14.0724 2.55087 13.8932 2.57016 13.926 2.90523C14.1157 2.89036 13.9138 2.60317 14.1616 2.81208ZM31.6953 2.81208C31.6061 2.55087 31.4269 2.57016 31.4597 2.90523C31.6494 2.89036 31.4474 2.60317 31.6953 2.81208ZM12.5905 2.38744C12.653 2.14707 12.2297 2.24223 12.2275 2.5162C12.2879 2.54515 12.5824 2.41369 12.5905 2.38744ZM30.1241 2.38744C30.1866 2.14707 29.7634 2.24223 29.7611 2.5162C29.8216 2.54515 30.1161 2.41369 30.1241 2.38744ZM14.4972 1.81212C14.5401 1.77391 14.6204 1.32408 14.8191 1.57651C14.8762 1.65053 14.791 1.75368 14.7986 1.79431C14.8044 1.81374 14.9688 2.05713 14.8054 2.07512C14.5568 2.1049 14.8178 1.73592 14.6863 1.7176C14.668 1.71478 14.4012 1.9397 14.4123 1.99567C14.4132 2.00198 14.489 1.95647 14.5 1.97923C14.5387 2.06735 14.5051 2.20756 14.5109 2.21484C14.528 2.23116 14.939 2.03141 14.9712 2.25046C14.9723 2.31584 14.3435 2.41018 14.326 2.37785C14.3131 2.35245 14.3457 1.96486 14.3329 1.9217C14.3251 1.9012 14.0673 2.03391 14.037 1.99841C14.0281 1.98754 14.0213 1.97507 14.0164 1.96554C14.0483 2.08874 13.8286 2.07265 13.8384 1.9354C13.8439 1.88232 13.9922 1.91671 14.0014 1.92718C14.0036 1.93128 14.0064 1.93699 14.0082 1.94088C13.9785 1.78801 14.516 1.82593 14.4164 1.59843C14.5849 1.49068 14.3693 1.92063 14.4972 1.81212ZM32.0309 1.81212C32.0738 1.77391 32.1541 1.32408 32.3528 1.57651C32.4098 1.65053 32.3246 1.75368 32.3323 1.79431C32.3381 1.81374 32.5025 2.05713 32.3391 2.07512C32.0904 2.1049 32.3515 1.73592 32.2199 1.7176C32.2017 1.71478 31.9349 1.9397 31.946 1.99567C31.9469 2.00198 32.0227 1.95647 32.0336 1.97923C32.0724 2.06735 32.0387 2.20756 32.0446 2.21484C32.0617 2.23116 32.4727 2.03141 32.5049 2.25046C32.5059 2.31584 31.8771 2.41018 31.8597 2.37785C31.8468 2.35246 31.8794 1.96486 31.8665 1.9217C31.8588 1.9012 31.6009 2.0339 31.5706 1.99841C31.5618 1.98754 31.555 1.97507 31.5501 1.96554C31.582 2.08874 31.3623 2.07265 31.372 1.9354C31.3776 1.88232 31.5259 1.91671 31.535 1.92718C31.5373 1.93128 31.5401 1.93699 31.5419 1.94088C31.5122 1.78801 32.0496 1.82593 31.9501 1.59843C32.1186 1.49069 31.9029 1.92063 32.0309 1.81212ZM15.3068 1.66007C15.2834 1.69858 15.26 1.73785 15.2369 1.7765C15.5423 1.71779 15.8472 1.97569 16.1821 2.0532C16.2678 2.07343 16.227 1.80346 16.3246 1.89842C16.4038 1.97499 16.4439 2.22868 16.3821 2.2669C16.3671 2.2754 16.2226 2.08182 16.1273 2.07649C15.8475 2.0615 15.872 2.29107 15.8547 2.29292C15.8348 2.29117 15.7007 2.11206 15.6095 2.10252C15.3773 2.07907 15.2573 2.1931 14.9753 1.9806C15.1702 1.86088 15.1152 1.53866 15.3068 1.66007ZM32.8405 1.66007C32.8171 1.69858 32.7936 1.73785 32.7706 1.7765C33.076 1.71779 33.3808 1.97569 33.7158 2.0532C33.8015 2.07343 33.7606 1.80346 33.8582 1.89842C33.9374 1.97499 33.9775 2.22868 33.9158 2.2669C33.9007 2.2754 33.7562 2.08182 33.661 2.07649C33.3812 2.0615 33.4057 2.29107 33.3884 2.29292C33.3685 2.29119 33.2344 2.11206 33.1432 2.10252C32.9109 2.07907 32.791 2.1931 32.509 1.9806C32.7039 1.86088 32.6489 1.53866 32.8405 1.66007Z" fill="currentColor"/>
<path d="M10.2605 15.0095C11.67 15.0368 13.0795 15.0587 14.489 15.071C14.7447 15.0733 15.0009 15.0743 15.2566 15.0759C15.8922 15.0763 16.5563 15.2345 17.124 15.5632C17.4391 15.7433 17.7237 15.9689 17.973 16.2195C18.3267 16.5734 18.6305 17.0034 18.8287 17.4851C19.0403 17.9575 19.1379 18.4507 19.1617 18.8982C19.1628 18.9187 19.1638 18.9393 19.1646 18.9597C19.1894 19.4857 19.2116 19.9549 19.2188 20.3445C19.2369 21.315 19.208 22.4165 19.1869 23.2341C19.1834 23.3676 19.181 23.4936 19.1782 23.6101C19.1887 24.2594 19.1996 24.9091 19.2111 25.5583C19.2047 25.6017 19.1976 25.6458 19.1908 25.6902C19.1057 26.2443 19.1069 26.9256 19.1085 27.9978C19.1089 28.3098 19.1091 28.655 19.1075 29.0398L19.122 29.5505L18.5867 29.5652C18.3975 29.5644 18.1987 29.5633 17.9894 29.5613C17.5826 29.5573 17.3732 29.5236 17.2024 29.4958C17.1522 29.4877 17.1049 29.4796 17.0572 29.4734C16.9138 29.4549 16.7637 29.4717 16.5916 29.4939C16.5893 29.5335 16.5895 29.5744 16.5858 29.616C16.4658 30.9612 16.5474 31.5542 16.609 32.0027C16.627 32.1341 16.6435 32.2537 16.6525 32.3757C16.6819 32.7716 16.6528 33.3361 16.6129 33.7624C16.5812 34.1005 16.6126 34.777 16.6525 35.2898C16.6676 35.4837 16.6677 35.7458 16.668 36.0544C16.6684 36.374 16.6695 36.7439 16.6864 37.1394C16.7293 38.1393 16.7492 38.6712 16.7658 39.0984C16.7705 39.2201 16.7749 39.3338 16.7794 39.447C16.7936 39.805 16.8053 40.2492 16.8171 40.699C16.818 40.7324 16.8191 40.7661 16.82 40.7996L16.8404 41.5164L16.0891 41.5378C15.5883 41.5513 15.0874 41.5646 14.701 41.5828C13.6329 41.5623 12.5647 41.5377 11.4967 41.5124C10.9481 41.4993 10.421 41.4252 10.033 41.3035C9.64553 41.1817 9.42737 41.0227 9.42705 40.8582C9.42705 40.8325 9.43409 40.8072 9.44447 40.782C9.41961 40.7925 9.39517 40.7996 9.36993 40.7996C9.20986 40.7993 9.05473 40.5843 8.93431 40.2009C8.81401 39.8174 8.73897 39.297 8.72134 38.7546C8.69296 37.8701 8.66525 36.985 8.63906 36.1003C8.63573 36.054 8.63239 36.007 8.62937 35.9607C8.60693 35.6158 8.56125 35.2956 8.51611 34.9753C8.50577 34.9019 8.49522 34.8284 8.48514 34.7546C8.40838 34.1927 8.43985 33.1084 8.45706 32.5124C8.45734 32.5017 8.45775 32.491 8.45803 32.4802C8.4621 32.3389 8.46365 32.2051 8.46481 32.0486C8.46756 31.6748 8.47106 31.1691 8.51999 30.115C8.51967 30.061 8.51928 30.0069 8.51902 29.9529C7.98918 29.9507 7.45932 29.9501 6.92948 29.9451L6.05824 29.9705L6.0321 29.0398C6.0545 26.6195 6.10307 24.1993 6.15892 21.7791C6.15852 21.7372 6.15836 21.6941 6.15795 21.6511C6.15003 20.8205 6.14059 19.7905 6.1686 19.1433C6.17131 19.0807 6.17366 19.0194 6.17634 18.9597C6.21072 18.0893 6.47359 17.4789 6.73781 17.0457C6.93427 16.7007 7.18159 16.3938 7.45417 16.1296C8.1721 15.4041 9.25454 14.9713 10.2605 15.0095ZM22.7503 24.239C23.7883 24.2711 24.8264 24.2964 25.8645 24.3103C25.9365 24.3113 26.0093 24.3124 26.0813 24.3132C26.6247 24.3149 27.2023 24.465 27.6776 24.7732C27.8746 24.8988 28.0545 25.0469 28.2149 25.2078C28.467 25.4598 28.6871 25.763 28.8412 26.1023C29.0018 26.4194 29.0965 26.7524 29.1413 27.0593C29.1565 27.1624 29.1666 27.2629 29.1723 27.3601C29.1904 27.6183 29.2053 27.8515 29.211 28.0525C29.2291 28.6886 29.2002 29.4101 29.1791 29.946C29.1756 30.0336 29.1722 30.1167 29.1694 30.1931C29.1799 30.6188 29.1918 31.0448 29.2033 31.4705C29.1969 31.4988 29.1898 31.5273 29.183 31.5564C29.0979 31.9196 29.0991 32.3663 29.1007 33.0691C29.1013 33.3584 29.1019 33.6916 29.0968 34.0798L29.1181 34.5789L28.5789 34.6023C28.5566 34.602 28.5338 34.6017 28.5111 34.6013C28.2445 34.5973 28.1071 34.5636 27.9952 34.5359C27.9623 34.5277 27.9315 34.5196 27.9003 34.5134C27.7932 34.4924 27.6803 34.5158 27.547 34.5427C27.4898 34.5543 27.428 34.5621 27.3621 34.572C27.3229 35.1351 27.3843 35.432 27.4337 35.6677C27.4517 35.7539 27.4682 35.8319 27.4773 35.9119C27.5066 36.1714 27.4775 36.5416 27.4376 36.821C27.4059 37.0427 27.4373 37.4859 27.4773 37.822C27.4924 37.9491 27.4924 38.1215 27.4927 38.324C27.4931 38.5334 27.4942 38.7757 27.5111 39.0349C27.554 39.6904 27.5739 40.039 27.5905 40.3191C27.5952 40.3988 27.5996 40.4734 27.6041 40.5476C27.6088 40.6259 27.6133 40.7106 27.6176 40.7996L27.6467 41.4783L26.9138 41.5105C26.738 41.5191 26.5449 41.527 26.3504 41.5349C26.0005 41.5492 25.6449 41.5634 25.3747 41.5828C24.6744 41.5623 23.9741 41.5377 23.274 41.5124C22.9143 41.4993 22.569 41.4252 22.3147 41.3035C22.0606 41.1817 21.918 41.0227 21.9178 40.8582C21.9178 40.8357 21.9203 40.813 21.9255 40.7908C21.9039 40.796 21.8825 40.7995 21.8606 40.7996C21.7005 40.7995 21.5455 40.6585 21.425 40.407C21.3047 40.1555 21.2297 39.8144 21.2121 39.4587C21.1837 38.8788 21.155 38.2985 21.1288 37.7185C21.1255 37.6883 21.1221 37.6579 21.1191 37.6277C21.0967 37.4016 21.052 37.1911 21.0068 36.9812C20.9965 36.9331 20.9859 36.885 20.9758 36.8367C20.8991 36.4683 20.9306 35.7577 20.9478 35.3669C20.9481 35.3598 20.9485 35.3526 20.9487 35.3455C20.9528 35.2528 20.9534 35.165 20.9546 35.0623C20.9548 35.0414 20.9552 35.02 20.9555 34.9978C20.7213 34.9976 20.487 34.9975 20.2527 34.9958L19.3853 35.033L19.3447 34.0798C19.3577 32.1726 19.415 30.2654 19.4822 28.3582C19.4818 28.3307 19.4816 28.3024 19.4812 28.2742C19.477 27.9871 19.4719 27.6638 19.4725 27.3601C19.4716 27.0162 19.5306 26.6794 19.6167 26.4285C19.8535 25.7481 20.2018 25.39 20.4705 25.1433C20.4844 25.1296 20.499 25.1158 20.5131 25.1023C21.089 24.5297 21.9651 24.2008 22.7503 24.239ZM33.575 15.032C34.39 15.0377 35.2349 15.3043 35.8983 15.7908C36.0892 15.928 36.2707 16.0831 36.4365 16.2556C36.8435 16.6756 37.143 17.2039 37.3126 17.7517C37.3913 17.9916 37.473 18.2381 37.5546 18.4841C37.7753 19.1497 37.9985 19.8151 38.2235 20.4792C38.3679 20.8615 38.5091 21.2235 38.6398 21.5593C38.8235 22.0314 38.987 22.4517 39.1112 22.8025C39.4105 23.6477 39.7029 24.6228 39.9205 25.3464C39.9561 25.4646 39.99 25.5763 40.0212 25.6794C40.2198 26.2453 40.4189 26.8112 40.6185 27.3767C40.625 27.4168 40.6314 27.4577 40.6379 27.4988C40.7183 28.0118 40.9181 28.6091 41.2313 29.5486C41.3305 29.8463 41.4413 30.1787 41.5633 30.5535L41.8073 31.2234L41.0696 31.2449C40.9234 31.2441 40.7706 31.2427 40.6117 31.241C40.2354 31.237 40.0417 31.2033 39.8837 31.1755C39.8375 31.1674 39.7941 31.1602 39.7502 31.1541C39.599 31.1329 39.4389 31.1554 39.2506 31.1824C39.0066 31.2174 38.7138 31.2593 38.3271 31.2214C37.9535 31.1848 37.6429 31.1674 37.3804 31.1619C37.3944 31.2855 37.411 31.3937 37.4259 31.4939C37.4439 31.6154 37.4604 31.7258 37.4694 31.8386C37.4988 32.2046 37.4697 32.7258 37.4297 33.1199C37.3981 33.4324 37.4295 34.0578 37.4694 34.532C37.4845 34.7112 37.4846 34.9536 37.4849 35.239C37.4853 35.5346 37.4864 35.8771 37.5033 36.2429C37.5462 37.1672 37.5661 37.6585 37.5827 38.0535C37.5874 38.1661 37.5917 38.271 37.5962 38.3757C37.6105 38.7068 37.6222 39.118 37.634 39.5339C37.6467 39.9808 37.6602 40.4335 37.6766 40.7996L37.6989 41.5525L36.906 41.5769C36.865 41.5788 36.8247 41.5808 36.786 41.5828C35.7984 41.5623 34.8103 41.5377 33.8228 41.5124C33.3155 41.4993 32.8282 41.4252 32.4695 41.3035C32.1113 41.1817 31.9102 41.0227 31.9099 40.8582C31.9099 40.8336 31.9147 40.8091 31.9235 40.7849C31.8999 40.7937 31.8767 40.7995 31.8528 40.7996C31.6927 40.7995 31.5377 40.6005 31.4172 40.2458C31.2969 39.8912 31.2219 39.4104 31.2042 38.9089C31.1759 38.0911 31.1472 37.2727 31.121 36.4548C31.1177 36.4121 31.1143 36.3687 31.1113 36.3259C31.0889 36.0071 31.0441 35.7109 30.999 35.4148C30.9887 35.3469 30.9781 35.2789 30.968 35.2107C30.8913 34.6913 30.9227 33.6895 30.94 33.1384C30.9402 33.1285 30.9406 33.1181 30.9409 33.1082C30.945 32.9775 30.9456 32.8535 30.9467 32.7087C30.9495 32.3632 30.953 31.8959 31.0019 30.9216C31.0001 30.6381 30.999 30.3536 30.999 30.0701C30.999 29.1667 31.0047 28.2634 31.0145 27.3601C31.0286 26.4428 30.812 25.5658 30.3446 24.7957C29.8815 24.0247 29.2566 23.3794 28.4908 22.9177L27.9409 22.6277L28.1365 21.9841C28.1606 21.918 28.185 21.852 28.2091 21.7859C28.2211 21.7491 28.2326 21.7113 28.2449 21.6736C28.4824 20.9438 28.7768 20.0387 28.9942 19.4812C29.2704 18.7728 29.4669 18.2946 29.6292 17.9021L29.7009 17.7078C29.9619 16.9111 30.5198 16.18 31.2081 15.7273C31.8982 15.2521 32.7608 15.0114 33.575 15.032ZM15.6438 16.0447C15.5313 16.05 15.4032 16.0629 15.2566 16.0808C15.1648 16.0907 15.066 16.0988 14.9604 16.1052C14.4885 16.1338 14.0739 16.1164 13.6371 16.0974C13.297 16.0826 12.943 16.0665 12.5374 16.072C12.2608 16.0758 11.9454 16.0894 11.6332 16.1023C11.1696 16.1215 10.7114 16.1407 10.3932 16.1287C10.3469 16.1269 10.3027 16.1225 10.2605 16.1169C10.2029 16.1082 10.1484 16.0971 10.094 16.0876H10.0931C10.087 16.0866 10.0807 16.0857 10.0747 16.0847C9.40093 16.1343 8.7977 16.4281 8.32928 16.9119C8.31403 16.9295 8.29798 16.9474 8.28281 16.9656C8.26013 16.9928 8.23854 17.0201 8.21699 17.0476C8.04036 17.2711 7.91349 17.5075 7.86365 17.6716C7.80487 17.848 7.64108 18.2671 7.63713 18.7556C7.63572 18.8229 7.63686 18.8911 7.64003 18.9597C7.65183 19.2722 7.66387 19.5819 7.67972 19.8445C7.69145 20.0392 7.67083 20.2238 7.64971 20.4138C7.62998 20.5913 7.60986 20.7742 7.61486 20.9734C7.61738 21.0731 7.62612 21.1808 7.63519 21.2957C7.64318 21.3969 7.6513 21.5039 7.65649 21.616C7.66129 21.7201 7.65037 21.9524 7.63616 22.2498C7.62738 22.4334 7.61721 22.6421 7.60905 22.8611C7.62183 23.4402 7.63445 24.0193 7.64584 24.5984C7.66382 24.7192 7.68752 24.825 7.71747 24.908C7.73893 24.9673 7.76486 25.0181 7.79105 25.0701C7.82673 25.1408 7.86329 25.2143 7.89269 25.3152C7.91567 25.3941 7.92446 25.487 7.91496 25.5496C7.9105 25.5787 7.90222 25.6015 7.89463 25.6218C7.88596 25.645 7.87892 25.6659 7.87914 25.6912C7.87934 25.7094 7.88525 25.7284 7.89269 25.7517C7.9046 25.7891 7.92022 25.8379 7.92076 25.9119C7.92279 26.187 7.91788 26.5001 7.91302 26.8064C7.90762 27.1469 7.90166 27.4797 7.90624 27.7449C7.9082 27.8578 7.90309 27.9891 7.8985 28.1316C8.05704 28.1284 8.21715 28.1228 8.37381 28.115C8.67266 28.1 8.96009 28.086 9.20439 28.1062C9.25381 28.1103 9.3152 28.1354 9.3922 28.1667C9.40341 28.1713 9.41513 28.1756 9.42705 28.1804L10.3031 28.2058L10.2799 29.0398C10.2616 29.0861 10.2411 29.1379 10.2228 29.1951C10.2228 29.5089 10.2218 29.8227 10.2199 30.1365C10.2232 30.1475 10.227 30.1592 10.2305 30.1707L10.2925 30.3826C10.3531 30.6138 10.4018 30.9053 10.3535 31.2771C10.3371 31.4028 10.3071 31.4821 10.2799 31.5535C10.2532 31.6235 10.2288 31.6865 10.2237 31.7781C10.2181 31.8823 10.2349 32.0062 10.2528 32.1404C10.2778 32.3286 10.3049 32.5388 10.2789 32.7498C10.2772 32.764 10.276 32.7797 10.2741 32.7957C10.2555 32.9487 10.2276 33.1757 10.1724 33.4011C10.1577 34.0702 10.1409 34.7399 10.1221 35.4089C10.0907 36.524 10.0543 37.6397 10.0185 38.7546C10.0009 39.297 9.92584 39.8174 9.80555 40.2009C9.75669 40.3565 9.70114 40.4837 9.64292 40.5808C9.74173 40.52 9.87279 40.4632 10.033 40.4128C10.421 40.2911 10.9481 40.217 11.4967 40.2039C12.602 40.1777 13.7079 40.1514 14.8133 40.1306C15.0075 40.127 15.2018 40.1232 15.396 40.1199C15.3881 39.4172 15.3825 38.7141 15.3825 38.0115C15.3825 37.0613 15.3871 36.111 15.3941 35.1609C15.3948 35.0632 15.3952 34.9656 15.396 34.8679C15.3558 34.0696 15.319 33.2721 15.306 32.7107C15.2953 32.2473 15.3167 31.9092 15.335 31.6199C15.3477 31.4208 15.3591 31.2444 15.3573 31.0662C15.3563 30.9705 15.3535 30.8398 15.3505 30.6824C15.3428 30.271 15.3319 29.6759 15.335 29.0398L15.3563 28.2585L16.0891 28.2791C16.4459 28.2808 16.8159 28.2872 17.1734 28.3015C17.4253 28.3116 17.7007 28.3277 17.9817 28.3455C18.0076 27.9172 18.0255 27.5509 18.0165 27.3298C17.993 26.7495 18.0134 26.0839 18.031 25.4958C18.0479 24.9348 18.0621 24.4439 18.0349 24.1648C18.0024 23.8313 18.0163 23.5466 18.0359 23.1238C18.0495 22.8305 18.066 22.4703 18.0727 21.9812C18.0804 21.4166 18.1027 21.017 18.122 20.6775C18.1493 20.1997 18.1704 19.8402 18.1327 19.3044C18.1247 19.1903 18.1172 19.0747 18.1104 18.9597C18.084 18.5333 17.9788 18.1428 17.8568 17.8367C17.7893 17.6633 17.6841 17.4757 17.549 17.2957C17.4598 17.1765 17.3581 17.0597 17.2498 16.949C17.1413 16.8378 17.0289 16.7359 16.9188 16.6433C16.7376 16.4912 16.5831 16.3693 16.4357 16.2712C16.3899 16.2408 16.3451 16.2124 16.3002 16.1873C16.1213 16.1192 15.9346 16.0708 15.7436 16.0417C15.7119 16.042 15.6785 16.043 15.6438 16.0447ZM33.575 16.1072C33.2351 16.123 32.9261 16.1946 32.7076 16.2488C32.6171 16.2707 32.5351 16.278 32.453 16.2888H32.452C32.4466 16.2895 32.4411 16.291 32.4356 16.2917C32.2245 16.3825 32.0239 16.4986 31.8373 16.6374C31.5248 16.8694 31.2699 17.1551 31.0881 17.4841C31.066 17.5314 31.0455 17.5802 31.0261 17.6287C30.9621 17.7879 30.9152 17.9508 30.8906 18.0916L30.8877 18.1013C30.8701 18.1822 30.855 18.2564 30.8451 18.3201C30.8123 18.5311 30.664 19.0398 30.5072 19.5749C30.4046 19.9253 30.298 20.2874 30.2188 20.5857C30.1724 20.7601 30.0984 20.9153 30.0222 21.0749C29.9513 21.2238 29.8787 21.3767 29.8248 21.5525C29.7977 21.6406 29.7736 21.738 29.7483 21.8416C29.7396 21.877 29.7295 21.913 29.7202 21.9499C29.7897 22.0025 29.861 22.0573 29.9322 22.115C30.4139 22.4601 30.8503 22.8736 31.2255 23.3328C31.3161 23.4187 31.3991 23.4909 31.4734 23.5427C31.5265 23.5798 31.578 23.6079 31.6302 23.6374C31.7012 23.6778 31.7739 23.7214 31.8557 23.7947C31.861 23.7994 31.867 23.8044 31.8722 23.8093C31.9312 23.8668 31.9837 23.9405 32.0077 23.9988C32.0199 24.0284 32.0256 24.054 32.03 24.0769C32.0349 24.1032 32.0387 24.1272 32.0522 24.1511C32.062 24.1683 32.0773 24.1833 32.0958 24.2019C32.1256 24.2319 32.1642 24.2715 32.2013 24.3435C32.3397 24.611 32.4694 24.9307 32.5682 25.2517C32.6792 25.6085 32.7526 25.9654 32.8015 26.2488C32.8533 26.5398 32.8737 26.9499 32.8519 27.3601C32.85 27.3929 32.848 27.4259 32.846 27.4587C32.8301 27.7324 32.8148 28.0069 32.8083 28.2419C32.802 28.4722 32.8143 28.7119 32.8267 28.9441C32.8415 29.223 32.8555 29.4915 32.8354 29.7195C32.8312 29.7655 32.8063 29.8227 32.7754 29.8943C32.7534 29.945 32.7288 30.0036 32.7057 30.0701C32.7057 30.3602 32.7047 30.651 32.7028 30.9412C32.7061 30.9513 32.709 30.9619 32.7125 30.9724H32.7134C32.7923 31.2107 32.8998 31.5377 32.8354 31.9958C32.819 32.112 32.789 32.1857 32.7618 32.2517C32.7352 32.3164 32.7107 32.3741 32.7057 32.4587C32.7 32.5551 32.7169 32.6696 32.7347 32.7937C32.7598 32.9678 32.7878 33.1621 32.7618 33.3572C32.76 33.3705 32.758 33.3852 32.756 33.4001C32.7375 33.5417 32.7095 33.7514 32.6544 33.9597C32.6396 34.5782 32.6229 35.1967 32.604 35.8152C32.5726 36.8463 32.5372 37.8779 32.5014 38.9089C32.4838 39.4104 32.4078 39.8912 32.2875 40.2458C32.2461 40.3676 32.1993 40.4701 32.151 40.5535C32.2363 40.5027 32.3433 40.4558 32.4695 40.4128C32.8282 40.2911 33.3155 40.217 33.8228 40.2039C34.6252 40.1833 35.4278 40.1642 36.2303 40.1462C36.2122 39.114 36.1994 38.0818 36.1994 37.0496C36.1994 36.1711 36.204 35.2923 36.211 34.4138C36.2117 34.3235 36.2121 34.2327 36.2129 34.1423C36.1727 33.4043 36.1359 32.6672 36.1229 32.1482C36.1121 31.7196 36.1336 31.407 36.1519 31.1394C36.1622 30.9897 36.172 30.8536 36.1742 30.7195L36.1965 29.9597L36.906 29.9812C36.9364 29.9817 36.9667 29.9825 36.997 29.9822C37.0847 29.9812 37.2049 29.9783 37.3494 29.9753C37.9396 29.9631 38.9421 29.9426 39.8566 29.9822C39.9689 29.987 40.0866 29.9937 40.2071 30.0007C40.1294 29.7102 40.0598 29.4668 40.0009 29.3123C39.8098 28.8108 39.6353 28.2204 39.481 27.699C39.334 27.2019 39.2055 26.7671 39.0987 26.531C38.9709 26.249 38.9009 25.9949 38.7966 25.6179C38.7243 25.3564 38.6353 25.0353 38.4994 24.6042C38.3427 24.1067 38.2477 23.749 38.1674 23.4451C38.0544 23.0175 37.9696 22.6956 37.7782 22.238C37.5655 21.7296 37.3593 21.1924 37.2294 20.7585C37.1702 20.5609 37.0941 20.3367 37.0154 20.1042C36.9113 19.7968 36.8021 19.4733 36.7182 19.1726C36.6491 18.9248 36.6124 18.7125 36.5798 18.5251C36.5696 18.4667 36.559 18.4103 36.5488 18.3562C36.5134 18.2502 36.4788 18.1438 36.4433 18.0378C36.4164 17.9542 36.3874 17.8771 36.3562 17.8015C36.3404 17.7764 36.324 17.75 36.3058 17.7234C36.2143 17.5898 36.0939 17.4375 35.9428 17.2615C35.7376 17.0243 35.54 16.8272 35.3078 16.6443C35.2679 16.6131 35.2274 16.5831 35.1858 16.5535C34.9643 16.3961 34.7128 16.2584 34.3988 16.1785C34.1849 16.1238 33.9318 16.0974 33.6795 16.1033C33.6447 16.104 33.6098 16.1054 33.575 16.1072ZM26.5615 25.3123C26.4511 25.3182 26.319 25.3337 26.1578 25.3464C26.1319 25.3485 26.1067 25.3503 26.0813 25.3523C25.8095 25.3699 25.5635 25.3537 25.3059 25.3367C25.083 25.3219 24.8506 25.3067 24.5847 25.3123C24.4034 25.316 24.1969 25.3296 23.9923 25.3425C23.6883 25.3618 23.3877 25.3799 23.1791 25.3679C23.1011 25.3634 23.0335 25.3439 22.9671 25.324V25.323C22.9627 25.3217 22.958 25.3204 22.9536 25.3191C22.886 25.3211 22.8179 25.3238 22.7503 25.3259C22.3803 25.3388 22.0415 25.4396 21.7551 25.6296C21.7282 25.6517 21.7015 25.6755 21.6757 25.699C21.564 25.8002 21.4678 25.9145 21.4124 26.0105C21.4054 26.0226 21.3986 26.0344 21.3931 26.0457C21.3372 26.1544 21.1706 26.3815 21.0881 26.6443C21.0314 26.8157 21.0059 27.0032 21.0117 27.1619C21.0139 27.2286 21.0027 27.293 20.9894 27.3601C20.9843 27.3944 20.9788 27.429 20.9729 27.4636C20.9532 27.5799 20.9331 27.6993 20.9381 27.8298C20.9406 27.8951 20.9494 27.9655 20.9584 28.0408C20.9664 28.1071 20.9745 28.1782 20.9797 28.2517C20.9844 28.3202 20.9736 28.4722 20.9594 28.6667C20.9506 28.7871 20.9404 28.9237 20.9323 29.0671C20.9451 29.4469 20.9577 29.8271 20.9691 30.2068C20.987 30.2858 21.0099 30.3546 21.0397 30.4089C21.0612 30.4479 21.0871 30.4813 21.1133 30.5154C21.1491 30.5618 21.1865 30.6103 21.2159 30.6765C21.2388 30.7281 21.2476 30.7889 21.2382 30.8298C21.2337 30.8489 21.2255 30.8644 21.2179 30.8777C21.2092 30.8928 21.2012 30.9061 21.2014 30.9226C21.2016 30.9346 21.2075 30.9473 21.215 30.9626C21.2268 30.9871 21.2424 31.0188 21.243 31.0671C21.2451 31.2475 21.2401 31.4532 21.2353 31.6541C21.2299 31.8773 21.2249 32.0954 21.2295 32.2693C21.2346 32.4641 21.2116 32.7421 21.1888 33.0203C21.1817 33.1066 21.1767 33.1931 21.1704 33.2771C21.3301 33.2774 21.49 33.2785 21.6496 33.28C21.6567 33.2767 21.6645 33.2728 21.6719 33.2693C21.7422 33.2359 21.8235 33.1974 21.9178 33.1687L22.8577 33.2097L22.8209 34.0798C22.8603 34.2114 22.8806 34.3689 22.8432 34.5574C22.8268 34.6396 22.7968 34.6913 22.7696 34.738C22.7429 34.784 22.7195 34.8254 22.7145 34.8855C22.7088 34.9538 22.7247 35.0348 22.7425 35.1228C22.7676 35.2462 22.7956 35.3839 22.7696 35.5222C22.7679 35.5316 22.7658 35.542 22.7638 35.5525C22.7453 35.6528 22.7183 35.8021 22.6632 35.9499C22.6484 36.3884 22.6307 36.8269 22.6118 37.2654C22.5805 37.9964 22.545 38.7277 22.5092 39.4587C22.4916 39.8143 22.4165 40.1555 22.2963 40.407C22.2929 40.414 22.2881 40.4206 22.2846 40.4275C22.2945 40.4225 22.3045 40.4177 22.3147 40.4128C22.569 40.2911 22.9143 40.217 23.274 40.2039C23.9986 40.1777 24.7235 40.1514 25.4482 40.1306C25.7025 40.1233 25.9568 40.1188 26.211 40.113C26.2099 39.9444 26.2072 39.7758 26.2072 39.6072C26.2072 38.9843 26.2118 38.3609 26.2188 37.738C26.2195 37.674 26.2199 37.6097 26.2207 37.5457C26.1805 37.0223 26.1437 36.4996 26.1307 36.1316C26.1199 35.8279 26.1414 35.6064 26.1597 35.4167C26.1724 35.2862 26.1838 35.1703 26.182 35.0535C26.1811 34.9907 26.1782 34.9049 26.1752 34.8015C26.1697 34.6104 26.1624 34.3586 26.1597 34.0798L26.1936 33.2888L26.9138 33.3201C27.2456 33.3169 27.6163 33.3193 27.969 33.3406C27.9973 33.0413 28.0181 32.7839 28.0087 32.6316C27.9852 32.2512 28.0056 31.8149 28.0232 31.4294C28.0401 31.0616 28.0543 30.7394 28.0271 30.5564C27.9947 30.338 28.0085 30.1516 28.0281 29.8748C28.0417 29.6825 28.0582 29.4463 28.0649 29.1257C28.0726 28.7555 28.0949 28.4929 28.1142 28.2703C28.1415 27.9571 28.1626 27.7211 28.1249 27.3699C28.1245 27.3666 28.1233 27.3634 28.1229 27.3601C28.0837 27.0297 27.9841 26.7311 27.8896 26.5027C27.8471 26.3969 27.7798 26.2837 27.696 26.1736C27.6349 26.093 27.5651 26.0136 27.4918 25.9373C27.4323 25.8753 27.3724 25.8166 27.3146 25.7615C27.2083 25.6602 27.1227 25.5689 27.0397 25.4929C27.0141 25.4695 26.9888 25.4474 26.9632 25.4275C26.855 25.3777 26.7418 25.3388 26.6254 25.3103C26.6052 25.3105 26.5835 25.3111 26.5615 25.3123ZM23.7183 17.4226C23.9591 17.4099 24.118 17.432 24.2449 17.4539C24.302 17.456 24.359 17.4598 24.4153 17.4646C25.069 17.5135 25.7379 17.7769 26.2352 18.197C26.3465 18.2887 26.4509 18.3858 26.5489 18.4871C26.6012 18.5412 26.6532 18.5976 26.7028 18.655C26.8343 18.8072 26.9552 18.9731 27.06 19.1511C27.1334 19.2479 27.201 19.3449 27.2594 19.4382C27.3415 19.5692 27.4055 19.6944 27.4414 19.8025C27.5304 20.0641 27.5341 20.3768 27.514 20.5955C27.5128 20.6105 27.5115 20.6261 27.5102 20.6404C27.5083 20.6601 27.5063 20.679 27.5044 20.697C27.5121 20.8716 27.5073 21.0506 27.4869 21.2312C27.4786 21.242 27.4698 21.2526 27.4608 21.2634C27.3475 21.3974 27.3103 21.5762 27.1985 21.8484C27.1492 21.966 27.0838 22.1005 26.9874 22.2439C26.9249 22.3362 26.8636 22.3624 26.8151 22.3826C26.8008 22.3885 26.7878 22.3948 26.7754 22.4011C26.7331 22.4227 26.7232 22.4712 26.7096 22.53C26.6924 22.6057 26.6666 22.6995 26.5624 22.7527C26.5506 22.7587 26.5388 22.7653 26.5276 22.7712C26.2286 22.9239 26.159 23.0611 26.0958 23.1794C26.0767 23.2146 26.0584 23.2465 26.0349 23.2722C25.959 23.3562 25.8052 23.4074 25.6835 23.4187C25.5875 23.4293 25.4317 23.5256 25.3069 23.6033C25.2601 23.633 25.19 23.6531 25.1075 23.6716C25.0219 23.6909 24.9228 23.7082 24.818 23.738C24.6386 23.7887 24.5126 23.8101 24.4153 23.8249C24.3688 23.8318 24.3284 23.8365 24.2904 23.8406C24.257 23.8442 24.2251 23.8478 24.1936 23.8503C24.0938 23.8585 23.9681 23.8575 23.8393 23.8474C23.6853 23.8359 23.5272 23.8098 23.4047 23.7908C23.1075 23.6752 22.8311 23.5068 22.5944 23.3083C22.4721 23.2062 22.4028 23.0507 22.4086 22.8914C22.4139 22.7314 22.4907 22.5816 22.606 22.4656C22.7217 22.3495 22.867 22.2721 23.0029 22.2322C23.1392 22.1932 23.2545 22.1936 23.3379 22.2361C23.5065 22.3233 23.6795 22.3789 23.8548 22.4109C24.0357 22.4439 24.2212 22.4533 24.4153 22.449C24.4508 22.4482 24.4863 22.4467 24.5208 22.4451C24.6781 22.4374 24.8275 22.4157 24.971 22.3787C24.9858 22.3748 25.0008 22.3711 25.0155 22.3669C25.1206 22.2888 25.2092 22.2032 25.274 22.1492C25.3274 22.1048 25.3808 22.0935 25.4279 22.0818C25.4602 22.0737 25.4893 22.065 25.5102 22.0457C25.5213 22.0353 25.5358 22.0204 25.5528 22.0017C25.5801 21.9717 25.6147 21.9322 25.6535 21.8884C25.7146 21.8196 25.7821 21.7435 25.8577 21.6804C25.9129 21.6347 25.9857 21.5859 26.0523 21.532C26.1477 21.4559 26.2296 21.3677 26.2352 21.3103C26.2456 21.2108 26.2927 21.1088 26.3272 21.0105C26.3603 20.9176 26.3824 20.8296 26.3582 20.7781C26.336 20.7309 26.3393 20.6917 26.3504 20.6404C26.3538 20.6249 26.3579 20.6082 26.3621 20.5906C26.3745 20.5373 26.3883 20.4707 26.3853 20.3826C26.3815 20.2813 26.3897 20.2075 26.395 20.1433C26.402 20.0536 26.4033 19.9807 26.335 19.9031C26.2588 19.8172 26.1886 19.734 26.1578 19.6531C26.1438 19.6163 26.119 19.5788 26.092 19.5408C26.0561 19.4901 26.0158 19.4384 25.9894 19.3816C25.9677 19.3349 25.9635 19.2825 25.9584 19.2351C25.9568 19.2203 25.9559 19.2055 25.9535 19.1921C25.9368 19.1745 25.9197 19.1575 25.9022 19.1404C25.8892 19.1276 25.8758 19.1155 25.8626 19.1033C25.8541 19.1022 25.8448 19.1012 25.8354 19.1003C25.7883 19.0962 25.7313 19.0928 25.6786 19.072C25.5951 19.0393 25.5479 18.9824 25.4928 18.9236C25.4501 18.8782 25.4029 18.8318 25.3359 18.8035C25.2902 18.7841 25.2337 18.7721 25.1781 18.7634C25.0956 18.7503 25.0155 18.7446 24.9652 18.7185C24.9463 18.7087 24.9337 18.6846 24.9206 18.6609C24.9198 18.6593 24.9186 18.6576 24.9177 18.656C24.7789 18.6384 24.6375 18.6372 24.4957 18.6501C24.4834 18.6548 24.471 18.6601 24.4589 18.6648C24.4444 18.6704 24.4293 18.6764 24.4153 18.6824C24.3716 18.701 24.333 18.722 24.3069 18.7488C24.2694 18.7871 24.1745 18.8148 24.0833 18.8533C24.0234 18.8782 23.9649 18.908 23.9216 18.9412C23.8964 18.9605 23.8641 18.9482 23.8297 18.9373C23.7977 18.927 23.7638 18.9181 23.7367 18.9343C23.7232 18.9424 23.7106 18.957 23.698 18.9724C23.6869 18.9859 23.6753 19.0005 23.6622 19.0124C23.6496 19.0235 23.6132 19.0284 23.5663 19.0378C23.5373 19.0437 23.5042 19.0518 23.4705 19.0632C23.3993 19.1229 23.3318 19.1875 23.2682 19.2576C23.265 19.2841 23.2676 19.3133 23.2779 19.3445C23.2853 19.3669 23.2968 19.3919 23.3088 19.4167C23.3251 19.4504 23.3425 19.4848 23.3524 19.5164C23.36 19.5408 23.3575 19.5573 23.3447 19.5574H23.3427C23.3369 19.5567 23.3291 19.5534 23.3224 19.5505C23.3138 19.5468 23.3065 19.5438 23.304 19.5466C23.3023 19.5487 23.304 19.5547 23.3069 19.5623C23.3116 19.5744 23.3182 19.5901 23.3117 19.5984C23.2863 19.6285 23.2531 19.6584 23.2227 19.6882C23.1889 19.7213 23.1576 19.7549 23.1414 19.7869C23.1233 19.8225 23.0748 19.8571 23.0281 19.8962C22.9955 19.9233 22.9637 19.9531 22.9439 19.9822C22.9245 20.0107 22.9232 20.0487 22.9236 20.0847C22.9239 20.1281 22.9261 20.1689 22.8984 20.196C22.8927 20.2015 22.8663 20.2036 22.8335 20.2068C22.8104 20.209 22.7839 20.2123 22.759 20.2175C22.7485 20.2632 22.7387 20.3097 22.7299 20.3572C22.733 20.3594 22.7364 20.3618 22.7396 20.364C22.8122 20.4157 22.914 20.4736 22.8461 20.5427C22.8289 20.5607 22.7981 20.5713 22.7706 20.5818C22.7437 20.5921 22.7197 20.6021 22.7145 20.6169C22.712 20.624 22.7135 20.6322 22.7174 20.6404C22.7227 20.6515 22.7322 20.6635 22.7425 20.6755C22.7681 20.7055 22.7975 20.7363 22.7735 20.7703C22.7719 20.7726 22.7704 20.7755 22.7687 20.7781C22.7518 20.8031 22.727 20.8395 22.6767 20.8816C22.6746 20.9895 22.6785 21.0967 22.6912 21.2029C22.7123 21.3795 22.7583 21.5565 22.8374 21.7322C22.8753 21.8173 22.8737 21.9345 22.8345 22.071C22.7945 22.2071 22.719 22.3511 22.606 22.4656C22.4931 22.5798 22.3467 22.6559 22.1898 22.6628C22.0337 22.6701 21.8809 22.6046 21.7774 22.4871C21.6089 22.2961 21.4588 22.077 21.3408 21.8386C21.3328 21.8269 21.3251 21.8145 21.3176 21.8025C21.2613 21.7131 21.1888 21.6346 21.1201 21.5505C21.1044 21.5313 21.0888 21.5118 21.0736 21.4919C20.954 21.3396 20.9386 20.9945 20.9516 20.8171C20.9518 20.8139 20.9515 20.8106 20.9516 20.8074C20.9539 20.765 20.9539 20.7248 20.9546 20.6785C20.9547 20.6664 20.9551 20.6536 20.9555 20.6404C20.9599 20.5335 20.9662 20.3808 21.0485 20.1052C21.06 20.0132 21.0758 19.9207 21.0969 19.8289C21.2334 19.2099 21.6021 18.6371 22.0455 18.2498C22.3162 18.0082 22.637 17.8022 22.9845 17.6648C22.9955 17.659 23.0071 17.653 23.0184 17.6472C23.2355 17.532 23.5283 17.4311 23.7183 17.4226ZM13.0466 6.69116C13.3019 6.70871 13.5595 6.74911 13.8123 6.81518C13.9632 6.83993 14.108 6.86981 14.2411 6.90503C14.4281 6.95437 14.5926 7.01419 14.7194 7.07983C15.028 7.23703 15.3139 7.50779 15.4957 7.71948C15.5081 7.73366 15.5199 7.74781 15.5316 7.76147C15.5479 7.78071 15.5642 7.79937 15.579 7.81714C15.7401 7.96975 15.8927 8.13721 16.032 8.31909C16.0355 8.33532 16.0386 8.35209 16.0417 8.36889C16.078 8.57849 16.2047 8.77412 16.3457 9.11987C16.4059 9.27038 16.4667 9.45059 16.5093 9.66675C16.5361 9.80603 16.5129 9.88371 16.4948 9.94507C16.4894 9.96306 16.485 9.98012 16.4812 9.99682C16.468 10.0544 16.4966 10.109 16.5296 10.1755C16.5722 10.2609 16.6217 10.3694 16.5858 10.5124C16.5817 10.5286 16.5779 10.5448 16.5741 10.5603C16.4689 10.9737 16.5062 11.162 16.5393 11.322C16.5486 11.37 16.5562 11.414 16.5557 11.4578C16.5549 11.5999 16.4706 11.7863 16.3815 11.9109C16.3129 12.0106 16.2514 12.2358 16.1995 12.4128C16.1805 12.4798 16.1351 12.5608 16.0775 12.6521C16.018 12.7467 15.9452 12.8526 15.8742 12.9714C15.7522 13.1746 15.6541 13.3042 15.577 13.4031C15.5398 13.4504 15.506 13.491 15.4744 13.5281C15.447 13.5603 15.4206 13.5903 15.3941 13.6199C15.3095 13.7145 15.1941 13.8245 15.0688 13.9285C14.9195 14.0533 14.7556 14.1687 14.6284 14.2566C14.2667 14.4235 13.8771 14.5271 13.4928 14.5691C13.2948 14.5912 13.0986 14.5341 12.9624 14.4187C12.8254 14.3031 12.758 14.1425 12.7581 13.9783C12.7584 13.8134 12.8228 13.6547 12.9198 13.5281C13.0177 13.4016 13.1392 13.3164 13.2683 13.28C13.5296 13.2072 13.7689 13.0961 13.9875 12.9548C14.2131 12.8093 14.4182 12.6319 14.6119 12.4304C14.6473 12.3936 14.6819 12.3564 14.7155 12.3191C14.8681 12.1495 14.9995 11.9699 15.1075 11.7791C15.1187 11.7594 15.1298 11.7394 15.1405 11.7195C15.186 11.5362 15.2066 11.3558 15.2247 11.2312C15.2398 11.1284 15.2747 11.058 15.3031 10.9949C15.3224 10.9517 15.3381 10.9123 15.3408 10.8708C15.3422 10.8484 15.343 10.8173 15.3428 10.78C15.3424 10.7209 15.3403 10.6451 15.337 10.5603C15.332 10.4265 15.3238 10.276 15.3263 10.1326C15.3285 10.0284 15.3377 9.9044 15.337 9.78393C15.337 9.61221 15.3139 9.44732 15.2673 9.38061C15.1867 9.26395 15.1236 9.11574 15.0543 8.98608C14.989 8.86263 14.9198 8.75696 14.853 8.72241C14.7915 8.69063 14.7544 8.64791 14.7116 8.58862C14.6988 8.57089 14.6855 8.55133 14.671 8.531C14.6269 8.46959 14.571 8.39478 14.4793 8.31225C14.373 8.21722 14.3026 8.1424 14.2402 8.07983C14.1525 7.993 14.0792 7.92869 13.941 7.906C13.7875 7.88133 13.6361 7.85774 13.5229 7.81323C13.4713 7.79277 13.4088 7.77878 13.3438 7.76733C13.2576 7.75205 13.1665 7.74035 13.0834 7.71655C13.0148 7.69688 12.9582 7.66126 12.9062 7.63061C12.8901 7.62106 12.8741 7.61212 12.8588 7.60425C12.8252 7.60348 12.7919 7.60386 12.7581 7.60425C12.7331 7.60453 12.7082 7.60428 12.6836 7.60522C12.6742 7.61058 12.6637 7.6166 12.6535 7.6228C12.6028 7.65393 12.5425 7.69359 12.4686 7.7185C12.3519 7.7581 12.2483 7.75615 12.1366 7.7605C12.0499 7.76402 11.9577 7.77128 11.8617 7.80835C11.7964 7.83358 11.7269 7.87426 11.6603 7.91675C11.561 7.97981 11.4694 8.04873 11.3951 8.07788C11.3673 8.08864 11.3353 8.0843 11.3031 8.08081L11.2963 8.07983C11.137 8.19655 10.9908 8.33248 10.8578 8.48218C10.8488 8.49764 10.8395 8.51362 10.8307 8.52905C10.8202 8.54745 10.8095 8.56646 10.7997 8.58471C10.7692 8.64197 10.7453 8.69655 10.7378 8.74292C10.7269 8.80915 10.6517 8.92875 10.5887 9.05737C10.5472 9.14116 10.5103 9.2289 10.4909 9.30444C10.4796 9.34864 10.442 9.37556 10.4038 9.40503C10.3684 9.43229 10.3322 9.46234 10.3186 9.50659C10.3118 9.5287 10.3101 9.55498 10.3089 9.58276C10.3079 9.60724 10.3078 9.63328 10.3041 9.65893C10.3007 9.68282 10.272 9.7283 10.2392 9.78979C10.219 9.82779 10.1968 9.87261 10.1773 9.92065C10.1591 10.0555 10.1512 10.192 10.1521 10.3298C10.1678 10.3599 10.19 10.386 10.2189 10.407C10.2397 10.422 10.2648 10.4351 10.2905 10.448C10.3256 10.4655 10.3622 10.4828 10.3912 10.5056C10.4139 10.5235 10.423 10.5444 10.4135 10.5583L10.4115 10.5603C10.4069 10.5656 10.3998 10.57 10.3932 10.574C10.3846 10.5792 10.3766 10.584 10.3767 10.5896C10.3769 10.5937 10.3837 10.5982 10.3912 10.6033C10.4031 10.6113 10.4182 10.6215 10.4193 10.6374C10.4229 10.6974 10.4224 10.7653 10.4241 10.8308C10.4259 10.9036 10.4309 10.9744 10.4454 11.0281C10.4614 11.0879 10.4577 11.1774 10.4609 11.2683C10.463 11.3319 10.469 11.3966 10.4822 11.449C10.4952 11.5002 10.5282 11.5457 10.5616 11.5876C10.6018 11.6383 10.6414 11.6842 10.6497 11.739C10.6513 11.7501 10.6367 11.7739 10.6187 11.8044C10.6059 11.8261 10.5912 11.8516 10.58 11.8777C10.6168 11.9373 10.6562 11.996 10.6971 12.0544H10.7872C10.8662 12.057 10.9428 12.0742 10.9614 12.1677C10.968 12.1997 10.9583 12.2335 10.9498 12.2644C10.9415 12.2948 10.9344 12.3225 10.9459 12.3416C10.9514 12.3504 10.9602 12.3575 10.9711 12.363C10.9864 12.3708 11.0062 12.3755 11.0263 12.3806C11.0751 12.3932 11.1288 12.4055 11.1473 12.4568C11.1485 12.4602 11.1497 12.4638 11.1511 12.4675C11.1652 12.5047 11.1859 12.5593 11.1928 12.6355C11.3053 12.7437 11.4242 12.8434 11.5509 12.9324C11.7621 13.0807 11.9976 13.2003 12.2576 13.282C12.3835 13.322 12.5031 13.4089 12.5993 13.5349C12.6946 13.661 12.7578 13.8166 12.7581 13.9783C12.7581 14.1392 12.6924 14.2964 12.5587 14.4119C12.4253 14.5273 12.2328 14.5871 12.0379 14.571C11.7211 14.5453 11.3991 14.4788 11.0892 14.3679C11.0722 14.3639 11.0548 14.3597 11.0379 14.3552C10.9126 14.3216 10.7861 14.3061 10.6584 14.2839C10.6291 14.2788 10.5987 14.2734 10.5693 14.2673C10.3421 14.2239 10.0251 13.9433 9.87816 13.7781C9.87545 13.7752 9.87308 13.7721 9.87041 13.7693C9.83478 13.7307 9.79919 13.6953 9.75909 13.6541C9.74847 13.6431 9.73665 13.631 9.7252 13.6189C9.63477 13.521 9.50552 13.3828 9.32927 13.074C9.2595 12.9823 9.19312 12.8862 9.13179 12.7869C8.71432 12.1222 8.53528 11.3016 8.57807 10.5603C8.60006 10.1034 8.69582 9.63538 8.87526 9.2019C8.87989 9.1871 8.88483 9.17214 8.88978 9.15698C8.98226 8.8622 9.15493 8.51411 9.30991 8.33276C9.50468 8.10084 9.6595 7.97229 9.78716 7.87182C9.83941 7.82109 9.89273 7.7712 9.94689 7.72339C10.5683 7.16362 11.3916 6.78528 12.2141 6.70581C12.3963 6.68608 12.5781 6.67869 12.7581 6.68042C12.854 6.68134 12.9503 6.68452 13.0466 6.69116ZM33.8635 6.69116C34.1188 6.70871 34.3764 6.74911 34.6292 6.81518C34.78 6.83993 34.9249 6.86981 35.058 6.90503C35.245 6.95437 35.4095 7.01419 35.5362 7.07983C35.8448 7.23703 36.1308 7.50779 36.3126 7.71948C36.3251 7.7338 36.3377 7.74769 36.3494 7.76147C36.3658 7.78067 36.3811 7.7994 36.3959 7.81714C36.557 7.96975 36.7095 8.13721 36.8489 8.31909C36.8524 8.33532 36.8555 8.35209 36.8586 8.36889C36.8949 8.57849 37.0216 8.77412 37.1626 9.11987C37.2228 9.27038 37.2836 9.45059 37.3262 9.66675C37.353 9.80602 37.3298 9.88371 37.3116 9.94507C37.3063 9.96306 37.3019 9.98012 37.2981 9.99682C37.2849 10.0544 37.3135 10.109 37.3465 10.1755C37.3891 10.2609 37.4386 10.3694 37.4026 10.5124C37.3985 10.5286 37.3948 10.5448 37.391 10.5603C37.2858 10.9737 37.3231 11.162 37.3562 11.322C37.3654 11.37 37.3731 11.414 37.3726 11.4578C37.3718 11.5999 37.2875 11.7863 37.1984 11.9109C37.1298 12.0106 37.0683 12.2358 37.0164 12.4128C36.9974 12.4798 36.952 12.5608 36.8944 12.6521C36.8348 12.7467 36.7621 12.8526 36.6911 12.9714C36.5691 13.1746 36.471 13.3042 36.3939 13.4031C36.3567 13.4504 36.3229 13.491 36.2913 13.5281C36.2639 13.5603 36.2375 13.5903 36.211 13.6199C36.1263 13.7145 36.011 13.8245 35.8857 13.9285C35.7364 14.0533 35.5724 14.1687 35.4452 14.2566C35.0836 14.4235 34.694 14.5271 34.3097 14.5691C34.1117 14.5912 33.9155 14.5341 33.7792 14.4187C33.6423 14.3031 33.5749 14.1425 33.575 13.9783C33.5753 13.8134 33.6397 13.6547 33.7366 13.5281C33.8346 13.4016 33.9561 13.3164 34.0851 13.28C34.3464 13.2072 34.5858 13.0961 34.8044 12.9548C35.0299 12.8093 35.2351 12.6319 35.4288 12.4304C35.4641 12.3936 35.4988 12.3564 35.5324 12.3191C35.685 12.1495 35.8164 11.9699 35.9244 11.7791C35.9355 11.7594 35.9467 11.7394 35.9573 11.7195C36.0029 11.5362 36.0235 11.3558 36.0416 11.2312C36.0567 11.1284 36.0915 11.058 36.12 10.9949C36.1393 10.9517 36.155 10.9123 36.1577 10.8708C36.1591 10.8484 36.1599 10.8173 36.1597 10.78C36.1593 10.7209 36.1572 10.6451 36.1539 10.5603C36.1489 10.4265 36.1407 10.276 36.1432 10.1326C36.1454 10.0284 36.1546 9.9044 36.1539 9.78393C36.1539 9.61221 36.1308 9.44732 36.0842 9.38061C36.0036 9.26395 35.9405 9.11574 35.8712 8.98608C35.8058 8.86263 35.7367 8.75696 35.6698 8.72241C35.6084 8.69063 35.5713 8.64791 35.5285 8.58862C35.5157 8.57089 35.5023 8.55133 35.4878 8.531C35.4438 8.46959 35.3879 8.39478 35.2962 8.31225C35.1898 8.21722 35.1195 8.1424 35.0571 8.07983C34.9694 7.993 34.8961 7.92869 34.7579 7.906C34.6044 7.88133 34.453 7.85774 34.3397 7.81323C34.2882 7.79277 34.2257 7.77878 34.1607 7.76733C34.0745 7.75205 33.9834 7.74035 33.9002 7.71655C33.8317 7.69688 33.7751 7.66126 33.7231 7.63061C33.707 7.62106 33.691 7.61212 33.6757 7.60425C33.6421 7.60348 33.6087 7.60386 33.575 7.60425C33.55 7.60453 33.5251 7.60428 33.5004 7.60522C33.4911 7.61058 33.4806 7.6166 33.4704 7.6228C33.4197 7.65393 33.3593 7.69359 33.2855 7.7185C33.1688 7.7581 33.0652 7.75615 32.9535 7.7605C32.8668 7.76402 32.7745 7.77128 32.6786 7.80835C32.6133 7.83358 32.5437 7.87426 32.4772 7.91675C32.3779 7.97981 32.2863 8.04873 32.212 8.07788C32.1841 8.08864 32.1522 8.0843 32.12 8.08081L32.1132 8.07983C31.9539 8.19655 31.8077 8.33248 31.6747 8.48218C31.6657 8.49764 31.6564 8.51362 31.6476 8.52905C31.6371 8.54745 31.6264 8.56646 31.6166 8.58471C31.5861 8.64197 31.5622 8.69655 31.5547 8.74292C31.5438 8.80915 31.4686 8.92875 31.4056 9.05737C31.3641 9.14116 31.3271 9.2289 31.3078 9.30444C31.2965 9.34864 31.2589 9.37556 31.2207 9.40503C31.1852 9.43229 31.1491 9.46234 31.1355 9.50659C31.1287 9.5287 31.127 9.55498 31.1258 9.58276C31.1248 9.60724 31.1247 9.63328 31.121 9.65893C31.1175 9.68282 31.0889 9.7283 31.0561 9.78979C31.0358 9.82779 31.0137 9.87261 30.9942 9.92065C30.976 10.0555 30.9681 10.192 30.969 10.3298C30.9847 10.3599 31.0069 10.386 31.0358 10.407C31.0565 10.422 31.0816 10.4351 31.1074 10.448C31.1425 10.4655 31.1791 10.4828 31.2081 10.5056C31.2308 10.5235 31.2399 10.5444 31.2304 10.5583L31.2284 10.5603C31.2238 10.5656 31.2166 10.57 31.21 10.574C31.2014 10.5792 31.1934 10.584 31.1936 10.5896C31.1938 10.5937 31.2006 10.5982 31.2081 10.6033C31.22 10.6113 31.2351 10.6215 31.2362 10.6374C31.2398 10.6974 31.2393 10.7653 31.241 10.8308C31.2428 10.9036 31.2477 10.9744 31.2623 11.0281C31.2783 11.0879 31.2746 11.1774 31.2778 11.2683C31.2799 11.3319 31.2859 11.3966 31.2991 11.449C31.312 11.5002 31.3451 11.5457 31.3785 11.5876C31.4186 11.6383 31.4583 11.6842 31.4666 11.739C31.4682 11.7501 31.4536 11.7739 31.4356 11.8044C31.4228 11.8261 31.4081 11.8516 31.3969 11.8777C31.4337 11.9373 31.4731 11.996 31.514 12.0544H31.604C31.6831 12.057 31.7597 12.0742 31.7783 12.1677C31.7849 12.1997 31.7752 12.2335 31.7667 12.2644C31.7584 12.2948 31.7513 12.3225 31.7628 12.3416C31.7683 12.3504 31.7771 12.3575 31.788 12.363C31.8032 12.3708 31.823 12.3755 31.8431 12.3806C31.892 12.3932 31.9457 12.4055 31.9642 12.4568C31.9654 12.4602 31.9666 12.4638 31.968 12.4675C31.9821 12.5047 32.0028 12.5593 32.0096 12.6355C32.1222 12.7437 32.241 12.8434 32.3678 12.9324C32.579 13.0807 32.8145 13.2003 33.0745 13.282C33.2004 13.322 33.32 13.4089 33.4162 13.5349C33.5115 13.661 33.5747 13.8166 33.575 13.9783C33.575 14.1392 33.5093 14.2964 33.3756 14.4119C33.2422 14.5273 33.0497 14.5871 32.8548 14.571C32.538 14.5453 32.216 14.4788 31.9061 14.3679C31.889 14.3639 31.8716 14.3597 31.8548 14.3552C31.7295 14.3216 31.603 14.3061 31.4753 14.2839C31.446 14.2788 31.4156 14.2734 31.3862 14.2673C31.159 14.2239 30.8419 13.9433 30.695 13.7781C30.6923 13.7752 30.69 13.7721 30.6873 13.7693C30.6517 13.7307 30.6161 13.6953 30.576 13.6541C30.5654 13.6431 30.5535 13.631 30.5421 13.6189C30.4517 13.521 30.3224 13.3828 30.1462 13.074C30.0764 12.9823 30.01 12.8862 29.9487 12.7869C29.5312 12.1223 29.3522 11.3016 29.395 10.5603C29.417 10.1034 29.5127 9.63538 29.6921 9.2019C29.6968 9.1871 29.7017 9.17214 29.7067 9.15698C29.7991 8.8622 29.9718 8.51411 30.1268 8.33276C30.3216 8.10084 30.4764 7.97229 30.604 7.87182C30.6563 7.82109 30.7096 7.77121 30.7638 7.72339C31.3852 7.16362 32.2085 6.78528 33.0309 6.70581C33.2132 6.68608 33.395 6.67869 33.575 6.68042C33.6709 6.68134 33.7672 6.68452 33.8635 6.69116Z" fill="#1A2A4F"/>
</g>
<defs>
<clipPath id="clip0_33_2521">
<rect width="48" height="48" fill="white"/>
</clipPath>
</defs>
</svg>
