<svg width="48" height="48" viewBox="0 0 48 48" fill="none" xmlns="http://www.w3.org/2000/svg">
<path d="M8.71091 6.98381C8.71896 6.991 8.71904 7.00486 8.71384 7.02483C8.68843 7.02813 8.69052 7.01376 8.71091 6.98381Z" fill="#F4C430"/>
<path fill-rule="evenodd" clip-rule="evenodd" d="M24 0.357836C24.6633 0.36807 25.3327 0.412565 25.9179 0.421313C26.3919 0.538365 25.1965 0.489377 25.7353 0.595141C26.8416 0.825817 26.0464 0.510854 26.0791 0.502368C26.369 0.441625 27.2657 0.985539 27.3086 0.665454C27.7062 0.773901 27.5699 0.791307 28.1474 0.847094C28.0766 0.81147 28.0051 0.776613 27.9336 0.741625C28.6112 0.650726 29.8351 1.43434 29.7187 1.44866C29.4353 1.47415 28.7874 1.17606 28.7236 1.16838C28.6318 1.15851 28.342 1.42144 27.4326 0.980883C27.0123 1.13293 28.9136 1.38637 28.0283 1.38518C28.6211 1.42846 30.9122 2.19154 31.2607 2.2387C31.3033 2.24025 31.1934 1.96401 31.7216 2.26799C31.9696 2.41273 31.3249 2.18939 31.4306 2.28069C31.8173 2.41402 36.7013 4.70894 37.4511 5.46135C37.5047 5.50026 37.4442 5.54254 37.497 5.58049C37.6606 5.69461 38.3047 6.05873 38.5605 6.31487C38.0632 5.74296 39.1958 6.65482 39.4531 6.92327C39.8528 7.31782 39.7415 7.38505 39.8974 7.56975C40.4975 8.27356 41.6725 9.16744 41.9023 9.90959C42.0941 9.71114 42.5576 10.977 42.8642 11.4623C43.1145 11.8384 43.6113 12.3128 43.375 11.7299C43.7907 12.4066 44.2438 13.1128 44.5908 13.7758C44.6474 13.8845 44.5025 13.7681 44.6015 13.9535C44.612 13.9695 44.6929 13.9615 44.7773 14.1196C45.4613 15.4516 45.0028 14.8597 45.0722 15.1323C45.1075 15.2857 45.1387 15.3974 45.166 15.477C44.8332 14.6787 44.3631 13.7994 44.2363 13.5649C44.2022 13.8374 45.092 15.2738 45.2129 15.7612C45.2157 15.7769 45.1095 15.7573 45.1133 15.7729L45.1142 15.7739C45.1828 15.9463 45.5991 17.0396 45.6259 16.7787C45.6336 16.7073 45.4629 16.1913 45.2148 15.5951C45.2984 15.7493 45.3497 15.5896 45.3652 15.6166C45.5565 15.9477 45.7625 16.8501 45.8418 17.1664C45.8612 17.238 45.9239 17.2134 45.9277 17.225C45.999 17.5127 45.7799 17.45 46.0556 17.686C45.9749 18.2642 45.7349 16.7357 45.6093 16.8881C45.5828 16.9968 46.4398 20.2553 46.5693 20.2358C46.5513 20.251 46.5346 20.3024 46.5215 20.4018C46.4978 20.623 46.6355 21.5541 46.6816 21.7162C46.6925 21.7423 46.8739 21.7146 46.8789 21.7485C46.8973 21.8394 46.8401 23.0061 46.9502 23.433C46.9702 23.1975 46.9861 22.9632 46.999 22.726C47.0591 24.1435 47.0873 23.9294 47.1396 23.4506C47.1396 23.4269 47.1453 23.4029 47.1455 23.3803C47.1775 23.0139 47.1887 22.542 47.2021 22.5258C47.2368 22.5085 47.3113 23.3973 47.2822 24.0004C47.2663 24.3888 47.2215 24.6499 47.1591 24.4662C47.1496 24.4376 47.1623 24.2058 47.165 24.0004C47.1685 23.7366 47.1587 23.5191 47.0937 23.8324C47.0887 23.857 47.0878 23.9198 47.0879 24.0004C47.089 24.2452 47.0962 24.6562 47.0849 24.6879C47.0293 24.8296 46.9835 24.3767 46.916 24.0004C46.8666 23.72 46.8082 23.4854 46.7558 23.5658C46.8011 23.6983 46.8221 23.8464 46.831 24.0004C46.8473 24.2811 46.8223 24.5821 46.832 24.8608C46.8388 25.0568 46.928 25.1098 46.9287 25.1342C46.9335 25.4994 46.8474 25.2905 46.8427 25.4115C46.844 25.4786 46.9902 26.2095 46.7187 26.0502C46.6462 28.4194 46.9013 26.7266 46.9677 25.269C47.0502 25.7376 46.9145 26.6345 46.8808 27.0405C46.8705 27.1849 46.9759 27.1132 46.9599 27.3598C46.9578 27.8801 46.3268 30.2385 46.082 30.8227C46.1623 30.4426 46.0312 30.5226 45.9511 30.808C45.8691 31.0944 46.074 30.8981 46.0713 30.9574C46.0742 31.0313 45.5506 32.3342 45.4697 32.5532C45.8025 31.5452 45.6226 31.7388 45.2881 32.5649C45.3087 32.4343 45.3284 32.3029 45.3466 32.1723C45.2051 32.6789 44.6173 33.6166 44.5244 33.9018C44.5122 33.9459 44.6621 33.8331 44.6552 33.8578C44.5782 34.1162 44.0839 34.8732 44.0869 34.9213C44.0949 34.9601 44.3366 34.6615 44.3017 34.8022C44.2922 34.8341 44.0161 35.1052 43.8593 35.433C43.8013 35.5547 43.9117 35.5266 43.8994 35.558C43.7885 35.8232 43.758 35.6106 43.5058 36.0649C43.3188 36.3959 43.2787 36.7103 42.9414 37.1205C44.0457 35.7695 43.1945 36.9564 42.8047 37.5766C42.7428 37.6743 42.9253 37.6876 42.4433 38.2016C43.1202 36.8497 42.0854 38.4592 41.8213 38.7475C41.8059 38.7621 41.7262 38.7077 41.6035 38.851C41.5942 38.8634 41.6585 38.8904 41.5478 39.0278C40.4669 40.3182 41.1235 39.4627 40.8633 39.6557C40.7533 39.7388 40.2528 40.3881 40.0927 40.5414C40.0566 40.5763 40.0253 40.5125 39.8867 40.6489C39.6406 40.8908 39.4598 41.1539 39.292 41.31C39.2714 41.3268 39.1998 41.2499 38.8955 41.5561C38.8093 41.6422 38.7284 41.7594 38.8808 41.6723C39.3929 41.3824 40.0736 40.5111 40.5937 40.1137C41.0805 39.7563 39.7618 41.0936 39.6767 41.1469C39.6531 41.1686 39.8826 40.8847 39.6025 41.1274C39.364 41.3346 39.0473 41.8607 38.6494 42.1283C38.6162 42.1503 38.233 42.2572 38.2314 42.2416C38.241 42.2278 38.671 41.8385 38.5761 41.8549C38.5632 41.8597 38.2797 42.0882 38.2207 42.0903C38.1482 42.0942 37.7739 41.8672 37.707 41.9047C37.5354 42.0038 37.6934 42.0009 37.5879 42.0727C37.363 42.2321 36.5186 42.6737 36.5693 42.8051C36.7041 42.725 36.8392 42.6431 36.9726 42.56C36.2601 43.0672 36.5983 42.9041 36.5107 42.9965C36.4147 43.0934 36.3779 42.9703 36.124 43.1186C36.0703 43.1595 35.025 43.8096 35.0654 43.8383C35.6165 43.43 35.4761 43.6823 35.5039 43.6723C35.6128 43.6201 35.7003 43.4677 35.8379 43.3852C36.8042 42.7949 35.912 43.518 36.1562 43.4057C36.2411 43.3662 36.3567 43.2056 36.3916 43.1869C36.5046 43.1283 36.5592 43.2064 36.6259 43.1537C36.7805 43.0296 36.5174 43.0421 36.5224 43.0278C36.6235 42.862 37.2533 42.5549 36.9824 42.9233C37.2276 42.8189 37.1485 42.6533 37.3574 42.5922C37.7741 42.467 37.2542 42.7999 37.1289 42.9135C36.6814 43.3233 36.4961 43.3692 35.7802 43.8295C35.5219 43.9938 35.2468 44.2488 35.123 44.3217C35.0427 44.373 34.1572 44.4898 34.3447 44.9262C34.023 45.0348 33.4221 44.9659 33.1181 45.1117C32.8445 45.2436 32.9981 45.361 32.9746 45.3783C32.9364 45.406 32.5913 45.5339 32.4834 45.601C32.357 45.6806 32.4487 45.7148 32.2392 45.8227C31.7141 46.0879 31.6689 45.9141 31.6093 45.9242C30.9137 46.0234 31.2763 46.1585 31.1357 46.226C31.0022 46.3089 29.0425 46.7422 28.6338 46.8627C28.7956 46.7948 28.9583 46.7242 29.1181 46.6528C28.7956 46.6155 28.5109 46.8495 28.4677 46.6615C28.467 46.9811 27.8027 46.8906 27.6162 46.9252C27.5426 46.9401 27.5558 46.992 27.4638 47.0082C27.1041 47.0758 26.2713 47.1258 26.0781 47.1664C25.2253 47.3634 27.4535 47.343 27.6308 47.3012C27.2884 47.3732 25.3069 47.627 26.2334 47.6918C26.3768 47.702 26.6145 47.5371 26.6933 47.5219C27.2242 47.4227 26.8224 47.5959 26.8623 47.6039C26.9371 47.6149 27.2748 47.4494 27.3691 47.4496C27.4011 47.449 27.2168 47.5927 27.7295 47.517C27.4958 47.6771 26.0314 47.755 25.8447 47.7836C25.7799 47.7941 26.2176 48.0144 24.959 47.851C24.9741 47.8721 24.9896 47.8934 25.0049 47.9145C24.6717 47.9326 24.3364 47.9443 24 47.9487C23.6369 47.9533 23.2751 47.9493 22.915 47.9379C22.9937 47.8913 23.3831 47.8056 22.8955 47.8071C22.6139 47.8058 22.8158 47.9281 22.79 47.9301C22.521 48.0475 18.051 47.3488 17.2304 46.9955C16.9443 46.9202 16.1229 46.7437 16.0625 46.7211C15.6963 46.614 14.4698 46.0577 14.2226 45.9506C14.0663 45.8895 14.173 46.0397 14.0381 45.974C13.9132 45.9125 14.0809 45.8901 14.0459 45.8696C13.7357 45.7313 11.3823 44.604 10.9287 44.1606C11.223 44.407 12.9415 45.1753 12.9463 45.0883C12.9358 45.0728 12.5759 44.8036 12.4795 44.7865C12.3828 44.6453 11.8053 44.5872 11.582 44.3949C11.5576 44.3728 11.7334 44.3276 11.3125 44.0346C11.1683 43.9338 10.7206 43.7686 10.4062 43.4047C9.77219 43.1174 7.22975 40.6592 7.0029 40.5414C7.00416 40.5567 7.30284 40.927 7.02927 40.7328C6.65949 40.4655 7.12644 40.5719 6.78513 40.1801C6.72615 40.1283 5.75484 39.0618 5.71677 39.0248C5.32036 38.7798 6.08868 39.7944 6.07224 39.7905C6.00567 39.7889 5.30498 38.9941 5.28708 38.9467C5.2747 38.9129 5.96069 39.4554 5.25681 38.6957C5.3117 38.8036 5.36809 38.9117 5.42477 39.019C5.08262 38.666 5.16305 38.5427 5.09763 38.4448C4.89719 38.1387 4.48975 37.9365 4.36813 37.3061C4.33747 37.1415 4.53975 37.3069 4.54099 37.2885C4.51215 37.0854 4.17842 37.0226 4.17966 36.6899C4.18189 36.6645 4.61305 37.1508 4.01559 36.1977C4.04115 36.2728 4.06735 36.3483 4.09372 36.4233C3.97027 36.3127 3.37639 35.3384 3.3154 35.1918C3.12728 34.7832 3.41995 35.0695 3.19919 34.6782C3.1743 35.0168 2.54412 33.7917 2.71872 33.7983C2.46445 33.7031 2.13344 32.5708 1.95798 32.0522C1.83954 31.7297 1.54292 31.0831 1.52048 30.9721C1.49225 30.8407 1.62421 30.842 1.58298 30.6039C1.57058 30.5375 1.2809 29.8667 1.27048 29.225C1.26774 29.0999 1.42225 28.808 1.52243 29.0141C1.69078 29.3666 1.70852 30.1065 1.83005 30.0658C1.95292 30.0195 1.639 29.1051 1.60642 28.8422C1.44879 27.6529 1.72623 28.2966 1.76267 28.2631C1.8486 28.1668 1.73887 27.5396 1.74411 27.5004C1.76804 27.3838 1.92438 27.8217 1.9902 27.8168C2.07211 27.8078 2.1257 27.1798 2.17575 27.3139C2.24273 27.5047 2.21632 28.0796 2.23044 28.1137C2.39772 28.551 2.46701 27.8944 2.53415 27.7084C2.55407 27.6522 2.63708 27.8468 2.63864 27.8041C2.65749 27.1323 2.34501 27.711 2.3027 27.2699C2.26984 26.8794 2.46535 27.3514 2.4736 27.3422C2.47649 27.3179 2.41867 26.8582 2.45505 26.7787C2.4657 26.7441 2.89607 27.9009 3.00388 27.8285C2.91161 27.457 2.82901 27.0818 2.75681 26.7055C2.89569 26.6581 2.86427 27.2149 2.88962 27.269C2.93629 27.3753 2.96188 27.0517 3.00974 27.059C3.04065 27.0668 3.19713 27.4081 3.1904 27.0756C3.1887 26.9611 3.05228 26.7359 3.10934 26.309C3.42082 27.7224 3.37605 26.7281 3.41989 26.6752C3.46562 26.6289 3.67331 27.2839 3.54684 26.4711C3.82345 26.4022 3.63742 26.4781 3.71677 26.7026C3.81766 26.9744 3.80969 26.315 3.89645 27.349C4.01229 27.2682 3.89027 26.4594 3.89841 26.4067C3.90333 26.3682 3.98945 26.5409 4.00388 26.475C4.17098 25.6799 4.11441 26.2173 4.2529 25.9809C4.26308 25.9538 4.265 25.2448 4.33395 25.7826C4.43359 26.503 4.4064 26.9308 4.55075 27.1459C4.50418 26.8557 4.46536 26.5633 4.43161 26.269C4.4025 26.1022 4.38338 25.9342 4.38376 25.8071C4.32965 25.2121 4.30076 24.6095 4.30075 24.0004C4.30075 23.7527 4.30633 23.5057 4.3154 23.2602C4.28615 23.2523 4.26729 23.3336 4.26852 23.6576C4.16526 22.1849 4.08819 23.4651 3.89157 23.2436C3.81469 23.1578 3.81399 22.585 3.80466 22.5668C3.70104 22.6168 3.76597 22.8088 3.71384 22.8696C3.68295 22.8998 3.61194 22.3699 3.5361 22.4828C3.49452 22.5432 3.47565 23.1067 3.4697 23.1283C3.39599 23.347 3.33703 23.0728 3.28903 23.1196C3.25646 23.1519 3.24249 23.4869 3.23727 23.5014C3.22345 23.5114 3.11471 23.0462 3.07712 22.9457C3.04684 22.87 2.98022 23.1438 2.96774 23.0932C2.8914 22.7754 3.16406 22.1171 2.80661 22.7446C2.78488 22.7842 2.78014 23.0266 2.77634 23.0365C2.6802 23.1837 2.69322 22.7317 2.62692 22.644C2.50942 22.4956 2.54048 23.1592 2.48434 22.6049C2.37701 23.0145 2.37027 23.2426 2.38571 23.728C2.35585 22.3956 2.0746 21.8777 2.00974 23.392C2.0299 22.9129 1.84752 22.9576 1.85056 22.8129C1.85097 22.7206 2.08493 22.0332 1.65134 22.3246C1.59669 22.3634 1.63412 22.7974 1.53806 22.6567C1.63713 21.6195 1.47082 22.6287 1.45895 22.6313C1.18625 22.5989 1.66952 20.0637 1.76657 19.6362C1.83198 19.131 1.75601 18.6421 1.7822 18.5317C1.87105 18.1752 1.89113 18.4919 1.94528 18.4233C1.99319 18.3519 2.09843 17.2959 2.12985 17.2455C2.22875 17.0645 2.27775 17.2919 2.29001 17.2758C2.42079 17.0528 2.80226 15.7055 2.98825 15.3559C2.91267 15.3367 2.61749 16.0707 2.68649 15.5678C2.77243 14.98 3.09283 15.0773 3.11227 15.0698C4.14078 12.6571 5.59219 10.4285 7.37595 8.51116C7.21421 8.40595 6.18887 9.79745 6.16013 9.8217C5.91048 9.88753 7.42782 8.1382 7.99118 7.64788C7.82284 7.77237 7.65469 7.89819 7.48923 8.02776C7.66787 7.5478 8.59428 7.01889 9.0488 6.52092C9.19399 6.35947 8.83623 6.56506 8.83005 6.56194C8.96432 6.34068 9.30695 6.13418 9.14841 6.40373C9.54397 5.94325 9.54899 6.08434 9.91403 5.80803C9.93159 5.79444 9.72767 5.84959 9.99509 5.60198C10.1187 5.48196 10.8567 4.95074 10.9228 4.82561C10.9485 4.77088 10.3836 4.77985 10.4931 5.03459C9.60843 5.51646 10.3085 5.3214 9.99509 5.54729C9.94985 5.58306 9.95454 5.37245 9.24216 6.03948C9.2089 5.70548 10.2298 5.1741 10.3711 5.04143C10.6542 4.74562 9.23848 5.61877 9.15036 5.98772C9.12469 5.73444 9.03988 6.03801 8.75681 6.26995C8.44781 6.52549 8.53809 6.3642 8.37497 6.50823C7.93258 6.90706 8.21696 6.84961 7.76852 7.0883C8.39832 7.06105 7.20831 7.7041 6.86813 7.92131C7.28139 7.45012 7.7143 6.99413 8.16501 6.55608C8.12368 6.56396 8.08138 6.57236 8.04001 6.58049C8.16434 6.47075 8.29043 6.36235 8.41696 6.2553C8.41095 6.28837 8.40523 6.32186 8.39938 6.35491C8.95097 5.69027 9.22165 5.6841 9.27536 5.64104C9.98319 5.09308 10.8258 4.49284 11.5957 4.01702C11.7125 3.94883 11.5556 3.86688 12.4697 3.46623C12.7624 3.34225 12.5536 3.57877 12.8584 3.39397C13.1149 2.92808 13.2189 3.13613 13.3359 3.07659C13.6748 2.90379 13.8568 2.74068 13.8886 2.72405C14.3094 2.50949 14.9504 2.24241 15.4306 2.04534C15.4217 2.042 15.1652 2.05393 15.4795 1.95842C15.5979 1.92033 16.713 1.90433 17.5595 1.53948C17.3218 1.5809 17.0857 1.62594 16.8476 1.67522C17.1195 1.60148 19.016 1.01778 18.5254 1.04045C18.2182 1.04622 17.5784 1.47262 17.4375 1.2719C18.077 1.07799 21.6795 0.354751 21.9795 0.45354C22.019 0.457797 21.7861 0.554629 21.8398 0.559985C21.881 0.560121 22.7141 0.4816 22.8281 0.509204C22.8948 0.522861 22.5303 0.589321 22.5605 0.615649C22.5928 0.627995 23.6207 0.621201 23.6826 0.530688C23.427 0.569502 22.7119 0.566919 23.083 0.471118C23.131 0.458919 23.3832 0.51189 23.4424 0.498461C23.9874 0.364516 22.3528 0.44326 22.0976 0.477954C22.6227 0.372684 23.3 0.345955 24 0.357836ZM24.2841 47.7592C23.8441 47.7719 24.1643 47.9791 24.4384 47.8891C24.4526 47.8816 24.3136 47.7597 24.2841 47.7592ZM23.9707 47.7563C23.632 47.5724 22.9376 47.9258 23.4853 47.9028C23.5387 47.9011 23.9736 47.7696 23.9707 47.7563ZM24.8466 47.7563C24.8027 47.747 25.4743 47.4209 24.4902 47.6801C25.0218 47.7027 24.4624 47.7509 24.4707 47.7768C24.4991 47.8559 25.3854 47.7501 25.5879 47.7651C25.7343 47.619 24.9925 47.7871 24.8466 47.7563ZM20.9482 47.603C20.9102 47.5898 20.4227 47.5367 20.4297 47.5864C20.6589 47.6873 21.105 47.6671 20.9482 47.603ZM15.8789 46.4799C16.0984 46.5363 17.2918 46.9793 17.33 46.9311C17.3597 46.8918 15.9948 46.4553 15.8789 46.4799ZM27.2197 46.6205C27.3204 46.5577 27.0036 46.5228 26.875 46.5629C26.841 46.5742 27.0888 46.7016 27.2197 46.6205ZM29.2334 46.4819C29.1888 46.412 28.6193 46.6342 28.7519 46.644C28.837 46.6519 29.2588 46.5276 29.2334 46.4819ZM27.9384 46.4877C28.1695 46.3927 27.5884 46.3282 27.3535 46.4897C27.2328 46.5748 27.8978 46.5063 27.9384 46.4877ZM30.5351 46.2992C30.913 46.0949 30.0724 46.3151 29.8252 46.4643C29.9449 46.4295 30.5054 46.3153 30.5351 46.2992ZM27.2695 46.1899C27.1443 46.1829 25.8727 46.3602 26.0761 46.4379C26.1487 46.4707 26.8744 46.2981 26.9101 46.2973C26.9628 46.3007 26.7433 46.4443 27.1318 46.3696C27.1047 46.3348 27.3124 46.1959 27.2695 46.1899ZM31.4619 45.8217C31.3794 45.8347 29.4878 46.3679 30.5918 46.1498C30.6568 46.1432 31.7048 45.8463 31.4619 45.8217ZM28.3203 46.0317C27.8578 45.9706 27.8053 46.2524 28.1367 46.1938C28.2662 46.1703 28.3863 46.0404 28.3203 46.0317ZM28.709 46.0785C28.2295 45.9802 28.4858 46.1791 28.8925 46.1547C28.9922 46.0441 28.788 46.0941 28.709 46.0785ZM31.331 45.6254C31.1039 45.6565 30.5828 45.9076 30.7607 45.8998C30.8723 45.8984 31.5958 45.5921 31.331 45.6254ZM30.3994 45.5971C30.4274 45.5361 30.2378 45.6168 30.0957 45.6332C29.934 45.6529 29.5138 45.7265 29.249 45.8813C29.633 45.7974 30.0192 45.7016 30.3994 45.5971ZM13.2783 45.2485C13.2718 45.2765 13.6891 45.4853 13.7119 45.4907C14.1919 45.6084 13.3076 45.1874 13.2783 45.2485ZM40.2314 39.9936C40.2185 39.9005 39.7937 40.3563 39.7744 40.3627C39.7465 40.3729 39.5311 40.2876 39.4843 40.3207C39.4143 40.3889 38.1781 41.4698 37.9297 41.5785C38.6872 41.3944 38.4682 41.2353 38.5146 41.1987C38.6183 41.1162 38.9119 40.9824 39.0888 40.8032C38.9 41.023 38.706 41.24 38.5078 41.4535C38.7115 41.3452 40.2488 40.08 40.2314 39.9936ZM40.7304 39.4692C40.625 39.5744 40.3629 39.773 40.2939 39.8657C40.1018 40.1281 40.7156 39.6099 40.7304 39.4692ZM41.3271 38.8959C41.1603 38.9661 40.8645 39.3054 41.0146 39.2612C41.0294 39.2573 41.3297 38.987 41.3271 38.8959ZM42.0761 37.9379C41.9903 38.0299 41.9915 38.2351 42.0049 38.2289C42.1229 38.1572 42.2625 37.8144 42.0761 37.9379ZM42.5049 37.1694C42.4805 37.1978 42.0462 37.7359 42.0908 37.7631C42.24 37.6444 42.7904 36.8928 42.5049 37.1694ZM43.0566 36.7367C42.8796 36.8607 42.6378 37.3777 42.747 37.2778C42.8265 37.2086 43.2379 36.614 43.0566 36.7367ZM43.2148 36.3901C43.3394 35.9997 42.9229 36.6959 42.7607 36.9301C42.8057 36.9751 43.2012 36.4276 43.2148 36.3901ZM3.54587 35.0776C3.50262 35.2148 3.8037 35.5909 3.92282 35.8393C3.95589 35.6735 3.67434 35.3289 3.54587 35.0776ZM3.79684 35.7504C3.66739 35.5193 3.4433 35.0411 3.4404 35.227C3.44425 35.2535 3.74953 35.774 3.79684 35.7504ZM3.54196 34.7143C3.50644 34.8227 3.78644 35.2921 3.90622 35.476C3.9452 35.3412 3.64566 34.967 3.54196 34.7143ZM2.86325 33.8823C2.85974 34.0703 3.2619 34.6568 3.23825 34.5375C3.22748 34.5041 2.86184 33.7855 2.86325 33.8823ZM2.70309 33.183C2.71326 32.9374 2.26492 32.0197 2.28708 32.2807C2.2904 32.3244 2.64622 33.0507 2.70309 33.183ZM45.0547 32.4897C45.1387 32.3485 45.2338 32.3349 45.2431 32.2572C45.2461 32.2306 45.1729 32.1971 45.1845 32.1078C45.1423 32.2354 45.0991 32.363 45.0547 32.4897ZM45.4101 31.3803C45.3491 31.5887 45.2851 31.7958 45.2177 32.0033C45.3144 31.7781 45.5427 31.3698 45.4111 31.3793L45.4101 31.3803ZM2.26657 30.6322C2.19248 30.5036 2.23932 31.0529 2.33688 31.0951C2.39529 31.1196 2.31188 30.7141 2.26657 30.6322ZM45.7197 30.477C45.1976 31.3704 45.7656 30.9787 45.7871 30.7924C45.7901 30.7662 45.7325 30.4546 45.7197 30.477ZM46.084 30.2856C46.2163 29.991 46.2971 29.4072 46.165 29.6576C46.1377 29.7154 46.0487 30.2606 46.084 30.2856ZM46.3457 29.0893C46.413 28.925 46.5032 28.3474 46.3984 28.5893C46.3542 28.6941 46.3006 29.0408 46.3457 29.0893ZM3.94431 27.7612C4.13919 27.8795 4.02622 27.5937 4.04294 27.4916C4.05804 27.3988 4.14665 27.325 4.06442 27.141C4.02131 27.3463 3.98117 27.5535 3.94431 27.7612ZM8.01559 7.76702C7.85622 7.76128 7.55937 8.22103 7.69724 8.14104C7.71208 8.13026 8.12141 7.77014 8.01559 7.76702ZM8.91306 6.93303C9.01282 6.76153 12.9312 3.99593 10.2099 5.75139C10.127 5.80869 10.2811 5.78473 9.94724 6.02678C9.92505 6.04245 9.87558 6.00234 9.80759 6.05217C9.64698 6.16284 8.82776 6.80212 8.71091 6.98381C8.70179 6.97632 8.68432 6.97707 8.65622 6.9887C8.40119 7.09148 8.01973 7.83261 8.1445 7.75432C8.30201 7.6495 8.67177 7.17562 8.71384 7.02483C8.74297 7.02097 8.80643 6.99272 8.91306 6.93303ZM11.8134 4.49553C11.8165 4.40795 11.2996 4.76242 11.289 4.78166C11.2323 4.888 11.6928 4.60527 11.8134 4.49553ZM11.5322 4.38225C11.5448 4.31915 11.0014 4.64058 11.0215 4.72307C11.1348 4.63984 11.5179 4.43054 11.5322 4.38225ZM15.0293 2.65081C14.8188 2.69932 14.5732 2.91877 14.8759 2.81682C15.143 2.7289 15.0471 2.64821 15.0293 2.65081ZM21.1318 0.850024C20.9972 0.873441 21.1393 0.94585 20.9922 0.965258C20.5059 1.03043 20.0609 1.03733 19.6064 1.12541C19.5663 1.13344 19.8946 1.13596 19.5459 1.20159C19.4925 1.21199 19.1475 1.18231 18.7334 1.29241C17.8893 1.79225 17.1466 1.69927 16.0537 2.20256C16.1062 2.20825 16.9674 1.9915 17.0215 1.98186C17.9775 1.71317 19.7094 1.32052 20.7392 1.19084C21.0017 1.15461 20.867 1.11166 20.9795 1.09416C21.0692 1.08113 20.9774 1.20702 21.2724 1.12834C21.4137 1.09085 20.9587 1.02395 21.0537 0.988696C21.1156 0.965612 21.4425 0.972923 21.542 0.925219C21.5702 0.909729 21.227 0.832687 21.1318 0.850024ZM19.1289 1.13127C19.1465 1.0527 18.5588 1.22425 18.5244 1.3051C18.6418 1.27621 19.1141 1.15421 19.1289 1.13127ZM19.749 0.838305C19.3998 0.893255 18.5374 1.07805 19.1552 1.06975C19.2764 1.06794 19.575 0.992426 19.7383 0.971118C19.2025 0.951941 19.7923 0.9558 19.749 0.838305ZM23.8418 0.88811C23.6131 0.833237 23.5785 0.950364 23.5254 0.951586C23.4628 0.947071 22.1971 0.859604 23.3213 1.04924C23.3788 1.0565 24.1691 0.967139 23.8418 0.88811ZM20.3017 0.756274C20.1517 0.784657 19.9366 0.96436 20.2207 0.930102C20.2689 0.880722 20.6252 0.696955 20.3017 0.756274ZM22.3252 0.595141C22.1628 0.598717 19.9913 0.796309 20.4716 0.862719C20.5477 0.851301 22.4467 0.724241 22.3252 0.595141ZM27.0078 0.782641C26.8598 0.724557 25.5402 0.616676 25.9961 0.753344C26.0502 0.757783 27.4941 0.938979 27.0078 0.782641ZM21.7334 0.503344C21.5863 0.468912 21.2481 0.607359 21.4677 0.654711C21.6538 0.645465 21.7648 0.511558 21.7334 0.503344ZM25.0791 0.465258C25.1395 0.403455 24.5285 0.403415 24.4511 0.48186C24.6174 0.494725 25.0299 0.512435 25.0791 0.465258Z" fill="#F4C430"/>
<path d="M28.7158 47.2104C28.8465 47.2154 28.4137 47.3853 28.4599 47.3871C28.558 47.3908 28.6343 47.3855 28.6943 47.3754C28.2996 47.4816 27.88 47.5633 27.8349 47.5512C27.6305 47.4941 28.1992 47.4374 28.2148 47.4282C28.2358 47.4083 27.8244 47.1728 28.7158 47.2104Z" fill="#F4C430"/>
<path d="M29.1435 47.1283C29.7433 47.0348 29.3264 47.1988 28.8017 47.3461C28.9637 47.2791 28.9419 47.1578 29.1435 47.1283Z" fill="#F4C430"/>
<path d="M26.7871 47.1899C26.799 47.1929 26.7857 47.2838 26.7724 47.2885C26.4321 47.4072 26.476 47.1335 26.7871 47.1899Z" fill="#F4C430"/>
<path d="M27.7422 47.2865C27.7133 47.2358 28.4025 47.0609 28.4775 47.1869C28.3265 47.2077 27.7682 47.3198 27.7422 47.2865Z" fill="#F4C430"/>
<path d="M30.4218 46.6987C30.276 46.8233 29.7072 46.9356 29.456 46.9623C29.6047 46.8306 30.1434 46.7642 30.4218 46.6987Z" fill="#F4C430"/>
<path d="M32.916 45.9604C32.9618 45.9538 33.4813 45.6662 33.4961 45.7455C33.5046 45.8079 32.907 46.0174 32.7656 46.0844C32.5851 46.1729 32.8483 46.1769 32.5263 46.2787C32.3236 46.3416 32.3718 46.1375 32.3271 46.1449C32.2892 46.1548 31.6341 46.4933 31.8457 46.2289H31.8437C31.9055 46.1545 32.4154 45.9953 32.5361 45.9692C32.5561 45.9673 32.5222 46.1237 32.7412 46.0268C32.9178 45.947 32.6002 45.927 32.956 45.8061C33.3127 45.6821 32.8881 45.9641 32.916 45.9604Z" fill="#F4C430"/>
<path d="M34.3945 44.9389C34.6943 44.8192 34.4582 45.0535 34.248 45.1147C34.23 45.1186 34.1296 45.0427 34.3945 44.9389Z" fill="#F4C430"/>
<path d="M12.4795 44.7865C12.4953 44.8102 12.5003 44.8358 12.4863 44.8657C12.4451 44.8015 12.4489 44.7817 12.4795 44.7865Z" fill="#F4C430"/>
<path d="M35.5312 44.2055C35.5836 44.1861 36.6146 43.5121 36.2783 43.8617C36.226 43.9367 34.657 44.7698 34.4375 44.8461C34.3019 44.7712 35.0297 44.5362 35.1845 44.4321C35.2114 44.4137 35.1781 44.3085 35.3291 44.2133L35.33 44.2123C35.3867 44.1775 35.5092 44.2154 35.5312 44.2055Z" fill="#F4C430"/>
<path d="M37.9218 43.1078C37.8717 43.2448 37.5435 43.4479 37.3261 43.5893C37.3815 43.4549 37.7104 43.2572 37.9218 43.1078Z" fill="#F4C430"/>
<path d="M37.9873 42.9428C38.011 43.0021 37.5713 43.3321 37.5 43.3569C37.3955 43.3955 37.8324 43.0242 37.9873 42.9428Z" fill="#F4C430"/>
<path d="M9.24606 42.9135C8.96589 42.6199 9.34976 42.6356 9.55075 42.9086C9.57304 42.9401 9.62947 43.3058 9.24606 42.9135Z" fill="#F4C430"/>
<path d="M37.6533 42.1059C37.8185 42.0664 37.2758 42.5508 37.0918 42.5785C36.8731 42.6161 37.6204 42.122 37.6533 42.1059Z" fill="#F4C430"/>
<path d="M8.20212 41.9291C8.28252 41.9062 8.5718 42.2019 8.69724 42.3276C8.65059 42.3737 8.33601 42.0384 8.20212 41.9291Z" fill="#F4C430"/>
<path d="M3.88181 36.7299C3.92622 36.6974 4.26326 37.2078 4.27634 37.2387C4.34661 37.4399 3.94608 36.9666 3.88181 36.7299Z" fill="#F4C430"/>
<path d="M2.63864 34.7846C2.93756 35.3044 3.2562 35.8129 3.59177 36.3061C3.39753 36.1911 3.21428 35.7197 3.04782 35.475C2.81437 35.1423 2.13906 34.6998 2.63864 34.7846Z" fill="#F4C430"/>
<path d="M2.96091 35.8412C2.76109 35.7398 2.47143 34.9982 2.66696 35.2787C2.72044 35.3572 2.8757 35.7016 2.96091 35.8412Z" fill="#F4C430"/>
<path d="M44.6845 34.3705C44.6881 34.6291 43.9265 35.8384 43.9414 35.6166C43.9649 35.4435 44.518 34.5535 44.6845 34.3705Z" fill="#F4C430"/>
<path d="M45.5517 32.7778C45.4783 32.9245 45.3242 33.3694 45.2763 33.3168C45.3671 33.0752 45.4336 32.8231 45.5517 32.7778Z" fill="#F4C430"/>
<path d="M1.94138 23.4887C2.02567 23.1451 2.03897 23.9427 2.02341 23.977C1.96042 24.0763 1.90252 23.6433 1.94138 23.4887Z" fill="#F4C430"/>
<path d="M47.0595 21.5502C47.1223 21.6027 47.2523 22.362 47.165 22.4076C47.0508 22.4651 47.0676 21.6989 47.0595 21.5502Z" fill="#F4C430"/>
<path d="M1.32224 21.0942C1.48324 20.9377 1.30137 21.7797 1.24216 21.4369C1.2404 21.4197 1.31383 21.1101 1.32224 21.0942Z" fill="#F4C430"/>
<path d="M46.5019 19.6059C46.5058 18.595 47.1265 23.3861 46.5693 20.642C46.6285 20.765 46.6869 20.89 46.7441 21.0151C46.7312 20.6582 46.6459 20.2265 46.5791 20.2309C46.588 20.2219 46.5964 20.2022 46.6025 20.1723C46.6082 20.139 46.5124 19.7718 46.5019 19.6059Z" fill="#F4C430"/>
<path d="M1.60153 19.5561C1.71247 19.5704 1.47054 20.5309 1.4697 20.7748C1.41653 20.5095 1.51272 19.9207 1.60153 19.5561Z" fill="#F4C430"/>
<path d="M1.56052 16.8061C1.79819 16.314 1.45263 17.6885 1.43845 17.7192C1.40966 17.731 1.43055 17.0684 1.56052 16.8061Z" fill="#F4C430"/>
<path d="M2.64255 16.1088C2.56627 16.3133 2.46614 16.6031 2.37692 16.6332C2.434 16.4974 2.59131 16.0861 2.64255 16.1088Z" fill="#F4C430"/>
<path d="M2.77634 13.9692C3.0639 13.5865 2.1369 15.5249 2.11813 15.5873C2.09703 15.6139 2.08026 15.6306 2.06833 15.6391C2.07136 15.7263 1.93709 16.1094 1.83884 16.1244C1.88575 16.0121 1.99464 15.6966 2.01852 15.6625C2.02821 15.6486 2.03718 15.6388 2.04392 15.6323C2.01087 15.4646 2.70553 14.0391 2.77634 13.9692Z" fill="#F4C430"/>
<path d="M3.28903 14.2485C3.06849 14.7904 3.37054 14.3333 3.10642 14.8539C3.07431 14.687 3.09979 14.596 3.28903 14.2485Z" fill="#F4C430"/>
<path d="M4.29392 12.3071C4.41607 12.1396 4.42886 12.4294 4.2402 12.5815C4.18123 12.6277 4.22597 12.4013 4.29392 12.3071Z" fill="#F4C430"/>
<path d="M4.41892 11.224C4.45353 11.1984 4.60524 10.8012 4.63767 10.935L4.63864 10.934C4.47785 11.464 4.2004 11.3988 4.21384 11.3549C4.43669 10.8039 4.40176 11.2302 4.41892 11.224Z" fill="#F4C430"/>
<path d="M5.66794 9.55315C5.68712 9.6448 4.88076 10.834 4.81442 10.7719C5.08587 10.357 5.37031 9.95047 5.66794 9.55315Z" fill="#F4C430"/>
<path d="M41.9658 9.51116C42.0866 9.57734 42.5393 10.1407 42.5595 10.2836C42.3574 10.0617 42.1644 9.75318 41.9658 9.51116Z" fill="#F4C430"/>
<path d="M41.4199 8.98577C41.488 8.97919 41.8835 9.44839 41.8877 9.54436C41.7493 9.42564 41.5686 9.15152 41.4199 8.98577Z" fill="#F4C430"/>
<path d="M6.1445 8.99065C6.3881 8.79225 5.93782 9.35631 5.78708 9.5092C5.74125 9.47496 6.10557 9.02094 6.1445 8.99065Z" fill="#F4C430"/>
<path d="M7.2197 8.19573C6.89453 8.53379 7.09863 8.58568 6.83884 8.75041C6.79603 8.7769 6.40418 8.63919 6.85837 8.35002C6.93998 8.30031 6.76108 8.62541 7.2197 8.19573Z" fill="#F4C430"/>
<path d="M6.90427 7.976C6.94031 8.06576 6.91741 8.18083 6.63767 8.4428C6.68369 8.32532 6.8213 8.11873 6.90427 7.976Z" fill="#F4C430"/>
<path d="M8.56442 6.80998C8.31779 7.03668 8.07004 7.23832 7.82712 7.43108C7.82773 7.33842 8.50534 6.79577 8.56442 6.80998Z" fill="#F4C430"/>
<path d="M35.542 4.12737C35.5597 4.048 36.7753 4.66606 36.8056 4.71623C37.037 4.99708 35.7718 4.32868 35.542 4.12737Z" fill="#F4C430"/>
<path d="M34.8056 3.18108C36.1765 3.89 35.5413 3.70676 35.5927 3.74163C35.65 3.7879 35.8744 3.86805 35.9082 3.90471C36.6918 4.75745 34.9887 3.47744 34.4101 3.26311C34.9973 3.40763 35.6684 3.80035 34.8056 3.18108Z" fill="#F4C430"/>
<path d="M34.6865 3.48479C34.8417 3.49618 34.9705 3.74389 34.9365 3.73381C34.8072 3.6907 34.5664 3.47633 34.6865 3.48479Z" fill="#F4C430"/>
<path d="M34.3574 3.0512C34.0549 2.9015 34.4499 2.9332 34.5869 3.06389C34.6358 3.11142 34.4333 3.08865 34.3574 3.0512Z" fill="#F4C430"/>
<path d="M32.6279 2.24358C32.9 2.22614 33.7034 2.67738 33.2822 2.56487C33.2181 2.54582 32.7961 2.29708 32.6279 2.24358Z" fill="#F4C430"/>
<path d="M31.4023 1.90959C29.7639 1.32192 31.3021 1.82928 31.7119 1.95354C31.8679 1.99804 31.7659 1.88053 31.9082 1.91936L31.9091 1.92034C33.033 2.25334 32.6118 2.55494 31.249 1.92327C31.2999 1.91847 31.3513 1.91405 31.4023 1.90959Z" fill="#F4C430"/>
<path d="M30.2841 1.67815C30.3557 1.635 30.8434 1.79328 31.0175 1.84416C30.8778 1.88338 30.5275 1.75239 30.2841 1.67815Z" fill="#F4C430"/>
<path d="M15.7783 1.8178C17.4349 1.15861 17.7546 1.42558 16.1777 1.8051C16.1428 1.81245 15.6916 1.88482 15.7783 1.8178Z" fill="#F4C430"/>
<path d="M29.9873 1.11956C29.9357 1.28406 30.4303 1.48485 30.7256 1.40764C30.8426 1.59171 30.3128 1.45728 29.9775 1.30998C29.902 1.27614 29.6436 1.06048 29.9873 1.11956Z" fill="#F4C430"/>
<path fill-rule="evenodd" clip-rule="evenodd" d="M23.9999 6.65232C24.8554 6.64013 25.8477 6.7048 26.7694 6.86619C27.4402 6.98107 28.2063 7.17224 28.9217 7.4072C29.9459 7.73835 30.853 8.16248 31.3143 8.36619C32.1283 8.71893 33.011 9.2348 33.744 9.7529C34.4458 10.2445 35.0157 10.7302 35.3524 10.9922C35.7543 11.306 36.0682 11.6111 36.5047 12.0869C36.8059 12.4183 37.1669 12.8332 37.6229 13.4228C38.1477 14.1063 38.4631 14.6299 38.7196 15.0791C39.0755 15.7133 39.32 16.2018 39.6913 16.9277C40.1028 17.7358 40.4434 18.6302 40.6327 19.3535C40.7203 19.6842 40.8166 20.0599 40.9022 20.458C41.0155 20.9818 41.1076 21.5414 41.1522 22.0556C41.1892 22.4798 41.1847 22.8306 41.1747 23.1426C41.1714 23.2388 41.1676 23.3313 41.1639 23.4209C41.1709 23.6131 41.1749 23.8062 41.1756 24C41.1762 24.1447 41.1756 24.2897 41.1727 24.4336C41.1763 24.4881 41.1799 24.5457 41.1835 24.6054C41.2012 24.904 41.2156 25.2809 41.1883 25.7373C41.1433 26.466 41.024 27.0959 40.8631 27.75C40.7369 28.2587 40.5843 28.7824 40.3964 29.3779C40.2683 29.7839 40.1136 30.2451 39.9393 30.6933C39.6814 31.3616 39.3768 32.0022 39.1268 32.4258C39.0335 32.5846 38.937 32.7117 38.8407 32.8359L38.8387 32.8379C38.8323 32.8462 38.8257 32.8549 38.8192 32.8633C38.22 33.8958 37.514 34.869 36.7147 35.7607C36.6482 35.8402 36.5798 35.9196 36.5116 35.998C36.1781 36.3824 35.833 36.739 35.6141 36.9795C35.3789 37.2414 34.7221 37.8366 33.9667 38.3857C33.4738 38.7475 32.9419 39.0918 32.4989 39.3603C32.2398 39.5178 31.9753 39.6329 31.701 39.7441C31.4454 39.8476 31.1824 39.9475 30.9012 40.0742C30.7601 40.1378 30.6094 40.2099 30.4471 40.2842C30.3046 40.3494 30.1524 40.4171 29.9911 40.4814C29.8416 40.5409 29.4976 40.6522 29.0526 40.7715C28.7787 40.8449 28.4622 40.9226 28.1327 40.9941C27.2637 41.2184 26.3791 41.3741 25.4852 41.4609C25.3006 41.4946 25.1392 41.5289 25.0116 41.5664C24.9201 41.5932 24.843 41.6225 24.7635 41.6523C24.6549 41.693 24.5408 41.7344 24.3827 41.7676C24.2593 41.7934 24.1124 41.8045 24.0135 41.7949C24.009 41.7945 24.0042 41.7935 23.9999 41.7929C23.9604 41.7882 23.929 41.7804 23.9003 41.7734C23.8637 41.7644 23.8307 41.7571 23.7909 41.7568C23.7622 41.7566 23.732 41.7617 23.6952 41.7685C23.6363 41.7795 23.5592 41.7941 23.4432 41.791C23.0133 41.7798 22.5179 41.7417 22.0409 41.6826C21.508 41.6175 20.9921 41.526 20.5829 41.4482C20.1233 41.3624 19.4791 41.1854 18.8514 40.9648C18.4122 40.8117 17.9821 40.6391 17.6141 40.4853C17.2547 40.3355 16.8782 40.1842 16.5194 40.0244C16.0884 39.8328 15.6817 39.6282 15.3573 39.4179C15.2917 39.3755 15.2197 39.3062 15.1307 39.2187C15.0677 39.1567 14.9955 39.0854 14.912 39.0078C14.4985 38.7497 14.097 38.4737 13.7088 38.1806C13.6935 38.1729 13.6778 38.1643 13.662 38.1562C13.3022 37.9739 12.8048 37.7057 12.2753 37.1377C12.1413 36.9935 12.0701 36.8882 12.0067 36.7939C11.9447 36.7013 11.8895 36.6184 11.7928 36.5146C11.683 36.3967 11.5412 36.2698 11.3895 36.1279C11.1764 35.9289 10.9438 35.6985 10.7518 35.4326C10.7387 35.4145 10.7244 35.3943 10.7098 35.374C10.5709 35.1812 10.3708 34.8921 10.2001 34.5859C9.59891 33.7503 9.07561 32.8616 8.63756 31.9365C7.90659 30.394 7.41382 28.7483 7.17174 27.0791C7.05243 26.2645 7.03338 25.4781 7.06432 24.8984C7.0963 24.3238 7.16256 24.0005 7.22154 24C7.28293 24.0002 7.33741 24.3236 7.42955 24.8799C7.52123 25.4415 7.65377 26.1891 7.82897 26.9599C8.03451 27.8724 8.31979 28.7634 8.67662 29.6211C8.82101 29.578 8.98999 29.5407 9.16393 29.5166C9.55592 29.4628 9.94864 29.4074 10.3407 29.3535C10.3612 29.3494 10.3817 29.3447 10.4022 29.3408C10.5549 29.3115 10.6969 29.2673 10.8387 29.2207C10.8711 29.21 10.9039 29.1991 10.9364 29.1885C11.1854 29.1063 11.6664 29.0814 11.9305 29.0752C11.935 29.075 11.9397 29.0753 11.9442 29.0752C12.0067 29.0734 12.0664 29.0689 12.1356 29.0644C12.3012 29.0543 12.526 29.038 12.993 29.0547C13.1287 29.0452 13.2646 29.0371 13.4003 29.0302C14.3097 28.9839 15.2194 28.986 16.1288 29.0234C16.4224 29.0354 16.716 29.0518 17.0096 29.0664C17.0057 28.9803 17.0024 28.9016 16.9999 28.8271C16.8574 27.4913 16.796 26.1517 16.7919 24.8193C16.7911 24.5488 16.793 24.2753 16.7967 24C16.7988 23.8536 16.8013 23.7074 16.8046 23.5625C16.8132 23.1798 16.8272 22.7922 16.8465 22.4092C16.845 22.1871 16.8425 21.9714 16.8426 21.7724C16.8428 21.4922 16.8471 21.2503 16.8631 21.042C16.9006 20.549 17.0028 19.997 17.0858 19.5927C17.0993 19.5268 17.1117 19.4644 17.1239 19.4052C17.1517 19.2038 17.1807 19.0067 17.2118 18.8095C16.9925 18.8209 16.7728 18.8328 16.5536 18.8427C16.5003 18.8609 16.4535 18.8849 16.4169 18.915C16.3908 18.9365 16.3684 18.9621 16.3456 18.9883C16.3142 19.0243 16.2809 19.0621 16.2362 19.0918C16.2013 19.1148 16.1603 19.1238 16.1327 19.1142C16.1314 19.1138 16.13 19.1138 16.1288 19.1133C16.1177 19.1085 16.1085 19.1006 16.1005 19.0937C16.0903 19.0851 16.0812 19.077 16.0702 19.0771C16.0621 19.0774 16.0531 19.0843 16.0428 19.0918C16.0264 19.1037 16.0048 19.1186 15.9725 19.1191C15.8507 19.1208 15.7117 19.1148 15.576 19.1084C15.4252 19.1013 15.2775 19.0944 15.16 19.0967C15.0283 19.0993 14.8402 19.0717 14.6522 19.0439C14.5212 19.0245 14.3898 19.0052 14.2772 18.9951C14.1668 18.9852 14.0516 18.9927 13.9403 19C13.8068 19.0088 13.6783 19.0163 13.5692 18.9922C13.5472 18.9872 13.5194 18.9631 13.4852 18.9326C13.4608 18.9108 13.4322 18.8853 13.4003 18.8623C13.2613 18.8561 13.1222 18.8486 12.9833 18.8398C12.9784 18.8426 12.9727 18.8457 12.9676 18.8486C12.8534 18.9147 12.6969 19.0006 12.4774 18.9287C12.4219 18.9106 12.3869 18.8819 12.3553 18.8564C12.3243 18.8313 12.2963 18.8086 12.2557 18.8017C12.2096 18.794 12.1549 18.8044 12.0956 18.8154C12.0122 18.831 11.9185 18.8477 11.8251 18.8193C11.8187 18.8174 11.8117 18.8146 11.8046 18.8125C11.7367 18.7923 11.6358 18.7627 11.536 18.7119C11.2398 18.6796 10.9435 18.6445 10.6473 18.6084C10.1532 18.548 9.65805 18.4846 9.16393 18.4248C8.94494 18.3979 8.73446 18.3479 8.57018 18.2939C8.23158 19.1607 7.96535 20.057 7.77916 20.9707C7.6161 21.7633 7.50129 22.5289 7.41979 23.1025C7.3383 23.6711 7.28437 23.9997 7.22154 24C7.16123 23.9995 7.09407 23.6696 7.07311 23.084C7.05271 22.4934 7.0932 21.6942 7.23424 20.8691C7.51484 19.2116 8.04485 17.59 8.80455 16.0801C9.72864 14.2406 10.994 12.5666 12.5223 11.1738C13.5909 10.1992 14.7865 9.35939 16.0692 8.68552C16.2012 8.61614 16.3345 8.54839 16.4686 8.4824C17.5468 7.9137 18.6968 7.4858 19.5243 7.25193C20.2074 7.05692 20.7202 6.96921 21.159 6.90525C21.463 6.86167 21.7289 6.83169 22.0008 6.79685C22.147 6.77823 22.3451 6.75386 22.5848 6.73044C22.968 6.69298 23.4532 6.6588 23.9999 6.65232ZM23.8739 30.2578C23.8581 30.2627 23.8414 30.2679 23.8241 30.2734C23.7365 30.3016 23.6282 30.3364 23.495 30.3545C23.2843 30.383 23.0992 30.3681 22.9042 30.3515C22.7521 30.3387 22.5933 30.3246 22.412 30.331C22.2883 30.3355 22.1472 30.3489 22.0077 30.3623C21.8004 30.3821 21.5952 30.4023 21.453 30.3916C21.4 30.3875 21.3545 30.3676 21.3094 30.3486C21.3064 30.3473 21.3017 30.346 21.2987 30.3447C20.9524 30.3615 20.6059 30.3803 20.2596 30.3994C20.2297 30.4046 20.1988 30.409 20.1688 30.414C20.022 30.4388 19.879 30.4633 19.786 30.497C19.6848 30.5335 19.4316 30.5556 19.1649 30.5791C19.0253 30.5913 18.882 30.6058 18.7547 30.6211C18.7607 30.637 18.7677 30.6534 18.7733 30.6699C18.7893 30.7175 18.8047 30.8336 18.8251 30.9775C18.8377 31.0667 18.8529 31.1679 18.871 31.2724C18.9516 31.5383 19.0385 31.8167 19.1249 32.0801C19.1579 32.1305 19.196 32.1742 19.2362 32.2051C19.265 32.227 19.2966 32.2447 19.329 32.2617C19.3731 32.2848 19.4196 32.3082 19.4618 32.3467C19.4946 32.3768 19.5161 32.4177 19.5155 32.4492C19.5155 32.4503 19.5156 32.452 19.5155 32.4531C19.5144 32.4659 19.5098 32.4779 19.5057 32.4883C19.5006 32.5014 19.4962 32.5138 19.4999 32.5254C19.5029 32.5333 19.5113 32.5405 19.5213 32.5488C19.538 32.5625 19.5595 32.5808 19.5702 32.6142C19.6095 32.7377 19.6503 32.8877 19.6893 33.0302C19.7331 33.19 19.7756 33.3418 19.8192 33.4638C19.8681 33.6011 19.9091 33.8046 19.951 34.0039C19.9806 34.144 20.0135 34.2893 20.0467 34.4072C20.08 34.5244 20.1304 34.6338 20.1825 34.748C20.2442 34.883 20.3024 35.0115 20.3241 35.1299C20.3281 35.1538 20.3169 35.1908 20.3026 35.2363C20.2922 35.2684 20.281 35.3069 20.2733 35.3486C20.3265 35.4945 20.3785 35.6388 20.4296 35.7802C20.4341 35.7839 20.4395 35.7882 20.4442 35.792L20.5311 35.8662C20.6206 35.9507 20.7109 36.0697 20.7342 36.2529C20.7423 36.3149 20.7317 36.3608 20.7235 36.4043C20.7152 36.4463 20.7079 36.4845 20.7206 36.5283C20.7352 36.578 20.7701 36.6287 20.8075 36.6826C20.8607 36.7596 20.9163 36.8389 20.9374 36.9482C20.9387 36.9554 20.9398 36.9637 20.9413 36.9717C20.956 37.0488 20.9778 37.1619 20.9803 37.2812C21.0964 37.5887 21.2162 37.8981 21.3387 38.2011C21.5469 38.7133 21.7617 39.2098 22.0087 39.7129C22.0227 39.7421 22.034 39.7729 22.0477 39.8027C22.6942 39.8868 23.346 39.9358 23.9999 39.9433C24.6615 39.952 25.323 39.92 25.9803 39.8486C26.0026 39.8067 26.0235 39.7639 26.0467 39.7226C26.3206 39.2393 26.5684 38.7558 26.8075 38.2578C27.0964 37.6548 27.3656 37.0405 27.6239 36.4228C27.803 35.9944 27.9788 35.5513 28.1415 35.1201C28.1584 35.0753 28.1753 35.0296 28.1922 34.9844C28.3018 34.6066 28.4049 34.2214 28.4784 33.9619C28.5399 33.7456 28.605 33.5847 28.6571 33.457C28.6934 33.3675 28.7263 33.2864 28.7499 33.2021C28.7625 33.157 28.7792 33.0947 28.7987 33.0195C28.8786 32.7139 29.0046 32.1899 29.1473 31.7246C29.2122 31.514 29.2937 31.2789 29.371 31.0488C29.464 30.7711 29.5447 30.5141 29.5819 30.3418C29.349 30.3554 29.0937 30.348 28.8651 30.3388C28.6166 30.329 28.3989 30.32 28.2753 30.3447C28.1276 30.3742 28.0015 30.3646 27.8143 30.3506C27.6845 30.3408 27.525 30.3291 27.3085 30.3261C27.0583 30.3227 26.8808 30.3054 26.7303 30.29C26.5187 30.2684 26.3592 30.251 26.1219 30.2871C25.8583 30.3273 25.5822 30.3544 25.3651 30.3447C25.2662 30.3403 25.1527 30.3431 25.035 30.3457C24.8792 30.3491 24.7149 30.3533 24.5653 30.3408C24.4421 30.3305 24.34 30.3018 24.2499 30.2763C24.2218 30.2684 24.1949 30.2605 24.1688 30.2539C24.0706 30.255 23.9721 30.2562 23.8739 30.2578ZM39.0692 30.1074C38.9879 30.1175 38.9032 30.1272 38.8172 30.1318C38.3232 30.1578 37.8289 30.1858 37.3348 30.2119C36.733 30.2436 36.1309 30.2733 35.5292 30.292C35.1082 30.305 34.6865 30.3147 34.2655 30.3222C34.2223 30.323 34.1788 30.3245 34.1356 30.3252C33.7819 30.3609 33.4283 30.3957 33.1796 30.4121C32.9742 30.4256 32.8244 30.4155 32.6962 30.4062C32.608 30.3999 32.5299 30.3941 32.451 30.3974C32.4086 30.3993 32.35 30.4032 32.2801 30.4072C31.9947 30.4234 31.5102 30.4521 31.0682 30.4336C30.8847 30.4258 30.6733 30.4053 30.4686 30.3857C30.4417 30.4997 30.4114 30.6247 30.3788 30.7627C30.3254 30.987 30.2579 31.2618 30.1708 31.5674C30.1149 31.7625 30.0598 31.8636 30.0165 31.9414C30.0037 31.9644 29.9913 31.9867 29.9803 32.0088C29.9425 32.0847 29.9344 32.1735 29.9247 32.2773C29.9126 32.4103 29.8946 32.5769 29.8046 32.7724C29.5191 33.3898 29.4727 33.6928 29.4374 33.9189C29.4266 33.9859 29.4165 34.0466 29.4012 34.1064C29.3513 34.3016 29.2321 34.5579 29.1278 34.7519C29.0465 34.9036 28.9402 35.227 28.8622 35.4756C28.8327 35.5699 28.7828 35.6856 28.7186 35.833C28.653 35.9835 28.5791 36.1503 28.5047 36.3359C28.3151 36.8069 28.2034 37.0528 28.1161 37.247C28.0913 37.3017 28.0676 37.3526 28.0428 37.4062C27.9641 37.5767 27.8721 37.7655 27.7645 37.9765C27.6423 38.2164 27.5086 38.4674 27.4139 38.6474C27.1829 39.0262 26.9433 39.3899 26.6932 39.7549C27.5622 39.6213 28.4211 39.4179 29.2596 39.1426C29.3152 39.1229 29.3718 39.1028 29.4286 39.082C30.5388 38.6874 31.8353 38.0072 32.619 37.5293C33.6215 36.929 34.2552 36.4389 34.7645 36.0263C36.6253 34.4279 38.1083 32.3808 39.0692 30.1074ZM8.90221 30.1406C8.9687 30.2859 9.03759 30.4301 9.10826 30.5732C9.13899 30.6325 9.17077 30.6921 9.20201 30.751C9.43467 31.1891 9.68506 31.5774 9.95104 31.9521C10.0122 32.0382 10.0747 32.124 10.1376 32.209C10.6028 32.8654 11.5284 34.0895 12.1112 34.7011C12.1216 34.7125 12.132 34.724 12.1424 34.7353C12.2782 34.8824 12.4111 35.0183 12.5692 35.1738C12.9513 35.5379 13.4524 36.0527 14.6415 36.9492C14.998 37.1956 15.3635 37.4277 15.7372 37.6465C17.4 38.622 19.2254 39.2999 21.1151 39.6552C20.9457 39.4375 20.779 39.2179 20.6161 38.9931C20.6012 38.9749 20.586 38.9552 20.5712 38.9365C20.4586 38.7934 20.3437 38.6762 20.2255 38.5527C20.1984 38.5244 20.1708 38.495 20.1434 38.4658C19.9375 38.2528 19.6673 37.7678 19.5292 37.4892C19.5267 37.4845 19.5238 37.4793 19.5213 37.4746C19.4895 37.4116 19.4575 37.3516 19.4198 37.2812C19.3289 37.1089 19.2053 36.8854 19.0057 36.3789C18.9362 36.2406 18.8676 36.0983 18.8006 35.9531C18.3583 34.997 18.0084 34.0014 17.743 32.9824C17.5787 32.3521 17.4426 31.7288 17.3251 31.0898C17.3199 31.0692 17.3146 31.047 17.3094 31.0263C17.2738 30.8843 17.2388 30.7272 17.204 30.5703C16.9872 30.5815 16.7702 30.5927 16.5536 30.6025C16.5003 30.6207 16.4535 30.6446 16.4169 30.6748C16.3908 30.6963 16.3684 30.7218 16.3456 30.748C16.3142 30.7841 16.2809 30.8218 16.2362 30.8515C16.2013 30.8746 16.1603 30.8836 16.1327 30.874C16.1314 30.8736 16.13 30.8735 16.1288 30.873C16.1177 30.8683 16.1085 30.8604 16.1005 30.8535C16.0903 30.8449 16.0812 30.8368 16.0702 30.8369C16.0621 30.8371 16.0531 30.8441 16.0428 30.8515C16.0264 30.8634 16.0048 30.8783 15.9725 30.8789C15.8507 30.8806 15.7117 30.8745 15.576 30.8681C15.4252 30.8611 15.2775 30.8541 15.16 30.8564C15.0283 30.859 14.8402 30.8315 14.6522 30.8037C14.5212 30.7843 14.3898 30.765 14.2772 30.7549C14.1668 30.745 14.0516 30.7525 13.9403 30.7597C13.8068 30.7685 13.6783 30.776 13.5692 30.7519C13.5472 30.747 13.5194 30.7228 13.4852 30.6924C13.4608 30.6706 13.4322 30.6451 13.4003 30.622C13.2613 30.6159 13.1222 30.6083 12.9833 30.5996C12.9784 30.6024 12.9727 30.6055 12.9676 30.6084C12.8534 30.6745 12.6969 30.7604 12.4774 30.6885C12.4219 30.6703 12.3869 30.6416 12.3553 30.6162C12.3243 30.5911 12.2963 30.5684 12.2557 30.5615C12.2096 30.5538 12.1549 30.5642 12.0956 30.5752C12.0122 30.5907 11.9185 30.6075 11.8251 30.5791C11.8187 30.5771 11.8117 30.5744 11.8046 30.5722C11.7367 30.5521 11.6358 30.5224 11.536 30.4717C11.2398 30.4393 10.9435 30.4043 10.6473 30.3681C10.1532 30.3078 9.65805 30.2443 9.16393 30.1845C9.07438 30.1736 8.98641 30.1578 8.90221 30.1406ZM39.2753 18.3154C39.1368 18.3422 38.9792 18.3634 38.8172 18.372C38.3232 18.3981 37.8289 18.426 37.3348 18.4521C36.733 18.4838 36.1309 18.5135 35.5292 18.5322C35.1082 18.5452 34.6865 18.5549 34.2655 18.5625C34.2223 18.5633 34.1788 18.5647 34.1356 18.5654C33.7819 18.6011 33.4283 18.6359 33.1796 18.6523C32.9742 18.6659 32.8244 18.6557 32.6962 18.6465C32.608 18.6401 32.5299 18.6343 32.451 18.6377C32.4086 18.6395 32.35 18.6434 32.2801 18.6474C31.9947 18.6636 31.5102 18.6923 31.0682 18.6738C31.0373 18.6725 31.0058 18.6689 30.9735 18.667C30.9868 18.8668 30.995 19.0278 30.9999 19.1728C31.1423 20.5088 31.2037 21.8481 31.2079 23.1806C31.2087 23.4512 31.2068 23.7246 31.203 24C31.201 24.1467 31.1985 24.2932 31.1952 24.4385C31.1865 24.8211 31.1726 25.2087 31.1532 25.5918C31.1548 25.8136 31.1572 26.0287 31.1571 26.2275C31.1569 26.5078 31.1527 26.7496 31.1366 26.958C31.0991 27.4512 30.9969 28.0038 30.9139 28.4082C30.9005 28.4741 30.888 28.5356 30.8758 28.5947C30.8343 28.8962 30.789 29.1864 30.7391 29.4844C30.8977 29.4927 30.9844 29.5176 31.0555 29.5381C31.0778 29.5445 31.0988 29.5508 31.12 29.5556C31.193 29.5724 31.2703 29.5565 31.3612 29.5381C31.4792 29.5139 31.6214 29.4857 31.8085 29.5166C32.4043 29.6136 32.6674 29.5576 32.8661 29.5195C32.9242 29.5082 32.9771 29.4982 33.0311 29.4931C33.2065 29.4768 33.4565 29.5029 33.6454 29.5332C33.7951 29.5572 34.0949 29.5424 34.3221 29.5224C34.408 29.5149 34.5243 29.5174 34.661 29.5205C34.8026 29.5237 34.9672 29.5271 35.1424 29.5215C35.5849 29.5073 35.8205 29.5027 36.0096 29.499C36.0636 29.498 36.1147 29.497 36.1649 29.4961C36.3235 29.4932 36.5204 29.4936 36.7196 29.4941C36.9581 29.4947 37.2004 29.4958 37.3846 29.4931C37.8621 29.5211 38.3398 29.5511 38.8172 29.5791C38.9735 29.5883 39.1258 29.6079 39.2606 29.6338C39.6717 28.5672 39.9698 27.4557 40.1376 26.3203C40.2534 25.5522 40.3124 24.7793 40.3163 24C40.3182 23.5833 40.3051 23.1734 40.2753 22.7588C40.1964 21.6656 40.0052 20.5802 39.7049 19.5263C39.5746 19.101 39.4281 18.696 39.2753 18.3154ZM23.8739 18.498C23.8581 18.5029 23.8414 18.5081 23.8241 18.5136C23.7365 18.5418 23.6282 18.5766 23.495 18.5947C23.2843 18.6232 23.0992 18.6083 22.9042 18.5918C22.7521 18.5789 22.5933 18.5648 22.412 18.5713C22.2883 18.5757 22.1472 18.5891 22.0077 18.6025C21.8004 18.6223 21.5952 18.6425 21.453 18.6318C21.4 18.6277 21.3545 18.6079 21.3094 18.5888C21.3064 18.5876 21.3017 18.5862 21.2987 18.5849C20.9524 18.6017 20.6059 18.6205 20.2596 18.6396C20.2297 18.6448 20.1988 18.6492 20.1688 18.6543C20.022 18.679 19.879 18.7036 19.786 18.7373C19.6848 18.7737 19.4316 18.7959 19.1649 18.8193C18.9899 18.8347 18.8087 18.8513 18.661 18.872C18.5747 18.8842 18.4923 18.8636 18.4081 18.8427C18.3384 18.8255 18.2671 18.8096 18.1903 18.8095C18.1493 19.0055 18.119 19.1696 18.121 19.2793C18.1243 19.4452 18.0935 19.586 18.0506 19.7861C18.0209 19.9263 17.9848 20.0998 17.952 20.3398C17.9146 20.6156 17.8761 20.8059 17.8436 20.9717C17.7983 21.2046 17.766 21.3803 17.7811 21.6445C17.7979 21.9389 17.8057 22.2495 17.784 22.4863C17.7741 22.595 17.7709 22.7206 17.7684 22.8515C17.7651 23.0261 17.7629 23.2065 17.7469 23.3711C17.7337 23.5068 17.704 23.6204 17.6776 23.7207C17.6694 23.7518 17.661 23.7825 17.6542 23.8115C17.6544 23.874 17.6554 23.9372 17.6561 24C17.6567 24.047 17.6572 24.0947 17.6581 24.1416C17.663 24.1592 17.669 24.178 17.6747 24.1972C17.7035 24.2948 17.7388 24.4149 17.7596 24.5615C17.7926 24.7934 17.7839 24.998 17.7762 25.2168C17.7703 25.3861 17.7658 25.5624 17.784 25.7607C17.7965 25.8961 17.8198 26.0544 17.8446 26.207C17.8814 26.4357 17.9211 26.6545 17.9256 26.8154C17.9271 26.8746 17.9132 26.9276 17.8993 26.9795L17.8983 26.9804C17.8974 26.9836 17.8962 26.9871 17.8954 26.9902C17.9506 27.3703 18.0148 27.7504 18.0868 28.1269C18.0965 28.1588 18.1064 28.1918 18.1161 28.2236C18.1631 28.378 18.2113 28.5339 18.2606 28.6299C18.3019 28.7117 18.3501 28.8895 18.4051 29.0976C18.6162 29.0979 18.8181 29.1034 18.9715 29.1191C19.336 29.1565 19.5836 29.1912 19.787 29.2207C20.9527 29.2883 22.1193 29.3495 23.285 29.3808C23.6502 29.3907 24.0155 29.3978 24.3807 29.4013C24.7171 29.4046 25.0541 29.4058 25.3905 29.4052C25.5863 29.3922 25.7726 29.3766 25.9452 29.3623C26.1879 29.3421 26.4044 29.3242 26.5829 29.3203C27.0129 29.3108 27.5009 29.3444 27.8631 29.3681C27.9223 29.372 27.9785 29.3757 28.0301 29.3789C28.3178 29.3746 28.6058 29.3695 28.8934 29.3652C28.9124 29.3708 28.9316 29.3769 28.951 29.3828C29.1561 29.4448 29.401 29.4537 29.7528 29.4599C29.7598 29.4285 29.7665 29.3972 29.7733 29.3662C29.8331 29.0936 29.8812 28.8626 29.8788 28.7217C29.8753 28.5556 29.9063 28.4148 29.9491 28.2148C29.9789 28.0747 30.0149 27.901 30.0477 27.6611C30.0852 27.3854 30.1236 27.195 30.1561 27.0293C30.2014 26.7962 30.2336 26.6205 30.2186 26.3564C30.2018 26.0621 30.1941 25.7515 30.2157 25.5146C30.2257 25.4058 30.2289 25.2795 30.2313 25.1484C30.2346 24.9739 30.2368 24.7934 30.2528 24.6289C30.266 24.4934 30.2957 24.3804 30.3221 24.2802C30.3303 24.2491 30.3387 24.2185 30.3456 24.1894C30.3453 24.1266 30.3444 24.0631 30.3436 24C30.3431 23.9531 30.3425 23.9061 30.3417 23.8594C30.3367 23.8416 30.3308 23.8221 30.3251 23.8027C30.2963 23.7051 30.2609 23.5852 30.2401 23.4385C30.2071 23.2067 30.2158 23.0027 30.2235 22.7842C30.2294 22.6148 30.2339 22.4386 30.2157 22.2402C30.2033 22.1049 30.1799 21.9467 30.1551 21.7939C30.1183 21.5652 30.0787 21.3465 30.0741 21.1855C30.0725 21.1261 30.0875 21.0725 30.1014 21.0205C30.1023 21.0171 30.1034 21.0131 30.1044 21.0097C30.0492 20.6297 29.985 20.2505 29.913 19.874C29.9032 19.842 29.8933 19.8092 29.8837 19.7773C29.8365 19.6227 29.7875 19.4672 29.7381 19.3711C29.6846 19.2652 29.6188 18.9972 29.5428 18.7109C29.5319 18.6696 29.5198 18.6282 29.5087 18.5869C29.2963 18.595 29.0699 18.5873 28.8651 18.5791C28.6166 18.5692 28.3989 18.5602 28.2753 18.5849C28.1276 18.6145 28.0015 18.6048 27.8143 18.5908C27.6845 18.5811 27.525 18.5694 27.3085 18.5664C27.0583 18.563 26.8808 18.5456 26.7303 18.5302C26.5187 18.5086 26.3592 18.4912 26.1219 18.5273C25.8583 18.5675 25.5822 18.5946 25.3651 18.5849C25.2662 18.5805 25.1527 18.5833 25.035 18.5859C24.8792 18.5894 24.7149 18.5936 24.5653 18.581C24.4421 18.5707 24.34 18.5421 24.2499 18.5166C24.2218 18.5087 24.1949 18.5008 24.1688 18.4941C24.0706 18.4952 23.9721 18.4964 23.8739 18.498ZM26.3309 7.68259C26.4079 7.76104 26.4851 7.84505 26.5555 7.93064C26.842 8.28316 27.1167 8.63944 27.3837 9.00779C27.3986 9.02613 27.4137 9.04472 27.4286 9.06345C27.5413 9.20677 27.6559 9.32447 27.7743 9.44822C27.8014 9.47664 27.8289 9.50585 27.8563 9.53513C28.0623 9.74833 28.3325 10.2333 28.4706 10.5117C28.473 10.5164 28.476 10.5216 28.4784 10.5263C28.5103 10.5894 28.5421 10.6492 28.5799 10.7197C28.6708 10.892 28.7943 11.1152 28.994 11.622C29.0636 11.7604 29.1321 11.9026 29.1991 12.0478C29.6414 13.004 29.9914 13.9985 30.2567 15.0176C30.4211 15.648 30.5571 16.271 30.6747 16.9101C30.6799 16.931 30.6851 16.9538 30.6903 16.9746C30.7492 17.2097 30.812 17.4832 30.8612 17.7353C30.9471 17.7469 31.0052 17.7638 31.0555 17.7783C31.0778 17.7847 31.0988 17.791 31.12 17.7959C31.193 17.8127 31.2703 17.7968 31.3612 17.7783C31.4792 17.7542 31.6214 17.7259 31.8085 17.7568C32.4043 17.8538 32.6674 17.7978 32.8661 17.7597C32.9242 17.7484 32.9771 17.7384 33.0311 17.7334C33.2065 17.7171 33.4565 17.7431 33.6454 17.7734C33.7951 17.7974 34.0949 17.7826 34.3221 17.7627C34.408 17.7551 34.5243 17.7576 34.661 17.7607C34.8026 17.7639 34.9672 17.7674 35.1424 17.7617C35.5849 17.7475 35.8205 17.7429 36.0096 17.7392C36.0636 17.7382 36.1147 17.7372 36.1649 17.7363C36.3235 17.7334 36.5204 17.7338 36.7196 17.7343C36.9581 17.735 37.2004 17.736 37.3846 17.7334C37.8621 17.7613 38.3398 17.7914 38.8172 17.8193C38.9063 17.8246 38.994 17.8337 39.078 17.8447C39.0766 17.8415 39.0755 17.8381 39.0741 17.8349C38.7565 17.1123 38.4228 16.4953 38.1337 15.9941C37.4454 14.7816 36.4934 13.5062 35.6825 12.6504C35.5512 12.5097 35.4244 12.3787 35.3055 12.2597C34.6285 11.6135 33.8958 11.0256 33.119 10.5049C33.0705 10.4652 33.0207 10.425 32.9706 10.3847C32.342 9.88842 31.4961 9.3577 30.0585 8.76951C29.4301 8.51687 28.6873 8.25977 27.7899 8.03708C27.2106 7.89558 26.9145 7.82132 26.6698 7.75779C26.598 7.73954 26.5298 7.72218 26.4618 7.70701C26.419 7.6975 26.3752 7.68995 26.3309 7.68259ZM21.7323 7.66794C21.3236 7.73526 21.0197 7.81633 20.7557 7.87986C20.5709 7.92844 20.4032 7.97617 20.2323 8.02146C19.677 8.1652 18.8834 8.37364 18.2928 8.56345C17.8204 8.70688 16.9183 9.10892 16.2723 9.48337C16.0273 9.62269 15.693 9.80595 15.3104 10.041C14.9143 10.2841 14.4659 10.5839 14.0126 10.9385C12.8725 11.842 12.3502 12.4184 11.9276 12.8711C11.8085 13.0017 11.6997 13.1252 11.5926 13.25C11.2536 13.6444 10.8522 14.1506 10.4813 14.6885C10.0357 15.3302 9.63708 16.0187 9.36705 16.5576C9.14476 16.9749 8.9422 17.4031 8.7567 17.8388C8.88184 17.8052 9.02122 17.7766 9.16393 17.7568C9.55592 17.703 9.94864 17.6477 10.3407 17.5937C10.3612 17.5896 10.3817 17.585 10.4022 17.581C10.5549 17.5518 10.6969 17.5075 10.8387 17.4609C10.8711 17.4503 10.9039 17.4393 10.9364 17.4287C11.1854 17.3465 11.6664 17.3216 11.9305 17.3154C11.935 17.3152 11.9397 17.3155 11.9442 17.3154C12.0067 17.3136 12.0664 17.3091 12.1356 17.3047C12.3012 17.2946 12.526 17.2782 12.993 17.2949C13.1287 17.2854 13.2646 17.2773 13.4003 17.2705C14.3097 17.2242 15.2194 17.2262 16.1288 17.2636C16.618 17.2836 17.1073 17.3085 17.5965 17.3349C17.6039 17.3034 17.6122 17.2713 17.62 17.2383C17.6733 17.0139 17.7418 16.7392 17.829 16.4336C17.8849 16.238 17.9399 16.1364 17.9833 16.0586C17.996 16.0357 18.0084 16.0141 18.0194 15.9922C18.0573 15.9163 18.0653 15.8273 18.0751 15.7236C18.0871 15.5905 18.105 15.4233 18.1952 15.2275C18.4806 14.6104 18.5271 14.3081 18.5624 14.082C18.5731 14.0148 18.5831 13.9536 18.5985 13.8935C18.6484 13.6984 18.7676 13.4421 18.8719 13.248C18.9532 13.0966 19.0595 12.7739 19.1376 12.5254C19.167 12.431 19.2169 12.3144 19.2811 12.167C19.3467 12.0166 19.4207 11.8495 19.495 11.664C19.6845 11.1933 19.7963 10.9481 19.8837 10.7539C19.9085 10.699 19.9321 10.6475 19.9569 10.5937C20.0356 10.4232 20.1276 10.2345 20.2352 10.0234C20.3573 9.78373 20.4911 9.53358 20.5858 9.35349C20.872 8.88419 21.167 8.43487 21.4852 7.9824C21.5627 7.87272 21.6475 7.76451 21.7323 7.66794ZM23.9999 7.55369C23.2865 7.52827 22.7272 7.55053 22.2743 7.59568C22.2724 7.60093 22.2713 7.60692 22.2694 7.61228C22.2026 7.79723 22.083 8.04627 21.953 8.27732C21.679 8.7609 21.4314 9.24482 21.1922 9.74314C20.9032 10.3463 20.6342 10.9602 20.3758 11.5781C20.1968 12.0065 20.0209 12.4487 19.8583 12.8799C19.8413 12.9248 19.8235 12.9702 19.8065 13.0156C19.697 13.3933 19.5948 13.7786 19.5213 14.0381C19.4597 14.2546 19.3947 14.4162 19.3426 14.5439C19.3063 14.6334 19.2734 14.7136 19.2499 14.7978C19.2372 14.8431 19.2206 14.9059 19.201 14.9814C19.1211 15.2872 18.9951 15.8103 18.8524 16.2754C18.7875 16.486 18.706 16.7211 18.6288 16.9511C18.5829 17.088 18.5404 17.2199 18.5038 17.3388C18.6784 17.3404 18.8422 17.3461 18.9715 17.3593C19.336 17.3967 19.5836 17.4315 19.787 17.4609C20.9527 17.5285 22.1193 17.5897 23.285 17.6211C23.6502 17.6309 24.0155 17.6381 24.3807 17.6416C24.7171 17.6448 25.0541 17.646 25.3905 17.6455C25.5863 17.6324 25.7726 17.6168 25.9452 17.6025C26.1879 17.5824 26.4044 17.5645 26.5829 17.5605C27.0129 17.5511 27.5009 17.5847 27.8631 17.6084C27.9223 17.6123 27.9785 17.6159 28.0301 17.6191C28.3178 17.6148 28.6058 17.6097 28.8934 17.6054C28.9124 17.611 28.9316 17.6171 28.951 17.623C29.0662 17.6579 29.1943 17.6753 29.3465 17.6865C29.3432 17.6659 29.3425 17.6447 29.3368 17.624C29.3238 17.5772 29.3033 17.5277 29.2821 17.4756C29.2634 17.4297 29.2437 17.3812 29.2264 17.3301C29.2104 17.2827 29.1951 17.1675 29.1747 17.0234C29.162 16.9341 29.1469 16.8323 29.1288 16.7275C29.0481 16.4616 28.9603 16.1833 28.8739 15.9199C28.8408 15.8695 28.8038 15.8257 28.7635 15.7949C28.7348 15.773 28.7031 15.7562 28.6708 15.7392C28.6265 15.716 28.5802 15.6919 28.538 15.6533C28.5053 15.6234 28.484 15.5831 28.4842 15.5517C28.4843 15.5504 28.4842 15.5482 28.4842 15.5468C28.4853 15.5343 28.49 15.5229 28.494 15.5127C28.4992 15.4995 28.5035 15.4871 28.4999 15.4756C28.4972 15.4672 28.4888 15.4597 28.4784 15.4511C28.4618 15.4375 28.4403 15.4199 28.4296 15.3867C28.3902 15.2632 28.3495 15.1125 28.3104 14.9697C28.2667 14.81 28.2241 14.6591 28.1805 14.5371C28.1316 14.3999 28.0907 14.1967 28.0487 13.997C28.0191 13.8567 27.9863 13.7109 27.953 13.5927C27.9197 13.4755 27.8694 13.3663 27.8172 13.2519C27.7556 13.1171 27.6974 12.9894 27.6756 12.8711C27.6713 12.8472 27.6828 12.8102 27.6971 12.7646C27.7075 12.7326 27.7187 12.6939 27.7264 12.6523C27.6731 12.5062 27.6213 12.3614 27.5702 12.2197C27.5656 12.216 27.5603 12.2128 27.5555 12.209C27.4463 12.1221 27.2968 11.9919 27.2655 11.748C27.2573 11.6861 27.268 11.64 27.2762 11.5967C27.2846 11.5546 27.2918 11.5165 27.2792 11.4726C27.2647 11.4227 27.2297 11.3725 27.1922 11.3183C27.139 11.2412 27.0835 11.1619 27.0624 11.0527C27.061 11.0456 27.06 11.0372 27.0585 11.0293C27.0438 10.9523 27.022 10.8391 27.0194 10.7197C26.9033 10.4121 26.7836 10.103 26.661 9.79978C26.4527 9.28748 26.2381 8.79121 25.9911 8.28806C25.8828 8.06288 25.7832 7.81417 25.7255 7.62888C25.708 7.62814 25.6905 7.62665 25.6727 7.62595C25.2861 7.61173 24.8207 7.60356 24.2079 7.56443C24.1374 7.56003 24.0678 7.55681 23.9999 7.55369Z" fill="#1A2A4F"/>
</svg>
