<svg width="63" height="57" viewBox="0 0 63 57" fill="none" xmlns="http://www.w3.org/2000/svg">
<path d="M18.7754 56.0279C15.9095 56.5332 13.4614 56.3605 11.4309 55.5096C9.40049 54.6588 7.63829 53.4249 6.14433 51.8079C4.45119 49.8231 3.13737 47.7042 2.20286 45.4513C1.37565 43.0452 0.824224 41.0605 0.548593 39.4974C-0.576905 33.1143 0.0292796 27.0304 2.36715 21.2456C4.70501 15.4607 9.03887 10.3313 15.3687 5.85724L17.7475 9.06433C14.0078 11.4698 10.9615 14.7604 8.60857 18.9362C6.38586 23.0889 5.60757 27.0542 6.27368 30.8319C6.54931 32.3951 6.98589 33.7284 7.58341 34.8319C9.36906 32.7709 11.6297 31.4993 14.3652 31.0169C17.7522 30.4197 20.8784 31.0102 23.7439 32.7882C26.6094 34.5663 28.3867 37.4094 29.0758 41.3173C29.7189 44.9648 29.0097 48.1791 26.9481 50.9603C24.8865 53.7415 22.1623 55.4307 18.7754 56.0279ZM51.9931 50.1707C49.1272 50.676 46.6791 50.5033 44.6487 49.6525C42.6182 48.8016 40.856 47.5677 39.362 45.9507C37.6689 43.9659 36.3551 41.8471 35.4206 39.5942C34.5934 37.188 34.0419 35.2034 33.7663 33.6402C32.6408 27.2572 33.247 21.1732 35.5849 15.3884C37.9227 9.60352 42.2566 4.47408 48.5864 6.39571e-05L50.9652 3.20715C47.2256 5.61266 44.1793 8.90327 41.8263 13.079C39.6036 17.2318 38.8253 21.197 39.4914 24.9747C39.767 26.5379 40.2036 27.8712 40.8011 28.9747C42.5868 26.9137 44.8474 25.6421 47.583 25.1597C50.9699 24.5625 54.0961 25.153 56.9616 26.9311C59.8271 28.7092 61.6044 31.5522 62.2935 35.4602C62.9367 39.1076 62.2274 42.3219 60.1658 45.1031C58.1042 47.8843 55.38 49.5735 51.9931 50.1707Z" fill="#F4C430"/>
</svg>
