<svg width="48" height="48" viewBox="0 0 48 48" fill="none" xmlns="http://www.w3.org/2000/svg">
<g clip-path="url(#clip0_33_2522)">
<path d="M35.7364 47.8931C35.4664 47.707 36.4005 47.755 36.0967 47.9122C36.078 47.9192 35.7511 47.9019 35.7364 47.8931ZM34.3873 47.7628C34.2573 47.9528 33.8885 47.8547 33.6519 47.8521C33.7597 47.6891 34.1863 47.7593 34.3873 47.7628ZM31.169 47.2735C31.191 47.1379 31.5753 47.2581 31.7154 47.2384C31.6924 47.373 31.3091 47.254 31.169 47.2735ZM21.649 46.6627C21.4464 47.0381 22.6675 46.3745 21.9537 46.8077C22.2824 46.7137 25.124 46.6375 25.3653 46.7198L25.3873 46.7579C25.4255 46.9011 25.3646 47.3882 25.0972 47.1607C25.0575 47.1269 25.244 46.9497 25.2115 46.9088C25.1922 46.8855 24.5273 46.7905 24.4967 46.8062C24.4648 46.826 24.5026 47.0382 24.4703 47.064C24.4326 47.0911 24.0225 46.9021 23.8082 46.9C23.4049 46.8966 23.3608 47.0752 23.3277 47.0758C23.2312 47.0764 23.0687 46.9496 22.8736 46.9498C21.888 46.9513 20.3808 47.104 19.5997 46.7227C20.2948 46.8758 20.9573 46.7127 21.649 46.6627ZM28.3008 46.8692C28.7289 46.63 26.932 46.4612 27.4044 46.7594C27.4412 46.7809 28.261 46.8889 28.3008 46.8692ZM43.7374 44.442C44.1528 44.4889 41.6029 46.4178 40.5308 46.7623C40.2302 46.7083 43.073 45.3625 43.7374 44.442ZM34.7784 46.5499C34.7145 46.5089 34.4181 46.5622 34.4107 46.629C34.3917 46.8296 35.0299 46.7162 34.7784 46.5499ZM15.7149 46.5572C15.6329 46.3499 16.2434 46.4418 16.2686 46.4561C16.4557 46.5795 15.884 46.7011 15.7149 46.5572ZM29.1592 46.4605C29.3615 46.3258 28.7189 46.1447 28.8956 46.3814C28.9042 46.391 29.1441 46.4665 29.1592 46.4605ZM26.9078 46.2818C26.8672 46.2617 26.3672 46.2588 26.3541 46.3814C26.5075 46.4269 27.1625 46.4133 26.9078 46.2818ZM8.43171 45.8204C9.02884 45.9108 10.454 46.272 11.5928 46.2379C11.6504 46.236 11.7052 46.2333 11.7525 46.2276C11.7613 46.3016 11.6933 46.3397 11.5928 46.358C10.6138 46.4365 8.96558 46.0235 8.43171 45.8204ZM13.629 45.6109C13.2616 45.2371 12.1573 45.9532 12.8804 45.8306C12.8949 45.828 12.7552 45.6163 13.0357 45.6431C13.0591 45.6468 13.1035 45.8837 13.4547 45.797C13.5262 45.779 13.637 45.6207 13.629 45.6109ZM15.088 45.5553C14.7414 45.7364 15.8322 45.7701 15.8878 45.7237C15.8515 45.6109 15.1227 45.5376 15.088 45.5553ZM13.8282 45.4278C13.7417 45.385 12.8697 45.3466 13.191 45.4586C13.2198 45.4688 13.8159 45.5372 13.8282 45.4278ZM13.2525 45.129C13.8262 45.0548 12.7241 44.8439 12.8687 45.0528C12.8799 45.0658 13.1934 45.1367 13.2525 45.129ZM6.89802 43.3521C6.8183 43.3103 6.66644 43.399 6.69587 43.4312C6.77952 43.6062 9.247 45.2309 11.5928 45.0733C11.9363 45.0478 12.2388 45.017 12.3297 44.9928C12.2395 44.9534 11.9359 44.9286 11.5928 44.9151C9.33495 44.9987 7.01579 43.4681 6.89802 43.3521ZM43.8297 42.5494C43.3463 43.0008 42.918 43.9096 43.4298 43.5426C43.8693 43.0814 43.882 42.4996 43.8297 42.5494ZM6.38386 43.5953C5.40122 43.4787 3.5367 40.2261 5.09333 42.192C5.23662 42.3702 5.78721 43.2297 6.38386 43.5953ZM3.69147 36.7882C3.74697 36.909 3.70452 37.0274 3.67389 37.169C3.65888 37.4547 3.66234 37.7668 3.70759 38.1138C3.75866 38.4734 3.87023 38.3592 3.87604 38.3966C3.99185 39.0087 3.76535 38.5771 3.84382 38.9591C3.86054 39.0781 4.23978 40.3972 4.92634 41.401C5.58101 42.4213 6.42153 43.1246 6.06745 42.9639C5.65272 42.9277 3.28795 39.7886 3.53913 37.169C3.54684 37.0202 3.55339 36.8879 3.55817 36.7882C3.56151 36.4535 3.58491 36.1921 3.60065 36.0323C3.6394 36.2988 3.66848 36.5457 3.69147 36.7882ZM7.35651 41.9532C7.31594 41.9305 7.32045 42.2562 7.35505 42.296C8.09752 43.0943 8.0207 42.3081 7.35651 41.9532ZM46.5352 39.3531C46.6528 39.5664 45.9613 41.5911 45.5714 42.2286C45.6835 41.735 46.3338 40.3673 46.5352 39.3531ZM4.69489 35.379C4.59988 35.8464 4.557 36.3224 4.56306 36.7882C4.56992 36.9151 4.5767 37.0421 4.58356 37.169C4.58724 37.4145 4.60382 37.6607 4.63337 37.9058C5.04977 36.8303 5.04484 38.9516 5.05378 39.8248C5.27008 40.083 5.50199 40.3191 5.74372 40.5323C5.48267 41.3091 6.37737 40.9239 6.64753 41.981C7.39634 42.1584 6.68052 41.5957 6.07331 40.6656C5.43121 39.7476 5.09823 38.3693 5.39948 38.0567C5.58758 39.3003 5.88631 39.6553 5.8946 39.6226C5.92364 39.5857 5.78767 39.1489 5.69245 38.6632C5.50848 37.7138 5.41778 36.4623 5.10798 38.297C5.07984 37.7799 5.10745 37.4201 5.12409 37.169C5.21083 36.8015 4.87131 37.1895 4.7696 37.0767C4.7172 37.0184 4.70885 36.9035 4.70222 36.7882C4.68365 36.0682 4.84759 35.344 4.69636 35.3761L4.69489 35.379ZM7.30524 40.7681C7.28004 40.7522 7.11578 40.8217 7.12067 40.8472C7.43153 41.4817 7.91932 41.2071 7.30524 40.7681ZM6.92145 39.8482C7.05961 40.2294 7.80639 41.192 8.06696 41.1973C7.69149 40.9492 7.09931 39.9393 6.92145 39.8482ZM45.419 38.9898C45.4877 38.1221 44.9946 39.5239 44.8507 40.6026C45.0479 40.0987 45.4199 39.086 45.419 38.9898ZM45.441 38.5167C45.8263 37.0653 45.3623 37.1479 45.2916 38.1944C45.2487 38.5635 45.4252 38.5614 45.441 38.5167ZM5.50349 36.7882C5.4647 35.7833 5.82328 34.5966 5.46833 35.4888C5.44818 35.5412 5.32422 36.1812 5.35993 36.7882C5.38897 36.9553 5.43262 37.117 5.48444 37.0958C5.50689 37.0652 5.51214 36.9325 5.50349 36.7882ZM7.08991 34.5294C6.87771 34.8713 6.51709 35.8508 6.5362 36.0924C6.53543 36.5011 6.61729 36.189 6.74128 35.7511C6.86023 35.3082 7.09357 34.7581 7.08991 34.5294ZM6.4864 33.4805C6.465 33.5676 6.43856 33.6279 6.39997 33.6446C6.42862 33.5899 6.45593 33.5344 6.4864 33.4805ZM6.78815 33.0074C6.68027 33.1613 6.57821 33.3181 6.4864 33.4805C6.50349 33.411 6.51784 33.3251 6.53327 33.233C6.60581 33.1649 6.68914 33.0738 6.78962 32.9605C6.78921 32.9762 6.7884 32.9918 6.78815 33.0074ZM6.70905 32.5621C6.656 32.6591 6.60526 32.8406 6.56989 33.0294C6.5561 33.0981 6.5443 33.1671 6.53327 33.233C6.43359 33.3266 6.35977 33.3802 6.30768 33.4029C6.29592 33.3299 6.28481 33.2449 6.27546 33.1539C6.35665 32.9818 6.51147 32.7545 6.70905 32.5621ZM6.1114 32.4815C6.076 32.559 6.03747 32.6494 6.003 32.7467C5.92869 32.8878 5.83003 33.0781 5.71296 33.2901C5.71826 33.1791 5.7303 33.0408 5.75104 32.8873C5.88784 32.7032 6.0002 32.5745 6.04401 32.5343C6.07619 32.5018 6.09873 32.4865 6.1114 32.4815ZM7.13972 32.4097C7.05096 32.6393 6.97861 32.869 6.91999 33.085C6.88116 33.1438 6.83914 33.2083 6.79108 33.2784C6.78689 33.1889 6.78673 33.0985 6.78815 33.0074C6.83822 32.936 6.88706 32.8629 6.9405 32.7935C6.88858 32.8555 6.83539 32.9089 6.78962 32.9605C6.79187 32.875 6.79694 32.789 6.80427 32.7027C6.84418 32.6863 6.91074 32.6382 7.0152 32.5372C7.05766 32.4979 7.09723 32.4534 7.13972 32.4097ZM6.82184 32.5123C6.81369 32.5757 6.80964 32.6394 6.80427 32.7027C6.6949 32.7476 6.77778 32.5468 6.79401 32.4918C6.8035 32.4947 6.81263 32.5008 6.82184 32.5123ZM6.79401 32.4918L6.78669 32.4888C6.78921 32.4866 6.79148 32.4837 6.79401 32.4815L6.79694 32.4801C6.80061 32.4773 6.79709 32.4813 6.79401 32.4918ZM43.2291 29.2677C43.248 29.2844 43.2674 29.3006 43.2862 29.3175C43.2829 29.3032 43.281 29.2883 43.2774 29.2735C43.297 29.2631 43.3142 29.2591 43.3287 29.2603C43.2959 29.2322 43.261 29.2063 43.2276 29.1783C43.2281 29.2091 43.2293 29.2389 43.2291 29.2677ZM43.0416 27.2052C43.096 27.6629 43.1835 28.3556 43.2159 28.8971C43.2781 28.9468 43.3361 29.0005 43.3961 29.0509C43.3193 28.4623 43.2069 27.8453 43.0416 27.2052ZM40.8839 23.7349C41.0167 24.0636 41.5373 25.0825 41.4215 24.5684C41.4106 24.484 40.9602 23.6547 40.8839 23.7349ZM37.4473 18.5391C37.4212 18.7096 37.3912 18.8476 37.3507 18.92C37.3434 18.9348 37.33 18.9459 37.3214 18.9596C37.3781 18.9936 37.4217 19.0189 37.4503 19.0299C37.5359 19.0543 37.3995 18.7027 37.4854 18.7354L37.4898 18.7369C37.494 18.6888 37.5046 18.6379 37.5118 18.5831C37.4908 18.5683 37.4688 18.5544 37.4473 18.5391ZM36.3985 17.6016C36.405 17.6894 36.3233 17.8499 36.3179 17.9591C36.3608 17.9851 36.4005 18.0113 36.4366 18.0367C36.4418 17.9033 36.5034 17.6607 36.3985 17.6016ZM37.7696 14.609C38.0088 14.5383 37.9643 15.1247 37.9102 15.1715C37.7072 15.3616 37.8329 14.6534 37.7696 14.609ZM37.5162 14.7555C37.3014 14.9445 37.3417 14.1103 37.5396 14.4742C37.5484 14.4967 37.5271 14.7448 37.5162 14.7555ZM36.2725 13.2701C36.248 13.2902 36.238 13.5576 36.3428 13.5323C36.4751 13.4998 36.3487 13.2099 36.2725 13.2701ZM35.2574 10.9849C35.2468 11.0982 35.4402 11.3763 35.4742 11.1988C35.4791 11.171 35.3423 10.9344 35.2574 10.9849ZM2.52839 10.8004C2.38269 10.5605 2.85585 9.8324 2.8946 9.9991C2.89955 10.0377 2.61591 10.8943 2.52839 10.8004ZM35.0347 8.36727C35.3185 8.52447 35.4805 8.21741 35.5928 8.54744C35.5431 8.5464 35.493 8.54648 35.4434 8.54598C35.7947 8.88806 35.9177 9.4735 36.1729 9.97127C36.2378 10.0985 36.3865 9.83801 36.4102 10.0387C36.4292 10.2 36.2897 10.4488 36.2081 10.399C36.1889 10.3871 36.1923 10.0454 36.107 9.91707C35.8564 9.54114 35.7197 9.74924 35.7027 9.72811C35.6845 9.70659 35.6789 9.39154 35.5943 9.26522C35.3815 8.94946 35.184 8.87856 35.0347 8.36727ZM3.21833 9.66365C3.38791 9.86075 3.75629 8.87405 3.49811 9.08065C3.44007 9.12587 3.25854 9.53566 3.21833 9.66365ZM33.9185 8.66463C33.8498 8.67241 33.8329 9.01533 33.9302 9.03963C34.1591 9.09409 34.0613 8.65204 33.9185 8.66463ZM33.8218 6.95076C33.8654 6.91823 34.0131 7.12445 34.0123 7.13826C34.0119 7.14367 34.0114 7.14967 34.0108 7.15438C34.0863 7.01025 34.6525 7.68268 34.6978 7.40047C34.9559 7.5275 34.4269 7.57467 34.6392 7.65242C34.7103 7.67856 35.1072 7.44883 35.1446 7.87654C35.1545 8.00082 34.9964 7.97125 34.9761 8.00985C34.9689 8.02575 34.9782 8.41661 34.7916 8.22371C34.5061 7.93611 35.035 7.99141 34.9088 7.81649C34.8923 7.79203 34.4471 7.6258 34.421 7.68026C34.4178 7.68595 34.5342 7.7473 34.5294 7.77694C34.5113 7.88632 34.382 7.9451 34.38 7.95858C34.3879 7.99017 34.965 8.35796 34.8472 8.56063C34.8068 8.60591 34.071 7.89525 34.065 7.85018C34.0662 7.81714 34.3733 7.57419 34.3858 7.52938C34.3852 7.50152 34.0117 7.28901 34.0035 7.22908C34.001 7.21088 34.0024 7.1947 34.0035 7.18221C33.9547 7.30684 33.7168 7.03561 33.8218 6.95076ZM33.5845 7.95858C33.6641 7.66341 33.4458 7.46167 33.252 7.73738C33.4798 7.95745 33.4479 7.50861 33.5845 7.95858ZM32.9898 7.31551C32.7472 7.2954 32.9315 7.66863 33.0572 7.49862C33.0622 7.48696 33.0001 7.31596 32.9898 7.31551ZM32.5445 6.53621C32.3658 6.41824 31.7874 6.76493 32.0421 6.85408C32.0683 6.86218 32.5005 6.61781 32.5445 6.53621ZM32.0186 5.84774C32.2717 5.75033 31.6764 5.36107 31.4708 5.54744C31.5266 5.62875 31.9855 5.85311 32.0186 5.84774ZM8.30427 1.7242C8.52666 1.54885 8.19718 1.69396 7.80915 1.94539C7.35466 2.22755 6.79062 2.74251 6.8614 2.81112C6.88793 2.83105 7.46001 2.32068 7.87507 2.02742C8.09468 1.86624 8.28325 1.74149 8.30427 1.7242Z" fill="#F4C430"/>
<path fill-rule="evenodd" clip-rule="evenodd" d="M28.3008 46.8692C28.7289 46.63 26.932 46.4612 27.4044 46.7594C27.4412 46.7809 28.261 46.8889 28.3008 46.8692ZM34.7784 46.5499C34.7145 46.5089 34.4181 46.5622 34.4107 46.629C34.3917 46.8296 35.0299 46.7162 34.7784 46.5499ZM29.1592 46.4605C29.3615 46.3258 28.7189 46.1447 28.8956 46.3814C28.9042 46.391 29.1441 46.4665 29.1592 46.4605ZM26.9078 46.2818C26.8672 46.2617 26.3672 46.2588 26.3541 46.3814C26.5075 46.4269 27.1625 46.4133 26.9078 46.2818ZM12.8804 45.8306C12.1573 45.9532 13.2616 45.2371 13.629 45.6109C13.637 45.6207 13.5262 45.779 13.4547 45.797C13.1035 45.8837 13.0591 45.6468 13.0357 45.6431C12.7552 45.6163 12.8949 45.828 12.8804 45.8306ZM15.088 45.5553C14.7414 45.7364 15.8322 45.7701 15.8878 45.7237C15.8515 45.6109 15.1227 45.5376 15.088 45.5553ZM13.8282 45.4278C13.7417 45.385 12.8697 45.3466 13.191 45.4586C13.2198 45.4688 13.8159 45.5372 13.8282 45.4278ZM13.2525 45.129C13.8262 45.0548 12.7241 44.8439 12.8687 45.0528C12.8799 45.0658 13.1934 45.1367 13.2525 45.129ZM6.69587 43.4312C6.66644 43.399 6.8183 43.3103 6.89802 43.3521C7.01579 43.4681 9.33495 44.9987 11.5928 44.9151C11.9359 44.9286 12.2395 44.9534 12.3297 44.9928C12.2388 45.017 11.9363 45.0478 11.5928 45.0733C9.247 45.2309 6.77952 43.6062 6.69587 43.4312ZM43.8297 42.5494C43.3463 43.0008 42.918 43.9096 43.4298 43.5426C43.8693 43.0814 43.882 42.4996 43.8297 42.5494ZM7.35651 41.9532C7.31594 41.9305 7.32045 42.2562 7.35505 42.296C8.09752 43.0943 8.0207 42.3081 7.35651 41.9532ZM4.56306 36.7882C4.557 36.3224 4.59988 35.8464 4.69489 35.379L4.69636 35.3761C4.84759 35.344 4.68365 36.0682 4.70222 36.7882C4.70885 36.9035 4.7172 37.0184 4.7696 37.0767C4.87131 37.1895 5.21083 36.8015 5.12409 37.169C5.10745 37.4201 5.07984 37.7799 5.10798 38.297C5.41778 36.4623 5.50848 37.7138 5.69245 38.6632C5.78767 39.1489 5.92364 39.5857 5.8946 39.6226C5.88631 39.6553 5.58758 39.3003 5.39948 38.0567C5.09823 38.3693 5.43121 39.7476 6.07331 40.6656C6.68052 41.5957 7.39634 42.1584 6.64753 41.981C6.37737 40.9239 5.48267 41.3091 5.74372 40.5323C5.50199 40.3191 5.27008 40.083 5.05378 39.8248C5.04484 38.9516 5.04977 36.8303 4.63337 37.9058C4.60382 37.6607 4.58724 37.4145 4.58356 37.169L4.56306 36.7882ZM7.30524 40.7681C7.28004 40.7522 7.11578 40.8217 7.12067 40.8472C7.43153 41.4817 7.91932 41.2071 7.30524 40.7681ZM6.92145 39.8482C7.05961 40.2294 7.80639 41.192 8.06696 41.1973C7.69149 40.9492 7.09931 39.9393 6.92145 39.8482ZM45.419 38.9898C45.4877 38.1221 44.9946 39.5239 44.8507 40.6026C45.0479 40.0987 45.4199 39.086 45.419 38.9898ZM45.441 38.5167C45.8263 37.0653 45.3623 37.1479 45.2916 38.1944C45.2487 38.5635 45.4252 38.5614 45.441 38.5167ZM5.46833 35.4888C5.82328 34.5966 5.4647 35.7833 5.50349 36.7882C5.51214 36.9325 5.50689 37.0652 5.48444 37.0958C5.43262 37.117 5.38897 36.9553 5.35993 36.7882C5.32422 36.1812 5.44818 35.5412 5.46833 35.4888ZM6.5362 36.0924C6.51709 35.8508 6.87771 34.8713 7.08991 34.5294C7.09357 34.7581 6.86023 35.3082 6.74128 35.7511C6.61729 36.189 6.53543 36.5011 6.5362 36.0924ZM43.2862 29.3175C43.2674 29.3006 43.248 29.2844 43.2291 29.2677C43.2293 29.2389 43.2281 29.2091 43.2276 29.1783C43.261 29.2063 43.2959 29.2322 43.3287 29.2603C43.3142 29.2591 43.297 29.2631 43.2774 29.2735C43.281 29.2883 43.2829 29.3032 43.2862 29.3175ZM43.2159 28.8971C43.1835 28.3556 43.096 27.6629 43.0416 27.2052C43.2069 27.8453 43.3193 28.4623 43.3961 29.0509C43.3361 29.0005 43.2781 28.9468 43.2159 28.8971ZM40.8839 23.7349C41.0167 24.0636 41.5373 25.0825 41.4215 24.5684C41.4106 24.484 40.9602 23.6547 40.8839 23.7349ZM37.3507 18.92C37.3912 18.8476 37.4212 18.7096 37.4473 18.5391C37.4688 18.5544 37.4908 18.5683 37.5118 18.5831C37.5046 18.6379 37.494 18.6888 37.4898 18.7369L37.4854 18.7354C37.3995 18.7027 37.5359 19.0543 37.4503 19.0299C37.4217 19.0189 37.3781 18.9936 37.3214 18.9596C37.33 18.9459 37.3434 18.9348 37.3507 18.92ZM36.3179 17.9591C36.3233 17.8499 36.405 17.6894 36.3985 17.6016C36.5034 17.6607 36.4418 17.9033 36.4366 18.0367C36.4005 18.0113 36.3608 17.9851 36.3179 17.9591ZM36.2725 13.2701C36.248 13.2902 36.238 13.5576 36.3428 13.5323C36.4751 13.4998 36.3487 13.2099 36.2725 13.2701ZM35.2574 10.9849C35.2468 11.0982 35.4402 11.3763 35.4742 11.1988C35.4791 11.171 35.3423 10.9344 35.2574 10.9849ZM3.21833 9.66365C3.38791 9.86075 3.75629 8.87405 3.49811 9.08065C3.44007 9.12587 3.25854 9.53566 3.21833 9.66365ZM33.9185 8.66463C33.8498 8.67241 33.8329 9.01533 33.9302 9.03963C34.1591 9.09409 34.0613 8.65204 33.9185 8.66463ZM33.5845 7.95858C33.6641 7.66341 33.4458 7.46167 33.252 7.73738C33.4798 7.95745 33.4479 7.50861 33.5845 7.95858ZM32.9898 7.31551C32.7472 7.2954 32.9315 7.66863 33.0572 7.49862C33.0622 7.48696 33.0001 7.31596 32.9898 7.31551ZM32.5445 6.53621C32.3658 6.41824 31.7874 6.76493 32.0421 6.85408C32.0683 6.86218 32.5005 6.61781 32.5445 6.53621ZM32.0186 5.84774C32.2717 5.75033 31.6764 5.36107 31.4708 5.54744C31.5266 5.62875 31.9855 5.85311 32.0186 5.84774ZM7.80915 1.94539C8.19718 1.69396 8.52666 1.54885 8.30427 1.7242C8.28325 1.74149 8.09468 1.86624 7.87507 2.02742C7.46001 2.32068 6.88793 2.83105 6.8614 2.81112C6.79062 2.74251 7.35466 2.22755 7.80915 1.94539Z" fill="#F4C430"/>
<path fill-rule="evenodd" clip-rule="evenodd" d="M28.3008 46.8692C28.7289 46.63 26.932 46.4612 27.4044 46.7594C27.4412 46.7809 28.261 46.8889 28.3008 46.8692ZM34.7784 46.5499C34.7145 46.5089 34.4181 46.5622 34.4107 46.629C34.3917 46.8296 35.0299 46.7162 34.7784 46.5499ZM29.1592 46.4605C29.3615 46.3258 28.7189 46.1447 28.8956 46.3814C28.9042 46.391 29.1441 46.4665 29.1592 46.4605ZM26.9078 46.2818C26.8672 46.2617 26.3672 46.2588 26.3541 46.3814C26.5075 46.4269 27.1625 46.4133 26.9078 46.2818ZM12.8804 45.8306C12.1573 45.9532 13.2616 45.2371 13.629 45.6109C13.637 45.6207 13.5262 45.779 13.4547 45.797C13.1035 45.8837 13.0591 45.6468 13.0357 45.6431C12.7552 45.6163 12.8949 45.828 12.8804 45.8306ZM15.088 45.5553C14.7414 45.7364 15.8322 45.7701 15.8878 45.7237C15.8515 45.6109 15.1227 45.5376 15.088 45.5553ZM13.8282 45.4278C13.7417 45.385 12.8697 45.3466 13.191 45.4586C13.2198 45.4688 13.8159 45.5372 13.8282 45.4278ZM13.2525 45.129C13.8262 45.0548 12.7241 44.8439 12.8687 45.0528C12.8799 45.0658 13.1934 45.1367 13.2525 45.129ZM6.69587 43.4312C6.66644 43.399 6.8183 43.3103 6.89802 43.3521C7.01579 43.4681 9.33495 44.9987 11.5928 44.9151C11.9359 44.9286 12.2395 44.9534 12.3297 44.9928C12.2388 45.017 11.9363 45.0478 11.5928 45.0733C9.247 45.2309 6.77952 43.6062 6.69587 43.4312ZM43.8297 42.5494C43.3463 43.0008 42.918 43.9096 43.4298 43.5426C43.8693 43.0814 43.882 42.4996 43.8297 42.5494ZM7.35651 41.9532C7.31594 41.9305 7.32045 42.2562 7.35505 42.296C8.09752 43.0943 8.0207 42.3081 7.35651 41.9532ZM4.56306 36.7882C4.557 36.3224 4.59988 35.8464 4.69489 35.379L4.69636 35.3761C4.84759 35.344 4.68365 36.0682 4.70222 36.7882C4.70885 36.9035 4.7172 37.0184 4.7696 37.0767C4.87131 37.1895 5.21083 36.8015 5.12409 37.169C5.10745 37.4201 5.07984 37.7799 5.10798 38.297C5.41778 36.4623 5.50848 37.7138 5.69245 38.6632C5.78767 39.1489 5.92364 39.5857 5.8946 39.6226C5.88631 39.6553 5.58758 39.3003 5.39948 38.0567C5.09823 38.3693 5.43121 39.7476 6.07331 40.6656C6.68052 41.5957 7.39634 42.1584 6.64753 41.981C6.37737 40.9239 5.48267 41.3091 5.74372 40.5323C5.50199 40.3191 5.27008 40.083 5.05378 39.8248C5.04484 38.9516 5.04977 36.8303 4.63337 37.9058C4.60382 37.6607 4.58724 37.4145 4.58356 37.169L4.56306 36.7882ZM7.30524 40.7681C7.28004 40.7522 7.11578 40.8217 7.12067 40.8472C7.43153 41.4817 7.91932 41.2071 7.30524 40.7681ZM6.92145 39.8482C7.05961 40.2294 7.80639 41.192 8.06696 41.1973C7.69149 40.9492 7.09931 39.9393 6.92145 39.8482ZM45.419 38.9898C45.4877 38.1221 44.9946 39.5239 44.8507 40.6026C45.0479 40.0987 45.4199 39.086 45.419 38.9898ZM45.441 38.5167C45.8263 37.0653 45.3623 37.1479 45.2916 38.1944C45.2487 38.5635 45.4252 38.5614 45.441 38.5167ZM5.46833 35.4888C5.82328 34.5966 5.4647 35.7833 5.50349 36.7882C5.51214 36.9325 5.50689 37.0652 5.48444 37.0958C5.43262 37.117 5.38897 36.9553 5.35993 36.7882C5.32422 36.1812 5.44818 35.5412 5.46833 35.4888ZM6.5362 36.0924C6.51709 35.8508 6.87771 34.8713 7.08991 34.5294C7.09357 34.7581 6.86023 35.3082 6.74128 35.7511C6.61729 36.189 6.53543 36.5011 6.5362 36.0924ZM43.2862 29.3175C43.2674 29.3006 43.248 29.2844 43.2291 29.2677C43.2293 29.2389 43.2281 29.2091 43.2276 29.1783C43.261 29.2063 43.2959 29.2322 43.3287 29.2603C43.3142 29.2591 43.297 29.2631 43.2774 29.2735C43.281 29.2883 43.2829 29.3032 43.2862 29.3175ZM43.2159 28.8971C43.1835 28.3556 43.096 27.6629 43.0416 27.2052C43.2069 27.8453 43.3193 28.4623 43.3961 29.0509C43.3361 29.0005 43.2781 28.9468 43.2159 28.8971ZM40.8839 23.7349C41.0167 24.0636 41.5373 25.0825 41.4215 24.5684C41.4106 24.484 40.9602 23.6547 40.8839 23.7349ZM37.3507 18.92C37.3912 18.8476 37.4212 18.7096 37.4473 18.5391C37.4688 18.5544 37.4908 18.5683 37.5118 18.5831C37.5046 18.6379 37.494 18.6888 37.4898 18.7369L37.4854 18.7354C37.3995 18.7027 37.5359 19.0543 37.4503 19.0299C37.4217 19.0189 37.3781 18.9936 37.3214 18.9596C37.33 18.9459 37.3434 18.9348 37.3507 18.92ZM36.3179 17.9591C36.3233 17.8499 36.405 17.6894 36.3985 17.6016C36.5034 17.6607 36.4418 17.9033 36.4366 18.0367C36.4005 18.0113 36.3608 17.9851 36.3179 17.9591ZM36.2725 13.2701C36.248 13.2902 36.238 13.5576 36.3428 13.5323C36.4751 13.4998 36.3487 13.2099 36.2725 13.2701ZM35.2574 10.9849C35.2468 11.0982 35.4402 11.3763 35.4742 11.1988C35.4791 11.171 35.3423 10.9344 35.2574 10.9849ZM3.21833 9.66365C3.38791 9.86075 3.75629 8.87405 3.49811 9.08065C3.44007 9.12587 3.25854 9.53566 3.21833 9.66365ZM33.9185 8.66463C33.8498 8.67241 33.8329 9.01533 33.9302 9.03963C34.1591 9.09409 34.0613 8.65204 33.9185 8.66463ZM33.5845 7.95858C33.6641 7.66341 33.4458 7.46167 33.252 7.73738C33.4798 7.95745 33.4479 7.50861 33.5845 7.95858ZM32.9898 7.31551C32.7472 7.2954 32.9315 7.66863 33.0572 7.49862C33.0622 7.48696 33.0001 7.31596 32.9898 7.31551ZM32.5445 6.53621C32.3658 6.41824 31.7874 6.76493 32.0421 6.85408C32.0683 6.86218 32.5005 6.61781 32.5445 6.53621ZM32.0186 5.84774C32.2717 5.75033 31.6764 5.36107 31.4708 5.54744C31.5266 5.62875 31.9855 5.85311 32.0186 5.84774ZM7.80915 1.94539C8.19718 1.69396 8.52666 1.54885 8.30427 1.7242C8.28325 1.74149 8.09468 1.86624 7.87507 2.02742C7.46001 2.32068 6.88793 2.83105 6.8614 2.81112C6.79062 2.74251 7.35466 2.22755 7.80915 1.94539Z" fill="#F4C430"/>
<path fill-rule="evenodd" clip-rule="evenodd" d="M15.605 0.28426C11.7202 -0.316554 15.5298 -0.827532 18.9302 1.01229C19.1982 1.14666 20.4392 1.91387 21.3472 2.89315C21.3551 2.90085 21.3613 2.91023 21.3692 2.91805C21.737 2.95258 22.0543 2.97838 22.1295 2.91951C22.1797 2.87813 21.7745 2.65834 22.6597 2.67928C22.7542 2.68418 22.733 2.84432 22.7799 2.82576C22.8054 2.81459 22.9485 2.29982 23.1549 2.56502C23.2243 2.66608 22.8264 3.00158 23.7452 2.83895C23.6049 2.65206 23.7471 2.56024 24.0001 2.5328C24.4199 2.48174 25.1669 2.65049 25.358 2.75399C25.3007 2.67961 25.2421 2.60638 25.1837 2.5328C25.483 2.74363 25.5589 2.58119 25.6304 2.59725C25.9197 2.66793 26.2957 2.90286 26.5709 2.94002C26.8938 2.98502 26.9651 2.67437 27.3194 2.88582C27.2456 2.7957 27.1704 2.70654 27.0938 2.61776C27.3572 2.69408 27.6201 2.77941 27.8819 2.87264C27.1574 3.10592 28.0074 2.9259 28.0621 2.93709C28.1438 2.94702 27.9828 3.07504 28.1177 3.0953C28.1323 3.09647 28.1613 2.93526 28.3697 2.98397C28.8057 3.09165 28.6695 3.26375 28.8443 3.32528C28.8606 3.3305 28.856 3.17053 29.171 3.25789C30.164 3.55777 29.1321 3.35524 29.0816 3.36336C29.0252 3.37303 29.1186 4.03999 28.4251 3.57195C28.649 3.73118 28.583 3.98245 28.6085 4.00057C28.6326 4.01318 29.0908 4.15618 29.1182 4.16024C29.3701 4.16961 29.2541 3.91968 29.3087 3.90682C29.3597 3.8967 29.7818 4.35539 30.1553 3.92879C30.1743 4.51403 29.8048 4.26176 29.3467 4.14412C29.2444 4.21118 29.6588 4.51595 29.6807 4.52938C30.2575 4.82051 30.1336 4.2873 30.3883 4.11629C30.5244 4.02905 30.6301 4.41548 30.586 3.96102C31.1513 4.23125 30.713 4.23579 30.7325 4.28328C30.7608 4.35358 30.999 4.36936 31.0152 4.39608C31.0376 4.43444 30.8541 4.47685 30.961 4.5953C30.9779 4.61331 31.3102 4.55403 31.0899 4.29354C31.4417 4.54624 31.5155 4.37116 31.4254 4.77108C32.0743 4.32876 31.36 5.24474 31.4239 5.3409C31.5986 5.59512 31.8635 5.0827 31.8926 5.06844C32.0932 4.98452 32.6237 5.64518 32.8184 5.71151C32.4967 5.97606 32.3232 5.31004 32.1666 5.29549C31.6743 5.25432 32.5041 5.81899 31.9439 6.0411C32.1267 6.0045 32.312 5.97149 32.4976 5.94149C32.4513 6.34121 32.1257 6.24565 32.6426 6.54061C32.9065 6.39027 32.3035 6.30055 32.5269 6.19783C32.6616 6.13667 32.9396 6.34541 32.9913 6.29891C33.0524 6.24082 32.7529 6.10501 32.8741 6.0411C33.1559 5.90429 33.7896 6.88311 33.0631 6.39998C33.2197 6.54093 33.0097 6.92461 33.1231 7.03133C33.1401 7.04726 33.164 7.05807 33.1978 7.06063C33.2616 7.06522 33.3074 6.91962 33.3721 6.78084C33.4276 6.66257 33.498 6.54831 33.6124 6.54061C33.7219 6.53429 33.8745 6.62376 34.0855 6.91561C33.9092 7.11019 33.713 6.63373 33.6885 6.64022C33.6544 6.65104 33.2916 7.12583 33.2799 7.15584C33.2453 7.24242 34.2513 7.89024 34.1675 8.28963C34.3812 7.99392 34.758 8.97972 34.8985 9.02205C34.9395 9.03111 35.0526 8.82003 35.0889 8.83455C35.3158 8.93195 35.2909 9.60441 35.4024 9.83065C35.5309 10.085 35.6719 9.97162 35.6807 9.98446C35.7319 10.1029 35.5753 10.0708 35.6119 10.1397C35.674 10.2432 35.9923 10.9813 36.0279 11.0157C36.0402 11.0242 36.1785 10.8178 36.2857 10.9688C36.3014 10.9964 36.0763 11.0697 36.3633 11.524C36.7054 12.0852 36.4919 10.9957 36.8248 11.1534C36.6341 11.6808 36.9639 11.5419 36.9771 11.6617C36.9809 11.7045 36.7846 12.0801 36.8892 12.3736C36.7783 12.1712 36.6617 11.9716 36.5406 11.776C36.5634 12.0009 36.7519 12.3883 36.7398 12.5787C36.7341 12.6708 36.4722 12.6697 36.5259 12.8468C36.5371 12.8833 37.1809 12.8844 36.7794 12.4718C36.9809 12.3725 36.9087 12.6444 36.9962 12.7354C37.0188 12.7472 37.3809 12.7256 37.1954 12.9171C37.1444 12.9641 36.0293 12.8572 36.9786 13.5909C37.0088 13.6156 37.1207 13.4885 37.1544 13.5103C37.1775 13.5271 37.1683 13.7702 37.191 13.793C37.2158 13.8162 37.3394 13.6785 37.3741 13.7037C37.5507 13.8452 37.0088 14.1468 36.9976 13.8121C36.9458 13.9344 36.8918 14.0546 36.8365 14.1724C37.254 13.9908 36.9861 14.3251 37.0167 14.4698C37.2046 15.4073 37.4203 14.7503 37.585 14.899C37.8438 15.1484 37.0802 15.0056 37.3301 15.3751C37.3514 15.407 37.6551 14.9278 37.5089 15.8453C37.4936 15.7123 37.4767 15.5798 37.4576 15.4454C37.0381 15.5433 37.5038 15.9247 37.5089 15.9581C37.5282 16.0659 37.5256 16.1186 37.5206 16.1544C37.5082 16.2355 37.4858 16.228 37.6275 16.5982C37.6457 16.6469 37.5378 16.7464 37.585 16.8516C37.7801 17.2897 37.7399 16.2941 37.9044 16.273C37.9976 16.2558 37.9302 17.3369 37.8765 17.3805C37.6881 17.5246 37.834 16.8772 37.6041 16.9893C37.5694 17.0053 37.5446 17.5397 37.5001 18.0499C37.5287 18.0615 37.5586 18.079 37.5935 18.0993L37.5967 18.1012C37.6204 17.9981 37.6478 17.889 37.6802 17.7745C37.8398 17.7905 37.7896 17.7799 37.7872 17.9034C37.7802 18.0127 37.7665 18.1138 37.7579 18.2081C37.8027 18.2416 37.854 18.2782 37.9088 18.3238C37.8555 18.3169 37.8021 18.311 37.7491 18.3048C37.7474 18.3216 37.7465 18.3382 37.7447 18.3546C38.8506 19.016 39.9707 20.2268 40.9849 21.5758C41.2369 21.9146 41.1568 21.4145 41.4024 21.8248C41.415 21.8457 41.4279 21.8699 41.442 21.8951C41.7139 22.3768 41.8062 23.0073 41.6148 22.7843C41.5848 22.7482 41.4146 22.3628 41.1885 21.9771C41.067 21.7613 40.9282 21.5457 40.8106 21.4058C39.8998 20.3674 39.9507 20.8093 39.898 20.7452C39.8389 20.6826 39.3657 19.9786 39.0264 19.6949C38.5137 19.2661 38.1431 19.0224 37.6949 18.712C37.6877 18.7551 37.6818 18.7952 37.6744 18.8321C38.2422 19.198 39.0989 20.3051 39.5523 20.8316C40.1331 21.4778 40.1904 21.2982 40.2247 21.3311C40.468 21.6424 40.1731 21.4769 40.3243 21.6637C40.3905 21.7466 40.5681 21.9744 40.774 22.2701C41.376 23.0895 41.983 24.4175 42.025 24.4996C42.0488 24.5346 42.0584 24.0268 42.3355 24.5816C42.3595 24.6755 42.2116 24.7203 42.7691 26.3263C43.0567 27.2812 43.0541 26.9355 43.0342 26.4273C43.0121 25.9193 42.898 25.2193 43.1558 25.6129C43.1695 27.0254 43.4561 26.8707 43.503 27.2286C43.5159 27.3518 43.3596 28.2352 43.4019 29.0553C45.2908 30.6425 46.1 32.5266 46.4664 33.7164C46.9484 35.4408 46.8228 36.1185 46.7857 35.8316C46.6473 35.6351 46.5686 32.086 43.38 29.3072C43.3933 29.3364 43.4019 29.3768 43.4063 29.4259C43.4143 29.4333 43.4233 29.4403 43.4312 29.4478C45.2634 31.083 46.0587 33.1976 46.2584 34.0738C46.5295 35.1787 46.4901 36.0922 46.4107 36.7515C46.2701 36.9342 46.1868 37.0191 46.5982 37.0211C46.3465 37.0735 46.2625 37.124 46.2525 37.169C46.2383 37.5163 46.3764 37.8173 46.358 38.0069C45.6607 41.7205 45.4367 41.8004 43.4327 44.2896C42.9317 44.8093 42.3286 45.0198 42.148 45.1905C42.0378 45.2896 42.3973 45.3076 41.8199 45.7662C41.3304 46.2632 38.35 47.479 36.3326 47.2545C36.1526 47.2109 36.0151 47.1651 35.9869 47.1285C35.9244 47.0454 36.2112 47.0565 36.3326 46.9967C36.5628 46.9737 36.6718 46.9355 36.5303 46.8883C36.4644 46.889 36.3985 46.8902 36.3326 46.8897C35.9311 46.8753 35.5439 46.9177 35.1387 46.8985C34.9656 46.8895 35.0541 46.7576 34.9791 46.755C34.9413 46.7546 34.3533 46.8689 34.3726 46.9176C34.4322 47.0303 36.286 46.9556 35.7979 47.1856C35.7037 47.2299 35.3715 46.9273 35.4244 47.2955L30.4571 47.045C31.4083 46.7698 32.4784 47.0151 33.4747 46.9893C33.6113 46.9862 34.0728 47.0217 34.0167 46.8355C33.1694 46.7874 32.1158 46.885 31.3023 46.7638C31.277 46.7588 31.3717 46.5924 31.2745 46.566C31.0921 46.5166 30.4983 46.7852 30.3985 46.7154C30.3899 46.6946 30.7183 46.4774 30.6168 46.3389C30.3535 45.9804 30.2863 46.7747 30.0601 46.7667C29.8848 46.759 28.7056 46.374 28.4122 46.6173C28.1011 46.8762 29.2786 46.7676 29.1929 46.9791C28.3944 47.1919 27.5861 46.9657 26.8316 46.9923C26.8195 46.9944 26.9329 47.1579 26.7657 47.1812C26.4727 47.2217 26.3956 46.986 26.253 46.9483C26.099 46.9082 25.5552 46.9419 25.4825 46.856C25.4766 46.8391 25.5815 46.6165 25.5997 46.6055C25.8358 46.5095 25.9205 46.8106 25.9425 46.8165C26.0233 46.828 26.1031 46.7119 26.1768 46.7183C26.2985 46.7299 26.3663 46.8378 26.5269 46.8472C26.6369 46.8536 26.5307 46.6479 26.6368 46.6568C26.676 46.6611 27.0998 47.1322 27.1392 46.651C27.146 46.4994 23.6977 46.3047 23.3482 46.4254C23.6177 46.478 23.8874 46.5312 24.1569 46.584C23.5727 46.491 22.9094 46.8182 22.8604 46.2745L16.1632 46.1353C15.765 46.0868 15.9833 45.7216 15.3282 45.8277C15.4975 45.944 15.6672 46.06 15.8365 46.1763C15.5004 46.0947 14.011 45.9355 13.7696 46.0108C13.7384 46.0207 13.6949 46.3515 13.3228 46.38C12.9927 46.4051 12.9397 46.1566 12.7633 46.109C12.6153 46.0699 12.4488 46.1355 12.4044 46.1222C12.3706 46.1112 12.3567 45.9596 12.2755 45.9332C12.0194 45.8518 12.2266 46.2779 11.9722 45.7882C12.0342 45.7695 12.0963 45.7497 12.1583 45.731C11.8488 45.66 11.4272 45.4379 11.8829 45.3282C11.9601 45.3103 11.8934 45.4559 11.9517 45.4556C14.2407 45.4284 12.4126 45.143 11.6104 45.3707C11.6053 45.3654 11.599 45.3609 11.5928 45.356C11.0816 45.2743 9.64918 45.1374 8.44196 44.6016C7.22327 44.1003 6.31032 43.3038 6.26813 43.2393C6.15187 43.0487 6.84628 43.4526 6.18757 42.6373C6.10814 42.5609 4.98374 41.3995 4.51618 40.169C4.02427 38.9528 3.98332 37.9588 4.33161 39.0059C4.41213 39.2167 4.6394 40.0296 5.05964 40.7872C5.46504 41.5525 6.05617 42.2306 6.30768 42.4674C5.89209 41.7509 5.09188 40.7396 4.607 39.6256C4.10093 38.528 3.92323 37.424 3.92585 37.169V37.1646C3.95134 37.0061 4.01048 37.0679 4.07673 37.169C4.19452 37.8234 4.41533 38.8127 4.36677 37.169C4.37161 37.1255 4.37538 37.075 4.37848 37.0167V36.3341C4.33723 35.6426 4.04905 37.2859 4.00202 36.2476C3.98022 35.8582 4.23099 34.6216 4.75788 33.6402C5.25602 32.6454 5.79498 32.0215 5.73493 31.8062C5.6987 31.8267 4.44912 29.3004 4.41246 29.32L4.40632 29.3233V29.3145C3.80876 27.9035 3.29903 26.4172 2.91364 24.8746C2.81684 24.4882 2.72742 24.0976 2.64704 23.7027C2.07114 23.0166 1.46356 20.7982 1.45612 19.6407C1.44162 19.4094 1.60262 18.2773 1.64362 18.189C1.70669 18.0322 1.74775 18.8929 1.86481 18.5011C1.87213 18.4736 1.88123 18.2822 1.88972 18.0323C1.90467 17.4653 1.9447 16.5983 1.7945 16.6817C1.75609 16.8886 1.84159 17.5436 1.79304 17.6514C1.30541 18.3779 2.13476 12.6886 2.20759 12.4513C2.11355 12.5567 2.01915 12.6626 1.92634 12.7706C2.02542 12.4536 2.13024 12.1403 2.23981 11.8316C2.24731 11.8116 2.25572 11.7916 2.26325 11.7716C2.26826 11.7949 2.27285 11.8186 2.2779 11.8419C2.29714 11.9672 2.31701 12.0922 2.33796 12.2169C2.37312 12.1137 2.40588 11.9995 2.43757 11.8814C2.51154 11.6083 2.57799 11.3094 2.6778 11.0992C2.70035 11.0523 2.83185 11.2245 2.87116 11.1109C2.91025 10.9967 2.67604 10.9559 2.69831 10.7799C2.72311 10.5795 3.13316 9.76746 3.22126 9.47762C3.47097 8.62999 3.67262 7.77338 3.97419 6.96688L4.09577 6.66219C4.27595 6.1839 4.5042 5.69031 4.78425 5.20321C4.42721 5.91842 4.28007 6.40039 4.19684 6.70028L4.21003 6.66219C4.20609 6.84014 4.27196 6.82004 4.35212 6.71492L4.33747 6.75154C4.60413 6.09443 5.37835 4.70776 5.80817 4.12508C5.98416 3.96833 5.60162 3.52349 7.68317 1.76815C8.19085 1.37998 8.90957 0.91287 9.91852 0.5201C11.389 -0.0102043 11.6991 0.154856 11.9752 0.200764C12.2437 0.281816 12.5538 0.269291 13.8156 0.218331L13.8516 0.216877L13.8579 0.216751C14.2703 0.208448 14.8221 0.197339 15.605 0.28426ZM5.24274 33.7091C5.39657 33.3942 5.59069 33.103 5.75104 32.8873C5.88784 32.7032 6.0002 32.5745 6.04401 32.5343C6.07619 32.5018 6.09873 32.4865 6.1114 32.4815C6.16847 32.3566 6.21922 32.2664 6.25641 32.2472C6.26839 32.2469 6.23553 32.6037 6.25788 32.9517C6.261 33.0141 6.26742 33.0761 6.27356 33.1355L6.27546 33.1539C6.35665 32.9818 6.51147 32.7545 6.70905 32.5621C6.656 32.6591 6.60526 32.8406 6.56989 33.0294C6.5561 33.0981 6.5443 33.1671 6.53327 33.233C6.60581 33.1649 6.68914 33.0738 6.78962 32.9605C6.79187 32.875 6.79694 32.789 6.80427 32.7027C6.6949 32.7476 6.77778 32.5468 6.79401 32.4918L6.78669 32.4888C6.78921 32.4866 6.79148 32.4837 6.79401 32.4815L6.79694 32.4801C6.80061 32.4773 6.79709 32.4813 6.79401 32.4918C6.8035 32.4947 6.81263 32.5008 6.82184 32.5123C6.81369 32.5757 6.80964 32.6394 6.80427 32.7027C6.84418 32.6863 6.91074 32.6382 7.0152 32.5372C7.05766 32.4979 7.09723 32.4534 7.13972 32.4097C7.28743 32.258 7.44386 32.0912 7.61872 31.9351C7.60031 31.9815 7.583 32.0273 7.56745 32.0728C7.55764 32.0793 7.54671 32.085 7.53669 32.0919C7.27632 32.2864 7.26492 32.4622 7.11628 32.7511C7.07106 32.85 7.00591 32.9551 6.91999 33.085C6.87684 33.244 6.83884 33.3949 6.81013 33.5333C6.80105 33.4495 6.79511 33.3644 6.79108 33.2784C6.62104 33.5266 6.39124 33.8562 6.08942 34.3375C6.17572 34.1003 6.28197 33.87 6.39997 33.6446C6.38762 33.6499 6.37415 33.652 6.35895 33.6475C6.35234 33.6406 6.33044 33.5441 6.30768 33.4029C6.18443 33.4568 6.18842 33.3384 6.27546 33.1539L6.27356 33.1355C6.26742 33.0761 6.261 33.0141 6.25788 32.9517C6.23553 32.6037 6.26839 32.2469 6.25641 32.2472C6.21922 32.2664 6.16847 32.3566 6.1114 32.4815C6.14998 32.4664 6.0981 32.566 6.003 32.7467C5.96174 32.8631 5.92127 32.9873 5.89167 33.107C5.79296 33.4855 5.75425 33.7963 5.71149 33.5509C5.70626 33.5209 5.70645 33.4264 5.71296 33.2901C5.4158 33.8283 5.03441 34.5253 4.85016 35.0333C4.7997 34.9184 4.94755 34.2872 5.24274 33.7091ZM28.3008 46.8692C28.7289 46.63 26.932 46.4612 27.4044 46.7594C27.4412 46.7809 28.261 46.8889 28.3008 46.8692ZM34.7784 46.5499C34.7145 46.5089 34.4181 46.5622 34.4107 46.629C34.3917 46.8296 35.0299 46.7162 34.7784 46.5499ZM29.1592 46.4605C29.3615 46.3258 28.7189 46.1447 28.8956 46.3814C28.9042 46.391 29.1441 46.4665 29.1592 46.4605ZM26.9078 46.2818C26.8672 46.2617 26.3672 46.2588 26.3541 46.3814C26.5075 46.4269 27.1625 46.4133 26.9078 46.2818ZM12.8804 45.8306C12.1573 45.9532 13.2616 45.2371 13.629 45.6109C13.637 45.6207 13.5262 45.779 13.4547 45.797C13.1035 45.8837 13.0591 45.6468 13.0357 45.6431C12.7552 45.6163 12.8949 45.828 12.8804 45.8306ZM15.088 45.5553C14.7414 45.7364 15.8322 45.7701 15.8878 45.7237C15.8515 45.6109 15.1227 45.5376 15.088 45.5553ZM13.8282 45.4278C13.7417 45.385 12.8697 45.3466 13.191 45.4586C13.2198 45.4688 13.8159 45.5372 13.8282 45.4278ZM13.2525 45.129C13.8262 45.0548 12.7241 44.8439 12.8687 45.0528C12.8799 45.0658 13.1934 45.1367 13.2525 45.129ZM6.69587 43.4312C6.66644 43.399 6.8183 43.3103 6.89802 43.3521C7.01579 43.4681 9.33495 44.9987 11.5928 44.9151C11.9359 44.9286 12.2395 44.9534 12.3297 44.9928C12.2388 45.017 11.9363 45.0478 11.5928 45.0733C9.247 45.2309 6.77952 43.6062 6.69587 43.4312ZM43.8297 42.5494C43.3463 43.0008 42.918 43.9096 43.4298 43.5426C43.8693 43.0814 43.882 42.4996 43.8297 42.5494ZM7.35651 41.9532C7.31594 41.9305 7.32045 42.2562 7.35505 42.296C8.09752 43.0943 8.0207 42.3081 7.35651 41.9532ZM4.56306 36.7882C4.557 36.3224 4.59988 35.8464 4.69489 35.379L4.69636 35.3761C4.84759 35.344 4.68365 36.0682 4.70222 36.7882C4.70885 36.9035 4.7172 37.0184 4.7696 37.0767C4.87131 37.1895 5.21083 36.8015 5.12409 37.169C5.10745 37.4201 5.07984 37.7799 5.10798 38.297C5.41778 36.4623 5.50848 37.7138 5.69245 38.6632C5.78767 39.1489 5.92364 39.5857 5.8946 39.6226C5.88631 39.6553 5.58758 39.3003 5.39948 38.0567C5.09823 38.3693 5.43121 39.7476 6.07331 40.6656C6.68052 41.5957 7.39634 42.1584 6.64753 41.981C6.37737 40.9239 5.48267 41.3091 5.74372 40.5323C5.50199 40.3191 5.27008 40.083 5.05378 39.8248C5.04484 38.9516 5.04977 36.8303 4.63337 37.9058C4.60382 37.6607 4.58724 37.4145 4.58356 37.169L4.56306 36.7882ZM7.30524 40.7681C7.28004 40.7522 7.11578 40.8217 7.12067 40.8472C7.43153 41.4817 7.91932 41.2071 7.30524 40.7681ZM6.92145 39.8482C7.05961 40.2294 7.80639 41.192 8.06696 41.1973C7.69149 40.9492 7.09931 39.9393 6.92145 39.8482ZM45.419 38.9898C45.4877 38.1221 44.9946 39.5239 44.8507 40.6026C45.0479 40.0987 45.4199 39.086 45.419 38.9898ZM45.441 38.5167C45.8263 37.0653 45.3623 37.1479 45.2916 38.1944C45.2487 38.5635 45.4252 38.5614 45.441 38.5167ZM5.46833 35.4888C5.82328 34.5966 5.4647 35.7833 5.50349 36.7882C5.51214 36.9325 5.50689 37.0652 5.48444 37.0958C5.43262 37.117 5.38897 36.9553 5.35993 36.7882C5.32422 36.1812 5.44818 35.5412 5.46833 35.4888ZM6.5362 36.0924C6.51709 35.8508 6.87771 34.8713 7.08991 34.5294C7.09357 34.7581 6.86023 35.3082 6.74128 35.7511C6.61729 36.189 6.53543 36.5011 6.5362 36.0924ZM43.2862 29.3175C43.2674 29.3006 43.248 29.2844 43.2291 29.2677C43.2293 29.2389 43.2281 29.2091 43.2276 29.1783C43.261 29.2063 43.2959 29.2322 43.3287 29.2603C43.3142 29.2591 43.297 29.2631 43.2774 29.2735C43.281 29.2883 43.2829 29.3032 43.2862 29.3175ZM43.2159 28.8971C43.1835 28.3556 43.096 27.6629 43.0416 27.2052C43.2069 27.8453 43.3193 28.4623 43.3961 29.0509C43.3361 29.0005 43.2781 28.9468 43.2159 28.8971ZM40.8839 23.7349C41.0167 24.0636 41.5373 25.0825 41.4215 24.5684C41.4106 24.484 40.9602 23.6547 40.8839 23.7349ZM37.3507 18.92C37.3912 18.8476 37.4212 18.7096 37.4473 18.5391C37.4688 18.5544 37.4908 18.5683 37.5118 18.5831C37.5046 18.6379 37.494 18.6888 37.4898 18.7369L37.4854 18.7354C37.3995 18.7027 37.5359 19.0543 37.4503 19.0299C37.4217 19.0189 37.3781 18.9936 37.3214 18.9596C37.33 18.9459 37.3434 18.9348 37.3507 18.92ZM36.3179 17.9591C36.3233 17.8499 36.405 17.6894 36.3985 17.6016C36.5034 17.6607 36.4418 17.9033 36.4366 18.0367C36.4005 18.0113 36.3608 17.9851 36.3179 17.9591ZM36.2725 13.2701C36.248 13.2902 36.238 13.5576 36.3428 13.5323C36.4751 13.4998 36.3487 13.2099 36.2725 13.2701ZM35.2574 10.9849C35.2468 11.0982 35.4402 11.3763 35.4742 11.1988C35.4791 11.171 35.3423 10.9344 35.2574 10.9849ZM3.21833 9.66365C3.38791 9.86075 3.75629 8.87405 3.49811 9.08065C3.44007 9.12587 3.25854 9.53566 3.21833 9.66365ZM33.9185 8.66463C33.8498 8.67241 33.8329 9.01533 33.9302 9.03963C34.1591 9.09409 34.0613 8.65204 33.9185 8.66463ZM33.5845 7.95858C33.6641 7.66341 33.4458 7.46167 33.252 7.73738C33.4798 7.95745 33.4479 7.50861 33.5845 7.95858ZM32.9898 7.31551C32.7472 7.2954 32.9315 7.66863 33.0572 7.49862C33.0622 7.48696 33.0001 7.31596 32.9898 7.31551ZM32.5445 6.53621C32.3658 6.41824 31.7874 6.76493 32.0421 6.85408C32.0683 6.86218 32.5005 6.61781 32.5445 6.53621ZM32.0186 5.84774C32.2717 5.75033 31.6764 5.36107 31.4708 5.54744C31.5266 5.62875 31.9855 5.85311 32.0186 5.84774ZM7.80915 1.94539C8.19718 1.69396 8.52666 1.54885 8.30427 1.7242C8.28325 1.74149 8.09468 1.86624 7.87507 2.02742C7.46001 2.32068 6.88793 2.83105 6.8614 2.81112C6.79062 2.74251 7.35466 2.22755 7.80915 1.94539Z" fill="#F4C430"/>
<path d="M21.4066 39.8004C22.262 39.7809 23.0854 39.966 23.9437 39.9664C25.0097 39.9669 26.093 39.7901 27.1615 39.8229C28.2238 39.8557 29.2918 39.9034 30.3558 39.9616C31.4209 40.0197 32.4845 40.0891 33.5502 40.1657C34.6137 40.2422 35.6801 40.3256 36.7445 40.4137C37.4672 40.4736 38.1908 40.5357 38.9134 40.5983C39.2307 40.6257 39.5475 40.6536 39.8646 40.6813C40.1012 40.702 40.338 40.7221 40.5746 40.7428C40.6074 40.7457 40.6392 40.7573 40.6625 40.776C40.6856 40.7948 40.6986 40.8196 40.6986 40.8444C40.6985 40.869 40.6855 40.8931 40.6625 40.9118C40.6392 40.9304 40.6074 40.9421 40.5746 40.945C40.3361 40.965 40.0972 40.9855 39.8588 41.0055C39.5937 41.0277 39.3288 41.0498 39.0638 41.0719C39.0222 40.97 38.9648 40.8923 38.8578 40.858C38.8031 40.8407 38.7231 40.8333 38.6644 40.8522C38.6379 40.8608 38.6146 40.873 38.5931 40.8864L38.474 40.9703C38.4537 40.9826 38.4326 40.9926 38.4086 40.9977C38.3267 41.0149 38.249 41.0586 38.1674 41.1041C38.1376 41.1207 38.1067 41.137 38.0756 41.153C37.8228 41.1737 37.5695 41.1951 37.3168 41.2155C37.2192 41.2046 37.1292 41.1957 37.0531 41.1998C36.9849 41.2037 36.9219 41.2248 36.8597 41.2516C36.8207 41.2547 36.7816 41.2582 36.7425 41.2614C36.49 41.2814 36.2374 41.3013 35.9847 41.3209C35.7876 41.2937 35.5805 41.2671 35.3119 41.2555C35.1961 41.2505 35.0809 41.2355 34.9711 41.2213C34.809 41.2005 34.6565 41.1813 34.5228 41.1959C34.4334 41.2057 34.3393 41.1908 34.2455 41.1764C34.1196 41.1571 33.9932 41.1381 33.8793 41.1774C33.8078 41.2021 33.7418 41.2326 33.681 41.2604C33.5844 41.3046 33.4997 41.3426 33.4232 41.3453C33.2792 41.3504 33.1542 41.3833 33.0443 41.4118C32.9121 41.446 32.8009 41.4749 32.7035 41.444C32.6887 41.4393 32.6717 41.4325 32.6527 41.4254C32.5524 41.388 32.3916 41.3281 32.1615 41.361C32.0796 41.3727 32.0025 41.4034 31.9271 41.4332C31.8175 41.4766 31.711 41.5192 31.597 41.5006C31.58 41.4978 31.5615 41.486 31.5453 41.4752C31.5248 41.4617 31.5071 41.4494 31.4965 41.4596C31.4652 41.49 31.4155 41.5236 31.3617 41.5602C31.3221 41.5871 31.2793 41.6162 31.2406 41.6461C30.9449 41.663 30.6487 41.6786 30.3529 41.694C30.2176 41.701 30.0821 41.7078 29.9466 41.7145C29.8773 41.6687 29.8057 41.6276 29.7308 41.5963C29.6329 41.5556 29.5057 41.5432 29.3422 41.527C29.2218 41.5151 29.0815 41.5008 28.9183 41.4723C28.6159 41.4194 28.3049 41.4312 28.1058 41.4596C28.0638 41.4656 28.0212 41.4722 27.9759 41.4791C27.8043 41.5056 27.5897 41.5384 27.183 41.5748C26.7982 41.6093 26.4708 41.6189 26.225 41.6256C26.0996 41.6291 25.9953 41.632 25.9154 41.6373C25.7786 41.6465 25.6104 41.6545 25.4418 41.6627C25.178 41.6755 24.9124 41.6886 24.7621 41.7057C24.7086 41.7118 24.6518 41.7191 24.5912 41.7272C24.4232 41.7495 24.2203 41.7761 23.9408 41.7916C23.6471 41.808 23.4648 41.7973 23.2758 41.7731C23.1989 41.7632 23.1307 41.7244 23.0609 41.6842C22.9619 41.6273 22.8587 41.567 22.7191 41.5846C22.6865 41.5888 22.651 41.5983 22.6146 41.608C22.5479 41.6259 22.4756 41.6457 22.4017 41.6373C22.3759 41.6344 22.3527 41.6233 22.3304 41.6129C22.3059 41.6016 22.2815 41.5901 22.2543 41.5895C22.1524 41.5872 22.0533 41.5901 21.9652 41.5924C21.8519 41.5955 21.7568 41.5977 21.6976 41.5885C21.5923 41.5721 21.4764 41.5872 21.3597 41.6022C21.2706 41.6136 21.1803 41.6249 21.0931 41.6227C20.8441 41.6165 20.5016 41.6452 20.1488 41.692C20.0153 41.7097 19.9021 41.685 19.7572 41.6539C19.6671 41.6346 19.5642 41.6125 19.4369 41.5963C19.3647 41.5872 19.3031 41.6096 19.2465 41.6295C19.1944 41.6478 19.1456 41.6645 19.0961 41.6549C19.0525 41.6463 19.0246 41.6101 18.9984 41.5758C18.9692 41.5377 18.9418 41.5016 18.8959 41.5084C18.8714 41.5122 18.8413 41.53 18.806 41.5514C18.7921 41.5599 18.7768 41.5689 18.7611 41.5778C18.7618 41.5707 18.7621 41.564 18.7621 41.5592C18.7618 41.5244 18.7151 41.5059 18.6693 41.4879C18.6509 41.4807 18.6316 41.4736 18.6166 41.4655C18.561 41.4356 18.4564 41.4299 18.3763 41.4313C18.3425 41.4318 18.3115 41.4215 18.2758 41.4088C18.2439 41.3975 18.2072 41.384 18.1615 41.3766C18.1357 41.3723 18.1155 41.3626 18.099 41.3541C18.0872 41.3481 18.0771 41.3429 18.0677 41.3414C18.0596 41.3404 18.0527 41.3507 18.0453 41.3619C18.04 41.3701 18.0338 41.3787 18.0267 41.3844C18.0096 41.3982 17.9875 41.4025 17.972 41.3981C17.965 41.396 17.959 41.3922 17.9535 41.3883C17.9471 41.3839 17.9408 41.3792 17.932 41.3776C17.8911 41.3703 17.8512 41.3813 17.8099 41.3932C17.7645 41.4063 17.7171 41.4198 17.6644 41.4098C17.6479 41.4066 17.6297 41.3993 17.6127 41.3922C17.595 41.3849 17.5775 41.3776 17.5629 41.3756C17.5028 41.3679 17.4459 41.3936 17.3939 41.4166C17.3594 41.432 17.3265 41.4455 17.2963 41.4489C17.241 41.4549 17.2108 41.4852 17.1888 41.5075C17.1776 41.5189 17.1682 41.5289 17.1586 41.5319C17.1497 41.531 17.1401 41.53 17.1312 41.5289C17.1231 41.5267 17.1147 41.5243 17.1068 41.525H17.1049C17.0554 41.5177 17.0066 41.508 16.9584 41.4977C16.8495 41.4745 16.7411 41.4506 16.6273 41.4635C16.603 41.4664 16.5783 41.4793 16.5531 41.4918C16.522 41.5073 16.4898 41.5232 16.4574 41.5221C16.3801 41.5194 16.3018 41.4984 16.225 41.4782C16.1096 41.4478 15.9966 41.4184 15.8929 41.4508C15.8587 41.4616 15.8249 41.4796 15.7914 41.4977C15.7727 41.5078 15.7537 41.5181 15.7347 41.527C15.7387 41.5106 15.7406 41.4945 15.7425 41.4801C15.7466 41.4506 15.7509 41.4254 15.7689 41.4039C15.8118 41.3529 15.86 41.2824 15.8549 41.2311C15.8534 41.2172 15.8545 41.2007 15.8558 41.1852C15.8591 41.1462 15.8624 41.1065 15.8226 41.0885C15.7956 41.0763 15.7269 41.0483 15.683 41.0778C15.6734 41.0843 15.667 41.0976 15.6605 41.1119C15.6489 41.1378 15.6348 41.1683 15.5931 41.1754C15.5862 41.1766 15.5784 41.1774 15.5707 41.1784C15.5396 41.1823 15.505 41.1875 15.4916 41.2077C15.4764 41.2315 15.479 41.2598 15.4828 41.2916C15.4877 41.3332 15.4937 41.3827 15.4613 41.442C15.4549 41.4537 15.4423 41.4575 15.433 41.4606C15.4265 41.4627 15.421 41.465 15.4203 41.4684C15.4197 41.4724 15.4225 41.4812 15.4252 41.4918C15.4346 41.5297 15.4505 41.5955 15.3822 41.5983C15.3638 41.599 15.3425 41.5962 15.3236 41.5934C15.2961 41.5893 15.2734 41.586 15.2699 41.5963C15.2687 41.6004 15.2676 41.6054 15.267 41.61C15.2449 41.6087 15.2226 41.6074 15.2006 41.6061C15.172 41.5933 15.1313 41.5939 15.0814 41.5953C15.0693 41.5957 15.0565 41.5961 15.0433 41.5963C14.9995 41.5937 14.9554 41.5912 14.9115 41.5885C14.8767 41.583 14.8392 41.5733 14.8002 41.5592C14.7221 41.5309 14.6537 41.4847 14.5873 41.4391C14.5593 41.4199 14.5314 41.4008 14.5033 41.3834C14.5142 41.3813 14.524 41.3781 14.5316 41.3746C14.5838 41.3508 14.6051 41.3036 14.6244 41.2604C14.6371 41.2318 14.6494 41.2045 14.6693 41.1871C14.7057 41.1552 14.7023 41.1181 14.6996 41.0905C14.6982 41.0762 14.6977 41.0642 14.7025 41.0573C14.7065 41.0518 14.7157 41.0492 14.725 41.0465C14.733 41.0442 14.7411 41.0412 14.7465 41.0368C14.8119 40.982 14.7926 40.9501 14.764 40.9039C14.7482 40.8784 14.7295 40.8479 14.7211 40.8073C14.7139 40.7646 14.7164 40.752 14.7504 40.735C14.7236 40.7138 14.697 40.6918 14.6703 40.6705C14.6598 40.672 14.6512 40.6857 14.64 40.7077C14.6198 40.7469 14.555 40.7618 14.5043 40.7731C14.4808 40.7783 14.4602 40.7827 14.4486 40.7887C14.3873 40.8208 14.4055 40.8656 14.4213 40.9049C14.4299 40.9265 14.4371 40.9471 14.431 40.9625C14.4286 40.9689 14.4322 40.9756 14.4359 40.9821C14.4388 40.9871 14.4424 40.9925 14.4427 40.9977C14.4435 41.037 14.4062 41.0663 14.3724 41.0934C14.3532 41.1088 14.3348 41.1237 14.3246 41.1393C14.3215 41.144 14.3191 41.1493 14.3168 41.1539C14.3134 41.1608 14.3102 41.1679 14.305 41.1735C14.2932 41.1862 14.2689 41.1944 14.2425 41.2037C14.2289 41.2086 14.215 41.2144 14.2015 41.2203C14.1842 41.228 14.1779 41.2433 14.1713 41.2594C14.1666 41.2708 14.1616 41.2829 14.1527 41.2926C14.1364 41.3102 14.1032 41.316 14.0726 41.3219C14.0594 41.3245 14.0464 41.3274 14.0355 41.3307C14.0312 41.332 14.0292 41.3349 14.0287 41.3385C13.9785 41.3508 13.9298 41.3633 13.8832 41.3756C13.6494 41.4372 13.447 41.4904 13.1449 41.4518C13.0879 41.4445 13.0261 41.446 12.9642 41.4518C12.7658 41.4364 12.5669 41.4202 12.3685 41.4039C12.3293 41.3686 12.2808 41.3393 12.224 41.3161C12.1172 41.2723 12.0069 41.2626 11.8773 41.2516C11.7817 41.2434 11.6751 41.2341 11.5511 41.2096C11.3423 41.1682 11.1271 41.1331 10.8851 41.1149C10.6442 41.0968 10.3683 41.0835 10.1732 41.0787C10.0669 41.0761 9.95505 41.0447 9.85095 41.0153C9.70451 40.9738 9.57279 40.937 9.49255 40.9909C9.46704 41.0081 9.44233 41.0381 9.41833 41.067C9.40122 41.0876 9.38407 41.1077 9.36755 41.1227C9.32341 41.118 9.27891 41.1128 9.23474 41.108C9.15622 41.0722 9.0341 41.034 8.91638 41.0739C8.87081 41.0689 8.82466 41.0642 8.78063 41.0592C8.68463 41.0488 8.59027 41.0386 8.49548 41.028C8.46462 41.0245 8.43297 41.0208 8.40173 41.0172L8.21227 40.9957C8.18551 40.9927 8.15798 40.9891 8.13122 40.986C8.06327 40.9782 7.99438 40.9705 7.92712 40.9625C7.89159 40.9583 7.85562 40.9541 7.8197 40.9498C7.76136 40.943 7.70239 40.9363 7.64392 40.9293C7.54912 40.918 7.45427 40.9057 7.35974 40.8942C7.3443 40.8923 7.32865 40.8866 7.31774 40.8776C7.30713 40.8686 7.30113 40.8569 7.30114 40.8453C7.30131 40.8338 7.30789 40.8221 7.31872 40.8131C7.32962 40.8043 7.34448 40.7984 7.35974 40.7965C7.45437 40.7853 7.54902 40.7743 7.64392 40.7633C7.70245 40.7565 7.7613 40.7495 7.8197 40.7428C7.85577 40.7387 7.89242 40.7352 7.9281 40.7311C7.99542 40.7234 8.06419 40.7152 8.1322 40.7077C8.15886 40.7047 8.18561 40.7019 8.21227 40.6989C8.27498 40.6918 8.33942 40.6843 8.4027 40.6774C8.43373 40.674 8.46581 40.671 8.49645 40.6676C8.59138 40.6573 8.68547 40.6465 8.78161 40.6364C8.83128 40.6309 8.88355 40.6261 8.93493 40.6207C8.96341 40.6177 8.99198 40.6149 9.01989 40.6119C9.03501 40.6104 9.05038 40.6086 9.06579 40.6071C9.42426 40.5696 9.78076 40.5332 10.14 40.4987C10.498 40.4641 10.8576 40.4309 11.2152 40.3991C11.5735 40.3672 11.9314 40.3365 12.2894 40.3073C14.5623 40.1217 16.8444 39.9699 19.1273 39.8746C19.4529 39.861 19.7874 39.8486 20.1136 39.8375C20.4434 39.8265 20.7664 39.8166 21.097 39.8082C21.1975 39.8056 21.301 39.8028 21.4066 39.8004Z" fill="#1A2A4F"/>
<path d="M24.0873 31.6159C24.5843 31.6487 25.0846 31.6964 25.5824 31.7545C26.0805 31.8126 26.5782 31.8821 27.0765 31.9586C27.5741 32.0352 28.0737 32.1186 28.5716 32.2067C28.9097 32.2665 29.2483 32.3287 29.5863 32.3912C29.7347 32.4186 29.8833 32.4466 30.0316 32.4743C30.1421 32.4949 30.2531 32.5151 30.3636 32.5358C30.3789 32.5387 30.3938 32.5505 30.4047 32.569C30.4155 32.5878 30.4223 32.6125 30.4222 32.6373C30.4222 32.6621 30.4155 32.6861 30.4047 32.7047C30.3938 32.7233 30.379 32.7351 30.3636 32.7379C30.2522 32.7579 30.1402 32.7785 30.0287 32.7985C29.9048 32.8206 29.7804 32.8428 29.6566 32.8649C29.6371 32.7631 29.6108 32.6854 29.5609 32.651C29.5353 32.6337 29.4975 32.6263 29.4701 32.6452C29.4455 32.6622 29.4262 32.6925 29.4086 32.7213C29.3901 32.7515 29.3725 32.7805 29.35 32.7907C29.3119 32.8081 29.2757 32.8518 29.2377 32.8971C29.2239 32.9135 29.2091 32.9301 29.1947 32.9459C29.0765 32.9667 28.9574 32.988 28.8392 33.0084C28.7938 32.9976 28.7517 32.9886 28.7162 32.9928C28.6844 32.9967 28.6544 33.0179 28.6254 33.0446C28.6073 33.0477 28.5887 33.0512 28.5707 33.0543C28.4527 33.0744 28.3342 33.0943 28.2162 33.1139C28.124 33.0867 28.0264 33.0601 27.9008 33.0485C27.8468 33.0434 27.7928 33.0284 27.7416 33.0143C27.6659 32.9935 27.594 32.9743 27.5316 32.9889C27.49 32.9983 27.4454 32.9837 27.4017 32.9694C27.3431 32.9502 27.2839 32.9312 27.2308 32.9703C27.1975 32.995 27.1664 33.0256 27.1381 33.0534C27.0929 33.0975 27.0527 33.1357 27.017 33.1383C26.9499 33.1435 26.8915 33.1763 26.8402 33.2047C26.7787 33.2388 26.7264 33.2674 26.681 33.2369C26.6742 33.2323 26.6654 33.2254 26.6566 33.2184C26.6097 33.181 26.5345 33.1212 26.4271 33.1539C26.389 33.1657 26.3529 33.1965 26.3177 33.2262C26.2665 33.2696 26.2158 33.3123 26.1625 33.2936C26.1547 33.2906 26.1464 33.2787 26.139 33.2682C26.1294 33.2546 26.1206 33.2422 26.1156 33.2526C26.101 33.2829 26.0782 33.3168 26.0531 33.3532C26.0346 33.38 26.0145 33.4092 25.9965 33.4391C25.8581 33.456 25.7188 33.4716 25.5804 33.4869C25.5173 33.494 25.4532 33.5008 25.39 33.5075C25.3577 33.4618 25.3243 33.4204 25.2894 33.3893C25.2436 33.3487 25.1842 33.3361 25.1078 33.32C25.0515 33.3081 24.9857 33.2937 24.9095 33.2653C24.7683 33.2126 24.6228 33.2243 24.5297 33.2526C24.5101 33.2585 24.4892 33.2652 24.4681 33.2721C24.3879 33.2985 24.2869 33.3314 24.097 33.3678C24.0392 33.3789 23.9839 33.3876 23.932 33.3942C23.8313 33.408 23.7441 33.4159 23.6732 33.4225C23.6202 33.4275 23.5749 33.4312 23.5414 33.4381C23.4841 33.4498 23.413 33.4622 23.3431 33.4752C23.2327 33.4956 23.1223 33.5199 23.0619 33.5436C23.0407 33.5519 23.0174 33.5621 22.9935 33.5729C22.9269 33.6031 22.8462 33.6398 22.7357 33.6725C22.62 33.7068 22.5455 33.7098 22.4652 33.7008C22.4326 33.697 22.397 33.6648 22.3607 33.6315C22.3091 33.5841 22.2535 33.5347 22.2006 33.5651C22.1884 33.5722 22.1758 33.5845 22.1634 33.5973C22.1405 33.6211 22.1159 33.6477 22.0843 33.6471C22.0735 33.6466 22.0616 33.6381 22.0502 33.6305C22.0375 33.6221 22.0242 33.6136 22.0131 33.6159C21.9715 33.6244 21.9325 33.6388 21.8978 33.651C21.8532 33.6668 21.8156 33.6801 21.7894 33.6784C21.7428 33.6756 21.7006 33.7039 21.6595 33.733C21.6281 33.7553 21.5962 33.7781 21.5619 33.7877C21.4628 33.8156 21.3396 33.8914 21.2259 33.9899C21.1829 34.027 21.1314 34.0231 21.0648 34.0192C21.0234 34.0168 20.9754 34.0149 20.9213 34.0231C20.8908 34.028 20.8774 34.0586 20.8656 34.0866C20.8547 34.1123 20.8439 34.1357 20.8216 34.1364C20.802 34.1362 20.7755 34.1098 20.7504 34.0846C20.7222 34.0564 20.6948 34.0299 20.681 34.0446C20.6739 34.0529 20.6711 34.0755 20.6683 34.1012C20.6672 34.1113 20.6659 34.1226 20.6644 34.1334C20.6612 34.1268 20.658 34.1202 20.6556 34.1159C20.6474 34.1007 20.637 34.091 20.6254 34.0846L20.558 34.0621C20.5231 34.0474 20.4812 34.0655 20.4525 34.0836C20.4404 34.0908 20.423 34.0878 20.4037 34.0846C20.3865 34.0817 20.3663 34.0791 20.3461 34.0827C20.3347 34.0844 20.3221 34.0803 20.3119 34.0768C20.3044 34.0742 20.2975 34.072 20.2933 34.0729C20.2904 34.0744 20.2923 34.0837 20.2953 34.0944C20.2976 34.1025 20.3007 34.1123 20.3011 34.1188C20.3019 34.1337 20.296 34.1422 20.2884 34.1422C20.2848 34.1419 20.2797 34.1393 20.2758 34.1373C20.2712 34.1351 20.266 34.1328 20.2621 34.1334C20.244 34.1368 20.2353 34.1554 20.2269 34.1744C20.2175 34.1958 20.2073 34.2187 20.183 34.2223C20.1755 34.2232 20.1652 34.2213 20.1556 34.2194C20.1453 34.2173 20.1346 34.2156 20.1283 34.2174C20.103 34.2253 20.0966 34.2594 20.0912 34.2907C20.0875 34.3115 20.0833 34.3315 20.0746 34.3414C20.0593 34.3598 20.0656 34.3914 20.0707 34.4147C20.0733 34.4269 20.0753 34.4374 20.0736 34.442C20.0703 34.4433 20.0662 34.4448 20.0629 34.4459C20.0591 34.4461 20.0553 34.4466 20.0531 34.4489C20.032 34.4547 20.0081 34.4581 19.9857 34.4616C19.9352 34.4692 19.8846 34.4781 19.8539 34.5172C19.8475 34.5257 19.8459 34.542 19.8451 34.5582C19.844 34.5783 19.8436 34.5996 19.8324 34.6071C19.814 34.6188 19.7899 34.6248 19.765 34.6285C19.7532 34.6303 19.74 34.6311 19.7279 34.6325C19.6708 34.6391 19.6152 34.6467 19.6019 34.6998C19.5977 34.7174 19.598 34.7405 19.599 34.7633C19.5995 34.7759 19.6002 34.7887 19.6 34.8004C19.5907 34.787 19.5812 34.7747 19.5726 34.7633C19.5548 34.7398 19.5398 34.7191 19.5316 34.6979C19.5124 34.6473 19.4832 34.5796 19.4486 34.5416C19.4392 34.5314 19.4288 34.5188 19.4193 34.5065C19.3954 34.4757 19.3712 34.4436 19.3461 34.441C19.3288 34.4394 19.2868 34.439 19.2914 34.4743C19.2925 34.482 19.299 34.4938 19.306 34.5065C19.3189 34.5294 19.3347 34.5565 19.3256 34.5739C19.324 34.5767 19.3216 34.5797 19.3197 34.5827C19.312 34.5947 19.3037 34.6085 19.3129 34.6276C19.3237 34.6499 19.3433 34.6702 19.3656 34.693C19.3947 34.7227 19.4292 34.7587 19.4584 34.8121C19.4639 34.8225 19.4631 34.8288 19.4623 34.8336C19.4617 34.8369 19.4612 34.8397 19.4633 34.8424L19.5267 34.9059C19.5401 34.9229 19.5476 34.9395 19.5384 34.9498C19.5334 34.9552 19.5245 34.9585 19.517 34.9616C19.506 34.966 19.4966 34.9707 19.5023 34.9791C19.5047 34.9824 19.5082 34.9863 19.5111 34.9899C19.5036 34.995 19.4951 35.0004 19.4877 35.0055C19.4709 35.0043 19.4591 35.0153 19.4457 35.0299C19.4424 35.0335 19.4387 35.0379 19.4349 35.0416C19.4203 35.0519 19.4055 35.0626 19.391 35.0729C19.3772 35.0786 19.3601 35.0826 19.3392 35.0836C19.297 35.0854 19.2435 35.0725 19.1918 35.0602C19.17 35.055 19.1479 35.0502 19.1273 35.0465C19.129 35.0417 19.1305 35.0366 19.1302 35.0319C19.1283 34.9996 19.1004 34.9606 19.0756 34.9244C19.0591 34.9005 19.0437 34.8775 19.0375 34.859C19.0261 34.8251 18.9983 34.7996 18.9779 34.7809C18.9674 34.7713 18.9588 34.7629 18.9554 34.7565C18.9529 34.7515 18.9534 34.7465 18.9545 34.7418C18.9554 34.7376 18.9567 34.7329 18.9554 34.7282C18.9377 34.6686 18.9085 34.6513 18.8666 34.6276C18.8437 34.6146 18.8166 34.5994 18.7855 34.5739C18.753 34.546 18.7441 34.5357 18.7435 34.5123C18.7196 34.5062 18.6953 34.4997 18.6713 34.4938C18.669 34.4985 18.6761 34.5109 18.6879 34.5299C18.7091 34.5644 18.6973 34.5968 18.6888 34.6217C18.685 34.633 18.6815 34.6431 18.682 34.651C18.6852 34.6939 18.7238 34.719 18.7572 34.7409C18.7755 34.7528 18.7928 34.7644 18.8021 34.777C18.8059 34.7823 18.8119 34.7864 18.8177 34.7897C18.8223 34.7922 18.8275 34.7949 18.8314 34.7985C18.8599 34.8253 18.8699 34.857 18.8793 34.8864C18.8846 34.9032 18.8895 34.9202 18.8978 34.9342C18.9003 34.9384 18.9039 34.9421 18.9066 34.9459C18.9105 34.9515 18.9138 34.9572 18.9164 34.9625C18.9222 34.9749 18.9221 34.9889 18.9213 35.0035C18.9208 35.0111 18.9198 35.0197 18.9203 35.028C18.921 35.0386 18.9308 35.0512 18.9408 35.0641C18.9479 35.0733 18.9557 35.0831 18.9603 35.0924C18.9684 35.1093 18.9636 35.1239 18.9593 35.1373C18.9575 35.1432 18.956 35.1494 18.9554 35.1549C18.9554 35.157 18.957 35.1594 18.9593 35.1618C18.9545 35.1856 18.95 35.2095 18.9466 35.2321C18.9294 35.3463 18.92 35.4415 18.8158 35.5153C18.7963 35.5294 18.7827 35.5502 18.7728 35.5739C18.7136 35.6295 18.6556 35.6869 18.599 35.7457C18.5608 35.7403 18.5245 35.741 18.4925 35.7487C18.4325 35.7634 18.4006 35.7989 18.3646 35.8405C18.3378 35.8715 18.3079 35.9057 18.2621 35.941C18.1852 36.0003 18.1135 36.0689 18.056 36.1578C17.9986 36.2464 17.9443 36.3549 17.9134 36.4342C17.8965 36.4772 17.8519 36.5142 17.8109 36.5504C17.7533 36.601 17.7029 36.6513 17.7465 36.6989C17.7605 36.7139 17.7873 36.731 17.8129 36.7477C17.8312 36.7597 17.8496 36.7716 17.8627 36.7819C17.854 36.7992 17.8448 36.817 17.8363 36.8346C17.7942 36.8601 17.7464 36.9067 17.7767 36.9645C17.7685 36.983 17.7602 37.002 17.7523 37.0202C17.7354 37.0602 17.7183 37.0999 17.7025 37.1403C17.6973 37.1534 17.692 37.1669 17.6869 37.1803C17.6766 37.2072 17.6664 37.2352 17.6566 37.2623C17.6524 37.2739 17.648 37.2859 17.6439 37.2975C17.6335 37.327 17.6235 37.3576 17.6136 37.3873C17.6085 37.4029 17.6031 37.4194 17.598 37.4352C17.5898 37.4609 17.5814 37.4871 17.5736 37.5133C17.5609 37.5561 17.5492 37.5989 17.5375 37.6422C17.5355 37.6493 17.5289 37.6568 17.5199 37.6618C17.5109 37.6666 17.4991 37.6696 17.4877 37.6696C17.4761 37.6695 17.4643 37.6668 17.4554 37.6618C17.4467 37.6567 17.4407 37.6493 17.4388 37.6422C17.4279 37.5976 17.418 37.5528 17.4086 37.5075C17.4028 37.4796 17.3972 37.4514 17.392 37.4235C17.3887 37.4063 17.3852 37.3889 17.3822 37.3717C17.3766 37.3392 17.3713 37.306 17.3666 37.2731L17.35 37.1403C17.3483 37.1251 17.3466 37.1094 17.3451 37.0944C17.3406 37.0477 17.337 37.0014 17.3343 36.9537C17.3327 36.929 17.3314 36.9032 17.3304 36.8776C17.3299 36.8634 17.3299 36.8486 17.3295 36.8346C17.3293 36.8272 17.3296 36.8197 17.3295 36.8121C17.3259 36.6327 17.3349 36.4516 17.3578 36.2692C17.3805 36.0873 17.4161 35.904 17.4652 35.7243C17.5144 35.5442 17.5771 35.3665 17.6508 35.193C17.9255 34.5442 18.3542 33.9595 18.8509 33.4664C19.2011 33.1183 19.5982 32.8058 20.0287 32.5436C20.177 32.453 20.3335 32.3658 20.4896 32.2877C20.6476 32.2089 20.8067 32.1377 20.9711 32.0719C21.0206 32.052 21.0726 32.0328 21.1254 32.0133C21.5583 31.8536 22.0249 31.9353 22.4593 31.8688C22.9446 31.7942 23.4356 31.6177 23.932 31.6119C23.9837 31.6113 24.0357 31.6125 24.0873 31.6159Z" fill="#1A2A4F"/>
<path fill-rule="evenodd" clip-rule="evenodd" d="M12.1078 6.34046C12.9153 6.30908 13.8337 6.68129 14.3959 7.27406C14.9843 7.81514 15.3568 8.82259 15.2201 9.64613L15.1195 10.5631C15.0153 11.5176 14.9082 12.4949 14.8011 13.4547C14.7923 13.5377 14.7835 13.6233 14.7767 13.7086C14.7005 14.6715 14.7804 15.6135 15.0248 16.5387C15.089 16.7815 15.1653 17.0274 15.2552 17.275C15.2696 17.3145 15.2843 17.3545 15.2992 17.3942C15.7469 18.5841 16.3502 19.678 17.1517 20.6412C17.9457 21.5983 18.926 22.4115 20.0746 22.9977C20.1179 23.0199 20.1616 23.0425 20.2054 23.0641C21.3785 23.6461 22.6872 23.9144 24.0004 23.8776C25.7717 23.8376 27.565 23.944 29.3177 24.2789C29.587 24.3304 29.8551 24.3876 30.1224 24.4508C31.3606 24.7448 32.5954 25.1475 33.7709 25.7428C34.9687 26.3531 36.107 27.2286 36.9056 28.3971C37.5799 29.3693 37.9092 30.5275 37.9867 31.6285C38.0064 31.8954 38.0133 32.1602 38.0091 32.4235C37.9721 34.5627 37.9305 36.7007 37.8861 38.8395L37.8988 39.5299L37.183 39.5426C36.1131 39.5204 35.0429 39.497 33.972 39.4733C30.527 39.3967 27.0741 39.3134 23.6263 39.2252C21.2845 39.1654 18.9396 39.1032 16.598 39.0407C15.5701 39.0132 14.5453 38.9863 13.5179 38.9586C12.7515 38.938 11.9846 38.9168 11.2181 38.8961C11.1117 38.8932 11.0092 38.8817 10.934 38.8629C10.9056 38.8558 10.8831 38.8449 10.8646 38.8366L10.8627 38.8395C10.86 38.8394 10.8594 38.8357 10.8568 38.8336C10.8314 38.8209 10.8168 38.8086 10.8168 38.7946C10.8169 38.7871 10.8208 38.7793 10.8285 38.7721C10.821 38.7381 10.8155 38.6948 10.8138 38.65C10.8026 38.3433 10.7916 38.0367 10.7806 37.7291C10.7738 37.5392 10.7668 37.3483 10.7601 37.1588C10.756 37.0419 10.7525 36.9248 10.7484 36.8092C10.7407 36.591 10.7326 36.3685 10.725 36.1481C10.722 36.0613 10.7192 35.9741 10.7162 35.8873C10.7091 35.6844 10.7016 35.4779 10.6947 35.2731C10.6947 35.2719 10.6947 35.2703 10.6947 35.2692C10.6913 35.1683 10.6883 35.067 10.6849 34.9674C10.6746 34.66 10.6638 34.355 10.6537 34.0436C10.6482 33.8827 10.6435 33.7149 10.6381 33.5485C10.6351 33.4558 10.6323 33.3629 10.6293 33.2721C10.6277 33.2226 10.626 33.1722 10.6244 33.1217C10.5869 31.9601 10.5506 30.8063 10.516 29.6422C10.5149 29.6042 10.5132 29.566 10.5121 29.528C9.96504 28.5954 9.46664 27.6296 9.03161 26.6354C8.67749 25.8261 8.36493 24.9973 8.09899 24.152C8.0098 23.8683 7.92563 23.5821 7.84802 23.2946C7.44244 21.7939 7.20013 20.2362 7.1654 18.6627C7.12727 16.9975 7.3123 15.3247 7.68591 13.6989C8.09457 11.917 8.6229 10.1686 9.22399 8.44984C9.41623 7.88049 9.80899 7.32228 10.3099 6.94984C10.808 6.5611 11.4868 6.33958 12.1078 6.34046ZM12.1078 7.81312C12.0652 7.81438 12.0215 7.81545 11.9769 7.81507C11.9372 7.81471 11.8949 7.81134 11.8539 7.81019C11.8107 7.80894 11.7683 7.81027 11.7338 7.81605C11.5929 7.83954 11.4766 7.91138 11.3822 7.98695C11.3189 8.03744 11.2635 8.09048 11.2084 8.13441C11.2035 8.1383 11.1983 8.14224 11.1937 8.14613C11.1013 8.22503 11.0733 8.29092 11.0541 8.33851C11.0437 8.36462 11.0365 8.38637 11.0238 8.40394C11.0097 8.41767 10.9955 8.43196 10.9818 8.44593C10.9683 8.45796 10.9542 8.47104 10.9437 8.485C10.9431 8.48592 10.9424 8.48701 10.9418 8.48793C10.8669 8.56847 10.7985 8.65481 10.7377 8.74964C10.6949 8.81629 10.6556 8.88771 10.6215 8.96351C10.5248 9.18634 10.4352 9.41046 10.3597 9.64906C10.336 9.72407 10.3211 9.80344 10.306 9.88441C10.2877 9.98329 10.2686 10.0847 10.2338 10.1823C10.1505 10.4151 10.0517 10.6456 9.95544 10.8727C9.8108 11.2139 9.67283 11.5499 9.60681 11.8766C9.58497 11.9846 9.57031 12.0922 9.557 12.1998C9.54958 12.2598 9.54304 12.3203 9.53454 12.3805C9.52235 12.3636 9.50849 12.3526 9.49645 12.3424C9.47183 12.3216 9.45085 12.3032 9.44665 12.2418C9.43676 12.0954 9.41489 11.9247 9.36071 11.9264C9.34611 11.9268 9.33236 11.9192 9.31872 11.9108C9.28429 11.8894 9.24918 11.8673 9.1947 11.985C9.15789 12.0644 9.06664 12.2704 9.05602 12.4147C9.05369 12.4461 9.06169 12.4678 9.0697 12.4918C9.08414 12.5351 9.10041 12.5868 9.07067 12.7174C9.06571 12.7393 9.05996 12.7632 9.05407 12.7877C9.0305 12.886 9.00521 12.9964 9.01403 13.0426C9.02423 13.0957 9.05326 13.0937 9.08727 13.0905C9.13159 13.0863 9.18434 13.0816 9.21423 13.1979C9.21988 13.2209 9.21314 13.2595 9.20837 13.2887C9.20497 13.3095 9.20244 13.3263 9.20544 13.3287C9.20902 13.3313 9.21942 13.3263 9.23181 13.3209C9.27635 13.3016 9.3525 13.2704 9.29919 13.4801C9.28473 13.5371 9.26447 13.6012 9.24645 13.6588C9.22023 13.7426 9.19908 13.8125 9.20642 13.8258C9.20943 13.8303 9.21331 13.8343 9.21716 13.8375C9.19839 13.9054 9.17989 13.9738 9.16149 14.0416C9.15835 14.0493 9.15479 14.0577 9.15173 14.0661C9.12144 14.148 9.09465 14.261 9.06384 14.3991C9.05563 14.4359 9.04738 14.475 9.03845 14.5153C9.00561 14.6481 8.97386 14.7823 8.94372 14.9157C8.91662 15.0206 8.88519 15.1317 8.84899 15.2487C8.77632 15.4836 8.69506 15.6868 8.61852 15.8864C8.58637 15.9703 8.55506 16.054 8.52575 16.1393C8.52832 16.1049 8.53068 16.0737 8.53063 16.0494C8.53031 15.8837 8.49454 15.8108 8.4613 15.7438C8.43926 15.6993 8.41841 15.657 8.41149 15.5914C8.39904 15.4715 8.36023 15.4762 8.33142 15.4801C8.31654 15.4821 8.30445 15.4829 8.30017 15.4664C8.29686 15.453 8.2987 15.424 8.30114 15.3942C8.30328 15.3681 8.30546 15.3407 8.30407 15.3229C8.28743 15.1067 8.24522 15.163 8.18298 15.2457C8.14879 15.2913 8.10849 15.3448 8.06384 15.3649C8.01775 15.3805 8.00651 15.3701 8.00915 15.2575C7.9729 15.3394 7.93695 15.4219 7.90173 15.5045C7.89754 15.5385 7.9062 15.5666 7.92224 15.6061C7.95063 15.6767 7.93332 15.8874 7.92224 16.0524C7.91698 16.1287 7.91222 16.196 7.91345 16.234C7.92046 16.4356 7.97274 16.383 8.01794 16.3375C8.04269 16.3127 8.06563 16.2902 8.07849 16.3112C8.08397 16.3203 8.09282 16.3097 8.10095 16.2985C8.10715 16.2899 8.11317 16.2809 8.11852 16.2809C8.15777 16.2833 8.17231 16.4022 8.18688 16.5123C8.19514 16.5752 8.20318 16.6355 8.2152 16.6696C8.21889 16.6799 8.22301 16.6891 8.22692 16.6969C8.2326 16.7082 8.23868 16.7192 8.24255 16.736C8.25138 16.7745 8.25173 16.8518 8.25329 16.9362C8.25408 16.9795 8.25496 17.0252 8.2572 17.068C8.26014 17.1236 8.27399 17.1454 8.28845 17.1676C8.29862 17.1832 8.30932 17.1993 8.31677 17.2282C8.33023 17.2809 8.32975 17.3856 8.32946 17.4821C8.32932 17.5239 8.32915 17.565 8.33044 17.5993C8.331 17.6127 8.33281 17.62 8.3363 17.6217C8.33957 17.78 8.34631 17.9311 8.35388 18.0778C8.36421 18.2777 8.37715 18.4701 8.39099 18.6627C8.42917 19.1786 8.4676 19.6977 8.50622 20.3854C8.51652 20.5639 8.53973 20.7553 8.57067 20.9469C8.63575 21.5647 8.73234 22.1818 8.85681 22.7936C8.85017 22.9218 8.85569 23.0759 8.87731 23.2555C8.90238 23.4632 8.94456 23.6718 8.99841 23.8932C9.03222 24.0321 9.07099 24.1769 9.11364 24.3297C9.19563 24.6232 9.29207 24.9486 9.40173 25.3297C9.58652 25.9702 9.80856 26.6214 10.1117 27.3346C10.3978 28.0108 10.7665 28.763 11.0619 29.3073L11.097 29.442C11.0968 29.4738 11.0963 29.5052 11.0961 29.5358C11.0935 29.8803 11.062 30.2425 11.0326 30.5797C10.9911 31.0543 10.9543 31.4809 11.0082 31.7409C11.0254 31.8237 11.0554 31.9041 11.0843 31.9821C11.105 32.0376 11.125 32.0925 11.14 32.1461C11.1353 32.2892 11.1301 32.4326 11.1254 32.5758C11.0895 32.8303 11.0511 33.2259 11.0912 33.608C11.0862 33.7557 11.0815 33.9039 11.0765 34.0465C11.0661 34.3576 11.0559 34.6622 11.0453 34.9694C11.0418 35.0697 11.0381 35.1715 11.0345 35.2731V35.276C11.0274 35.4805 11.0203 35.6867 11.0131 35.8893C11.01 35.976 11.0064 36.0633 11.0033 36.15C10.9955 36.3705 10.9878 36.593 10.9799 36.8112C10.9756 36.9265 10.9714 37.0431 10.9672 37.1598C10.9603 37.3494 10.9536 37.5411 10.9466 37.7311C10.9354 38.0381 10.923 38.3438 10.9115 38.65C10.9103 38.6813 10.9039 38.7118 10.8998 38.7389C10.9107 38.7354 10.9221 38.7304 10.9349 38.7272C11.0103 38.7085 11.1127 38.6968 11.2191 38.694C11.9921 38.674 12.7655 38.6544 13.5384 38.6344C14.397 38.6122 15.2544 38.5891 16.1127 38.567C16.2478 38.6691 16.4332 38.7467 16.7806 38.7809C16.9579 38.7983 17.2162 38.8057 17.4066 38.7868C17.5776 38.7697 17.7071 38.7395 17.8295 38.7106C17.9573 38.6803 18.0786 38.6514 18.2347 38.6412C18.5 38.624 18.7523 38.5803 19.017 38.5348C19.1131 38.5183 19.2111 38.5019 19.3119 38.486C20.1311 38.4652 20.9508 38.4439 21.7699 38.4235C22.0863 38.4343 22.3776 38.4433 22.6244 38.4391C22.8457 38.4353 23.0486 38.4142 23.2504 38.3873C23.3772 38.3842 23.5044 38.3807 23.6312 38.3776C24.4497 38.3575 25.2685 38.3376 26.0873 38.318C26.7262 38.3452 27.3962 38.3718 28.267 38.3834C28.6421 38.3884 29.0127 38.4035 29.3685 38.4176C29.8939 38.4385 30.3882 38.4577 30.8216 38.443C31.1115 38.4332 31.4169 38.4481 31.7211 38.4625C32.1288 38.4818 32.5357 38.5008 32.9047 38.4616C33.1367 38.4369 33.3499 38.4064 33.5472 38.3786C33.8612 38.3342 34.1357 38.2963 34.3841 38.2936C34.8509 38.2886 35.2554 38.2557 35.6117 38.2272C36.001 38.1961 36.3331 38.1714 36.6273 38.1901C36.6317 37.9994 36.6318 37.7868 36.6215 37.5524C36.6097 37.287 36.579 37.0377 36.5492 36.7936C36.5057 36.438 36.464 36.0921 36.4828 35.7223C36.4856 35.6672 36.4974 35.6096 36.5082 35.5573C36.5218 35.4905 36.5332 35.4317 36.5228 35.3971C36.4924 35.2958 36.4588 35.135 36.4222 34.9606C36.3953 34.8322 36.3672 34.6954 36.3373 34.57C36.3246 33.8547 36.3119 33.139 36.3002 32.4235C36.2962 32.2047 36.2832 31.9886 36.2601 31.776C36.2184 31.3919 36.143 31.0199 36.0297 30.6686C36.0188 30.4747 35.9906 30.2771 35.9349 30.0768C35.8755 29.8647 35.7642 29.6144 35.5814 29.3327C35.5371 29.2647 35.4889 29.1946 35.4369 29.1227C35.2343 28.8431 34.9707 28.5341 34.6234 28.2018C34.1553 27.7514 33.5725 27.3921 33.0707 27.1569C32.8847 27.0699 32.7081 26.9971 32.5531 26.9381C32.4322 26.8921 32.3092 26.8474 32.1771 26.8024C31.6747 26.6359 31.0436 26.4291 29.8002 26.1744C29.5199 26.1182 29.2486 26.0691 28.9867 26.025C28.1475 25.8841 27.4154 25.797 26.8295 25.7428C26.437 25.7066 26.1098 25.6844 25.8588 25.6735C25.4291 25.6546 24.9004 25.6413 24.3695 25.6432C24.2462 25.6436 24.1228 25.6442 24.0004 25.6461C23.2156 25.6602 22.4662 25.571 22.017 25.4967C21.8289 25.4666 21.6319 25.4303 21.4203 25.3844C20.8722 25.2636 20.2163 25.0823 19.3968 24.6969C19.3428 24.6714 19.2883 24.6451 19.2328 24.6178C18.3095 24.1565 17.7839 23.7706 17.2718 23.3444C17.0645 23.1691 16.9061 22.9844 16.7504 22.7916C16.5296 22.517 16.3118 22.2276 15.9711 21.8825C15.9392 21.8501 15.9065 21.8165 15.8724 21.7828C15.8215 21.7325 15.7681 21.6813 15.7142 21.6276C15.549 21.4627 15.374 21.278 15.225 21.0661C15.173 20.9922 15.1351 20.9213 15.098 20.8522C15.0572 20.7761 15.0174 20.7012 14.9642 20.6227C14.7655 20.3294 14.5826 20.0366 14.43 19.7711C14.2331 19.429 14.0863 19.1319 14.0082 18.942C13.8703 18.6073 13.7064 18.2483 13.559 17.8766C13.5574 17.8727 13.5556 17.8686 13.5541 17.8649C13.439 17.5739 13.3365 17.2729 13.2631 16.9743C13.0478 16.1243 12.8613 14.9131 12.9203 13.6647C12.9266 13.5145 12.939 13.3722 12.9574 13.2321C12.9951 12.9542 13.046 12.6857 13.1058 12.3707C13.1604 12.0833 13.2224 11.7566 13.2884 11.3493C13.3259 11.1183 13.3289 10.9185 13.3314 10.734C13.3337 10.564 13.3366 10.4061 13.3656 10.2477C13.3912 10.1081 13.4374 10.0233 13.4818 9.943C13.5313 9.85352 13.5781 9.76877 13.5892 9.61976C13.5932 9.56699 13.5918 9.5055 13.5883 9.43617C13.5865 9.40386 13.5825 9.37875 13.5775 9.35316C13.5716 9.3227 13.5644 9.2912 13.556 9.25941C13.5632 9.26109 13.5697 9.26125 13.5746 9.26136C13.6097 9.26247 13.6309 9.16447 13.6351 9.06996C13.6371 9.03233 13.6372 8.9949 13.6381 8.96351C13.6451 8.84671 13.5634 8.63905 13.4466 8.49476C13.4044 8.44033 13.368 8.38495 13.3226 8.32289C13.3169 8.31513 13.311 8.3073 13.305 8.29945C13.2565 8.23556 13.198 8.16549 13.1127 8.09339C13.0642 8.05266 13.0293 8.01791 12.9994 7.98988C12.9777 7.96962 12.9584 7.95224 12.9388 7.94007C12.922 7.92974 12.903 7.93203 12.8822 7.93421C12.8671 7.93581 12.8501 7.93703 12.8324 7.93519C12.7902 7.9306 12.7416 7.91543 12.7093 7.89906C12.6946 7.89148 12.6834 7.88344 12.6722 7.87562C12.6592 7.86649 12.6461 7.85686 12.6263 7.84925C12.535 7.81435 12.4368 7.80618 12.3353 7.80628C12.263 7.80641 12.1882 7.81083 12.1078 7.81312Z" fill="#1A2A4F"/>
<path d="M24.3802 9.35707C24.8163 9.36703 25.2492 9.41414 25.6869 9.50746C25.8197 9.53576 25.956 9.56919 26.0941 9.60804C27.2294 9.92666 28.1059 10.702 28.8861 11.4733C28.9033 11.4902 28.9207 11.507 28.9379 11.5241C29.8982 12.4548 30.7995 13.7019 31.0111 15.1198C31.0817 15.568 31.1064 16.0186 31.0931 16.4616C31.0672 17.4128 30.8527 18.3892 30.4261 19.2584C30.039 20.0559 29.4858 20.752 28.8558 21.318C28.4767 21.6598 28.0603 21.9661 27.6127 22.2194C26.5058 22.8554 25.2101 23.1073 24.0004 23.0182C23.9101 23.0122 23.8205 23.0041 23.7308 22.9948C22.8489 22.9049 21.9819 22.6386 21.2308 22.1989C20.9009 22.007 20.5934 21.7847 20.3099 21.5387C20.0982 21.355 19.8994 21.1583 19.7142 20.9518C19.6889 20.9234 19.6715 20.8892 19.6654 20.8571C19.6594 20.8247 19.6654 20.7965 19.683 20.7789C19.7006 20.7615 19.7282 20.7551 19.7601 20.7604C19.7921 20.7658 19.8261 20.7827 19.8549 20.8063C20.0641 20.9795 20.2826 21.1392 20.5091 21.2828C20.7607 21.4424 21.0222 21.5819 21.2914 21.6989C21.2845 21.8103 21.3066 21.91 21.4027 21.9938C21.4518 22.0365 21.5333 22.0814 21.6029 22.0905C21.6654 22.0986 21.7195 22.0879 21.7699 22.0768C21.8226 22.0651 21.872 22.0531 21.9261 22.0621C22.0181 22.0775 22.1143 22.0642 22.2133 22.0475C22.2493 22.0414 22.2866 22.0348 22.3236 22.0289C22.5934 22.0863 22.8662 22.1229 23.14 22.1403C23.2431 22.1655 23.3401 22.1848 23.4232 22.1881C23.4973 22.191 23.5677 22.175 23.6361 22.152C23.6784 22.1512 23.7209 22.1497 23.7631 22.1481C23.8422 22.1451 23.9211 22.1411 24.0004 22.1354C24.1947 22.1212 24.3871 22.0984 24.5765 22.067C24.7883 22.0744 25.0127 22.0713 25.2963 22.0211C25.4183 21.9993 25.5403 21.9831 25.6576 21.9635C25.8307 21.9347 25.9944 21.8984 26.1234 21.8317C26.2093 21.7873 26.3075 21.7606 26.4056 21.7311C26.5372 21.6917 26.6701 21.6457 26.7591 21.5514C26.815 21.4922 26.8605 21.4302 26.9017 21.3727C26.9671 21.2812 27.0209 21.2006 27.0863 21.153C27.2091 21.0636 27.2957 20.9583 27.3685 20.8649C27.4562 20.7522 27.5257 20.6555 27.6224 20.611C27.637 20.6043 27.6547 20.5966 27.6742 20.5885C27.7467 20.5583 27.8505 20.5133 27.9574 20.4186C28.0028 20.3782 28.0481 20.3293 28.0912 20.2692C28.1422 20.1978 28.1744 20.1166 28.2035 20.0377C28.2464 19.922 28.2829 19.8109 28.3695 19.7291C28.3823 19.717 28.4027 19.7096 28.4213 19.7028C28.445 19.694 28.4659 19.6855 28.4642 19.6705C28.4591 19.6264 28.4617 19.5655 28.4633 19.4996C28.4644 19.4513 28.4647 19.4 28.4613 19.3512C28.6109 19.0968 28.7376 18.8331 28.8392 18.5621C28.8858 18.4381 28.9269 18.3122 28.9633 18.1852C29.0285 18.1361 29.0899 18.0812 29.141 18.0182C29.2075 17.9358 29.2537 17.8151 29.3041 17.6559C29.3411 17.5383 29.381 17.399 29.431 17.235C29.5143 16.9637 29.5225 16.6698 29.5004 16.4616C29.4977 16.4362 29.4949 16.4118 29.4916 16.3893C29.4851 16.3454 29.4776 16.3014 29.4691 16.2545C29.4351 16.0768 29.3955 15.8537 29.2904 15.4537C29.1888 15.0767 29.082 14.7699 28.9886 14.5446C28.9411 14.4299 28.8974 14.3359 28.8597 14.2662C28.7953 14.147 28.713 14.002 28.6224 13.8619C28.4819 13.6426 28.3181 13.4356 28.2133 13.3278C28.1762 13.2895 28.1353 13.25 28.0912 13.2086C27.9769 13.1019 27.8375 12.9778 27.6498 12.8121C27.6352 12.7993 27.62 12.7863 27.6049 12.7731C27.3842 12.5808 27.2545 12.4595 27.1234 12.3258C27.07 12.2719 27.0391 12.2005 27.0062 12.1276C26.9595 12.0241 26.906 11.9146 26.7767 11.8551C26.7468 11.8414 26.7122 11.8311 26.6761 11.8209C26.6095 11.8022 26.5375 11.7839 26.4769 11.7418C26.4558 11.7271 26.4401 11.7075 26.4252 11.6881C26.4087 11.6668 26.3927 11.6452 26.3685 11.6325C26.2787 11.585 26.1874 11.5466 26.1058 11.5143C26.0004 11.4725 25.9101 11.4406 25.8578 11.4118C25.7645 11.3604 25.6493 11.3387 25.5336 11.3209C25.4451 11.3073 25.3557 11.2957 25.2718 11.2741C25.0312 11.2108 24.6838 11.1819 24.3265 11.2106C24.2135 11.2194 24.1166 11.2028 24.0004 11.1793C23.9778 11.1748 23.9541 11.1695 23.93 11.1647C23.8384 11.1465 23.7326 11.1275 23.6019 11.1198C23.5275 11.1155 23.4667 11.1422 23.4115 11.1676C23.361 11.1909 23.3154 11.2137 23.265 11.2106C23.2205 11.2077 23.1881 11.1753 23.1566 11.1452C23.1218 11.1116 23.0877 11.08 23.0424 11.0944C23.0182 11.1022 22.9908 11.1254 22.9593 11.153C22.9469 11.1639 22.9333 11.1754 22.9193 11.1871C22.9187 11.18 22.9182 11.1734 22.9174 11.1686C22.9108 11.1342 22.8599 11.1248 22.8099 11.1168C22.7901 11.1136 22.7702 11.1107 22.7533 11.1061C22.6911 11.0889 22.5837 11.1093 22.5043 11.1325C22.4705 11.1422 22.4361 11.1401 22.3968 11.1383C22.3622 11.1367 22.3223 11.1359 22.2748 11.1432C22.2477 11.1473 22.2245 11.1438 22.2054 11.1412C22.1918 11.1394 22.1801 11.1384 22.1703 11.1403C22.1618 11.1419 22.1583 11.1534 22.1547 11.1666C22.152 11.1762 22.149 11.1871 22.1439 11.195C22.1316 11.2135 22.1115 11.2249 22.0951 11.2262C22.0875 11.2268 22.0804 11.225 22.0736 11.2233C22.0657 11.2213 22.0575 11.2196 22.0482 11.2213C22.0058 11.2293 21.9713 11.255 21.9359 11.2819C21.897 11.3114 21.857 11.3427 21.8031 11.3551C21.7861 11.359 21.7656 11.3593 21.7465 11.36C21.7266 11.3607 21.7075 11.3623 21.6927 11.3668C21.6326 11.3858 21.5898 11.4336 21.5521 11.4782C21.5269 11.5079 21.503 11.5369 21.4769 11.5543C21.4295 11.5863 21.4173 11.6277 21.4086 11.6578C21.4041 11.6732 21.3999 11.6857 21.3929 11.693C21.3846 11.6967 21.3759 11.7012 21.3675 11.7047C21.3593 11.7069 21.3506 11.7089 21.3441 11.7135L21.3431 11.7145C21.2959 11.7332 21.2472 11.7501 21.1996 11.7672C21.0928 11.8055 20.9864 11.8472 20.8978 11.9254C20.8787 11.9423 20.8646 11.9683 20.8509 11.9938C20.8343 12.0249 20.8175 12.0568 20.7904 12.0758C20.7257 12.1212 20.65 12.155 20.5756 12.1901C20.4637 12.2426 20.3534 12.299 20.2953 12.3971C20.2762 12.4294 20.2633 12.4672 20.2504 12.5045C20.2433 12.5251 20.2358 12.5461 20.2279 12.5661C20.2195 12.5515 20.211 12.5387 20.2025 12.527C20.185 12.5027 20.1696 12.4815 20.1683 12.4528C20.1655 12.3845 20.1558 12.297 20.1166 12.2633C20.1059 12.2542 20.0959 12.2415 20.0863 12.2291C20.0622 12.1982 20.0372 12.1669 19.9925 12.1842C19.9619 12.1961 19.8872 12.2291 19.8734 12.2848C19.8705 12.2969 19.8753 12.3107 19.8802 12.3258C19.8826 12.3331 19.8852 12.3412 19.8871 12.3493C19.8923 12.3713 19.8929 12.3961 19.8734 12.4235C19.8689 12.4298 19.8631 12.4371 19.8578 12.444C19.8366 12.4714 19.8137 12.5023 19.8187 12.527C19.8247 12.5554 19.8474 12.5715 19.8734 12.5905C19.9073 12.6152 19.9464 12.6457 19.9662 12.7116C19.9699 12.7245 19.9647 12.7366 19.9603 12.7457C19.9572 12.7522 19.9552 12.7576 19.9574 12.7604C19.9603 12.7635 19.9676 12.7681 19.9769 12.7731C20.0115 12.7916 20.0708 12.8244 20.0258 12.8776C20.0135 12.8919 19.9968 12.9061 19.9818 12.9186C19.9599 12.9368 19.9413 12.952 19.9466 12.9616C19.9489 12.9651 19.9525 12.9688 19.9554 12.9723C19.9396 12.9883 19.9233 13.0048 19.9076 13.0211C19.8788 13.0349 19.853 13.0668 19.8216 13.1071C19.8142 13.1167 19.8064 13.1269 19.7982 13.1373C19.7681 13.1702 19.7378 13.2043 19.7084 13.2379C19.6825 13.2624 19.6525 13.2866 19.6175 13.3102C19.5476 13.3572 19.4693 13.3874 19.3929 13.4186C19.3606 13.4318 19.328 13.4455 19.2972 13.4606C19.3017 13.4499 19.3054 13.4398 19.307 13.4313C19.3175 13.3725 19.2918 13.3273 19.2679 13.2858C19.2521 13.2582 19.2375 13.2316 19.2357 13.2037C19.2324 13.153 19.1995 13.1343 19.1752 13.1207C19.1626 13.1137 19.1524 13.1077 19.1498 13.0993C19.1478 13.0925 19.1518 13.0828 19.1556 13.0729C19.159 13.0642 19.1625 13.055 19.1625 13.0475C19.1613 12.9561 19.1226 12.9546 19.0658 12.9537C19.0346 12.9532 18.9979 12.9528 18.9593 12.9371C18.9195 12.9189 18.9106 12.9084 18.9203 12.8659C18.8847 12.8786 18.8485 12.8922 18.8129 12.9059C18.807 12.9169 18.813 12.9324 18.8236 12.9557C18.8424 12.9976 18.8115 13.0689 18.7884 13.1246C18.7778 13.1503 18.7682 13.1726 18.766 13.1871C18.7575 13.2454 18.7833 13.2633 18.8148 13.2711L18.8793 13.2828C18.889 13.2858 18.897 13.2903 18.9017 13.2975C18.9057 13.3035 18.9134 13.3034 18.9213 13.3034C18.9274 13.3033 18.9342 13.3035 18.9388 13.3063C18.972 13.3269 18.9745 13.3768 18.9779 13.4225C18.9798 13.4487 18.982 13.4742 18.9896 13.4918C18.9919 13.4971 18.9948 13.502 18.9974 13.5065C19.0013 13.5131 19.0053 13.5194 19.0072 13.527C19.0115 13.5445 19.0057 13.5718 18.9994 13.6012C18.9961 13.6163 18.9926 13.6326 18.9906 13.6481C18.9882 13.6679 18.9976 13.6819 19.0082 13.6959C19.0157 13.7059 19.0239 13.7161 19.0277 13.7291C19.0344 13.7528 19.0231 13.7861 19.0131 13.817C19.0086 13.8306 19.0048 13.8445 19.0023 13.8561C19.0014 13.8606 19.0023 13.8638 19.0052 13.8659C18.9914 13.9182 18.9796 13.9691 18.9691 14.0182C18.9175 14.2651 18.8865 14.4719 18.7543 14.7545C18.7295 14.8082 18.713 14.8693 18.7015 14.9323C18.6319 15.1247 18.5722 15.3228 18.5238 15.525C18.4825 15.56 18.4453 15.6069 18.4144 15.6637C18.3565 15.7711 18.3353 15.8879 18.3148 16.027C18.2997 16.1294 18.2844 16.2445 18.2582 16.3795C18.2529 16.4065 18.2482 16.4341 18.2435 16.4616C18.2087 16.6646 18.1881 16.8784 18.1957 17.1139C18.2033 17.3799 18.2438 17.6829 18.2904 17.8932C18.3152 18.008 18.3174 18.1357 18.3236 18.2555C18.3319 18.4235 18.3491 18.577 18.432 18.6412C18.4585 18.6617 18.4966 18.6764 18.5336 18.6901C18.5599 18.6998 18.5859 18.7095 18.6068 18.7203C18.6212 18.7666 18.6361 18.813 18.6517 18.859C18.6541 18.9519 18.6789 19.0927 18.7758 19.1891C18.795 19.2357 18.8147 19.2821 18.8343 19.3268C18.8777 19.4243 18.9227 19.5192 18.9711 19.6139C18.9868 19.6448 19.0033 19.6766 19.0199 19.7077L19.0209 19.7086C19.0542 19.7711 19.0892 19.8333 19.1244 19.8942C19.1395 19.9203 19.1547 19.9473 19.1703 19.9733C19.2096 20.039 19.2511 20.1048 19.2924 20.1686C19.3142 20.2024 19.3369 20.2373 19.3597 20.2711C19.3969 20.3262 19.4359 20.3819 19.475 20.4362C19.5386 20.5244 19.6039 20.6108 19.6713 20.6959C19.6823 20.7099 19.6903 20.7265 19.6927 20.7418C19.695 20.7569 19.6921 20.7698 19.684 20.778C19.6756 20.7862 19.6622 20.7894 19.6468 20.7868C19.6317 20.7841 19.6157 20.7756 19.6019 20.7643C19.5172 20.6939 19.433 20.621 19.3509 20.5455C19.3007 20.4994 19.2503 20.4517 19.2015 20.4039C19.1714 20.3744 19.1411 20.344 19.1117 20.3141C19.0564 20.2578 19.0005 20.1988 18.9466 20.1393C18.9254 20.1158 18.9041 20.0918 18.8832 20.068C18.8342 20.0123 18.7851 19.9545 18.7377 19.8961C18.7144 19.8675 18.6908 19.8378 18.6683 19.8092C18.5986 19.7201 18.5315 19.6294 18.4662 19.5348C18.4322 19.486 18.3981 19.4343 18.3646 19.3825C18.3461 19.3537 18.3277 19.325 18.3099 19.2965C18.3003 19.2809 18.2903 19.2647 18.2806 19.2487C18.0567 18.8802 17.874 18.4848 17.7357 18.068C17.5976 17.6526 17.5051 17.2188 17.4545 16.7819C17.4421 16.6757 17.4318 16.5687 17.4242 16.4616C17.4006 16.1285 17.4003 15.7913 17.4261 15.4528C17.5179 14.0512 18.1567 12.6452 19.1293 11.5905C20.1067 10.483 21.55 9.65477 23.0824 9.4391C23.3849 9.39278 23.6943 9.36633 24.0004 9.35804C24.1273 9.3546 24.2541 9.35426 24.3802 9.35707Z" fill="#1A2A4F"/>
</g>
<defs>
<clipPath id="clip0_33_2522">
<rect width="48" height="48" fill="white"/>
</clipPath>
</defs>
</svg>
