<svg width="48" height="48" viewBox="0 0 48 48" fill="none" xmlns="http://www.w3.org/2000/svg">
<g clip-path="url(#clip0_33_2520)">
<path d="M2.26562 20.4146C2.16519 20.135 2.30744 20.3583 2.53613 20.6636C2.76207 20.9729 3.11349 21.334 3.25 21.4712C3.55882 21.7756 3.27132 21.5988 2.93457 21.2749C2.59254 20.9544 2.2753 20.4502 2.26562 20.4146Z" fill="#C3DDEB"/>
<path fill-rule="evenodd" clip-rule="evenodd" d="M21.2148 3.07666C16.7785 4.31241 21.2556 2.96782 22.5264 3.28369C22.7315 3.3629 22.8464 2.85511 25.0654 3.75635C25.1502 3.7871 25.2505 3.83728 25.3691 3.91455C25.7436 4.15843 25.1746 4.38105 25.9385 4.50928C25.5707 3.97082 26.0626 4.24083 26.4668 4.43115C26.5375 4.46453 27.0715 4.78484 27.3232 4.89502C27.4096 4.93252 27.6122 4.84812 27.7256 4.8999C27.8033 4.93585 27.8207 5.04635 27.9365 5.09912C28.4768 5.34638 29.0022 5.60154 29.5205 5.89502C29.0199 6.12106 29.6831 6.17974 29.6992 6.21045C29.7734 6.37697 29.1867 6.12027 29.3809 6.29834C29.7034 6.44485 30.0261 6.59129 30.3486 6.73779C30.1132 6.5612 30.8545 6.5886 30.9033 6.76904C31.0234 6.40795 32.2007 7.78447 32.4844 7.78564C32.5423 7.78422 32.3181 7.46535 32.9971 7.8999C33.0706 7.94723 32.991 8.03426 33.0361 8.04541C33.0634 8.05193 33.3731 7.80245 33.4414 8.06006C33.4659 8.15401 32.9924 8.1825 33.8438 8.50146C33.6862 8.01113 35.0548 8.88371 35.2793 9.09912C35.2484 9.02848 35.2174 8.95785 35.1865 8.88721C35.3893 9.13746 35.4927 9.04985 35.5488 9.08545C35.7749 9.22916 36.0463 9.50515 36.2734 9.60596C36.5393 9.72406 36.6431 9.52035 36.9062 9.75146C36.857 9.67034 36.8071 9.58845 36.7578 9.50732C36.9615 9.62277 37.1654 9.73856 37.3691 9.854C36.7516 9.88269 37.4628 9.91943 37.5088 9.93311C37.5756 9.95418 37.432 10.0201 37.542 10.0581C37.5538 10.0612 37.5908 9.9494 37.7559 10.0171C38.1013 10.1596 37.9834 10.265 38.124 10.3335C38.1372 10.339 38.14 10.2223 38.3926 10.3208C39.1955 10.6337 38.3538 10.3923 38.3164 10.3901C38.2692 10.3884 38.3357 10.9124 37.7529 10.4468C37.949 10.6001 37.8855 10.7842 37.9072 10.8022C37.9273 10.8167 38.3193 10.9821 38.3438 10.9868C38.5593 11.0207 38.4551 10.8202 38.502 10.8169C38.5413 10.8157 38.9203 11.1977 39.2061 10.894C39.2599 11.3335 38.9304 11.1313 38.5381 10.9985C38.4512 11.0394 38.8178 11.3045 38.8418 11.3169C39.3617 11.5761 39.2104 11.1615 39.4102 11.0444C39.5153 10.9835 39.6354 11.2744 39.5615 10.9331C40.0442 11.1425 39.6915 11.1415 39.709 11.1772C39.7396 11.2309 39.9399 11.2445 39.9561 11.2642C39.9779 11.293 39.8323 11.3245 39.9365 11.4136C39.9542 11.4278 40.2191 11.3794 40.0059 11.186C40.3273 11.3724 40.3616 11.2351 40.3496 11.5405C40.6402 11.3171 40.5776 11.5146 40.5088 11.7114C40.541 11.8665 40.5571 12.0126 40.7461 12.1333C41.2458 12.4917 41.5354 12.6424 41.707 12.6929C41.7167 12.669 41.7277 12.6453 41.7373 12.6216C41.7456 12.6307 41.7545 12.6398 41.7627 12.6489C41.753 12.6656 41.7422 12.6819 41.7324 12.6987C41.7364 12.6997 41.7403 12.7008 41.7441 12.7017C41.797 12.6528 41.8004 12.6756 41.7939 12.7104C41.9827 12.7328 41.9591 12.5859 42.0098 12.5933C42.0918 12.6346 42.2406 12.7521 42.4268 12.9292C42.4276 12.9275 42.4289 12.926 42.4297 12.9243C42.4296 12.9282 42.4321 12.9315 42.4326 12.9351C42.4521 12.9536 42.472 12.9728 42.4922 12.9927C42.5765 13.0292 42.7154 13.0378 42.7031 13.0933C42.7008 13.1009 42.679 13.1343 42.6602 13.1636C42.6875 13.1929 42.7141 13.2242 42.7422 13.2554C42.7953 13.1605 42.7024 13.1482 42.6885 13.1401C42.8309 13.0154 42.8376 13.2501 42.9629 13.1851C42.9455 13.2795 42.8766 13.3095 42.8457 13.3706C42.8564 13.3831 42.8681 13.395 42.8789 13.4077C42.9015 13.3501 42.9256 13.283 42.9297 13.2769C42.9649 13.2288 42.9242 13.3585 42.9053 13.4399C42.9124 13.4484 42.9197 13.4568 42.9268 13.4653C42.9414 13.4409 42.9634 13.4028 42.9922 13.3452C42.9857 13.4214 42.9511 13.4704 43.0146 13.4331C43.0245 13.4015 43.035 13.3699 43.0449 13.3384C43.1483 13.1953 43.0926 13.4094 43.0322 13.5962C43.0712 13.6456 43.1104 13.6962 43.1494 13.7485C43.1689 13.7176 43.2007 13.6536 43.2139 13.645L43.2334 13.6382C43.262 13.6389 43.2326 13.7202 43.1895 13.8022C43.2293 13.8568 43.2691 13.9128 43.3086 13.9702C43.3717 13.9089 43.3956 13.8968 43.4131 13.7388C43.526 13.7524 43.4037 13.8994 43.3994 13.9165C43.3965 13.9338 43.4396 13.8852 43.4336 13.9048C43.4108 13.9788 43.3892 14.0308 43.373 14.0679C43.4825 14.2332 43.5888 14.409 43.6875 14.5942C43.7067 14.5652 43.7234 14.5568 43.7314 14.5679C44.0539 16.1091 47.6319 17.904 46.3975 18.8813C46.392 18.8908 46.373 18.8996 46.3408 18.9019C46.3208 18.8965 46.3182 18.889 46.3213 18.8813C47.3622 18.0572 44.9277 16.6417 44.0088 15.2993C44.0597 15.4252 44.1079 15.5512 44.1494 15.6782C45.1494 16.8961 47.1241 18.1374 46.1846 18.8813C46.163 18.8972 46.1158 18.9107 46.0283 18.9224C46.4142 18.9196 45.8384 19.0122 45.835 19.0542C45.8342 19.0871 46.089 19.1345 46.2441 19.0903C46.2266 19.147 46.2978 19.2071 46.3213 19.2603C46.3227 19.2685 46.2115 19.2571 46.2217 19.272C46.2266 19.2733 46.3335 19.2752 46.3467 19.2876C46.4439 19.3938 46.2066 19.3429 46.1367 19.3628C46.0979 19.3739 46.0788 19.3822 46.0723 19.3882C46.0505 19.3264 46.0064 19.2544 46.0029 19.2349C45.7557 19.2512 46.0499 19.3722 45.9834 19.4077C45.9766 19.4087 45.8447 19.4055 45.8438 19.4067C45.835 19.4216 45.8864 19.504 46.0469 19.4868C46.0897 19.4819 46.0898 19.4429 46.0752 19.397C46.1064 19.4093 46.2582 19.4006 46.2646 19.4028C46.3394 19.4297 46.191 19.4948 46.1709 19.5181C46.1692 19.5232 46.2644 19.5231 46.2646 19.5239C46.2418 19.545 45.9636 19.5364 46.251 19.5581C45.9033 19.5964 46.1991 19.486 45.9736 19.4937C45.7996 19.4996 45.8928 19.7444 46.167 19.7437C46.1377 19.7445 46.101 19.7485 46.0596 19.7554C45.9682 19.7708 45.9966 19.8381 46.0469 19.8501C46.0584 19.8521 46.3237 19.8516 46.3262 19.854C46.3245 19.8628 46.1264 19.9436 46.2803 19.9741C46.3176 19.9573 46.3553 19.9411 46.3926 19.9243C46.3951 20.0251 46.4743 20.0098 46.5537 19.9761C46.5546 19.9745 46.5639 19.9727 46.5654 19.9712C46.6243 19.945 46.6812 19.9112 46.7021 19.9106C46.7819 19.9093 46.826 20.0801 46.5801 20.0474C46.5463 20.0428 46.6556 19.964 46.4795 20.0034C46.4491 20.0105 46.4988 20.0612 46.4795 20.064C46.3505 20.0818 46.1793 19.9705 45.9961 19.9839C46.1697 20.0109 46.0785 20.0457 46.123 20.0767C46.1435 20.0904 46.2718 20.0944 46.2793 20.0962C46.313 20.1217 46.1785 20.1078 46.1777 20.1157C46.1854 20.1212 46.474 20.1722 46.0674 20.1626C46.3689 20.3316 46.3697 20.2087 46.3467 20.105C46.4957 20.1378 46.4233 20.2031 46.458 20.2319C46.4721 20.242 46.6072 20.2362 46.6348 20.2534C46.6907 20.2896 46.5341 20.4616 46.4971 20.5063C46.449 20.479 46.3011 20.4864 46.3096 20.5073C46.3212 20.5282 46.5197 20.511 46.541 20.5151C46.5617 20.5207 46.4695 20.6198 46.4951 20.6362C46.423 20.5613 46.2736 20.5776 46.2578 20.6411C46.2152 20.632 46.1725 20.6229 46.1299 20.6138C46.1891 20.6511 45.9632 20.7299 46.0303 20.7515C46.0419 20.7547 46.1668 20.7427 46.1729 20.7446C46.2245 20.7638 46.0986 20.8274 46.1406 20.8306C46.1762 20.8331 46.2814 20.8057 46.333 20.8159C46.3285 20.82 46.1768 20.8458 46.2158 20.8706C46.2316 20.88 46.3475 20.8742 46.3564 20.8765C46.4129 20.8967 46.2141 20.8853 46.2461 20.9224C46.2705 20.9495 46.4648 20.9698 46.4004 21.0073C46.6484 20.8841 46.5453 20.9869 46.6201 21.0386C46.6337 21.0467 46.8463 21.0402 46.7422 21.0894C46.3554 20.9847 46.5361 21.1187 46.5332 21.147C46.5302 21.1485 46.3915 21.1494 46.3877 21.1626C46.3914 21.1636 46.484 21.1629 46.4912 21.1753C46.5596 21.2937 46.4516 21.2181 46.3574 21.2407C46.3175 21.2504 46.4514 21.3077 46.4561 21.3237C46.4535 21.3271 46.3565 21.3266 46.3604 21.3403C46.3688 21.3647 46.4741 21.3867 46.4824 21.4028C46.4794 21.4047 46.3266 21.4056 46.377 21.436C46.3921 21.4446 46.4468 21.4539 46.4912 21.4419C46.6396 21.4011 46.3833 21.324 46.5312 21.2778C46.6643 21.2364 46.6786 21.3643 46.6797 21.3745C46.6776 21.3761 46.6026 21.3522 46.5869 21.3774C46.5755 21.3999 46.8448 21.4417 46.7861 21.4751C46.7805 21.4778 46.5523 21.5036 46.5381 21.5024C46.5275 21.5005 46.4778 21.4604 46.4121 21.4663C46.4046 21.4671 46.4058 21.4932 46.3564 21.4966C46.2955 21.5007 45.7107 21.5125 45.6904 21.5181C45.6545 21.5321 45.7841 21.5232 45.7793 21.5317C45.7591 21.5517 45.5847 21.6213 45.7891 21.6235C45.8012 21.6122 45.814 21.6007 45.8262 21.5894C45.8476 21.6518 45.9343 21.6253 45.9727 21.6343C46.0135 21.6439 45.8349 21.6414 45.8174 21.6626C45.8145 21.6689 45.8519 21.756 45.9268 21.7544C45.8067 21.7052 46.0282 21.7234 46.0332 21.7212C46.0451 21.7126 45.9241 21.7014 45.9248 21.6899C45.9446 21.6087 46.1417 21.6906 46.1924 21.6714C46.2084 21.665 46.1119 21.6524 46.1084 21.6489C46.1264 21.6399 46.2636 21.6393 46.2539 21.6333C46.2264 21.6196 46.0346 21.636 46.0205 21.6353C45.8969 21.6225 46.0506 21.572 46.2656 21.603C46.3422 21.5845 46.0822 21.5826 46.1865 21.5679C46.3927 21.5387 46.3399 21.5823 46.374 21.5942C46.4977 21.637 46.3973 21.65 46.4316 21.7104C46.4445 21.7322 46.5712 21.758 46.5781 21.7681C46.5718 21.7757 46.1494 21.8347 46.832 21.8364C46.7652 21.8598 46.3112 21.8963 46.3301 21.9204C46.3502 21.9418 46.5941 21.935 46.6035 21.937C46.618 21.9403 46.5994 21.9663 46.6338 21.9751C46.6747 21.9853 46.7676 21.9803 46.8057 21.9966C46.8989 22.0371 46.6548 22.0364 46.6348 22.0405C46.4475 22.0893 46.8008 22.0689 46.8301 22.0796C46.8556 22.0901 46.7202 22.2304 46.8096 22.2603C46.7598 22.2482 46.7099 22.2362 46.6602 22.2241C46.5045 22.2458 46.7576 22.2686 46.4785 22.269C46.9273 22.2734 46.6306 22.3179 46.6396 22.3315C46.6457 22.3367 46.7213 22.3367 46.7246 22.3433C46.7375 22.3692 46.6778 22.4267 46.7158 22.4409C46.8833 22.5014 47.1621 22.3471 47.1797 22.3345C47.1754 22.3596 47.2762 22.4975 47.4922 22.4341C47.5252 22.4244 47.3289 22.4066 47.3164 22.4009C47.2645 22.3635 47.4445 22.393 47.4619 22.3901C47.4896 22.3851 47.3152 22.3605 47.3359 22.354C47.3446 22.3521 47.5048 22.3653 47.5098 22.3306C47.6679 22.3482 47.5389 22.4483 47.5762 22.4614C47.5917 22.4659 47.9271 22.4366 47.5996 22.522C47.6308 22.521 47.6621 22.52 47.6934 22.519C47.7063 22.5667 47.7195 22.6149 47.7324 22.6626C47.6599 22.6574 47.5142 22.6309 47.5449 22.6646C47.5635 22.6838 47.7248 22.6696 47.7295 22.6714C47.7733 22.6902 47.7204 22.9972 47.7383 23.0571C47.7451 23.0777 47.8736 23.1348 47.876 23.1392C47.8876 23.1657 47.805 23.2567 47.8232 23.2749C47.8378 23.2856 47.9701 23.2756 47.9639 23.2856C47.9562 23.2948 47.8267 23.2848 47.8213 23.2876C47.7744 23.3111 47.9449 23.4876 47.8223 23.5298C47.8577 23.5037 47.5991 23.3763 47.5068 23.3784C47.4942 23.379 47.3949 23.4101 47.4434 23.4165C47.3304 23.4271 47.6737 23.464 47.6064 23.4839C47.5987 23.4861 47.4061 23.4778 47.3711 23.5132C47.3605 23.5255 47.5084 23.5574 47.3408 23.5894C47.4203 23.6366 47.172 23.8802 47.3789 23.897C47.3908 23.8968 47.4617 23.8633 47.5459 23.8862C47.6585 23.9171 47.2783 23.8893 47.2451 23.9253C47.2408 23.9321 47.2793 24.0314 47.3027 24.0347C47.5163 24.0649 47.6031 23.9778 47.6279 23.979C47.6897 23.9822 47.7274 24.0528 47.7139 24.0571C47.6985 24.0599 47.415 24.0013 47.5225 24.0728C47.5563 24.0646 47.5902 24.0555 47.624 24.0474C47.6895 24.0809 47.4934 24.0842 47.4814 24.0923C47.4444 24.1175 47.7411 24.1456 47.374 24.186C47.2766 24.1967 47.1682 24.1789 47.1533 24.1802C47.022 24.193 47.3732 24.2097 47.1113 24.229C47.0918 24.2305 46.935 24.1854 46.9346 24.2642C46.9596 24.2588 46.9847 24.253 47.0098 24.2476C47.0656 24.2588 47.0989 24.3381 47.0859 24.3491C47.0471 24.3803 46.8676 24.353 46.8887 24.3843C47.1354 24.3642 47.1675 24.46 46.9551 24.4546C47.2213 24.468 47.0171 24.549 47.0098 24.5874C47.0067 24.6116 47.122 24.6608 47.1084 24.6685C47.0898 24.6776 46.9095 24.6751 46.8691 24.6919C46.8581 24.6968 46.9911 24.7475 46.8027 24.7915C46.7664 24.8 46.4576 24.8171 46.3799 24.8013C46.2476 24.7741 46.4961 24.7235 46.3135 24.7241C46.1189 24.725 46.2338 24.7932 46.209 24.812C46.091 24.8979 45.8834 24.8489 45.8203 24.8511C45.6675 24.8568 45.6719 24.9037 45.6582 24.9058C45.5971 24.9138 45.476 24.8809 45.3828 24.8804C45.2614 24.8798 45.0422 24.9247 45.001 24.9146C44.9443 24.8998 45.1231 24.8582 45.1172 24.855C44.9993 24.8207 44.719 24.8683 44.5811 24.8813C44.5386 24.8853 44.4685 24.8693 44.4561 24.8726C44.2677 24.9223 44.8505 24.8834 44.8115 24.9165C44.7761 24.9455 44.5926 24.9077 44.582 24.9087C44.571 24.9108 44.5606 24.9461 44.4961 24.9517C44.4634 24.9544 44.1042 24.8619 43.9434 24.8657C43.9787 24.8949 44.0145 24.9244 44.0498 24.9536C43.8407 24.9559 43.9936 24.9142 43.9727 24.9097C43.9291 24.9011 43.823 24.9253 43.7568 24.9243C43.7142 24.9236 43.565 24.8957 43.5029 24.9214C43.4817 24.9303 43.6277 24.9485 43.4775 24.981C43.2859 24.8682 43.168 24.9463 43.0938 24.9497C43.0194 24.9529 42.8451 24.8989 42.876 24.9644C42.4681 24.9672 42.746 24.9634 42.6748 24.9448C42.5867 24.922 42.4529 24.9744 42.5547 24.8911C42.3636 24.8959 42.3766 24.9627 42.3613 24.9663C42.3472 24.9693 42.2535 24.9542 42.2217 24.9595C41.8525 25.0223 42.0209 24.9794 41.7852 24.9976C41.7638 24.9995 41.6769 25.0579 41.6426 25.0132C41.5806 24.931 41.8503 24.8971 41.2725 24.8833C41.0227 24.9438 41.3891 25.0165 41.4004 25.0356C41.4087 25.0635 41.2922 25.0353 41.2588 25.0386C41.2481 25.0398 41.2573 25.0645 41.248 25.0649C40.8073 25.0823 41.2393 24.9564 41.1641 24.9165C41.098 24.9271 41.0319 24.9371 40.9658 24.9478C40.9632 24.9335 40.9606 24.919 40.958 24.9048C40.8252 24.9735 40.9072 24.9073 40.5498 24.8901C40.4697 24.8863 40.6068 24.9309 40.3838 24.8794C40.3323 24.9173 40.2596 24.9055 40.3604 24.9399C40.2171 24.9391 40.055 24.8621 39.9814 24.8315C39.8218 24.9391 40.3462 24.878 40.0684 24.9712C40.2453 24.9884 40.2112 24.9443 40.2402 24.9478C40.3454 24.9608 40.179 24.991 40.5479 25.0278C40.6087 25.0337 40.7928 25.0085 40.7852 25.0454C40.7811 25.0499 40.6253 25.074 40.6133 25.0737C40.4888 25.0706 40.5351 25.0464 40.4834 25.0454C40.4345 25.0445 40.4631 25.0713 40.4502 25.0718C40.2939 25.0726 40.3897 25.0489 40.3408 25.0522C40.234 25.0596 39.8989 25.1545 39.9971 25.0308C40.1732 25.1334 40.1691 25.0446 40.1016 25.0044C40.0846 24.9942 39.9916 24.9906 39.959 24.9761C39.9171 24.9574 39.961 24.936 39.9443 24.9263C39.9252 24.9159 39.7052 24.9746 39.7705 24.8892C39.5512 24.9328 39.785 25.0103 39.6309 25.0532C39.5557 25.0741 39.4949 25.0799 39.4453 25.0786C39.3918 25.1253 39.3741 25.1051 39.3623 25.0669C39.3174 25.0543 39.288 25.0337 39.2666 25.0151C39.2483 25.105 39.2912 25.3599 38.9688 25.356L38.9678 25.3569C38.8629 25.3556 38.9224 25.2368 38.8945 25.2192C38.8891 25.2157 38.8137 25.2089 38.7559 25.1909C38.7584 25.6978 38.7612 26.2047 38.7637 26.7114C39.015 26.699 38.8252 26.0925 38.8584 26.0786C39.0549 25.9978 39.0519 27.0229 38.9629 27.1489C39.0174 27.0534 39.0715 26.9573 39.126 26.8618C39.4155 27.025 39.039 27.3867 39.167 27.6226C39.2086 27.6975 39.3199 27.553 39.3281 27.5552C39.4403 27.6408 39.354 27.7775 39.2031 27.6753C39.3476 27.884 39.188 27.8542 39.1758 28.0142C39.1785 28.0202 39.2929 27.9558 39.3408 28.0806C39.3633 28.1407 39.3639 28.4576 39.4658 28.5005C39.5103 28.5173 39.9618 28.3563 39.5723 28.3364C39.7623 27.9917 39.3948 28.2259 39.4033 28.0923C39.4063 28.0721 39.6235 28.1181 39.5215 27.7817C39.9136 27.8464 39.6204 28.2346 39.668 28.3013C39.7659 28.4377 39.968 27.8721 39.6621 27.7681C39.9683 27.8165 39.7037 27.7281 39.7158 27.6021C39.7295 27.464 39.8206 27.5231 39.8213 27.4487C39.8232 27.2448 39.6077 27.3291 39.8027 27.1606C39.1984 27.325 39.7225 26.8718 39.8809 26.7397C39.9115 26.9544 39.943 27.1696 39.9736 27.3843C40.0051 27.3721 40.0369 27.3603 40.0684 27.3481C40.0639 27.4044 40.0592 27.4608 40.0547 27.5171C40.0246 27.5081 39.994 27.4997 39.9639 27.4907C40.1609 27.782 39.939 27.8537 39.9365 27.8774C39.9108 28.1834 39.9128 28.5369 39.9121 28.8462C39.9127 28.8923 40.1096 28.8618 39.9551 29.1997C39.9057 29.3075 39.7523 29.2062 39.7754 29.3286C40.1921 29.4814 39.8604 29.4785 39.8594 29.5239C39.8596 29.6544 39.9627 29.7345 39.9639 29.7466C39.98 29.908 39.9631 30.1446 39.9785 30.3218C39.9878 30.3193 40.1071 30.2367 40.0703 30.3481C40.068 30.3543 40.0539 30.368 40.0322 30.3872C39.9117 30.6791 39.5088 31.3911 39.5273 32.062C39.6022 31.8684 39.6708 31.6708 39.7324 31.4702C39.6963 31.7084 39.4028 33.3941 39.6436 33.0337C39.8128 32.8022 39.6062 32.109 39.9473 32.104C39.8482 32.3838 39.6497 33.3185 39.2842 34.1558C38.934 34.9983 38.4394 35.7245 38.333 35.8022C38.3043 35.8236 38.3361 35.5867 38.2969 35.6177C38.2724 35.6461 37.8521 36.2398 37.751 36.2817C37.6959 36.3092 37.8467 36.0219 37.7988 36.0161C37.7669 36.0268 37.1447 36.6529 37.1973 36.7798C37.3177 36.5893 37.7625 36.1551 37.6338 36.4771C37.616 36.5193 37.4021 36.6197 37.3799 36.6685C37.1756 37.1388 38.1239 36.0526 38.2334 35.855C37.845 36.7094 36.6764 37.5641 35.8477 38.2085C35.4318 38.3417 36.2705 37.7167 35.8223 37.9009C34.9024 38.2488 35.6773 38.1782 35.6709 38.2046C35.5379 38.4122 34.7589 38.3242 34.6846 38.5503C34.6872 38.5806 34.7008 38.6238 34.7285 38.6821C34.5712 38.6779 34.5858 38.6038 34.4336 38.7446C34.4711 38.7631 34.5094 38.7819 34.5469 38.8003C34.4659 39.1416 33.7507 38.7172 33.7578 38.6538C33.7822 38.487 34.093 38.5808 34.1113 38.5679C34.1356 38.5477 34.0062 38.0774 34.4932 38.3218C34.4789 37.9718 33.9203 38.3526 34.1006 38.0239C33.9305 38.1446 33.0707 38.3049 33.0215 38.4849C33.0202 38.5121 33.2125 38.7676 32.957 38.7104C32.8343 38.6827 33.0472 38.5765 32.9756 38.5298C32.7523 38.3877 31.1012 39.33 30.7803 39.4956C30.7594 39.5059 30.7245 39.4134 30.7041 39.4233C30.6416 39.4561 30.4727 39.7002 30.3389 39.7134C30.6537 39.7678 30.2009 39.9994 30.0752 40.0366C29.885 40.0926 29.82 39.9287 29.7275 39.9312C29.3708 39.9419 29.0915 40.5347 28.6953 40.2925C28.8731 40.6351 28.2171 40.3098 28.0293 40.395C27.8823 40.4618 27.7806 40.793 28.0439 40.8403C27.7845 40.9438 27.5504 41.1357 27.3242 41.269C27.2871 41.2906 27.2914 41.1622 27.2295 41.2026C27.2243 41.2073 27.2636 41.3123 27.2119 41.3501C26.7824 41.6618 26.9081 41.3404 26.791 41.3179C26.7249 41.306 26.679 41.3051 26.6494 41.312C26.915 41.1617 27.2139 40.9717 27.2979 40.9282C27.1195 40.7394 26.7087 41.2594 26.5225 41.2749C26.516 41.2753 26.4765 41.1466 26.4697 41.145C26.406 41.1638 26.0528 41.3875 26.1992 41.4976C26.2391 41.5264 26.4119 41.445 26.6104 41.3345C26.5683 41.3885 26.675 41.5066 26.668 41.5171C26.5814 41.6415 26.2263 41.6454 26.1143 41.6763C26.0894 41.684 26.1322 41.7702 26.1289 41.7729C26.0255 41.7975 25.9446 41.5271 25.9717 41.8325C25.6524 41.599 26.2674 41.6343 26.1367 41.4468C26.0659 41.3459 25.5335 41.6086 25.2607 41.8599C24.9748 42.0481 24.7687 42.1952 24.8008 42.272C24.7813 42.248 24.7333 42.2275 24.6475 42.2153C24.4594 42.1974 23.7571 42.4344 23.6377 42.5044C23.6187 42.5189 23.6853 42.7744 23.6592 42.7847C23.5873 42.8185 22.6353 42.7685 22.2959 42.9282C22.4881 42.9549 22.6828 42.9747 22.8789 42.9878C21.7205 43.0993 21.8915 43.1275 22.292 43.2017C22.3116 43.2014 22.3318 43.2104 22.3506 43.2104C22.6599 43.2532 23.0634 43.2551 23.0742 43.2739C23.1144 43.406 21.0385 43.4991 21.4502 43.2319C21.5085 43.213 22.4384 43.3062 21.9746 43.1392C21.8945 43.1153 21.3026 43.1477 21.2695 43.1216C21.0792 42.9965 22.3458 42.8438 22.1787 42.6489C21.887 42.8371 21.4957 42.7407 21.1504 42.7554C20.9927 42.762 20.9381 42.8879 20.918 42.8892C20.6203 42.8884 20.8021 42.7696 20.7051 42.7603C20.6546 42.7624 20.0258 42.9461 20.2158 42.564C18.3155 42.352 19.6075 42.81 20.8037 42.9429C20.409 43.0527 19.6878 42.8214 19.3623 42.7495C19.2437 42.7256 19.2706 42.8795 19.0654 42.8403C18.9052 42.8091 18.5334 42.6666 18.1318 42.4507C17.8686 42.286 17.5578 42.0623 17.4443 41.9829C17.5868 41.997 17.6149 41.8456 17.5166 41.8101C17.4188 41.7757 17.4119 41.9898 17.3848 42.0024C17.3556 42.0131 16.9546 41.7199 16.8691 41.7075C17.2323 41.8001 17.2207 41.63 16.9453 41.4819C17.0044 41.4627 17.064 41.4436 17.123 41.4243C16.9318 41.3999 16.6813 41.0302 16.5566 41.0454C16.5371 41.0481 16.5371 41.1844 16.5264 41.188C16.4199 41.1961 16.1899 40.9465 16.1572 40.9771C16.1308 41.0039 16.2068 41.1569 16.1396 41.1821C16.1252 41.1844 16.0796 40.9789 15.9473 40.9614C15.8982 40.9551 15.8732 41.0723 15.8594 41.0747C15.7449 41.0833 15.8831 40.9287 15.7051 40.8794C15.5743 40.8435 15.4007 40.9764 15.2617 40.8394C15.7022 41.3231 15.2865 41.012 15.0254 40.9712C14.9836 40.966 14.9225 41.1722 14.749 40.9751C15.3814 40.8459 14.7045 40.7257 14.583 40.6636C14.5796 40.6542 14.6336 40.5307 14.5762 40.5005C14.571 40.4982 14.5373 40.5873 14.4785 40.5679C13.9197 40.379 14.3027 40.4412 14.2441 40.3091C14.2185 40.2525 13.9024 40.2521 13.8311 40.2222C13.8157 40.2141 13.8645 40.1279 13.8018 40.1021C13.6897 40.0569 13.5465 40.1059 13.4707 40.0796C13.4621 40.076 13.5284 39.9346 13.3701 39.9155C13.3256 39.9102 13.2587 39.9398 13.2939 40.0063C13.4116 40.2259 13.8647 40.1576 14.0059 40.3882C14.1337 40.5976 13.5435 40.332 13.5098 40.3169C13.5012 40.3119 13.6453 40.2955 13.5371 40.2271C13.443 40.1681 13.1439 40.3261 13.0205 40.2026C13.0111 40.1925 12.9911 39.9315 13.002 39.9194C13.0113 39.913 13.2148 39.9542 13.2178 39.8823C13.2179 39.874 13.1017 39.8199 13.1074 39.7681C13.115 39.7044 13.3167 39.15 13.2998 39.1216C13.2522 39.0587 13.235 39.1992 13.1982 39.1724C13.1186 39.1127 12.8879 38.8093 12.79 38.9897C12.8351 39.0245 12.8807 39.0594 12.9258 39.0942C12.6366 38.9803 12.7181 39.1154 12.6621 39.1313C12.6016 39.1485 12.6902 38.9926 12.6035 38.9321C12.5845 38.919 12.1727 38.7647 12.1475 38.8364C12.4151 38.832 12.2437 38.9916 12.249 39.0024C12.2814 39.0332 12.3843 38.9446 12.4346 38.9712C12.7875 39.1605 12.3392 39.1652 12.4023 39.2515C12.4248 39.2802 12.5285 39.2127 12.5391 39.2231C12.5716 39.2587 12.5131 39.3855 12.5449 39.3882C12.6188 39.3934 12.6303 39.1802 12.6396 39.1733C12.7491 39.0891 12.9034 39.3327 12.6738 39.4614C12.7233 39.57 12.8455 39.34 12.8662 39.4653C12.9072 39.7124 12.7359 39.5735 12.668 39.5786C12.4252 39.6004 12.411 39.4837 12.1279 39.3872C12.0262 39.3524 11.8578 39.4117 11.8096 39.397C11.7794 39.3875 11.7018 38.8623 11.3975 39.4829C11.3224 39.3733 11.3548 38.8846 11.2393 38.8521C11.1354 38.8239 11.0611 39.0588 11.0479 39.064C11.0276 39.0707 10.9204 38.9983 10.8662 39.0103C10.8028 39.0253 10.7852 39.1206 10.6963 39.1206C10.475 39.1197 10.585 38.8975 10.5742 38.8726C10.4383 38.6013 10.3804 38.9647 10.3203 38.9692C10.2644 38.9716 9.69663 38.5514 9.52539 38.5688C9.60038 38.5492 9.67598 38.5299 9.75098 38.5103C9.72161 38.324 9.51012 38.5043 9.62793 38.2515C9.41542 38.6487 9.34578 38.2838 9.28125 38.2651C9.2559 38.2591 9.22487 38.328 9.19434 38.3179C9.17178 38.3099 9.14487 38.2971 9.11621 38.2817C8.80801 38.1317 8.40578 37.8601 8.27441 37.813C7.72627 37.6161 8.45428 38.334 8.94141 38.6489C8.98853 38.7003 9.02651 38.7373 9.03711 38.7466C9.01573 38.7353 8.9715 38.7181 8.91699 38.7007C8.38046 38.4948 7.48524 38.0273 7.94922 38.5239C8.04265 38.6197 8.33883 38.5561 8.40332 38.5815C8.84692 38.7577 8.43648 38.744 8.45801 38.7759C8.49347 38.8188 8.72062 38.8215 8.84961 38.8423C8.86574 38.839 8.87816 38.8395 8.88281 38.8462C8.88742 38.8584 8.7595 38.9766 8.91504 39.0542C8.87428 39.0839 8.81366 39.0794 8.74707 39.0581C8.30218 38.8815 7.71989 38.455 7.60352 38.4048C7.55218 38.3761 7.65652 38.8982 6.93652 37.9546C6.92746 37.9874 6.91898 38.0213 6.91016 38.0542C6.40026 37.6747 5.92688 37.2437 5.5 36.771C5.60142 36.7777 5.94038 36.9402 5.62598 36.6304C5.44931 36.4504 5.44564 36.6915 5.42773 36.6821C5.33614 36.6105 4.62474 35.7691 4.12207 34.7202C3.59706 33.6819 3.32876 32.4669 3.25977 32.0747C3.19852 31.8119 2.99443 31.066 2.99414 31.0034C2.98181 30.8808 2.97723 30.6476 2.98828 30.3872C3.00818 30.2129 3.0389 30.0038 3.02734 29.9448C3.0156 29.8888 2.88081 29.9408 2.88672 29.8911C2.89349 29.8454 3.02308 29.8927 3.0293 29.8794C3.07646 29.7645 2.90538 28.8947 3.02832 28.688C2.99172 28.8145 3.25136 29.4426 3.34375 29.4321C3.35681 29.4285 3.45492 29.2765 3.40723 29.2446C3.52 29.1924 3.17682 29.013 3.24414 28.9155C3.2521 28.9046 3.44439 28.9475 3.47949 28.7739C3.49137 28.714 3.34125 28.5568 3.50977 28.3989C3.42923 28.1694 3.67844 26.9695 3.47168 26.8862C3.45988 26.8865 3.38891 27.0513 3.30469 26.939C3.19163 26.787 3.57235 26.9225 3.60547 26.7456C3.61009 26.7155 3.57136 26.2297 3.54785 26.2104C3.33467 26.0616 3.24779 26.4894 3.22266 26.4858C3.16049 26.4707 3.1227 26.1168 3.13672 26.0981C3.15207 26.0843 3.43532 26.3752 3.32812 26.0249C3.29428 26.0651 3.2604 26.1058 3.22656 26.146C3.16072 25.9813 3.35666 25.9651 3.36914 25.9253C3.40701 25.8011 3.1089 25.6663 3.47656 25.4673C3.57412 25.4147 3.6826 25.5022 3.69727 25.4956C3.82846 25.4324 3.47722 25.3514 3.73926 25.2563C3.75931 25.2501 3.91544 25.4695 3.91602 25.0845C3.89105 25.1109 3.86578 25.1371 3.84082 25.1636C3.78506 25.1084 3.75179 24.7204 3.76465 24.6655C3.80339 24.5117 3.98323 24.645 3.96191 24.4907C3.71508 24.5893 3.68294 24.1201 3.89551 24.147C3.62852 24.0813 3.83425 23.6816 3.84082 23.4937C3.84462 23.3753 3.72893 23.1334 3.74219 23.0952C3.76013 23.05 3.94088 23.0633 3.98144 22.981C3.99095 22.9616 3.90421 22.7926 3.97656 22.6128C3.38711 22.3747 2.49006 21.6448 2.25684 21.2339C2.21403 21.1678 2.49929 21.2558 2.45801 21.1841C2.41599 21.1187 2.08486 20.714 1.85352 20.2661C1.61377 19.8229 1.47423 19.3555 1.45801 19.3208C1.43142 19.2751 1.42965 19.752 1.33984 19.5845C1.2845 19.4859 1.13277 18.9802 1.08887 18.479C1.03575 17.9784 1.08378 17.4909 1.06934 17.438C1.0464 17.3631 0.974433 17.9003 1.00391 18.4126C1.02367 18.9246 1.1322 19.41 1.00391 19.2368C0.719847 18.1602 0.90903 16.3673 1.18164 15.6147C1.10943 15.7955 0.773353 16.8541 0.741211 17.2339C0.631275 17.1328 0.678967 16.4733 0.870117 15.9673C1.05469 15.4593 1.3057 15.1273 1.19629 15.5435C1.34817 15.0217 1.13289 15.3216 1.20117 15.0034C1.21097 14.913 1.66204 14.253 1.74316 14.1177C1.73712 14.0914 1.17269 14.7079 1.2334 14.5493C1.27926 14.3979 1.68686 13.8001 2.20898 13.3472C2.72406 12.8829 3.30032 12.5857 3.38672 12.5532C3.63978 12.4607 3.35065 12.6326 3.00684 12.9019C2.66122 13.1656 2.28686 13.5561 2.26465 13.6489C2.26074 13.6627 2.59702 13.418 2.95508 13.2349C3.30989 13.0475 3.67273 12.9231 3.6875 12.9253C3.76739 12.9886 3.42717 13.1715 3.11523 13.4038C2.79873 13.6332 2.52324 13.9037 2.65137 13.8989C2.99068 13.6436 3.35028 13.4378 3.70898 13.2808C3.08937 13.6979 2.21168 14.4801 1.74219 15.3911C1.25212 16.2895 1.15493 17.1891 1.22363 17.5415C1.25059 15.2258 3.52709 13.5794 3.68555 14.061C3.76853 14.2016 3.18537 14.8122 3.25195 14.8364C3.43156 14.8395 4.23775 14.0675 4.2959 14.0835C4.32949 14.0775 4.34711 14.0801 4.35156 14.0884C4.37228 14.1325 4.04887 14.3349 3.74902 14.6079C3.44498 14.8754 3.18801 15.2076 3.17969 15.2524C3.15455 15.3869 3.8477 15.1379 3.89062 15.2134C3.85838 15.2198 3.28126 16.0073 3.5918 15.8345C3.87162 15.6409 4.48061 15.1791 4.51855 15.1899C4.59981 15.1851 4.36716 15.3618 4.1543 15.5981C3.93728 15.8305 3.75989 16.1208 3.76758 16.1499C3.76652 16.1619 4.31957 15.753 4.36523 15.7905C4.39776 15.805 4.1119 16.2104 4.12402 16.4331C4.12555 16.5884 4.40241 16.3377 4.375 16.4009C4.36279 16.4223 4.20336 16.6208 4.09375 16.8462C3.97919 17.0707 3.91753 17.313 3.91992 17.3374C3.92527 17.4075 4.09176 17.2333 4.11035 17.2729C4.13111 17.3241 4.02996 17.587 4.08008 17.5601C4.09889 17.5453 4.25456 17.2945 4.46289 17.1226C4.67013 16.9422 4.90773 16.8535 4.94434 16.8892C5.00761 16.9468 4.83196 17.088 4.78711 17.2007C4.74029 17.3264 4.81008 17.291 5.27344 17.2231C5.27711 17.2222 5.33618 17.0768 5.34473 17.0767C5.43067 17.1016 5.41933 17.2563 5.46582 17.2983C5.55734 17.1875 5.67516 17.0916 5.81836 17.02L6.82031 16.5181C6.77015 16.5308 6.72629 16.5341 6.69336 16.52C6.79934 16.3802 7.14751 16.3059 7.25391 16.1987C7.2661 16.186 7.0157 15.8884 7.32031 16.0181C7.43811 16.0682 7.28073 16.251 7.08789 16.3843L7.55664 16.1499C7.57839 16.0764 7.57164 15.976 7.52734 15.8267C7.01171 15.8038 6.69009 16.3817 6.57031 16.4487C6.38674 16.5507 6.52816 16.3476 6.49023 16.3296C6.4755 16.3254 6.3198 16.414 6.31348 16.4067C6.00117 16.0697 7.03097 16.0404 7.25977 15.8403C7.15971 15.8164 7.05904 15.792 6.95898 15.7681C7.05333 15.7179 7.14784 15.6678 7.24219 15.6177C6.72775 15.7265 7.20445 15.5801 7.1582 15.2036C7.14718 15.1201 6.91007 15.3919 7.15137 15.022C6.87649 15.1018 6.92421 14.9965 6.74121 15.2007C6.6831 15.0696 7.12325 14.6686 7.29297 14.5015C6.50637 14.7149 7.14868 14.9812 6.40625 15.0415C6.3714 15.2565 6.64915 15.0796 6.63965 15.1167C6.60042 15.254 6.32335 15.206 6.24414 15.6577C6.23151 15.7318 6.48305 15.8148 6.23047 15.9312C6.20256 15.9435 5.97903 15.8823 5.96973 15.8696C5.93498 15.7476 6.11227 15.7104 6.0957 15.6606C6.07969 15.6135 5.91785 15.7273 5.91113 15.7153C5.8361 15.5784 6.0302 15.5889 5.98633 15.5562C5.89015 15.4849 5.11223 15.4989 5.97754 15.1763C5.37397 15.6756 5.96654 15.3739 6.20215 15.1802C6.26234 15.1311 6.23822 15.0387 6.32031 14.9614C6.42576 14.862 6.59074 14.8291 6.64746 14.7817C6.70817 14.7303 6.21709 14.7295 6.81445 14.5044C6.42711 14.4529 6.02096 14.9171 5.66797 14.9214C4.95553 14.9293 5.89827 14.383 5.98633 14.3052C6.00813 14.2842 5.86482 14.2181 5.87695 14.2017C5.90108 14.1763 6.47918 13.9522 6.4873 13.8315C6.49497 13.7111 6.28741 13.9367 6.22168 13.8481C6.17758 13.7883 6.78529 13.3396 6.40234 13.4751C6.13848 13.5689 5.81232 14.0601 5.59375 13.8159C5.94727 13.6099 6.30078 13.4038 6.6543 13.1978C6.40074 13.1902 6.14711 13.1829 5.89355 13.1753C6.28671 12.9361 6.70207 12.8796 7.01465 12.5308C5.90877 12.6537 7.1746 12.1064 7.17383 12.0552C7.16566 12.0278 6.65824 11.9324 6.57227 11.9106C6.84497 11.6397 7.81061 11.0902 7.05762 11.0347C7.20197 11.0597 7.36024 10.7399 7.34961 10.7271C7.24036 10.5914 6.73409 10.9678 6.75586 10.7847C6.78102 10.572 7.03725 10.7149 7.19043 10.6167C7.97518 10.1111 7.34951 9.42836 8.24512 9.13818C8.21437 9.11809 8.18309 9.09773 8.15234 9.07764C9.07994 8.67032 10.008 8.26328 10.9355 7.85596C11.1679 7.43548 12.0363 6.81545 12.5127 6.61084C12.6083 6.56956 13.1283 6.4694 13.1758 6.47412C13.2612 6.48508 12.9182 6.67714 13.1172 6.67822C13.1592 6.67787 13.9599 6.34443 13.8369 6.23584C13.742 6.26384 13.5048 6.46737 13.4443 6.45752C13.0183 6.38454 15.4925 5.37519 15.5693 5.22217C15.4944 5.20441 15.4196 5.18621 15.3447 5.16846C15.5062 5.1149 15.6676 5.06088 15.8291 5.00732C15.7875 5.0763 15.7457 5.14538 15.7041 5.21436C15.8899 5.15279 16.109 5.00816 16.2881 4.96436C16.3173 4.9578 16.3056 5.10363 16.3701 5.07764C16.4344 5.05121 16.3465 4.90478 16.4287 4.84326C16.5214 4.77465 17.0395 4.64802 17.1992 4.56494C17.6765 4.31596 18.1328 4.0166 18.6211 3.78467C19.429 3.38306 20.3188 3.13979 21.2148 3.07666ZM18.3066 41.9966C18.2854 41.9496 18.1601 41.9258 18.1143 41.9927C18.1531 42.0543 18.3542 42.1059 18.3066 41.9966ZM17.9521 41.8472C17.9418 41.8194 17.7329 41.81 17.7012 41.8628C17.7743 41.9687 17.9975 41.9755 17.9521 41.8472ZM17.7939 41.4341C17.6149 40.9735 17.5257 41.6154 17.6064 41.5942C17.6186 41.5903 17.7931 41.4487 17.7939 41.4341ZM17.0918 41.1597C17.1278 41.2177 17.0913 41.3346 17.1279 41.3198C17.1409 41.3134 17.1916 41.2106 17.2324 41.1968C17.1856 41.1845 17.1386 41.172 17.0918 41.1597ZM15.458 40.7397C15.4439 40.6041 15.2016 40.6508 15.2285 40.7144C15.2493 40.7586 15.4709 40.8744 15.458 40.7397ZM15.4385 40.5122C15.3958 40.5894 15.5982 40.724 15.6133 40.7202C15.805 40.6414 15.5319 40.5506 15.4385 40.5122ZM15.0234 40.3823C14.9905 40.348 14.8591 40.4928 14.8604 40.5024C14.8722 40.5832 15.0457 40.5085 15.0234 40.3823ZM15.373 40.3667C15.3654 40.3538 15.1619 40.2088 15.1299 40.2808C15.1637 40.3631 15.4532 40.5193 15.373 40.3667ZM14.6211 40.231C14.6202 40.0995 14.4721 40.0392 14.4639 40.1675C14.4652 40.1814 14.5629 40.2994 14.6211 40.231ZM14.2363 39.8765C14.106 39.8867 14.3114 40.1122 14.3975 40.0229C14.3541 39.9917 14.2828 39.8733 14.2363 39.8765ZM13.4961 39.022C13.5191 39.563 13.6539 39.2187 13.6729 39.23C13.7134 39.256 13.758 39.4188 13.8477 39.438C13.7319 39.4427 13.6157 39.4479 13.5 39.4526C13.5594 39.5194 14.1181 39.9789 14.165 39.9155C14.231 39.8253 14.0206 39.7618 14.0156 39.7495C14.0137 39.7317 14.1119 39.4433 14.0996 39.4214C14.0771 39.39 13.5492 39.1317 13.4961 39.022ZM9.99023 38.5962C10.0332 38.6077 10.1877 38.7461 10.2002 38.7427C10.3865 38.6888 10.1304 38.5235 9.99023 38.5962ZM10.6309 38.6675C10.6253 38.6133 10.0173 38.2941 10.3086 38.5913C10.328 38.61 10.6392 38.8273 10.6309 38.6675ZM10.7529 38.3608C10.7093 38.2673 10.4741 38.2931 10.501 38.3784C10.5198 38.4305 10.8024 38.4678 10.7529 38.3608ZM35.5186 37.8628C35.4776 37.8945 34.3857 38.4563 34.8252 38.3843C34.9708 38.3789 35.9338 37.7693 35.5186 37.8628ZM9.88477 38.3481C9.9255 38.2395 9.67646 38.2757 9.69336 38.3442C9.70524 38.3874 9.8591 38.415 9.88477 38.3481ZM6.78418 37.4849C7.11233 37.8275 6.69953 37.5457 6.67969 37.5776C6.61836 37.6814 7.31847 38.101 7.44238 38.2329C7.66795 38.1511 7.02061 37.9082 6.94922 37.7827L6.94824 37.7817C6.93456 37.7466 7.66865 37.7823 6.78418 37.4849ZM9.51172 37.6226C9.42944 37.6873 9.61825 37.8325 9.63867 37.8286C9.7498 37.7955 9.67287 37.4958 9.51172 37.6226ZM10.5547 37.6626C10.5001 37.6094 10.407 37.5587 10.2939 37.6128C10.4165 37.6833 10.5395 37.7542 10.6621 37.8247C10.7083 37.7653 10.6277 37.7641 10.5957 37.7134L10.5547 37.6626ZM10.0654 37.6216C10.04 37.3014 9.95706 37.6522 10.0469 37.7944C10.1393 37.7 10.07 37.6737 10.0654 37.6216ZM9.24707 37.5054C9.22139 37.5013 9.26161 37.7163 9.36719 37.7524C9.37456 37.7537 9.38455 37.7505 9.39551 37.7427C9.42494 37.7211 9.43039 37.6775 9.42188 37.6382C9.37992 37.5777 9.30515 37.5143 9.24707 37.5054ZM36.7607 37.2876C36.642 37.3722 36.357 37.5918 36.3672 37.6733C36.3841 37.778 36.7861 37.4188 36.7607 37.2876ZM6.57227 37.4458C6.27245 37.1915 6.27813 37.6062 6.5498 37.6792C6.5662 37.6813 6.59082 37.4636 6.57227 37.4458ZM10.0215 37.4038C9.96834 37.144 9.76855 37.4809 9.87598 37.5337C9.91807 37.5538 10.028 37.4416 10.0215 37.4038ZM9.64258 37.1724C9.39043 37.0506 8.82546 36.7828 8.86621 36.9458C8.88604 37.0238 9.43752 37.1785 9.46191 37.1948C9.48958 37.2256 9.25815 37.2922 9.53711 37.395H9.54004C9.55688 37.3416 9.69582 37.2356 9.69043 37.2134C9.68685 37.2016 9.66864 37.1872 9.64258 37.1724ZM6.37207 37.2515C6.34006 36.8587 5.52976 36.7791 5.9082 37.1021C5.94896 37.1368 6.36902 37.2715 6.37207 37.2515ZM36.8643 36.2573C36.9078 36.2279 37.7441 35.5826 36.8838 36.0435C36.8447 36.0686 36.467 36.6042 36.7402 36.5024C36.9325 36.4287 36.8343 36.2886 36.8643 36.2573ZM38.751 34.4858C38.7243 34.5555 37.7561 35.8484 37.9639 35.8911C38.0682 35.7956 39.1168 34.2255 38.751 34.4858ZM38.4121 35.2974C38.3126 35.4227 38.3985 35.6135 38.4268 35.5991C38.5567 35.5324 38.5975 35.1975 38.4121 35.2974ZM4.35547 34.8042C4.37188 35.0434 4.66828 35.3326 4.64844 35.1733C4.64163 35.1392 4.41108 34.7616 4.35547 34.8042ZM39.4443 30.6655C39.4108 30.7072 39.247 31.4261 39.2295 31.4683C39.0843 32.2769 38.633 33.6682 38.2012 34.4019C38.0961 34.5918 38.2244 34.5436 38.1807 34.6274C38.1446 34.692 38.0481 34.5349 37.9736 34.7778C37.9376 34.8946 38.2765 34.6716 38.2637 34.7583C38.2547 34.8166 38.0588 35.0119 38.0566 35.1128C38.0615 35.1417 38.3456 34.9966 38.3818 34.9214C38.4327 34.8172 38.2653 34.8466 38.3271 34.7388C38.5303 34.3813 38.7748 34.0897 38.9229 33.7261C38.9336 33.6966 38.748 33.9081 38.8623 33.6343C38.8797 33.592 39.1123 33.3813 39.2021 33.0288C39.0243 32.1612 39.5489 31.6872 39.4443 30.6655ZM38.9785 34.4556C39.0322 34.3333 38.9349 34.0595 38.8135 34.272C38.8469 34.3398 38.8619 34.7147 38.9785 34.4556ZM39.1992 34.0229C39.3358 33.7442 39.5883 33.0241 39.249 33.4585C39.1833 33.5419 39.1074 33.7967 39.04 33.9214C39.3712 33.5715 39.0277 33.9697 39.1992 34.0229ZM39.3027 32.8765C39.2751 32.9763 39.1646 33.3803 39.1865 33.4009C39.2767 33.4633 39.3886 32.9482 39.3027 32.8765ZM3.21973 30.7603C3.25321 30.963 3.31078 32.1212 3.40039 32.1216C3.46171 32.1174 3.30738 30.8501 3.21973 30.7603ZM39.3857 30.1147C39.4377 30.0411 39.2917 29.9331 39.252 30.0435C39.217 30.141 39.3801 30.1208 39.3857 30.1147ZM3.35742 29.5562C3.31815 29.5578 3.31646 29.7176 3.32227 29.7241C3.46797 29.887 3.46182 29.5544 3.35742 29.5562ZM39.2217 28.6147C39.1376 28.5773 39.1154 28.7667 39.1602 28.8228C39.2619 28.8393 39.2336 28.6229 39.2217 28.6147ZM39.5088 28.5483C39.5149 28.5974 39.4651 28.7487 39.5146 28.7612C39.5792 28.7767 39.6199 28.5594 39.5088 28.5483ZM38.7334 27.0933C38.6797 27.1595 38.8154 27.3705 38.9395 27.4165C38.9155 27.425 38.8842 27.4485 38.8467 27.4907L38.8281 27.5806C38.7874 27.9302 38.7715 29.1095 38.9805 28.1089C38.9874 28.0736 38.8771 28.1212 38.8965 27.9761C38.9002 27.9667 38.9884 27.9613 38.9932 27.9321C39.0028 27.8633 39.0596 27.5008 38.9873 27.4263C39.0038 27.4256 39.0197 27.4204 39.0342 27.4106C39.1649 27.321 38.7767 27.0438 38.7334 27.0933ZM38.7959 26.8843C38.789 26.8911 38.7392 27.0845 38.8516 27.0581C39.0159 27.0194 38.8572 26.8305 38.7959 26.8843ZM39.0225 24.8882C38.9664 24.8838 38.9704 24.893 38.9707 24.9028C39.0092 24.9235 39.0458 24.9594 39.0371 24.9839C39.0134 25.0465 38.8367 24.9912 38.8711 24.9233C38.8336 24.9507 38.7948 24.98 38.7549 25.0054C38.7549 25.0177 38.7548 25.0301 38.7549 25.0425C38.7615 25.0419 38.7687 25.0424 38.7764 25.0415C38.7687 25.0426 38.7616 25.044 38.7549 25.0454C38.7549 25.0522 38.7548 25.0591 38.7549 25.0659C39.0662 24.8659 38.8951 25.2668 39.0723 25.1821C39.0846 25.1756 39.1644 25.0756 39.2295 24.9829C39.2268 24.9805 39.2248 24.9782 39.2227 24.9771C39.2145 24.973 39.0889 24.9864 39.0801 24.9839C39.0696 24.978 39.1257 24.8964 39.0225 24.8882ZM4.13574 24.6685C3.98772 24.7028 4.1034 24.8663 4.06738 24.9614C4.23141 24.9178 4.12742 24.7657 4.13574 24.6685ZM3.89941 24.6968C3.8888 24.7075 3.9021 24.9129 3.97559 24.9136C3.98464 24.8224 4.03217 24.6412 3.89941 24.6968ZM42.5898 24.8579C42.344 24.8456 42.4296 24.8696 42.3809 24.8774C42.3363 24.8846 42.1919 24.89 42.2676 24.9058C42.3749 24.8899 42.4825 24.8738 42.5898 24.8579ZM4.37793 24.5562C4.26147 24.5837 4.29409 24.7738 4.30957 24.8501C4.4569 24.8161 4.343 24.6509 4.37793 24.5562ZM46.04 24.6431C45.9697 24.64 45.9045 24.6696 45.9346 24.6763C45.982 24.6865 46.1522 24.6481 46.04 24.6431ZM46.6133 24.4946C46.4497 24.5103 46.5706 24.5827 46.6787 24.5649C46.6926 24.5624 46.6081 24.5052 46.6133 24.4946ZM4.03418 24.1938C3.91827 24.2519 4.06029 24.4947 4.10547 24.4536C4.1183 24.4401 4.09503 24.1646 4.03418 24.1938ZM46.7451 24.3921C46.7326 24.3953 46.7559 24.4507 46.8164 24.4448C46.9322 24.433 46.7903 24.3837 46.7451 24.3921ZM46.541 24.312C46.3934 24.3189 46.5077 24.3523 46.4727 24.3716C46.5877 24.366 46.5567 24.3279 46.541 24.312ZM46.7832 24.2886C46.6199 24.2974 46.7217 24.3283 46.7148 24.3481C46.8626 24.3411 46.7474 24.3079 46.7832 24.2886ZM46.875 24.2983C46.8657 24.317 46.8187 24.3546 46.9512 24.3433C46.9622 24.3416 46.9489 24.2985 46.875 24.2983ZM4.2373 23.9507C4.40081 23.8738 4.27996 23.5191 4.17187 23.6069C4.15808 23.6202 4.24348 23.901 4.2373 23.9507ZM47.5283 23.3198C47.3822 23.2865 47.3885 23.3535 47.4932 23.353C47.5321 23.3527 47.534 23.3216 47.5283 23.3198ZM4.91602 23.0591C4.86885 23.0082 4.69811 23.1976 4.81055 23.2222C4.88061 23.2369 4.94531 23.0922 4.91602 23.0591ZM47.6084 23.0522C47.5277 23.051 47.5316 23.1488 47.6377 23.1558C47.5937 23.1398 47.6798 23.0538 47.6084 23.0522ZM47.4941 22.7993C47.481 22.8024 47.5027 22.8355 47.5732 22.8345C47.6664 22.8178 47.5573 22.7881 47.4941 22.7993ZM47.5234 22.479C47.3245 22.4683 47.5032 22.5198 47.4561 22.5298C47.436 22.5321 47.0028 22.4857 47.332 22.5542C47.384 22.5176 47.4321 22.5567 47.4707 22.5562C47.5818 22.5546 47.4754 22.4927 47.5234 22.479ZM4.64355 22.3833C4.50804 22.3346 4.36674 22.3479 4.40527 22.4038C4.40855 22.4082 4.41707 22.4121 4.42676 22.4194C4.44483 22.4244 4.46003 22.4313 4.4707 22.4419C4.47578 22.447 4.4794 22.453 4.4834 22.4585C4.52841 22.485 4.58698 22.5142 4.64453 22.5356C4.63853 22.4741 4.63345 22.4187 4.6416 22.3892C4.64216 22.3872 4.64299 22.3853 4.64355 22.3833ZM45.5146 22.3481C45.4646 22.3573 45.5196 22.4512 45.667 22.437C45.7195 22.4319 45.5875 22.378 45.5977 22.3755C45.6148 22.3721 45.7746 22.3882 45.7432 22.3599C45.6878 22.3615 45.5315 22.345 45.5146 22.3481ZM46.1191 22.356C46.0498 22.3482 45.9365 22.3708 45.9707 22.3804C45.9815 22.3828 46.2082 22.366 46.1191 22.356ZM46.0928 22.3042C46.0153 22.2866 45.7769 22.3266 45.9609 22.3452C46.0536 22.3545 46.1037 22.3084 46.0928 22.3042ZM45.5439 22.271C45.334 22.3032 45.7173 22.3103 45.7246 22.2866C45.7253 22.2771 45.5746 22.2664 45.5439 22.271ZM45.8857 22.2319C45.761 22.2232 45.7679 22.2383 45.7227 22.2437C45.4441 22.2763 45.7953 22.2608 45.8857 22.2319ZM46.4561 22.2134C46.3406 22.2154 46.4794 22.2584 46.5342 22.2495C46.5689 22.2438 46.5277 22.2123 46.4561 22.2134ZM45.6494 22.1167C45.576 22.1134 45.6097 22.1279 45.5771 22.1382L45.5498 22.1499C45.5249 22.1646 45.5185 22.1865 45.6162 22.2026C45.6272 22.1741 45.6384 22.1452 45.6494 22.1167ZM46.6768 22.1206C46.5484 22.0912 46.5091 22.153 46.6348 22.1724C46.6266 22.1636 46.6845 22.123 46.6768 22.1206ZM46.4248 22.0483C46.3781 22.0536 46.3503 22.1935 46.4941 22.1138C46.5037 22.1072 46.5644 22.0329 46.4248 22.0483ZM5.16894 22.0278C5.08719 22.0129 5.04582 22.0295 5.11719 22.1099C5.11882 22.1117 5.12634 22.113 5.13672 22.1177C5.153 22.0892 5.16179 22.0572 5.16894 22.0278ZM46.0957 22.0532C46.0297 22.0694 46.1532 22.1096 46.2188 22.0972C46.2585 22.0894 46.1713 22.0346 46.0957 22.0532ZM2.23242 18.2407C2.10739 19.33 3.09215 21.2178 4.1416 21.7495C4.21153 21.7938 4.28541 21.8303 4.36035 21.8608C4.42185 21.8719 4.49353 21.8577 4.53711 21.8872C4.63121 21.9516 4.48762 22.0154 4.49219 22.0229L4.53809 22.0571C4.6588 22.1096 4.85208 21.9725 4.61621 21.8257C4.73362 21.8386 4.85134 21.8518 4.96875 21.8647C4.66618 21.5457 4.52706 21.8916 4.42773 21.8247C4.41413 21.8155 4.40293 21.8047 4.39453 21.7925C4.02492 21.5227 4.22143 21.3208 4.35156 21.3013C4.10741 21.269 3.5027 20.9433 3.02637 20.3179C2.53903 19.7034 2.27798 18.8565 2.23242 18.2407ZM1.87012 16.3872C0.876344 17.7326 1.92896 19.7976 2.05664 19.9048C2.13803 20.1064 1.84077 19.866 1.85644 19.9106C1.87265 19.9644 2.1289 20.5504 2.54297 21.0405C2.9458 21.5401 3.4638 21.8967 3.51269 21.9224C3.57926 21.9577 3.39284 21.5332 3.80762 21.73C3.40895 21.581 2.36689 20.6857 1.99609 19.5532C1.5799 18.4459 1.7745 17.3705 1.77832 17.271C1.77985 17.1884 1.67257 17.4413 1.62207 17.4849C1.58796 17.5325 1.4928 17.3252 1.87012 16.3901V16.3872ZM46.0361 21.2896C45.9256 21.2853 45.9599 21.3301 45.9502 21.3315C45.934 21.3335 45.6313 21.3401 45.6172 21.3442C45.5985 21.3512 45.5921 21.4715 45.5156 21.4907C45.9883 21.4399 45.6345 21.4441 45.627 21.4399C45.6321 21.4303 45.7617 21.4074 45.7412 21.3892C45.795 21.41 45.8486 21.4318 45.9023 21.4526C45.9369 21.4362 46.1135 21.2927 46.0361 21.2896ZM5.56543 21.395C5.76198 21.4192 5.39051 21.0926 5.23144 21.2065C5.31841 21.2408 5.50914 21.3882 5.56543 21.395ZM3.52051 20.1108C4.11743 20.7666 4.36554 20.8726 4.39844 20.9907C4.44291 21.0939 4.3225 21.125 4.4375 21.2427C4.49762 21.3028 4.55466 21.3439 4.60547 21.3706C4.71138 21.4329 4.87459 20.981 4.86621 20.9478C4.86077 20.9327 4.84979 20.9202 4.83594 20.9097C4.49146 20.7504 3.68267 20.2818 3.52051 20.1108ZM46.0342 21.2378C46.0243 21.2485 45.9477 21.2716 45.9707 21.2798C46.0358 21.3024 46.1505 21.246 46.0342 21.2378ZM46.126 21.1782C46.0072 21.1898 46.0162 21.2221 46.1357 21.2124C46.1482 21.2107 46.212 21.183 46.126 21.1782ZM46.0889 21.0903C46.0726 21.0993 46.2566 21.1117 46.2676 21.1108C46.3361 21.1016 46.1935 21.0751 46.0889 21.0903ZM45.9258 21.0278C45.9175 21.0302 45.8733 21.081 45.9521 21.0806C46.0122 21.0672 46.0295 20.9997 45.9258 21.0278ZM35.6309 21.0063C35.572 20.9916 35.5093 20.992 35.4814 21.0249C35.4942 21.0399 35.5163 21.0548 35.542 21.0698C35.5709 21.0503 35.6075 21.0257 35.6309 21.0063ZM46.2256 20.98C46.1095 20.9944 46.2546 21.0342 46.3008 21.0239C46.3322 21.0166 46.3429 20.9655 46.2256 20.98ZM46.1416 20.9526C45.988 20.9242 46.024 20.983 46.0293 21.0034C46.1173 21.0044 46.1516 20.955 46.1416 20.9526ZM35.2266 20.8286C35.2067 20.7957 34.9091 20.7381 34.875 20.7896C34.9964 20.9226 35.3136 20.9802 35.2266 20.8286ZM34.6064 20.6899C34.5405 20.6623 34.5107 20.696 34.4941 20.7417C34.5353 20.7843 34.5802 20.8251 34.625 20.8677C34.738 20.8543 34.726 20.7402 34.6064 20.6899ZM4.71094 20.4761C4.6828 20.4667 4.47707 20.5271 4.4834 20.5464C4.58714 20.7723 4.80533 20.8147 4.90723 20.7671C4.93942 20.7327 4.96384 20.6876 4.96582 20.6499C4.9425 20.5962 4.86977 20.5407 4.71094 20.4761ZM45.9043 20.6431C45.9406 20.6314 46.0607 20.6279 46.0342 20.6226C46.0242 20.6207 45.9072 20.6201 45.877 20.6138C45.8859 20.6234 45.8954 20.6334 45.9043 20.6431ZM46.1562 20.4243C46.1369 20.4291 46.2183 20.4682 46.2793 20.4692C46.3433 20.4465 46.2527 20.4047 46.1562 20.4243ZM46.1396 20.3462C46.1065 20.3542 46.1388 20.3788 46.2188 20.3813C46.2576 20.3688 46.2181 20.3278 46.1396 20.3462ZM7.54297 19.8091C7.42364 19.8787 7.31774 19.9374 7.31055 19.9517C7.26687 20.0532 7.5114 19.9929 7.6875 19.8804L7.54297 19.8091ZM2.01172 17.6665C1.92926 18.3188 2.10849 19.3714 2.40527 19.6479C2.1128 19.0287 2.10005 18.0298 2.01172 17.6665ZM43.125 13.9048C43.1057 13.9309 43.0888 13.9521 43.0732 13.9614C43.1077 14.0248 43.148 14.1007 43.1934 14.1851C43.198 14.176 43.2011 14.1664 43.2061 14.1587C43.2309 14.1205 43.2202 14.1562 43.2031 14.2017C43.2191 14.2315 43.2352 14.2626 43.252 14.2944C43.3109 14.2401 43.3776 14.199 43.374 14.2124C43.3561 14.2684 43.3185 14.317 43.2832 14.355C43.3152 14.4165 43.3488 14.4807 43.3818 14.5474C43.4233 14.4142 43.5055 14.4442 43.5186 14.4712C43.5391 14.5164 43.4626 14.6655 43.458 14.7104C43.4655 14.7265 43.474 14.7421 43.4814 14.7583C43.5271 14.7683 43.6248 14.6901 43.6367 14.7583C43.6847 14.9878 43.8086 15.223 43.9785 15.4604C43.7838 14.8956 43.5482 14.4267 43.3965 14.23C43.3716 14.1997 43.3476 14.1712 43.3252 14.144C43.2858 14.1595 43.2717 14.0337 43.2305 14.0562C43.234 14.0517 43.2378 14.0476 43.2412 14.0435C43.1962 13.9893 43.1578 13.9431 43.125 13.9048ZM34.6465 15.2993C34.6054 15.3716 34.6296 15.3727 34.7002 15.3364C34.6887 15.3107 34.679 15.2859 34.6719 15.2671C34.6579 15.2822 34.6486 15.2928 34.6465 15.2993ZM34.7031 15.1069C34.8985 14.8601 34.6499 15.0168 34.3984 15.2915L34.4922 15.3384C34.5974 15.2131 34.6871 15.1129 34.7031 15.1069ZM8.37598 15.2271C8.35408 15.2478 8.33448 15.2687 8.33984 15.2905C8.34602 15.3117 8.41572 15.3246 8.50684 15.3364C8.46406 15.298 8.4196 15.2623 8.37598 15.2271ZM35.5723 14.6147C35.2775 14.7659 34.89 15.0624 34.7256 15.2134C34.7984 15.1961 34.9239 15.1673 35.0537 15.1265C35.1739 15.0543 35.3115 14.979 35.4521 14.9136C35.4637 14.9001 35.4743 14.8862 35.4824 14.8716C35.3545 14.8938 35.2265 14.9167 35.0986 14.939C35.5263 14.7235 35.6243 14.6381 35.5723 14.6147ZM7.86133 14.9097C7.83804 14.9505 7.92529 15.0192 8.06641 15.1235C8.11904 15.1158 8.16847 15.1085 8.21094 15.1001C8.0901 15.0167 7.97099 14.9501 7.86133 14.9097ZM35.6523 14.9878C35.6353 15.0347 35.6376 15.0732 35.6709 15.0962C35.7069 15.009 35.7647 14.948 35.832 14.8999C35.7725 14.9252 35.7122 14.9549 35.6523 14.9878ZM35.333 14.6284C35.217 14.6482 35.0842 14.6756 34.9912 14.6929C34.9329 14.7434 34.8849 14.7902 34.8486 14.8306C34.8436 14.8522 34.8257 14.8694 34.8018 14.8872C34.7405 14.9725 34.7644 15.0045 34.9004 14.9341C34.9353 14.9162 35.122 14.7669 35.3408 14.6265C35.3381 14.6268 35.3355 14.6275 35.333 14.6284ZM43.2402 14.6499C43.2475 14.6505 43.2736 14.6287 43.3008 14.6099C43.2921 14.5946 43.2833 14.5793 43.2744 14.564C43.2668 14.5851 43.2364 14.6488 43.2402 14.6499ZM42.7617 13.8257C42.7154 13.9288 42.7294 13.9694 42.7256 14.0151C42.757 14.0563 42.7902 14.0961 42.8203 14.1382C42.8421 14.1673 42.8618 14.1978 42.8828 14.2271C42.9231 14.1457 42.9828 14.0307 42.958 14.1479C42.9453 14.2072 42.9157 14.2111 42.8916 14.2397C42.9548 14.3283 43.0145 14.4169 43.0703 14.5044C43.1521 14.5304 43.2339 14.5469 43.2695 14.5562C43.2429 14.5106 43.2134 14.4657 43.1846 14.4194C43.1785 14.4172 43.1759 14.4136 43.1758 14.4038C43.1498 14.3625 43.1254 14.3194 43.0977 14.2778C43.0112 14.1415 42.9122 14.0114 42.8105 13.8853C42.78 13.9232 42.7603 13.9317 42.7793 13.8472C42.7734 13.84 42.7676 13.8328 42.7617 13.8257ZM42.3291 13.4604C42.3273 13.4599 42.316 13.4964 42.3037 13.52C42.3353 13.5535 42.3678 13.5868 42.3994 13.6216C42.4115 13.5932 42.4376 13.5098 42.4453 13.4761C42.4443 13.4751 42.4434 13.4741 42.4424 13.4731C42.4233 13.5025 42.3854 13.5849 42.377 13.5825C42.3452 13.5691 42.3583 13.4741 42.3291 13.4604ZM42.2451 13.4585C42.2597 13.4736 42.2744 13.4889 42.2891 13.5044C42.2973 13.4651 42.3082 13.4066 42.2842 13.4097C42.2707 13.4286 42.2564 13.4438 42.2451 13.4585ZM42.2939 13.3569C42.2976 13.3593 42.3094 13.3589 42.3223 13.355C42.3167 13.3497 42.3112 13.3446 42.3057 13.3394C42.302 13.3451 42.2974 13.3506 42.2939 13.3569ZM42.8486 13.2837C42.8922 13.2054 42.8421 13.2123 42.7881 13.3062C42.7942 13.313 42.8005 13.3197 42.8066 13.3267C42.8173 13.3245 42.8318 13.3139 42.8486 13.2837ZM42.1953 13.2368C42.1848 13.3088 42.1934 13.3503 42.2441 13.3022C42.2444 13.2958 42.2439 13.2892 42.2441 13.2827C42.2275 13.2674 42.2118 13.2516 42.1953 13.2368ZM42.6699 13.1206C42.6813 13.0861 42.6626 13.1025 42.6377 13.1401C42.6419 13.1446 42.6461 13.1493 42.6504 13.1538C42.6598 13.1367 42.6685 13.1246 42.6699 13.1206ZM41.9648 13.0415C41.9584 13.0581 41.9569 13.0678 41.9668 13.0649C41.9698 13.0599 41.9727 13.0551 41.9756 13.0503C41.972 13.0474 41.9684 13.0444 41.9648 13.0415ZM41.7637 12.9976C41.781 12.9277 41.7644 12.8562 41.6943 12.9351C41.7169 12.9547 41.7395 12.9761 41.7637 12.9976ZM41.6826 12.9243C41.7105 12.8695 41.6958 12.8895 41.6738 12.9165C41.6768 12.9191 41.6796 12.9217 41.6826 12.9243ZM41.6455 12.8521C41.637 12.8472 41.6254 12.8541 41.6143 12.8657C41.6215 12.8719 41.6292 12.8778 41.6367 12.8843C41.6431 12.8678 41.6502 12.8554 41.6455 12.8521ZM41.5264 12.7925C41.531 12.777 41.5342 12.7623 41.5381 12.7495C41.4897 12.7253 41.452 12.7112 41.4268 12.7095C41.4527 12.7305 41.4859 12.7589 41.5264 12.7925ZM28.9541 5.70557C28.9133 5.77346 29.2076 5.98156 29.2998 5.87646C29.2348 5.85019 28.9809 5.66505 28.9541 5.70557ZM28.1934 5.35596C27.8853 5.31946 28.6502 5.75267 28.4707 5.51318C28.4614 5.50126 28.2122 5.36013 28.1934 5.35596ZM17.4902 4.53662C17.4442 4.52653 17.193 4.61182 17.1221 4.646C17.1191 4.82686 17.6971 4.58233 17.4902 4.53662ZM24.999 3.89014C24.5707 3.6467 24.0155 3.46573 23.999 3.52881C23.996 3.55107 24.5458 3.74406 24.9619 3.9624C25.0027 3.98487 25.0389 4.00243 25.0439 4.00244C25.0903 4.00137 25.0544 3.93951 24.999 3.89014Z" fill="#C3DDEB"/>
<path d="M23.8682 43.0317C23.846 43.1235 23.2214 43.3422 23.168 43.2173C23.0994 43.0557 23.745 43.0523 23.8682 43.0317Z" fill="#C3DDEB"/>
<path d="M25.3848 42.1216C25.4042 42.1293 25.4093 42.1415 25.4023 42.1567C25.2104 42.447 22.6914 43.0579 24.4697 42.2964C24.3904 42.3857 24.3085 42.4742 24.2236 42.561C24.5133 42.5241 24.8396 42.376 24.8096 42.2847C24.8205 42.2963 24.8393 42.3057 24.8662 42.312C24.8958 42.3182 25.1617 42.1609 25.2949 42.1333C25.3354 42.1253 25.365 42.1217 25.3848 42.1216Z" fill="#C3DDEB"/>
<path d="M16.5527 41.7437C16.6417 41.7633 16.7441 41.7559 16.7139 41.8892C16.671 41.8465 16.5036 41.8231 16.5527 41.7437Z" fill="#C3DDEB"/>
<path d="M15.8096 41.1558C15.9056 41.0842 16.1998 41.3186 16.2285 41.4497C16.0905 41.5556 15.6903 41.2457 15.8096 41.1558Z" fill="#C3DDEB"/>
<path d="M28.9658 40.6401C28.956 40.7237 28.7382 40.849 28.6572 40.7827C28.7323 40.6979 28.8686 40.6898 28.9658 40.6401Z" fill="#C3DDEB"/>
<path d="M29.1523 40.4194C29.1728 40.4956 28.9816 40.5903 28.9229 40.5308C28.959 40.4604 29.0843 40.4577 29.1523 40.4194Z" fill="#C3DDEB"/>
<path d="M12.1846 40.4194C12.2718 40.3319 12.3735 40.4213 12.4502 40.4653C12.3632 40.5527 12.2612 40.4636 12.1846 40.4194Z" fill="#C3DDEB"/>
<path d="M12.3262 40.3384C12.31 40.2843 12.5199 40.3007 12.5557 40.3638C12.5137 40.4405 12.3378 40.3737 12.3262 40.3384Z" fill="#C3DDEB"/>
<path d="M10.3857 39.3667C10.4433 39.3123 10.5909 39.4259 10.6152 39.4712C10.616 39.4835 10.5088 39.6419 10.5879 39.6636C10.6519 39.6797 10.6492 39.4592 10.751 39.5425C10.8526 39.626 10.6412 39.6802 10.6426 39.6948C10.6526 39.7131 10.8695 39.7193 10.8145 39.8208C10.7733 39.8957 10.6047 39.7522 10.5488 39.7456C10.4778 39.7381 10.4904 39.9015 10.4014 39.8257C10.3454 39.778 10.4872 39.569 10.4805 39.5493C10.4701 39.5352 10.1876 39.5566 10.3857 39.3667Z" fill="#C3DDEB"/>
<path d="M11.4531 39.4614C11.5061 39.2782 11.6656 39.5522 11.7314 39.562C11.7439 39.5617 11.8175 39.4247 11.8789 39.439L11.8799 39.438C11.9021 39.4453 11.8714 39.5814 11.8779 39.5864C11.8976 39.5974 12.3005 39.7318 12.0791 39.8208C12.0394 39.8339 11.519 39.5121 11.4531 39.4614Z" fill="#C3DDEB"/>
<path d="M32.1455 39.3228C32.0444 39.5862 31.7912 39.6737 32.2031 39.6987C31.7455 39.9583 31.8584 39.6998 31.835 39.6909C31.805 39.6858 31.7589 39.7776 31.7354 39.7671C31.1851 39.5058 31.9814 39.4687 32.1455 39.3228Z" fill="#C3DDEB"/>
<path d="M32.292 39.5171C32.3968 39.4699 32.3723 39.7119 32.2832 39.6685C32.2503 39.6517 32.2655 39.5293 32.292 39.5171Z" fill="#C3DDEB"/>
<path d="M31.5654 39.2446C31.6131 39.3308 31.2633 39.6784 31.2334 39.6714C31.0536 39.5796 31.4259 39.1967 31.5654 39.2446Z" fill="#C3DDEB"/>
<path d="M11.3887 39.5327C11.4706 39.6158 11.311 39.7016 11.2666 39.6235C11.2634 39.6162 11.3154 39.459 11.3887 39.5327Z" fill="#C3DDEB"/>
<path d="M32.9062 39.2817C32.8986 39.4632 32.5584 39.4764 32.6514 39.3286C32.6655 39.3067 32.8582 39.3217 32.9062 39.2817Z" fill="#C3DDEB"/>
<path d="M12.9023 39.2173C12.8986 39.0582 13.1655 39.2444 13.168 39.2632C13.1755 39.373 12.9064 39.3464 12.9023 39.2173Z" fill="#C3DDEB"/>
<path d="M31.8213 39.1978C31.8486 39.1457 31.9971 39.2014 31.9922 39.2808C31.9855 39.3809 31.8188 39.2155 31.8213 39.1978Z" fill="#C3DDEB"/>
<path d="M33.2334 38.9546C33.818 38.7874 33.2906 38.98 33.1738 39.0767C33.1302 39.1134 33.2189 39.1928 33.1807 39.229C32.8742 39.5147 32.6738 38.8743 33.2393 38.854C33.2373 38.8875 33.2354 38.9211 33.2334 38.9546Z" fill="#C3DDEB"/>
<path d="M9.43555 39.1118C9.59304 39.2563 9.41972 39.2701 9.23145 39.2417C9.30408 39.2237 9.38228 39.0633 9.43555 39.1118Z" fill="#C3DDEB"/>
<path d="M9.06934 39.1157C9.08534 39.1025 9.16659 38.6409 9.30664 39.0376C9.32586 39.0951 9.13812 39.1354 9.14258 39.1567C9.15825 39.1992 9.17592 39.2237 9.19336 39.2349C9.05268 39.2096 8.91556 39.1641 8.91406 39.1333C8.91095 38.9881 9.0625 39.1207 9.06934 39.1157Z" fill="#C3DDEB"/>
<path d="M33.8145 38.9458C33.8486 38.9519 34.031 39.0966 33.9424 39.1841C33.8383 38.956 33.6322 38.9478 33.6504 39.1948C33.5105 39.0324 33.6661 38.9217 33.8145 38.9458Z" fill="#C3DDEB"/>
<path d="M9.59668 39.0415C9.70985 38.9426 9.83431 39.11 9.91309 39.1704C9.81097 39.2475 9.6558 39.1173 9.59668 39.0415Z" fill="#C3DDEB"/>
<path d="M9.06934 38.7671C9.09725 38.6891 9.35138 38.7222 9.2793 38.9136C9.23857 38.8779 9.05307 38.8164 9.06934 38.7671Z" fill="#C3DDEB"/>
<path d="M33.5225 38.646C33.5406 38.7318 33.3712 38.7885 33.3184 38.8228C33.3063 38.7002 33.439 38.6753 33.5225 38.646Z" fill="#C3DDEB"/>
<path d="M8.63672 38.3403C8.31549 38.2967 8.55863 37.9912 8.7207 38.228C8.72576 38.2388 8.64995 38.3407 8.63672 38.3403Z" fill="#C3DDEB"/>
<path d="M39.9141 30.8999C39.9232 30.87 40.0606 30.4821 40.1055 30.5757C40.117 32.156 39.5798 32.2662 39.9141 30.8999Z" fill="#C3DDEB"/>
<path d="M3.40723 29.2446C3.38848 29.2532 3.35908 29.2586 3.31152 29.2593C3.36371 29.2367 3.3919 29.2349 3.40723 29.2446Z" fill="#C3DDEB"/>
<path d="M3.08301 27.9858C3.16509 27.8507 3.49435 27.9552 3.35742 28.0659C3.33993 28.0786 2.97355 28.1677 3.08301 27.9858Z" fill="#C3DDEB"/>
<path d="M3.21387 27.5044C3.31635 27.5198 3.26675 27.6588 3.24219 27.7183C3.1494 27.7162 3.22462 27.5632 3.21387 27.5044Z" fill="#C3DDEB"/>
<path d="M39.3877 27.0933C39.4765 27.1163 39.3811 27.4155 39.3145 27.4282C39.309 27.3115 39.3419 27.2005 39.3877 27.0933Z" fill="#C3DDEB"/>
<path d="M39.1045 26.521C39.1271 26.5039 39.6765 26.4501 39.4707 26.6294C39.4335 26.6617 39.3016 26.5351 39.2393 26.7544C39.2496 26.5907 38.9845 26.625 39.1045 26.521Z" fill="#C3DDEB"/>
<path d="M39.6172 26.5542C39.6805 26.5951 39.7351 26.6796 39.7891 26.7349C39.6629 26.7209 39.5701 26.6864 39.6172 26.5542Z" fill="#C3DDEB"/>
<path d="M3.23926 26.5688C3.24325 26.5771 3.23459 26.6918 3.22949 26.6958C3.09775 26.7995 3.12479 26.4488 3.23926 26.5688Z" fill="#C3DDEB"/>
<path d="M39.5605 26.0825C39.641 26.082 39.6481 26.2847 39.6357 26.3003C39.5513 26.4061 39.5233 26.1564 39.5605 26.0825Z" fill="#C3DDEB"/>
<path d="M39.8574 25.2505C40.0205 25.4505 39.7268 25.321 39.7119 25.3267C39.6904 25.3417 39.8252 25.4824 39.6797 25.4507C39.4447 25.2666 39.8435 25.2348 39.8574 25.2505Z" fill="#C3DDEB"/>
<path d="M3.3457 25.2144C3.42744 25.2133 3.43296 25.42 3.4209 25.4312C3.34347 25.5007 3.24471 25.2934 3.3457 25.2144Z" fill="#C3DDEB"/>
<path d="M39.791 25.0806C39.9031 25.056 40.0059 25.1178 39.8447 25.1245C39.8147 25.1257 39.7702 25.0855 39.791 25.0806Z" fill="#C3DDEB"/>
<path d="M39.4629 25.0854C39.5363 25.0665 39.5833 25.1081 39.541 25.1206C39.471 25.1216 39.4522 25.0883 39.4629 25.0854Z" fill="#C3DDEB"/>
<path d="M3.1709 24.436C3.21741 24.6374 3.26403 24.8392 3.31055 25.0405C3.15842 24.9735 3.27189 24.8058 3.22949 24.7065C3.16943 24.5694 2.58167 24.3358 3.1709 24.436Z" fill="#C3DDEB"/>
<path d="M41.3506 24.9194C41.5211 24.8999 41.6872 25.0067 41.5195 25.0259C41.4417 25.0047 41.5307 24.9573 41.4824 24.938C41.4765 24.9357 41.098 24.9484 41.3506 24.9194Z" fill="#C3DDEB"/>
<path d="M39.8379 24.9604C39.9075 24.9593 39.9269 24.992 39.917 24.9956C39.8437 25.0145 39.7961 24.9731 39.8379 24.9604Z" fill="#C3DDEB"/>
<path d="M2.87891 24.5874C2.89503 24.6191 2.85537 24.745 2.8623 24.7993C2.68833 24.7375 2.81899 24.4753 2.87891 24.5874Z" fill="#C3DDEB"/>
<path d="M47.54 24.2729C47.6922 24.2866 47.5782 24.3211 47.6211 24.3413C47.6847 24.3693 48.2667 24.4163 47.6797 24.396C47.6333 24.3551 47.5864 24.3138 47.54 24.2729Z" fill="#C3DDEB"/>
<path d="M47.9883 24.3218C48.1619 24.3344 48.0317 24.3874 47.9717 24.3647C47.9553 24.3584 47.9946 24.333 47.9883 24.3218Z" fill="#C3DDEB"/>
<path d="M47.4297 24.1929C47.5072 24.1788 47.6062 24.2217 47.5049 24.2378C47.423 24.2381 47.4176 24.1951 47.4297 24.1929Z" fill="#C3DDEB"/>
<path d="M47.6084 23.728C47.7013 23.7285 47.6256 23.7591 47.6367 23.771C47.534 23.7679 47.5838 23.7402 47.6084 23.728Z" fill="#C3DDEB"/>
<path d="M47.4932 23.6567C47.5125 23.6541 47.8772 23.6364 47.7676 23.6733C47.6855 23.7008 47.3562 23.6793 47.4932 23.6567Z" fill="#C3DDEB"/>
<path d="M2.44922 22.4497C2.32712 22.2734 2.69008 22.4562 3.17578 22.771C3.31834 22.9461 2.75157 22.859 2.44922 22.4497Z" fill="#C3DDEB"/>
<path d="M1.75586 20.7505C2.03048 21.2914 2.73544 22.0058 3.28809 22.3579C3.83031 22.716 4.15955 22.8739 3.62695 22.7642C3.08263 22.6243 2.89096 22.2335 2.84277 22.1929C2.27663 21.7778 1.4562 20.5563 1.75586 20.7505Z" fill="#C3DDEB"/>
<path d="M0.756836 19.1919C0.74882 18.6001 0.844027 19.6245 1.44824 20.689C2.02516 21.7918 3.20034 22.6262 3.30957 22.6919C3.15376 22.6497 2.21974 22.0666 1.61035 21.1655C0.976356 20.286 0.759346 19.2647 0.756836 19.1919Z" fill="#C3DDEB"/>
<path d="M47.2266 22.2759C47.2121 22.2866 47.2357 22.3252 47.1846 22.3267C47.1021 22.3284 47.0227 22.2793 47.2266 22.2759Z" fill="#C3DDEB"/>
<path d="M47.3262 22.2593C47.3699 22.2504 47.4886 22.282 47.5049 22.2788C47.5359 22.2723 47.5506 22.2673 47.5537 22.2632C47.5911 22.2912 47.6092 22.3208 47.582 22.3237C47.4527 22.337 47.5059 22.2976 47.499 22.2964C47.4777 22.2948 47.0289 22.3195 47.3262 22.2593Z" fill="#C3DDEB"/>
<path d="M47.3379 22.229C47.4008 22.1872 47.4878 22.2182 47.543 22.2554C47.4957 22.2436 47.3173 22.243 47.3379 22.229Z" fill="#C3DDEB"/>
<path d="M0.803711 20.271C0.46767 19.38 0.474038 18.6533 0.604492 19.1538C0.622157 19.2314 0.869515 20.2461 1.38574 21.0454C1.87847 21.8559 2.51776 22.4063 2.15918 22.2104C1.91573 22.0874 1.11633 21.1736 0.803711 20.271Z" fill="#C3DDEB"/>
<path d="M47.1865 22.1362C47.2997 22.1483 47.2491 22.188 47.2061 22.2056C47.0683 22.1934 47.1656 22.156 47.1865 22.1362Z" fill="#C3DDEB"/>
<path d="M47.3877 21.9136C47.473 21.9146 47.4154 21.9585 47.4336 21.9692C47.4578 21.9828 47.5999 21.9667 47.5693 21.9897C47.5498 22.0041 47.303 21.9957 47.2861 21.9985C47.2759 22.0011 47.4201 22.0527 47.1621 22.0327C47.0881 22.0269 47.1268 21.9894 47.1572 21.981C47.1632 21.9795 47.3558 21.9857 47.3428 21.9692C47.3294 21.9562 47.1327 21.9756 47.1641 21.9497C47.1967 21.9239 47.337 21.9587 47.3477 21.9565C47.3609 21.9534 47.2719 21.9123 47.3877 21.9136Z" fill="#C3DDEB"/>
<path d="M46.8809 21.8335C46.9206 21.811 47.0676 21.8331 47.0156 21.8481C47.0104 21.8494 46.8467 21.8532 46.8809 21.8335Z" fill="#C3DDEB"/>
<path d="M46.8447 21.6812C46.8738 21.6871 46.8066 21.811 46.7891 21.8276C46.6021 21.8339 46.7772 21.7815 46.7607 21.7681C46.7571 21.7658 46.6002 21.764 46.5859 21.7515C46.5827 21.7468 46.7165 21.7404 46.7197 21.7388C46.7208 21.7336 46.67 21.6483 46.8447 21.6812Z" fill="#C3DDEB"/>
<path d="M47.2686 21.5571C47.3848 21.5655 47.3477 21.5919 47.3408 21.6099C47.225 21.6015 47.2613 21.5751 47.2686 21.5571Z" fill="#C3DDEB"/>
<path d="M47.1309 21.5464C47.2185 21.5474 47.2333 21.5853 47.2061 21.5903C47.1641 21.5977 47.0898 21.5585 47.1309 21.5464Z" fill="#C3DDEB"/>
<path d="M45.874 21.5298C45.9703 21.5186 46.0623 21.5706 45.9463 21.5825C45.8048 21.597 45.8579 21.5323 45.874 21.5298Z" fill="#C3DDEB"/>
<path d="M46.5371 20.7759C46.6915 20.7921 46.5834 20.8924 46.4512 20.8784C46.3452 20.8671 46.4309 20.7926 46.5371 20.7759Z" fill="#C3DDEB"/>
<path d="M46.7256 20.6479C46.7053 20.6595 46.7566 20.6929 46.6641 20.6909C46.6437 20.6728 46.5918 20.654 46.7256 20.6479Z" fill="#C3DDEB"/>
<path d="M46.5781 20.0571C46.7124 20.0314 46.6779 20.1202 46.5645 20.0913C46.5598 20.089 46.5719 20.0585 46.5781 20.0571Z" fill="#C3DDEB"/>
<path d="M46.6133 19.8413C46.691 19.8452 46.7856 19.899 46.6602 19.9019C46.4865 19.9056 46.596 19.8523 46.6133 19.8413Z" fill="#C3DDEB"/>
<path d="M46.2324 19.6987C46.4265 19.6279 46.3464 19.9724 46.0762 19.7729C46.1349 19.7823 46.1942 19.7919 46.2529 19.8013C46.2994 19.7758 46.2773 19.7441 46.1816 19.7437C46.1965 19.7431 46.2127 19.7418 46.2285 19.7397C46.2442 19.7377 46.2005 19.7106 46.2324 19.6987Z" fill="#C3DDEB"/>
<path d="M46.458 18.9028C46.5294 18.9119 46.549 18.9631 46.4541 18.9722C46.4101 18.951 46.4608 18.925 46.458 18.9028Z" fill="#C3DDEB"/>
<path d="M5.55273 15.1587C5.76575 15.1775 5.40244 15.4736 5.28613 15.3511C5.26479 15.3281 5.51126 15.1561 5.55273 15.1587Z" fill="#C3DDEB"/>
<path d="M5.37695 14.8784C5.53543 14.8813 5.27872 15.0631 5.17676 15.0669C5.13791 15.0081 5.35147 14.8795 5.37695 14.8784Z" fill="#C3DDEB"/>
<path d="M6.37402 14.8003C6.41307 14.8593 6.19703 14.9886 6.17285 14.9888C6.01506 14.9856 6.27217 14.804 6.37402 14.8003Z" fill="#C3DDEB"/>
<path d="M5.38574 13.6509C5.16713 14.0107 5.44076 13.8045 5.41894 13.9165C5.40059 14.0052 5.18747 14.0453 5.36035 14.1196C5.14867 14.0514 4.55395 14.3943 4.50781 14.3901C4.48431 14.3844 4.36793 14.0498 4.50586 14.0366C4.93897 13.9959 4.76838 14.3134 5.38574 13.6509Z" fill="#C3DDEB"/>
<path d="M5.39355 13.4946C5.38576 13.6115 4.81683 13.9597 4.77539 13.8413C4.73985 13.7375 5.30054 13.5422 5.39355 13.4946Z" fill="#C3DDEB"/>
<path d="M43.4014 13.7251C43.3924 13.7532 43.334 13.839 43.3281 13.8374C43.3096 13.8234 43.4249 13.65 43.4014 13.7251Z" fill="#C3DDEB"/>
<path d="M43.2314 13.7329C43.3189 13.5964 43.3159 13.7446 43.2471 13.8149C43.2374 13.8231 43.2493 13.7245 43.2314 13.7329Z" fill="#C3DDEB"/>
<path d="M43.2129 13.3247C43.1002 13.5483 43.0906 13.6507 43.21 13.4526C43.1282 13.6417 43.0794 13.6547 43.0947 13.5679C43.0982 13.5481 43.173 13.3508 43.2129 13.3247Z" fill="#C3DDEB"/>
<path d="M6.44824 11.9634C6.48199 12.019 6.20817 12.1763 6.18945 12.1782C6.00593 12.1783 6.33125 11.9779 6.44824 11.9634Z" fill="#C3DDEB"/>
<path d="M6.90723 10.8442C6.62097 11.1927 6.92124 10.9563 6.97949 11.0464C7.21561 11.4154 6.39778 11.1092 6.25488 11.2827C6.23584 11.3068 6.48609 11.3368 6.43848 11.4048C6.29223 11.6122 5.43752 11.3868 5.95801 11.1489L6.08105 11.1021C6.27866 11.0364 6.21375 11.1896 6.22363 11.189C6.68878 11.135 6.47396 10.9665 6.52246 10.9097C6.62642 10.7876 6.74 11.0668 6.90723 10.8442Z" fill="#C3DDEB"/>
<path d="M6.73144 10.564C6.75397 10.5663 6.64717 10.9602 6.48144 10.7993C6.3547 10.676 6.6734 10.5603 6.73144 10.564Z" fill="#C3DDEB"/>
<path d="M16.3438 4.75732C16.3757 4.57826 16.8846 4.52479 16.8359 4.6167C16.8236 4.63739 16.3441 4.84707 16.3438 4.75732Z" fill="#C3DDEB"/>
<path fill-rule="evenodd" clip-rule="evenodd" d="M21.0465 8.63492C21.5295 8.37872 22.1386 8.36577 22.6392 8.60855C25.2473 9.8194 27.8534 11.044 30.4517 12.2843C31.1227 12.6045 31.8109 12.9357 32.482 13.2589C33.1604 13.5858 33.8255 13.9064 34.5045 14.2365C34.7105 14.3366 34.9217 14.4404 35.1383 14.5461C36.2117 15.0694 37.2273 15.6483 38.2545 16.2199C38.6895 16.4298 38.9879 16.7966 39.1471 17.2179C39.1546 17.2231 39.1616 17.2282 39.1695 17.2306C39.19 17.2367 39.2176 17.2255 39.2467 17.2101C39.2586 17.2127 39.2709 17.2154 39.2828 17.2179C39.3612 17.2347 39.4399 17.2524 39.5181 17.2697C39.5602 17.3211 39.6058 17.3737 39.6744 17.4211C39.704 17.4414 39.7296 17.4705 39.7535 17.4982C39.7887 17.5391 39.8226 17.5777 39.8658 17.5832C39.8945 17.5868 39.914 17.6123 39.9332 17.6378C39.9592 17.6724 39.9859 17.7069 40.0347 17.6877C40.0654 17.6755 40.0974 17.6582 40.1265 17.6418C40.1728 17.6156 40.2135 17.5929 40.2359 17.6007C40.2777 17.616 40.3268 17.6042 40.3697 17.5939C40.4212 17.5815 40.4649 17.571 40.4781 17.6115C40.4801 17.6176 40.4819 17.6261 40.484 17.6349C40.4949 17.6821 40.5126 17.7574 40.5904 17.7599C40.6182 17.7607 40.653 17.744 40.6871 17.7277C40.7367 17.704 40.785 17.6819 40.8082 17.714C40.8116 17.7188 40.8115 17.7316 40.8111 17.7433C40.8107 17.7583 40.8105 17.7714 40.818 17.7638C40.8401 17.741 40.8689 17.7177 40.9 17.6925C40.9228 17.674 40.9473 17.6543 40.9713 17.633C41.0603 17.6586 41.1495 17.685 41.2379 17.7121C41.2781 17.7244 41.3188 17.7365 41.359 17.7492C41.3576 17.7997 41.3592 17.8467 41.3658 17.8849C41.3745 17.9348 41.4042 17.9642 41.442 18.0011C41.4697 18.0283 41.5027 18.0598 41.5347 18.1076C41.5944 18.1964 41.685 18.2294 41.7525 18.2316C41.7666 18.232 41.7812 18.2316 41.7965 18.2316C41.8251 18.2316 41.858 18.2319 41.898 18.2345C42.085 18.3783 42.3424 18.6495 42.2974 18.881C42.3139 18.9203 42.3315 18.9692 42.3502 19.0334C42.3847 19.1519 42.3942 19.2535 42.401 19.3293C42.4044 19.3675 42.4074 19.3995 42.4127 19.424C42.4219 19.4661 42.4299 19.5186 42.4381 19.5705C42.4508 19.6515 42.464 19.7331 42.481 19.7795C42.4871 19.7959 42.4945 19.8136 42.5025 19.8322C42.5248 19.8838 42.5514 19.9465 42.567 20.0324C42.5833 20.1227 42.5725 20.1793 42.5484 20.2375C42.5386 20.2611 42.4996 20.2824 42.4596 20.3039C42.4028 20.3343 42.3428 20.3665 42.3599 20.4093C42.3641 20.4193 42.3737 20.4304 42.3834 20.4416C42.4011 20.4621 42.4208 20.4843 42.4127 20.507C42.4097 20.515 42.3986 20.5226 42.3883 20.5295C42.3771 20.5369 42.3655 20.5446 42.3648 20.5529C42.3626 20.5841 42.3654 20.6148 42.3678 20.6418C42.3708 20.6766 42.3729 20.7056 42.3638 20.7238C42.3474 20.7562 42.3625 20.7924 42.3775 20.8283C42.389 20.8557 42.4002 20.8835 42.398 20.9103C42.3918 20.987 42.4206 21.0926 42.4674 21.2013C42.4851 21.2425 42.4603 21.2777 42.4293 21.3224C42.41 21.3501 42.3877 21.3819 42.3717 21.4211C42.3672 21.4321 42.3707 21.4426 42.3775 21.4523L42.4283 21.5031C42.4335 21.5106 42.4348 21.518 42.4303 21.5255C42.4217 21.539 42.3855 21.5477 42.3512 21.5558C42.3132 21.5648 42.2773 21.574 42.2838 21.588C42.2878 21.5955 42.3058 21.6047 42.3267 21.6154C42.3351 21.6197 42.3452 21.6242 42.3541 21.6291C42.3469 21.6288 42.3394 21.6291 42.3346 21.6291C42.2999 21.6292 42.2812 21.6433 42.2633 21.6574C42.2561 21.663 42.2489 21.6694 42.2408 21.674C42.211 21.6911 42.2053 21.7235 42.2066 21.7482C42.2069 21.7584 42.1966 21.7677 42.1842 21.7785C42.173 21.7882 42.1603 21.7997 42.1529 21.8136C42.1487 21.8217 42.138 21.8281 42.1295 21.8332C42.1234 21.8368 42.1182 21.84 42.1168 21.8429C42.1156 21.8454 42.1261 21.8475 42.1373 21.8498C42.1452 21.8514 42.154 21.8535 42.1597 21.8556C42.1734 21.8609 42.1777 21.8675 42.1734 21.8722C42.1714 21.8744 42.1674 21.8764 42.1637 21.8781C42.1592 21.8801 42.1545 21.8822 42.1529 21.8849C42.1458 21.8973 42.1568 21.9095 42.1685 21.922C42.1816 21.936 42.1951 21.9507 42.1851 21.967C42.1819 21.9721 42.1747 21.9783 42.1676 21.9836C42.1604 21.9889 42.153 21.9938 42.151 21.9982C42.1432 22.0167 42.1689 22.0349 42.192 22.0509C42.2067 22.0612 42.2204 22.0712 42.2242 22.0802C42.2302 22.0972 42.2606 22.1067 42.2828 22.1134C42.294 22.1169 42.304 22.1203 42.3072 22.1232C42.3064 22.1258 42.3053 22.1284 42.3043 22.131C42.3022 22.1334 42.3 22.1365 42.3004 22.1388C42.2931 22.1539 42.2832 22.17 42.273 22.1847C42.25 22.218 42.2265 22.2515 42.2388 22.2863C42.2416 22.2938 42.2546 22.302 42.2672 22.3097C42.2825 22.3192 42.2983 22.3291 42.2974 22.339C42.2947 22.3628 42.2737 22.3866 42.2535 22.4103C42.2233 22.4457 42.1944 22.481 42.2262 22.5128C42.2368 22.5233 42.2551 22.5339 42.273 22.5441C42.283 22.5498 42.2935 22.5559 42.3023 22.5617C42.286 22.5605 42.2698 22.5603 42.2555 22.5597C42.2261 22.5585 42.2007 22.5565 42.1793 22.5509C42.1283 22.5377 42.0576 22.523 42.0064 22.5246H41.9049C41.8878 22.5257 41.8729 22.5283 41.8638 22.5343C41.8516 22.5427 41.824 22.5648 41.8531 22.5783C41.8596 22.5812 41.873 22.5831 41.8873 22.5851C41.913 22.5887 41.9434 22.593 41.9508 22.6056C41.9519 22.6077 41.9528 22.6102 41.9537 22.6125C41.9577 22.622 41.9629 22.6327 41.983 22.6369C42.0069 22.6415 42.0351 22.641 42.067 22.6398C42.1085 22.6383 42.158 22.6367 42.2174 22.6466C42.2282 22.6485 42.2329 22.6517 42.2359 22.6545C42.238 22.6564 42.2405 22.6581 42.2437 22.6584C42.2478 22.6585 42.2566 22.6582 42.2672 22.6574C42.3046 22.6545 42.3696 22.6497 42.3736 22.6701C42.3744 22.6758 42.3716 22.6828 42.3687 22.6886C42.3646 22.6971 42.3614 22.7041 42.3717 22.7052C42.3757 22.7056 42.3808 22.706 42.3853 22.7062C42.384 22.713 42.3827 22.7199 42.3814 22.7267C42.3688 22.7354 42.3693 22.7477 42.3707 22.7628C42.371 22.7664 42.3715 22.7707 42.3717 22.7746C42.369 22.7881 42.3666 22.8021 42.3638 22.8156C42.3584 22.8263 42.3487 22.8377 42.3346 22.8498C42.3062 22.8737 42.2598 22.8948 42.2144 22.9152C42.1953 22.9238 42.1761 22.9329 42.1588 22.9416C42.1566 22.9383 42.1534 22.9351 42.15 22.9328C42.126 22.9169 42.0787 22.9104 42.0357 22.9045C42.0073 22.9005 41.9798 22.8959 41.9625 22.8898C41.9307 22.8788 41.8933 22.8802 41.8658 22.881C41.8517 22.8814 41.8396 22.8815 41.8326 22.88C41.8274 22.8788 41.8245 22.876 41.8219 22.8732C41.8195 22.8708 41.8165 22.868 41.8121 22.8664C41.7575 22.8463 41.7254 22.8527 41.6793 22.8615C41.6538 22.8663 41.6231 22.8716 41.5826 22.8742C41.5402 22.8764 41.5272 22.8757 41.5103 22.8654C41.4891 22.8736 41.4671 22.8816 41.4459 22.8898C41.4473 22.893 41.4611 22.8961 41.483 22.8996C41.522 22.9057 41.5372 22.925 41.5484 22.9406C41.5536 22.9477 41.5582 22.9545 41.564 22.9582C41.5961 22.977 41.6409 22.9718 41.6803 22.967C41.7018 22.9643 41.7225 22.9622 41.7379 22.964C41.7443 22.9648 41.7509 22.9632 41.7574 22.9621C41.7624 22.9612 41.7678 22.9602 41.773 22.9601C41.8121 22.9599 41.8418 22.9712 41.8687 22.9816C41.884 22.9875 41.8992 22.9931 41.9146 22.9962C41.9193 22.9972 41.9246 22.9985 41.9293 22.9992C41.936 23.0002 41.9432 23.0006 41.9488 23.0021C41.9613 23.0057 41.9699 23.0137 41.9791 23.0216C41.9838 23.0258 41.9898 23.0303 41.9957 23.0343C42.0034 23.0395 42.0188 23.0421 42.0347 23.0441C42.0461 23.0455 42.0583 23.0472 42.068 23.05C42.0852 23.055 42.0914 23.0651 42.0972 23.0744C42.0997 23.0783 42.1029 23.0819 42.106 23.0851C42.1073 23.0864 42.1104 23.0878 42.1138 23.088C42.126 23.1033 42.1388 23.1178 42.151 23.132C42.2126 23.2041 42.2659 23.2673 42.2271 23.3605C42.22 23.378 42.2214 23.3972 42.2271 23.4162C42.2118 23.4772 42.1956 23.5387 42.1793 23.5998C42.1443 23.6118 42.1145 23.6264 42.0914 23.6437C42.0479 23.6765 42.0379 23.7104 42.0269 23.7502C42.0188 23.7797 42.0096 23.8134 41.9849 23.8517C41.9437 23.916 41.9084 23.9823 41.8902 24.0568C41.8722 24.1308 41.8588 24.2155 41.8541 24.2755C41.8515 24.3083 41.8201 24.3431 41.7906 24.3752C41.7493 24.4202 41.7128 24.4608 41.7662 24.4855C41.7834 24.4933 41.8136 24.5016 41.8424 24.5089C41.8627 24.5142 41.8831 24.5195 41.898 24.5246C41.8934 24.5381 41.8881 24.552 41.8834 24.5656C41.8478 24.5897 41.8102 24.6272 41.8492 24.6632C41.8443 24.6773 41.8395 24.6917 41.8346 24.7052C41.8241 24.7348 41.8139 24.7639 41.8033 24.7931C41.7998 24.8026 41.7961 24.8128 41.7926 24.8224C41.7855 24.8417 41.7782 24.861 41.7711 24.88C41.768 24.8883 41.7644 24.8972 41.7613 24.9054C41.7535 24.9263 41.7458 24.9473 41.7379 24.9679C41.7337 24.9789 41.7294 24.9901 41.7252 25.0011C41.7183 25.0192 41.7117 25.0377 41.7047 25.0558C41.6934 25.0849 41.6819 25.1138 41.6705 25.1427C41.6686 25.1475 41.662 25.1521 41.6529 25.1554C41.6439 25.1587 41.6323 25.1613 41.6207 25.1613C41.6091 25.1612 41.5974 25.1588 41.5885 25.1554C41.5798 25.1521 41.5737 25.1474 41.5719 25.1427C41.5608 25.1138 41.5495 25.0848 41.5387 25.0558C41.5319 25.0378 41.5248 25.0191 41.5181 25.0011C41.5141 24.9902 41.5105 24.9788 41.5064 24.9679C41.4988 24.9473 41.4905 24.9262 41.483 24.9054C41.48 24.8972 41.4772 24.8882 41.4742 24.88C41.4672 24.8608 41.4596 24.8408 41.4527 24.8214L41.443 24.7931C41.4327 24.764 41.4218 24.7347 41.4117 24.7052C41.4063 24.69 41.4014 24.6731 41.3961 24.6574C41.3931 24.6487 41.3902 24.6395 41.3873 24.631C41.3858 24.6265 41.3839 24.6219 41.3824 24.6173C41.345 24.507 41.3085 24.3969 41.274 24.2863C41.2395 24.1761 41.2062 24.0653 41.1744 23.9552C41.1426 23.8449 41.1118 23.7344 41.0826 23.6242C40.8971 22.9237 40.7452 22.2193 40.65 21.5158C40.6363 21.4156 40.6239 21.3124 40.6129 21.2121C40.6018 21.1106 40.5919 21.0111 40.5836 20.9093C40.581 20.8784 40.5791 20.8461 40.5767 20.8136C40.5574 20.5501 40.7414 20.2959 40.7418 20.0314C40.742 19.8151 40.6674 19.5961 40.6246 19.3781C40.5707 19.3392 40.5159 19.3006 40.4625 19.2609C40.195 19.0621 39.9319 18.8541 39.6724 18.6388C39.5329 18.5229 39.3943 18.4049 39.2564 18.2853C39.176 18.8052 38.9005 19.2906 38.4195 19.5812C38.3565 19.6221 38.2932 19.6584 38.2271 19.6916C37.0063 20.3055 35.7977 20.9705 34.5846 21.6242C34.5906 21.732 34.5971 21.8397 34.6031 21.9474C34.6253 22.3484 34.6475 22.7487 34.6695 23.1496C34.5675 23.2127 34.4898 23.2998 34.4556 23.4621C34.4382 23.5449 34.4308 23.666 34.4498 23.755C34.4583 23.7951 34.4706 23.8302 34.484 23.8625L34.5679 24.0421C34.5802 24.0729 34.5902 24.1053 34.5953 24.1418C34.6125 24.2656 34.6563 24.3834 34.7017 24.507C34.7183 24.552 34.7355 24.5985 34.7515 24.6457C34.7723 25.0285 34.7927 25.4113 34.8131 25.7941C34.8022 25.942 34.7933 26.0782 34.7974 26.1935C34.8012 26.297 34.8224 26.3922 34.8492 26.4865C34.8523 26.5457 34.8558 26.605 34.859 26.6642C34.879 27.0466 34.8989 27.4291 34.9185 27.8117C34.8913 28.1102 34.8647 28.4235 34.8531 28.8302C34.8481 29.0056 34.8331 29.1795 34.8189 29.3459C34.7981 29.5912 34.7789 29.8221 34.7935 30.0246C34.802 30.1415 34.7919 30.2642 34.7799 30.3869C34.778 30.4084 34.7763 30.4299 34.774 30.4513C34.7514 30.6621 34.711 30.8657 34.7174 31.0597C34.7214 31.1819 34.7273 31.2968 34.7281 31.4045C34.7294 31.5757 34.7185 31.7295 34.6734 31.8556C34.5888 32.0918 34.5204 32.3013 34.4478 32.4845C34.3606 32.7042 34.2671 32.8862 34.1353 33.0041C34.1154 33.0219 34.091 33.042 34.064 33.0636C33.9202 33.1779 33.6956 33.3488 33.4039 33.6261C33.2993 33.7249 33.2073 33.8286 33.1109 33.9269C32.9769 34.0636 32.8327 34.1911 32.649 34.2638C32.6424 34.2663 32.6353 34.2683 32.6285 34.2707C32.604 34.2792 32.5742 34.2806 32.5474 34.2814C32.5136 34.2824 32.4843 34.2837 32.4742 34.3C32.4445 34.3477 32.3905 34.4098 32.3326 34.4777C32.29 34.5277 32.2448 34.5818 32.2047 34.6339C31.8074 34.8413 31.4095 35.048 31.0113 35.2541C30.829 35.3484 30.6461 35.4422 30.4635 35.5363C30.3491 35.5399 30.2344 35.5491 30.1187 35.5695C29.9673 35.5962 29.7878 35.6674 29.5572 35.7589C29.3875 35.8263 29.1892 35.9053 28.9537 35.9855C28.5176 36.134 28.0976 36.3463 27.8375 36.5011C27.7825 36.5339 27.7264 36.567 27.6676 36.6027C27.4441 36.738 27.1652 36.9072 26.6246 37.2043C26.113 37.4854 25.669 37.7065 25.3355 37.8722C25.1654 37.9568 25.0236 38.0274 24.9166 38.0841C24.7336 38.1812 24.5076 38.2975 24.2808 38.4142C24.0989 38.5079 23.9159 38.6021 23.7545 38.6867C23.5621 38.7857 23.3857 38.8595 23.2564 38.9113C23.1622 38.9491 23.0616 38.9863 22.9517 39.0226C22.6475 39.1213 22.2631 39.2223 21.7213 39.2267C21.1531 39.2238 20.8041 39.1256 20.4644 38.9972C20.3262 38.9432 20.2169 38.8614 20.1109 38.7736C20.0558 38.7279 20.001 38.681 19.943 38.6339C19.8636 38.5625 19.7712 38.4958 19.6451 38.4484L19.3404 38.3566C19.2889 38.3388 19.237 38.3172 19.1881 38.2892C19.1544 38.2699 19.128 38.2455 19.1021 38.2218C19.0735 38.1956 19.0444 38.1698 19.0074 38.1515C18.8692 38.0833 18.7323 38.021 18.6109 37.966C18.4544 37.895 18.3225 37.8359 18.2457 37.7892C18.1087 37.706 17.9448 37.6444 17.7789 37.5822C17.6522 37.5347 17.5241 37.4864 17.4058 37.4279C17.0678 37.2605 16.5864 37.063 16.0836 36.8761C15.8936 36.8054 15.7488 36.7101 15.564 36.588C15.4491 36.5121 15.3182 36.4255 15.151 36.3283C15.0562 36.2732 14.9634 36.2523 14.8775 36.2336C14.7983 36.2162 14.7245 36.2002 14.6607 36.1593C14.6047 36.1233 14.5823 36.0726 14.5611 36.0246C14.5375 35.971 14.5148 35.9202 14.4488 35.8966C14.4137 35.8842 14.3647 35.8817 14.3072 35.8781C14.2845 35.8767 14.2602 35.8744 14.2349 35.8722C14.239 35.8663 14.2426 35.861 14.2447 35.8566C14.2598 35.8249 14.2034 35.777 14.148 35.7306C14.126 35.7122 14.1036 35.694 14.0865 35.6769C14.0235 35.6139 13.8823 35.5412 13.7721 35.4904C13.7255 35.4689 13.6876 35.4391 13.6441 35.4045C13.6054 35.3736 13.561 35.3383 13.5015 35.3019C13.468 35.2813 13.4453 35.2587 13.4263 35.2404C13.4126 35.2271 13.4006 35.2156 13.3883 35.2082C13.3776 35.2019 13.3641 35.2067 13.3492 35.2121C13.3384 35.2159 13.3262 35.2203 13.314 35.2209C13.2849 35.2222 13.2531 35.2114 13.234 35.1974C13.2252 35.191 13.2184 35.184 13.2125 35.1769C13.2056 35.1686 13.1985 35.1597 13.1871 35.1525C13.1343 35.1195 13.0748 35.1041 13.0133 35.088C12.9455 35.0704 12.875 35.0514 12.8072 35.008C12.7859 34.9943 12.7641 34.9767 12.7437 34.9591C12.7225 34.9408 12.7016 34.9226 12.6822 34.9113C12.6034 34.8654 12.5151 34.8509 12.4342 34.838C12.3804 34.8295 12.3295 34.8215 12.2867 34.8048C12.2082 34.7743 12.1544 34.7824 12.1148 34.7882C12.0945 34.7912 12.0775 34.7938 12.0631 34.7902C12.0512 34.7836 12.0386 34.7764 12.0269 34.7697C12.0169 34.7625 12.0066 34.7546 11.9957 34.7502L11.9928 34.7492C11.9282 34.7105 11.8659 34.6697 11.8043 34.6291C11.6654 34.5374 11.5278 34.4461 11.3668 34.3839C11.3321 34.3706 11.2917 34.3656 11.2515 34.3605C11.2027 34.3543 11.1525 34.3481 11.109 34.3263C11.0781 34.3108 11.047 34.2935 11.0172 34.2755C10.931 34.2255 10.8499 34.1667 10.7721 34.1066C10.6051 33.9779 10.4557 33.8427 10.2887 33.756C10.2335 33.7274 10.1748 33.7038 10.1168 33.6789C10.0845 33.665 10.0517 33.6499 10.0201 33.6339C10.0363 33.6264 10.05 33.618 10.0621 33.6095C10.0871 33.5919 10.1087 33.5769 10.1471 33.5812C10.2383 33.592 10.3481 33.5882 10.3726 33.5421C10.3793 33.5297 10.3906 33.5188 10.4019 33.508C10.4306 33.4806 10.4586 33.4525 10.4195 33.3976C10.3925 33.3604 10.3252 33.2659 10.2525 33.2394C10.2368 33.234 10.221 33.2372 10.2037 33.2404C10.1721 33.2461 10.1334 33.253 10.0787 33.2091C10.0695 33.2018 10.0594 33.1933 10.0494 33.1847C10.0096 33.1505 9.96631 33.111 9.93611 33.1086C9.90129 33.1062 9.88388 33.128 9.86482 33.1545C9.83991 33.1887 9.81126 33.2306 9.72811 33.2277C9.71168 33.2269 9.69356 33.2137 9.68025 33.2033C9.67119 33.1962 9.66411 33.1904 9.66072 33.1916C9.65703 33.1936 9.65284 33.2025 9.64803 33.213C9.63092 33.2505 9.60051 33.3177 9.51619 33.2238C9.4935 33.1982 9.4705 33.1659 9.45076 33.1369C9.42165 33.0941 9.39839 33.0577 9.38631 33.0597C9.38206 33.0605 9.37775 33.062 9.37361 33.0636C9.34954 33.0301 9.32543 32.9962 9.30232 32.9621C9.2818 32.9118 9.23853 32.8521 9.18709 32.7755C9.17459 32.7569 9.16122 32.7367 9.14803 32.716C9.1072 32.6458 9.06858 32.5743 9.03182 32.5021C9.00555 32.4432 8.9815 32.3784 8.96248 32.3078C8.9245 32.1663 8.91865 32.0335 8.91854 31.9064C8.91849 31.8528 8.91923 31.7998 8.91951 31.7472C8.92783 31.7648 8.93613 31.7807 8.94393 31.7921C8.99741 31.8701 9.05489 31.8871 9.10701 31.9015C9.14183 31.911 9.17545 31.9195 9.20467 31.9435C9.25785 31.9869 9.2896 31.9664 9.31307 31.9513C9.32523 31.9435 9.33574 31.9373 9.34529 31.9416C9.35297 31.9451 9.36195 31.9572 9.37068 31.9699C9.37824 31.9808 9.38643 31.9922 9.39412 31.9982C9.48863 32.0701 9.5034 32.0266 9.52596 31.967C9.53847 31.9337 9.55376 31.8948 9.58553 31.8664C9.62026 31.8386 9.6335 31.8371 9.67049 31.8761C9.67292 31.8311 9.67602 31.7866 9.68025 31.7423C9.67295 31.7288 9.65615 31.7228 9.62947 31.716C9.58167 31.7037 9.53194 31.6186 9.49666 31.55C9.48016 31.5182 9.46672 31.4896 9.45565 31.4748C9.41215 31.4161 9.38149 31.422 9.35604 31.4435L9.30721 31.4943C9.29902 31.5008 9.29062 31.5044 9.28182 31.5021C9.27449 31.5002 9.26966 31.5072 9.26522 31.5148C9.2617 31.5208 9.2576 31.5276 9.25252 31.5295C9.21557 31.5421 9.16945 31.4951 9.1285 31.4494C9.10507 31.4233 9.08338 31.3973 9.06404 31.3849C9.05819 31.3812 9.05194 31.3786 9.04647 31.3761C9.03842 31.3724 9.03057 31.3684 9.02303 31.3615C9.00577 31.3456 8.98735 31.3083 8.96834 31.2668C8.95861 31.2455 8.94844 31.2232 8.93807 31.2023C8.92457 31.1751 8.90733 31.1673 8.88924 31.1593C8.87654 31.1537 8.86349 31.1473 8.85115 31.1339C8.82873 31.1095 8.81211 31.0546 8.79842 31.0031C8.79244 30.9807 8.7866 30.9588 8.78084 30.9406C8.77853 30.9333 8.7757 30.9293 8.77205 30.9289C8.74842 30.8438 8.7276 30.7618 8.70955 30.6808C8.68752 30.582 8.66968 30.485 8.65682 30.3869C8.617 30.1277 8.59334 29.8678 8.62264 29.5216C8.62996 29.4351 8.62849 29.3421 8.62264 29.2482C8.63805 28.9477 8.65417 28.6463 8.67049 28.3459C8.70574 28.2865 8.73512 28.2139 8.75838 28.1281C8.80218 27.9664 8.81178 27.7999 8.82283 27.6037C8.831 27.4585 8.8402 27.2968 8.86482 27.1086C8.90619 26.7923 8.94137 26.4671 8.95955 26.1007C8.97764 25.7362 8.99095 25.3189 8.99568 25.0236C8.99827 24.8625 9.02969 24.693 9.05916 24.5353C9.10059 24.3136 9.13731 24.1149 9.08357 23.9933C9.06635 23.9545 9.03643 23.9165 9.0074 23.88C8.9868 23.8541 8.96672 23.8279 8.95174 23.8029C8.9564 23.7362 8.96168 23.6694 8.96639 23.6027C9.00228 23.4838 9.04052 23.2988 9.00057 23.1203C9.00551 23.0512 9.01022 22.9819 9.01522 22.9152C9.02566 22.7697 9.03581 22.6272 9.04647 22.4836C9.04999 22.4367 9.05366 22.3894 9.05721 22.342V22.34C9.06434 22.2446 9.07147 22.1484 9.07869 22.0539C9.08178 22.0133 9.08537 21.9724 9.08846 21.9318C9.09628 21.8288 9.10396 21.7251 9.1119 21.6232C9.11612 21.5692 9.12034 21.5147 9.12459 21.4601C9.13149 21.3716 9.13812 21.2822 9.1451 21.1935C9.15186 21.1076 9.1585 21.0216 9.16561 20.9357C8.5231 20.584 7.87973 20.2329 7.23787 19.881C6.74355 19.61 6.25001 19.3393 5.75643 19.0685C5.59802 18.9827 5.45697 18.8623 5.35213 18.717C4.98888 18.2267 5.0908 17.4918 5.54549 17.1349C5.60698 17.0846 5.67649 17.0519 5.73299 17.0402C5.78833 17.0292 5.8263 17.0379 5.83748 17.0597C5.84856 17.0822 5.83249 17.1162 5.80135 17.1564C5.76921 17.1972 5.72518 17.2422 5.6783 17.2873C5.32805 17.6097 5.31742 18.2013 5.6158 18.5275C5.69821 18.6214 5.80138 18.695 5.91658 18.7462C6.32521 18.9321 6.73439 19.1188 7.14315 19.3048C7.18266 19.4386 7.26588 19.5662 7.46932 19.7062C7.57315 19.7776 7.73255 19.8662 7.86092 19.9093C7.97617 19.9479 8.07175 19.9612 8.1617 19.9738C8.25575 19.987 8.34595 20.0002 8.44881 20.0402C8.62342 20.1082 8.80196 20.1489 8.98885 20.1916C9.05673 20.207 9.12629 20.2229 9.19686 20.2404C9.72245 20.48 10.2486 20.7202 10.774 20.9601C10.9685 21.0695 11.1488 21.1693 11.3062 21.2433C11.4472 21.3096 11.5852 21.3541 11.7242 21.3937C11.8054 21.4308 11.8872 21.4679 11.9683 21.505C12.4932 21.745 13.0187 21.9852 13.5435 22.2257C13.9341 22.4514 14.3447 22.6871 14.8883 22.9718C15.1222 23.0944 15.3492 23.2241 15.567 23.3488C15.8889 23.5331 16.1925 23.7067 16.4722 23.8302C16.6592 23.9128 16.8457 24.0224 17.0308 24.131C17.2789 24.2766 17.5271 24.4219 17.7769 24.5031C17.9341 24.5541 18.0825 24.5947 18.2193 24.632C18.4368 24.6912 18.627 24.7437 18.7847 24.8195C19.081 24.962 19.3512 25.0599 19.5885 25.1466C19.8737 25.251 20.1134 25.339 20.2984 25.466C20.3264 25.4852 20.3586 25.5087 20.3941 25.5343C20.5822 25.6702 20.8833 25.8874 21.3678 26.0929C21.4514 26.1284 21.5351 26.1591 21.6178 26.1867C21.6606 26.1936 21.7033 26.1919 21.7418 26.1847C21.8503 26.1635 21.9212 26.1104 22.0035 26.0861C22.0113 26.0827 22.0192 26.0795 22.0269 26.0763C22.0629 26.0615 22.1053 26.0539 22.1431 26.047C22.1912 26.0382 22.2334 26.03 22.2506 26.0099C22.3008 25.9508 22.3874 25.8701 22.481 25.7824C22.5499 25.7179 22.6224 25.6485 22.6881 25.5822C23.2844 25.2651 23.8817 24.9488 24.4791 24.633C24.7527 24.4883 25.0274 24.3438 25.3013 24.1994C25.4633 24.1696 25.6268 24.1336 25.7935 24.0851C26.0118 24.0216 26.2773 23.9028 26.6187 23.7502C26.8699 23.6379 27.1632 23.5075 27.5094 23.3664C28.1504 23.105 28.7795 22.7767 29.1734 22.548C29.2567 22.4997 29.341 22.451 29.4303 22.3986C29.769 22.1997 30.1919 21.9512 31.0064 21.5031C31.777 21.0792 32.4418 20.7368 32.941 20.4796C33.1957 20.3484 33.4081 20.2389 33.5689 20.1525C33.844 20.0047 34.1835 19.826 34.524 19.6466C35.0571 19.3658 35.5937 19.083 35.8931 18.9142C35.9996 18.8542 36.1109 18.7899 36.231 18.7209C36.5402 18.5431 36.9093 18.3307 37.4117 18.0617C37.4172 18.0576 37.4221 18.0534 37.4254 18.05C37.4458 18.0207 37.459 17.9817 37.4664 17.9347C37.4697 17.9178 37.4968 17.886 37.5006 17.8371C37.5024 17.8132 37.4982 17.786 37.484 17.7599C37.3573 17.6609 37.2121 17.5642 37.0211 17.4816C36.9527 17.4521 36.877 17.4251 36.7984 17.3966C36.6538 17.3443 36.4967 17.2875 36.3492 17.2043C36.2981 17.1753 36.2562 17.1424 36.2154 17.1105C36.1705 17.0754 36.1261 17.0402 36.0709 17.0119C35.864 16.9059 35.6599 16.8067 35.4791 16.7189C35.2458 16.6057 35.0497 16.5101 34.9332 16.4416C34.7254 16.3193 34.4827 16.2152 34.2379 16.1095C34.0511 16.0289 33.8619 15.9474 33.6851 15.8566C33.1793 15.5968 32.4667 15.2717 31.7252 14.9533C31.4449 14.8328 31.2238 14.6953 30.942 14.5197C30.7665 14.4104 30.5659 14.2852 30.3131 14.1408C30.1699 14.0591 30.0351 14.0157 29.9107 13.9757C29.7962 13.9389 29.6893 13.905 29.5924 13.8459C29.5071 13.7937 29.4665 13.7324 29.4283 13.675C29.3857 13.611 29.3447 13.5506 29.2476 13.5099C29.196 13.4884 29.1271 13.4731 29.0455 13.4562C29.0132 13.4495 28.978 13.4429 28.942 13.4347C28.9469 13.429 28.9505 13.4226 28.9527 13.4181C28.9671 13.3865 28.8801 13.3219 28.7945 13.2589C28.7603 13.2338 28.7258 13.2083 28.6988 13.1857C28.5988 13.1022 28.3856 12.9909 28.2213 12.9103C28.152 12.8762 28.0934 12.8351 28.026 12.7873C27.966 12.7447 27.8982 12.696 27.8082 12.6427C27.757 12.6124 27.72 12.5822 27.69 12.5578C27.6687 12.5404 27.6498 12.5256 27.6314 12.5148C27.6153 12.5056 27.5969 12.5074 27.5767 12.5099C27.5622 12.5117 27.5459 12.513 27.5289 12.5109C27.488 12.5057 27.4411 12.4875 27.4117 12.4679C27.3983 12.4589 27.388 12.4497 27.3785 12.4406C27.3673 12.43 27.3558 12.4188 27.3385 12.4084C27.2582 12.3602 27.1713 12.3295 27.0816 12.298C26.9831 12.2634 26.8799 12.227 26.7769 12.1642C26.7446 12.1444 26.711 12.1196 26.6793 12.0959C26.6462 12.071 26.6138 12.0462 26.5846 12.0295C26.4654 11.9613 26.3386 11.9261 26.2222 11.8937C26.1448 11.8722 26.0707 11.8513 26.0074 11.8234C25.8916 11.7724 25.8171 11.7683 25.7623 11.7658C25.734 11.7645 25.7101 11.7634 25.689 11.756C25.6714 11.7463 25.6527 11.7356 25.6353 11.7257C25.62 11.7156 25.6036 11.7047 25.5875 11.6974C25.5864 11.6971 25.5846 11.6969 25.5836 11.6964C25.4856 11.6393 25.3907 11.5793 25.2965 11.5207C25.0845 11.3887 24.8743 11.258 24.6363 11.1535C24.5853 11.1312 24.5284 11.1172 24.4713 11.1027C24.4009 11.0848 24.3279 11.0664 24.2623 11.0324C24.1058 10.951 23.955 10.8525 23.8072 10.756C23.585 10.6109 23.3676 10.4686 23.1412 10.3918C23.0665 10.3665 22.9891 10.3483 22.9127 10.3302C22.8703 10.3202 22.8271 10.3103 22.7847 10.299C22.8001 10.2885 22.8114 10.2765 22.8219 10.2658C22.8435 10.2434 22.8632 10.2237 22.9097 10.2228C23.0204 10.221 23.1517 10.2078 23.1637 10.1564C23.167 10.1427 23.1756 10.1298 23.1851 10.1173C23.2093 10.0856 23.2342 10.0532 23.1607 9.99625C23.1109 9.95766 22.9824 9.86209 22.8795 9.8439C22.8572 9.84011 22.8385 9.84552 22.8189 9.85172C22.7837 9.86287 22.7415 9.87585 22.6539 9.84C22.6391 9.83394 22.6224 9.82657 22.606 9.81949C22.5404 9.79114 22.4665 9.76 22.4303 9.7648C22.389 9.77082 22.3821 9.79893 22.3756 9.83121C22.367 9.87338 22.3563 9.92363 22.2633 9.94351C22.2448 9.94702 22.2179 9.93847 22.1978 9.93179C22.1837 9.92709 22.1721 9.92331 22.1695 9.92593C22.1669 9.9292 22.1669 9.93872 22.1676 9.95035C22.1699 9.99382 22.1736 10.0704 22.0328 10.0031C22.0097 9.99198 21.9846 9.9777 21.9605 9.96402C21.9571 9.96127 21.9531 9.95783 21.9498 9.95523C21.9364 9.94491 21.9234 9.93788 21.9185 9.94742C21.9168 9.95096 21.9153 9.95506 21.9137 9.95914C21.9023 9.9544 21.8896 9.95059 21.8775 9.94742C21.8632 9.9325 21.8374 9.93039 21.8082 9.93472C21.8011 9.93577 21.7933 9.93707 21.7857 9.93863C21.7598 9.94069 21.7337 9.9468 21.7086 9.95621H21.7066C21.6345 9.98611 21.5564 10.0155 21.4722 10.0421C21.2997 10.0968 21.1394 10.1254 20.983 10.1525C20.9173 10.1639 20.8518 10.1745 20.7867 10.1877C20.808 10.1746 20.8275 10.1623 20.8414 10.1515C20.9371 10.0769 20.9591 10.0135 20.9791 9.95523C20.9924 9.91659 21.0048 9.87987 21.0377 9.8439C21.0983 9.77778 21.0741 9.74778 21.0562 9.72574C21.0471 9.71447 21.0397 9.70463 21.0465 9.69351C21.052 9.68453 21.0697 9.67323 21.0875 9.66129C21.1031 9.65082 21.1195 9.63958 21.1285 9.63004C21.2377 9.51421 21.1832 9.50545 21.1041 9.49332C21.0605 9.48663 21.0086 9.47889 20.9732 9.45133C20.9394 9.42047 20.9393 9.40585 21.0015 9.35562C20.9374 9.36393 20.8723 9.37271 20.8082 9.38101C20.7877 9.39297 20.7771 9.41275 20.7642 9.44351C20.741 9.49926 20.6141 9.57871 20.5152 9.64078C20.4695 9.66946 20.4297 9.69485 20.4088 9.71207C20.298 9.80335 20.3542 9.82575 20.4039 9.84488C20.4311 9.85535 20.4561 9.86505 20.4508 9.88492C20.4483 9.89343 20.4596 9.89557 20.4703 9.89761C20.4782 9.89913 20.4868 9.90122 20.4898 9.90543C20.509 9.93974 20.4471 10.0039 20.3902 10.0627C20.3578 10.0961 20.3269 10.1282 20.3131 10.1525C20.309 10.1598 20.3059 10.1666 20.3033 10.173C20.2995 10.1826 20.2956 10.1921 20.2877 10.2023C20.2694 10.2258 20.2234 10.2585 20.1734 10.2941C20.1479 10.3123 20.121 10.3318 20.0963 10.3507C20.0646 10.3752 20.0586 10.396 20.0523 10.4171C20.0479 10.4321 20.0428 10.4473 20.0289 10.465C20.0035 10.4974 19.9392 10.5369 19.8795 10.5734C19.8535 10.5893 19.8279 10.6053 19.8072 10.6193C19.7993 10.6247 19.796 10.6293 19.7965 10.633C19.6995 10.6952 19.6069 10.755 19.5172 10.8136C19.067 11.1076 18.6773 11.3628 18.0426 11.6369C17.9226 11.6887 17.7974 11.7529 17.6734 11.8214C17.2613 12.0103 16.8484 12.1989 16.4361 12.3869C16.3401 12.3953 16.2276 12.4181 16.1012 12.4552C15.8638 12.5251 15.6351 12.6288 15.3658 12.7511C15.1664 12.8417 14.9441 12.9431 14.6793 13.048C14.2343 13.2243 13.7802 13.4119 13.2779 13.6427C12.7778 13.8726 12.2078 14.142 11.8072 14.3371C11.5889 14.4433 11.3464 14.5296 11.1207 14.6095C10.8032 14.722 10.5182 14.8232 10.3785 14.9533C10.334 14.9947 10.2965 15.0464 10.2603 15.0968C10.2345 15.1329 10.2084 15.169 10.1812 15.1994C10.0892 15.2402 9.99701 15.2816 9.90486 15.3224C9.72848 15.3705 9.46172 15.4603 9.23885 15.6164C9.14363 15.6584 9.04773 15.7009 8.95565 15.7414C8.75472 15.8302 8.55749 15.9167 8.35897 16.0041C8.2942 16.0325 8.22824 16.0612 8.16268 16.09L8.1617 16.091C8.02976 16.149 7.89602 16.2075 7.76522 16.2648C7.70919 16.2894 7.6523 16.3145 7.59627 16.339C7.45392 16.4015 7.31051 16.4649 7.16951 16.5265C7.09493 16.5591 7.01935 16.5922 6.94393 16.6252C6.82148 16.6787 6.69756 16.7327 6.57479 16.7863C6.37606 16.873 6.17737 16.9588 5.97908 17.0451C5.94671 17.0591 5.91359 17.0694 5.88729 17.0724C5.86158 17.0753 5.84398 17.0717 5.83846 17.0617C5.83362 17.0511 5.84088 17.0338 5.85897 17.0148C5.87718 16.9957 5.90473 16.9755 5.93514 16.9582C6.12345 16.8515 6.31259 16.7446 6.50154 16.6378C6.61821 16.5719 6.73572 16.5053 6.85213 16.4396C6.92376 16.3992 6.99518 16.3585 7.066 16.3185C7.20009 16.2428 7.33767 16.1663 7.47322 16.09C7.52654 16.06 7.58006 16.0292 7.63338 15.9992C7.7581 15.929 7.88538 15.858 8.01131 15.7873L8.01424 15.7853C8.07597 15.7506 8.13784 15.7161 8.19881 15.6818C8.38804 15.5756 8.57633 15.4697 8.76815 15.3625C8.86697 15.307 8.9705 15.2497 9.07283 15.1925C9.12982 15.1607 9.18692 15.1281 9.24275 15.0968C9.27323 15.0798 9.30445 15.0624 9.33553 15.0451C10.0511 14.6454 10.7626 14.2496 11.481 13.8517C12.1966 13.4553 12.9145 13.0597 13.6305 12.6662C14.3482 12.2717 15.0655 11.8783 15.7838 11.4865C17.5329 10.5323 19.2878 9.58139 21.0465 8.63492ZM9.31111 21.1935C9.31789 21.2822 9.32492 21.3716 9.33162 21.4601C9.33576 21.5148 9.33924 21.5701 9.34334 21.6242C9.35104 21.7261 9.35919 21.8299 9.36678 21.9328C9.36978 21.9733 9.37256 22.0143 9.37557 22.0548C9.3826 22.1497 9.39011 22.2462 9.39705 22.342V22.3439C9.40046 22.391 9.40343 22.438 9.40682 22.4845C9.41715 22.6282 9.42795 22.7706 9.43807 22.9162C9.44352 22.9913 9.4483 23.0699 9.45369 23.1476C9.45669 23.1908 9.4595 23.2342 9.46248 23.2765C9.46406 23.2996 9.46579 23.3234 9.46736 23.3468C9.50483 23.8898 9.54119 24.4297 9.57576 24.9738C9.61032 25.5157 9.64355 26.0585 9.67537 26.5998C9.7072 27.1425 9.73795 27.6845 9.76717 28.2267C9.80596 28.9461 9.84284 29.6664 9.8785 30.3869C9.93588 31.5145 10.678 32.5253 11.6607 32.9201C12.9319 33.463 14.2013 34.0129 15.4664 34.5714C15.9176 34.7705 16.3807 34.977 16.8316 35.1789C17.2873 35.383 17.7334 35.5841 18.189 35.7912C18.3274 35.854 18.4695 35.9181 18.6148 35.9845C19.3325 36.3121 20.0017 36.7007 20.6803 37.0802C21.003 37.2708 21.3801 37.3924 21.7711 37.4015C22.1985 37.4123 22.6274 37.2992 22.9976 37.0939C23.939 36.5921 24.8764 36.0712 25.8433 35.6359C27.3103 34.9758 28.7909 34.3251 30.2711 33.6867C30.8534 33.4355 31.4368 33.1858 32.0201 32.9377C32.7346 32.6466 33.3346 32.0424 33.6226 31.2863C33.7322 31.0017 33.7987 30.6976 33.817 30.3869C33.8784 29.1457 33.9434 27.9025 34.0113 26.6613C34.0712 25.5669 34.1333 24.4714 34.1959 23.3771C34.2233 22.8968 34.2512 22.4177 34.2789 21.9377C34.2819 21.8862 34.2847 21.8348 34.2877 21.7834C33.4748 22.2192 32.6598 22.6492 31.8346 23.048C29.6505 24.1033 27.4486 25.1503 25.2496 26.1847C24.3867 26.5907 23.5236 26.9957 22.6597 27.3986C22.1469 27.6485 21.5216 27.6359 21.025 27.3732C20.0157 26.8323 19.0056 26.2901 17.9967 25.7453C15.8592 24.591 13.7205 23.4264 11.5865 22.2609C10.823 21.8439 10.06 21.4249 9.29647 21.007C9.30126 21.0691 9.30636 21.1312 9.31111 21.1935Z" fill="#1A2A4F"/>
</g>
<defs>
<clipPath id="clip0_33_2520">
<rect width="48" height="48" fill="white"/>
</clipPath>
</defs>
</svg>
