<svg width="auto" height="auto" viewBox="0 0 485 493" fill="none" xmlns="http://www.w3.org/2000/svg">
<path d="M70.1529 20.7929C104.959 -0.627247 148.528 -4.52355 187.771 4.65675C236.462 25.2167 270.515 61.9287 289.758 105.689C330.558 113.045 368.716 130.54 400.857 156.809C406.402 161.462 411.741 166.468 416.698 171.78C450.192 208.81 467.092 254.3 476.827 299.612C484.176 335.163 486.204 371.433 483.368 407.12C482.12 422.773 479.932 438.26 476.824 453.557C474.507 464.953 471.669 476.277 468.35 487.367C467.887 488.912 467.212 490.337 466.468 491.321C465.723 492.304 464.974 492.769 464.374 492.606C463.774 492.443 463.36 491.663 463.195 490.447C463.032 489.232 463.134 487.677 463.453 486.117C465.772 474.831 467.584 463.405 468.865 451.992C470.288 439.324 471.072 426.573 471.216 413.866C473.87 411.999 475.958 409.368 476.969 404.142C477.485 401.482 477.733 397.627 477.267 394.75C476.851 392.169 476.077 390.242 475.331 388.427C474.549 386.528 473.798 384.754 473.479 382.421C472.935 378.465 471.691 374.827 470.323 370.959C469.825 369.559 469.31 368.141 468.806 366.688C467.437 354.693 465.495 342.805 462.979 331.074C462.462 326.422 461.88 322.238 461.041 318.696C460.288 315.518 459.124 312.757 457.801 310.042C457.301 308.246 456.788 306.462 456.263 304.692C452.872 293.238 448.905 281.995 444.335 271.066C441.762 262.213 438.689 252.908 433.341 241.529C431.019 236.614 428.81 231.76 426.523 227.138C423.154 220.32 419.641 214.082 415.694 209.25C413.077 206.045 410.682 202.352 408.198 198.83C405.582 195.124 402.806 191.537 399.657 188.821C398.731 188.022 397.764 187.286 396.754 186.633C393.943 184.813 391.186 183.378 388.627 182.13C384.506 180.108 380.937 178.588 378.067 176.573C372.732 172.838 367.488 170.439 362.848 168.494C357.267 166.162 352.501 164.448 348.92 161.791C348.373 161.387 347.753 160.906 347.05 160.367C343.358 157.547 337.265 153.014 327.005 150.115C323.377 149.098 319.761 148.68 316.265 148.366C311.738 147.958 307.367 147.696 303.017 146.478C307.297 165.902 309.058 186.062 308.281 206.321C307.249 224.159 303.738 242.271 298.341 259.15C293.121 275.504 286.28 290.827 277.948 305.683C277.565 306.363 277.181 307.04 276.795 307.711C273.964 312.632 271.238 317.068 267.87 322.055C254.523 341.531 236.773 359.764 211.148 369.937C185.706 380.698 152.558 375.64 131.126 359.18C77.6956 318.358 67.636 243.149 96.687 188.259C97.9897 185.78 99.3686 183.316 100.826 180.871C129.514 129.67 190.25 101.098 244.575 101.75C244.795 101.75 245.016 101.751 245.236 101.751C244.36 100.01 243.37 98.299 242.206 96.6283C241.572 95.7192 240.716 94.9285 239.844 94.1402C238.778 93.1784 237.674 92.1991 236.889 90.9635C235.025 88.0278 233.475 84.9244 231.802 81.8216C229.355 77.2451 226.677 72.7578 222.986 69.7712C221.765 68.7812 220.436 67.969 219.109 67.1911C218.376 66.7648 217.611 66.3156 216.867 65.8512C217.291 65.6988 217.639 65.5038 217.964 65.3221C218.633 64.9481 219.208 64.6278 220.17 64.8689C222.397 65.3844 225.197 65.888 225.994 64.8523C226.209 64.5702 226.536 64.3535 226.868 64.1392C227.7 63.6028 228.558 63.0497 227.644 61.3568C227.05 60.235 225.315 57.3299 223.325 56.3655C222.894 56.1561 222.471 56.1882 222.003 56.2243C221.158 56.289 220.175 56.3707 218.689 55.1548C218.432 54.9435 218.156 54.7113 217.873 54.4714C216.744 53.5117 215.484 52.4816 214.691 52.4551C213.778 52.4241 213.423 53.0306 213.004 53.7316C212.461 54.6492 211.798 55.7155 209.74 55.8503C209.331 55.8753 208.879 55.5999 208.516 55.3765C208.26 55.2188 208.063 55.1014 207.987 55.1518C207.901 55.2111 207.829 55.4317 207.739 55.711C207.427 56.7066 206.841 58.3776 204.573 56.4738C203.96 55.9637 203.327 55.318 202.762 54.7506C201.935 53.917 201.235 53.2383 200.951 53.3559C200.848 53.4039 200.749 53.467 200.654 53.5379C199.929 52.9083 199.209 52.2968 198.497 51.7046C197.755 50.7241 196.437 49.7561 194.704 48.5757C194.29 48.2946 193.859 48.0044 193.417 47.7083C192.053 46.6948 190.505 45.6192 189.113 44.7093C188.083 43.9323 186.873 42.9924 185.775 42.0282C183.569 40.0937 181.851 38.1088 180.206 36.4026C179.953 36.1323 179.709 35.8709 179.474 35.6209C178.823 35.1437 178.158 34.6755 177.47 34.2248C177.958 34.2921 178.399 34.3404 178.747 34.341C179.141 34.3418 179.502 34.3187 179.834 34.2762C181.011 33.9305 181.931 33.2253 182.801 32.5734C183.495 32.0564 184.233 31.6054 185.096 31.4797C186.741 31.2852 187.018 30.4018 187.176 29.7115C187.263 29.3579 187.335 29.0677 187.599 28.9913C187.812 28.9307 188.206 29.0305 188.62 29.1432C188.98 29.2408 189.358 29.3487 189.633 29.354C192.857 29.3969 192.455 28.3251 191.793 26.7008C191.421 25.8064 190.878 24.7297 190.921 23.6345C191.036 22.5104 191.251 22.2407 193.048 22.6125C192.016 21.5317 190.981 20.4937 189.937 19.5013C189.432 19.3365 188.969 19.5134 188.197 19.8157C187.279 20.1908 185.468 19.952 183.724 19.7631C182.889 19.667 182.032 19.5454 181.239 19.4384C180.087 19.2826 179.063 19.1564 178.491 19.1781C175.39 19.2915 176.006 20.5907 176.528 21.7154C176.815 22.3365 177.07 22.9113 176.696 23.2217C176.537 23.3547 176.676 23.5546 176.814 23.758C176.921 23.9153 177.031 24.076 177.006 24.209C176.819 25.1736 174.997 25.4982 173.297 25.8338C172.337 26.0276 171.431 26.2267 170.891 26.5203C170.727 26.6098 170.591 26.7075 170.463 26.8033C170.277 26.9429 170.096 27.0752 169.836 27.1691C169.242 27.3828 168.097 27.3901 166.869 27.4202C166.237 27.4347 165.573 27.4542 164.94 27.5045C164.121 27.5702 163.771 27.9111 163.418 28.2683C163.167 28.5209 162.906 28.7807 162.471 28.9639C161.684 29.2946 160.193 29.251 158.801 29.2345C158.205 29.2279 157.625 29.2264 157.133 29.2559C156.933 29.268 156.832 29.3247 156.801 29.4136C154.523 29.4813 152.386 29.6201 150.287 29.7985C139.822 30.7901 131.168 32.2353 118.243 33.5428C115.779 33.8144 113.222 34.4071 110.683 35.2067C102.376 36.9263 94.2335 39.5731 86.5012 43.1265C84.6159 43.1071 82.3812 43.4716 79.9671 44.2231C75.356 45.6884 71.1803 48.1874 66.4391 51.5576C62.9826 54.0204 59.1929 56.984 54.785 60.5087C47.3736 66.4531 40.3592 73.5932 33.7879 82.7892C31.9066 85.4319 30.1272 88.0958 28.3241 91.0034C23.9382 98.0047 20.5144 105.634 18.4555 111.727C16.8686 116.351 14.8413 121.118 13.2242 125.775C10.9378 132.291 9.50796 138.518 10.6775 142.366C11.0491 143.594 11.7566 144.775 12.4582 145.91C12.9578 146.721 13.4529 147.511 13.8261 148.275C13.7015 150.302 13.6252 152.348 13.5918 154.395C12.8308 158.038 12.3193 163.887 14.1048 169.224C14.2823 171.351 14.5061 173.486 14.7546 175.545C15.3076 180.032 16.0231 184.434 16.9014 188.846C17.1903 190.298 17.4914 191.732 17.8183 193.195C17.8213 193.209 17.824 193.224 17.827 193.238C18.4834 196.177 19.217 199.133 19.9863 201.996C20.3226 203.241 20.6711 204.484 21.0237 205.706C21.9289 208.839 22.9211 211.993 23.9432 215.042C24.4916 216.677 25.063 218.315 25.6468 219.938C26.6116 222.613 27.6213 225.265 28.6655 227.882C30.3582 232.122 32.1661 236.322 34.0894 240.491C34.4169 241.198 34.6311 241.902 34.6826 242.466C34.7337 243.03 34.6226 243.415 34.3661 243.556C34.109 243.697 33.7209 243.585 33.2705 243.235C32.8211 242.885 32.3441 242.317 31.9306 241.648C29.4867 237.711 27.147 233.705 24.9178 229.633C23.5426 227.121 22.1969 224.563 20.8949 221.966C20.1042 220.392 19.326 218.796 18.5688 217.2C17.1536 214.222 15.7619 211.115 14.4585 208.013C13.9489 206.803 13.443 205.568 12.9485 204.329C11.805 201.472 10.6963 198.501 9.66363 195.524C9.65747 195.506 9.65126 195.489 9.6451 195.471C9.13689 194.005 8.65248 192.56 8.18139 191.094C6.74151 186.605 5.46291 182.078 4.3538 177.402C3.77411 174.981 3.23192 172.45 2.74868 169.91C2.47833 168.488 2.22977 167.089 2.00034 165.694C1.8761 164.933 1.75557 164.158 1.64069 163.376C-1.02549 145.538 -0.614418 126.936 4.14964 108.835C6.49435 99.8767 9.87895 91.1258 14.1893 82.8415C18.4435 74.6401 23.2823 66.7113 28.8059 59.1875C39.7861 44.1924 53.7083 30.7813 70.1529 20.7929ZM185.48 154.409C173.231 159.053 162.676 167.734 157.151 174.187C155.965 175.541 154.795 176.951 153.598 178.478C149.655 183.639 144.79 190.093 138.404 202.566C137.647 204.069 136.888 205.649 136.137 207.31C129.501 221.971 126.737 235.197 125.753 245.185C125.249 250.315 125.201 254.512 125.352 257.793C125.601 263.312 126.359 270.113 127.88 276.7C130.166 287.054 134.554 296.641 137.671 301.455C138.767 303.192 139.977 304.914 141.379 306.728C145.221 311.618 150.336 317.231 157.803 322.152C165.665 327.069 170.309 328.304 175.383 329.476C177.469 329.891 179.299 330.837 181.517 331.622C184.556 332.724 188.328 333.528 192.766 331.316C193.793 330.798 194.765 330.123 195.825 329.344C197.804 327.895 199.755 326.242 202.167 324.916C203.013 324.45 203.881 324.174 204.747 323.874C205.664 323.569 206.54 323.267 207.383 322.636C210.566 320.251 213.468 317.526 215.976 314.926C219.387 311.385 221.681 308.568 223.548 306.673C226.86 303.289 229.299 299.405 232.01 294.716C233.881 291.426 235.717 287.956 237.796 284.529C238.092 284.041 238.392 283.538 238.694 283.02C244.353 273.401 250.202 260.076 253.894 245.868C255.389 240.127 257.334 235.748 259.612 229.729C260.994 226.076 262.497 221.741 263.769 216.343C264.481 213.327 264.303 210.494 264.073 208.02C263.864 205.707 263.62 203.669 264.013 201.5C264.356 199.612 265.319 198.464 266.23 197.353C267.241 196.121 268.187 194.933 268.048 192.915C267.974 191.827 267.535 190.488 266.987 188.934C266.77 188.318 266.536 187.664 266.301 186.978C266.485 187.01 266.649 187.015 266.773 187.014C267.652 187.002 268.08 184.924 268.444 182.882C268.591 182.076 268.727 181.23 268.893 180.55C269.513 178.014 269.266 173.375 268.788 169.791C268.592 168.278 268.681 166.879 268.763 165.243C268.834 163.783 268.907 162.18 268.726 160.083C268.623 158.897 268.704 157.958 268.77 157.179C268.818 156.616 268.857 156.135 268.806 155.708C268.761 155.337 268.455 155.093 268.109 154.822C267.86 154.627 267.589 154.416 267.381 154.132C266.884 153.452 266.572 152.517 266.527 151.821C266.506 151.498 266.544 151.225 266.582 150.957C266.625 150.643 266.67 150.33 266.615 149.927C266.364 148.083 265.645 146.41 264.875 144.702C258.599 144.504 252.353 144.611 246.177 145.042C240.336 145.451 234.555 146.151 228.875 147.162C225.798 146.459 222.616 145.97 219.305 145.872C214.985 145.749 209.545 146.729 202.76 148.603C197.772 149.991 192.041 151.871 185.48 154.409Z" fill="currentColor"/>
</svg>
