<svg width="auto" height="auto" viewBox="0 0 128 215" fill="none" xmlns="http://www.w3.org/2000/svg">
<path d="M80.2542 0.242065C80.7204 -0.315854 82.3166 0.101723 84.706 1.38436C87.095 2.66758 90.0792 4.71472 93.014 7.06106C95.7346 9.23731 98.4559 11.4143 101.176 13.5924C103.343 15.3315 105.409 17.2029 107.357 19.1935C107.6 19.4292 107.843 19.668 108.081 19.9083C109.856 21.6964 111.499 23.3782 113.07 25.1454C113.43 25.5514 113.787 25.9636 114.14 26.3814C115.247 27.6921 116.611 29.6403 117.875 31.8036C119.68 34.8604 121.249 38.3504 122.175 40.7558C122.205 40.8306 122.233 40.9062 122.263 40.9813C122.638 41.9548 122.988 42.8766 123.371 43.9677C124.224 46.5752 125.609 50.1118 126.494 57.8789C126.798 60.1301 126.977 62.4044 127.021 64.6866C127.232 74.2406 124.916 84.034 119.961 92.3679C115.752 99.5003 110.703 106.511 104.559 112.426C104.605 113.348 104.629 114.3 104.62 115.285C104.574 118.273 104.228 119.785 103.965 121.005C103.884 121.365 103.804 121.7 103.727 122.04C103.463 123.203 103.35 124.449 103.143 125.925C102.884 127.734 102.491 129.909 101.377 132.522C101.316 132.664 101.254 132.807 101.189 132.951C97.1991 141.637 95.2182 145.304 93.8586 148.205C93.4451 149.044 93.0486 149.812 92.6113 150.562C91.2083 153 88.7249 156.207 86.6647 158.425C85.0504 160.215 81.9752 163.89 79.463 166.55C78.5243 167.559 77.1624 168.845 75.5088 170.285C73.7942 171.781 71.7604 173.444 69.5531 175.186C63.9514 179.561 60.688 181.504 58.1085 183.094C57.3674 183.542 56.6729 183.951 55.9767 184.353C53.7741 185.629 50.9837 187.107 48.1066 188.486C44.6652 190.144 41.0951 191.659 38.3682 192.77C31.1838 195.364 23.834 197.401 16.4284 199.01C14.4431 199.442 12.483 199.755 10.6655 199.95C10.8186 200.038 10.9546 200.139 11.0307 200.262C11.2125 200.557 11.3153 200.792 11.3968 200.99C12.0985 201.728 12.8155 202.439 13.6066 203.025C13.8546 203.209 14.1101 203.38 14.3745 203.536C14.6178 203.68 14.8671 203.813 15.121 203.938C15.3013 203.957 15.4825 203.959 15.6498 203.961C15.8849 203.963 16.0944 203.965 16.2407 204.012C16.5933 204.125 16.8803 204.444 17.0936 204.681C17.1285 204.72 17.162 204.757 17.1929 204.79C17.4251 204.871 17.659 204.95 17.8934 205.028C17.8926 205.061 17.8917 205.095 17.8903 205.13C17.8719 205.568 18.0929 205.692 18.4404 205.888C18.5916 205.974 18.7666 206.073 18.9567 206.218C19.0792 206.311 19.0696 206.483 19.0614 206.623C19.059 206.664 19.0561 206.703 19.0574 206.736C19.0621 206.849 19.1708 206.794 19.2982 206.728C19.4636 206.643 19.6618 206.54 19.7105 206.767C19.8655 207.49 20.2431 207.283 20.5288 207.127C20.6124 207.082 20.6884 207.041 20.7483 207.028C20.943 206.988 21.057 207.209 21.1016 207.446C21.1373 207.633 21.4265 207.638 21.6829 207.578C21.7798 207.556 21.8652 207.604 21.965 207.661C22.0683 207.72 22.1874 207.789 22.3531 207.797C22.7724 207.818 22.9908 207.838 23.1661 207.853C23.2161 207.858 23.2625 207.862 23.3092 207.866C23.4567 207.878 23.6266 207.916 23.7981 207.955C24.0032 208.001 24.2115 208.048 24.3889 208.051C24.6877 208.334 24.9757 208.636 25.2635 208.938C25.4108 209.093 25.4126 209.48 25.2601 210.026C25.1072 210.572 24.8138 211.23 24.4377 211.869C24.0616 212.507 23.6282 213.081 23.2245 213.48C22.8209 213.878 22.4818 214.065 22.2744 214.011C21.8571 213.902 21.4394 213.792 21.0342 213.663C20.5408 213.504 20.0654 213.315 19.63 213.059C19.3254 212.879 19.0297 212.685 18.7412 212.478C18.7116 212.457 18.6818 212.435 18.6523 212.414C18.3037 212.42 17.9636 212.412 17.7536 212.357C17.5803 212.311 17.5216 212.164 17.4711 212.037C17.4364 211.951 17.4054 211.874 17.3443 211.847C17.3114 211.832 17.2636 211.818 17.2063 211.8C16.9717 211.726 16.5733 211.599 16.3436 211.257C16.2419 211.106 16.1555 210.875 16.0736 210.654C15.9563 210.338 15.8471 210.043 15.7102 210.033C15.4699 210.015 15.3022 209.812 15.1543 209.632C15.0132 209.46 14.8894 209.309 14.7372 209.363C14.5556 209.427 14.4951 209.322 14.4049 209.166C14.3422 209.057 14.2648 208.924 14.1234 208.805C13.9602 208.668 13.8842 208.504 13.82 208.364C13.7296 208.167 13.6613 208.019 13.4026 208.065C13.1156 208.116 12.8551 208.103 12.7284 207.959C12.6707 207.893 12.5849 207.851 12.4962 207.807C12.3787 207.748 12.2548 207.686 12.1812 207.564C12.1206 207.463 12.1206 207.295 12.12 207.147C12.1198 207.101 12.1194 207.057 12.1174 207.017C12.0454 206.977 11.9726 206.937 11.8993 206.899C11.8761 206.912 11.851 206.927 11.8249 206.943C11.6942 207.02 11.5331 207.114 11.3954 207.127C11.1779 207.147 11.0852 206.999 10.9873 206.842C10.911 206.72 10.8308 206.593 10.6869 206.538C10.5888 206.5 10.4574 206.49 10.3271 206.481C10.1331 206.467 9.94123 206.453 9.86574 206.346C9.83751 206.306 9.85002 206.208 9.86281 206.111L9.86332 206.11C9.86418 206.103 9.86565 206.097 9.86649 206.09C9.58089 206.002 9.29136 205.92 9.00013 205.841C8.96664 205.848 8.93277 205.855 8.89958 205.861C8.73745 205.894 8.57993 205.925 8.43553 206.016C8.27898 206.115 8.04679 206.09 7.80226 206.063C7.64205 206.045 7.4757 206.027 7.32244 206.042C7.23347 206.051 7.22095 205.936 7.20872 205.818C7.1973 205.707 7.18595 205.594 7.11094 205.575C7.07316 205.566 7.01851 205.579 6.9607 205.593C6.90993 205.605 6.85624 205.618 6.80844 205.618C6.76401 205.617 6.71537 205.529 6.65286 205.417C6.61417 205.348 6.56946 205.269 6.518 205.196C6.30295 205.137 6.08913 205.075 5.87728 205.01C5.79713 205.058 5.70955 205.129 5.61394 205.231C5.54532 205.304 5.46962 205.395 5.39239 205.488C5.28739 205.614 5.1787 205.745 5.07851 205.841C5.00038 205.915 4.94961 205.934 4.95126 205.885C4.95219 205.862 4.96438 205.825 4.97534 205.792C4.98773 205.754 4.99875 205.72 4.99084 205.715C4.98458 205.712 4.96365 205.733 4.93896 205.758C4.89966 205.797 4.8489 205.848 4.82394 205.836C4.73101 205.792 4.64193 205.713 4.55487 205.637C4.45818 205.551 4.36362 205.468 4.26807 205.435C4.16094 205.399 4.07784 205.23 3.99438 205.061C3.93615 204.943 3.87685 204.825 3.81031 204.752C3.74507 204.68 3.63294 204.68 3.52392 204.681C3.39309 204.682 3.26725 204.683 3.23438 204.558C3.22779 204.532 3.26531 204.423 3.31189 204.287C3.34488 204.191 3.38211 204.081 3.41235 203.977C3.31175 203.917 3.21355 203.854 3.1173 203.787C3.106 203.798 3.09457 203.81 3.08284 203.822L3.08165 203.822C2.81727 204.082 2.45585 204.437 2.44509 204.093C2.44243 204.005 2.48662 203.871 2.5264 203.751C2.56531 203.634 2.60021 203.529 2.58289 203.492C2.56258 203.45 2.48462 203.49 2.40047 203.535C2.28243 203.597 2.15103 203.666 2.14339 203.524C2.14287 203.515 2.1422 203.504 2.14154 203.494C2.13518 203.392 2.12536 203.242 2.1802 202.983C1.99983 202.799 1.82551 202.606 1.65456 202.406C1.36932 202.072 1.09382 201.721 0.818711 201.371C0.685352 201.2 0.691156 200.807 0.845387 200.264C0.981644 199.785 1.2249 199.228 1.53234 198.674C1.04941 198.24 0.636658 197.774 0.359277 197.35C0.0464021 196.872 -0.0658555 196.49 0.0371623 196.277C0.245697 195.85 0.454921 195.423 0.681702 195.011C0.9579 194.51 1.26086 194.031 1.62402 193.604C1.87807 193.305 2.14583 193.017 2.42409 192.738C2.45274 192.71 2.48194 192.681 2.51081 192.652C2.58522 192.283 2.67156 191.925 2.77659 191.71C2.86334 191.532 3.02832 191.489 3.16918 191.452C3.26606 191.426 3.35218 191.403 3.39369 191.342C3.4159 191.309 3.44181 191.261 3.4735 191.203C3.60366 190.964 3.82562 190.558 4.22818 190.36C4.40679 190.271 4.6631 190.211 4.9075 190.152C5.25723 190.069 5.58318 189.991 5.62518 189.847C5.69898 189.595 5.94583 189.444 6.16411 189.311C6.37233 189.184 6.55497 189.073 6.53574 188.905C6.51246 188.705 6.63436 188.654 6.81531 188.579C6.94066 188.527 7.09387 188.462 7.24759 188.328C7.42531 188.173 7.61159 188.113 7.76939 188.063C7.99136 187.993 8.15863 187.94 8.17153 187.66C8.1859 187.35 8.26008 187.076 8.43676 186.961C8.5173 186.908 8.58022 186.823 8.64594 186.735C8.73294 186.618 8.82495 186.496 8.96725 186.434C9.08453 186.383 9.25592 186.403 9.40735 186.421C9.45449 186.427 9.49985 186.433 9.54095 186.436C9.59879 186.365 9.65581 186.293 9.71181 186.221C9.7038 186.195 9.69438 186.166 9.6848 186.137C9.63645 185.989 9.5769 185.806 9.59547 185.659C9.62492 185.426 9.7987 185.346 9.98163 185.263C10.1238 185.198 10.2718 185.13 10.3622 184.986C10.4239 184.887 10.4642 184.748 10.504 184.611C10.5631 184.408 10.6222 184.208 10.749 184.142C10.7967 184.117 10.8936 184.143 10.9895 184.169L11.0102 184.175C11.1669 183.884 11.3183 183.589 11.4664 183.291C11.4669 183.255 11.4673 183.218 11.4683 183.182C11.473 183.007 11.4777 182.836 11.4181 182.671C11.3534 182.493 11.434 182.251 11.5183 181.996C11.5735 181.829 11.6297 181.656 11.6492 181.492C11.6607 181.396 11.7815 181.397 11.9054 181.4C12.0212 181.402 12.1398 181.404 12.1758 181.327C12.1937 181.288 12.1931 181.229 12.1925 181.166C12.1919 181.111 12.1913 181.052 12.2033 181.001C12.2149 180.955 12.3154 180.914 12.4437 180.862C12.5232 180.83 12.6137 180.794 12.7005 180.749C12.8112 180.529 12.9241 180.311 13.0396 180.095C13.0097 180.004 12.9566 179.902 12.8751 179.788C12.8167 179.706 12.7414 179.615 12.6645 179.521C12.5598 179.394 12.4513 179.262 12.3764 179.144C12.3181 179.052 12.3117 178.995 12.3615 179.003C12.3847 179.007 12.4197 179.026 12.4513 179.042C12.4875 179.06 12.5195 179.075 12.5255 179.067C12.5294 179.06 12.5132 179.037 12.4938 179.008C12.4626 178.961 12.4226 178.9 12.4404 178.875C12.5069 178.782 12.608 178.699 12.7067 178.617C12.8164 178.525 12.9233 178.436 12.9784 178.339C13.0401 178.23 13.2329 178.164 13.4252 178.098C13.5594 178.051 13.6936 178.004 13.7841 177.943C13.8725 177.883 13.8979 177.765 13.9224 177.649C13.9517 177.511 13.9802 177.377 14.1156 177.358C14.1431 177.355 14.2455 177.408 14.3735 177.475C14.4643 177.522 14.5684 177.576 14.6678 177.622C14.7517 177.523 14.8386 177.427 14.929 177.334C14.9204 177.32 14.9114 177.307 14.9024 177.293L14.9017 177.292C14.6977 176.979 14.4192 176.55 14.7741 176.584C14.8644 176.592 14.9899 176.657 15.1031 176.714C15.2143 176.771 15.3145 176.82 15.3564 176.806C15.4037 176.79 15.3806 176.703 15.3548 176.609C15.3185 176.476 15.2776 176.328 15.4242 176.338C15.4342 176.339 15.4452 176.339 15.4562 176.34C15.5612 176.346 15.7166 176.355 15.9675 176.446C16.1973 176.279 16.4361 176.119 16.6801 175.964C17.087 175.705 17.5096 175.459 17.9316 175.213C18.1377 175.095 18.537 175.151 19.0556 175.384C19.5751 175.618 20.1683 176.005 20.7225 176.476C21.2765 176.947 21.7546 177.47 22.0688 177.945C22.3823 178.419 22.5031 178.804 22.419 179.026C22.2807 179.388 22.1423 179.75 21.9965 180.105C21.9956 180.129 21.9941 180.154 21.9922 180.178C21.9777 180.352 22.0484 180.585 22.1188 180.818C22.135 180.872 22.1507 180.926 22.1659 180.978C22.2811 181.381 21.8833 181.63 21.6644 181.767C21.6605 181.77 21.6561 181.772 21.6522 181.775C21.6003 181.807 21.5612 181.847 21.5154 181.893C21.4059 182.003 21.2576 182.15 20.8067 182.338C20.731 182.44 20.6522 182.539 20.5703 182.636C19.6847 183.678 18.5783 184.534 17.4283 185.351C17.4185 185.366 17.4084 185.38 17.3984 185.395C17.2037 185.68 16.9613 186.033 16.6913 186.155C16.3483 186.309 16.0847 186.388 15.8634 186.449C14.9472 187.096 14.0532 187.763 13.2711 188.524C13.0261 188.763 12.7922 189.011 12.5718 189.27C12.3688 189.509 12.174 189.756 11.9869 190.008C11.9265 190.196 11.8826 190.387 11.842 190.564C11.7849 190.812 11.7339 191.033 11.6521 191.182C11.4549 191.54 11.0619 191.803 10.7701 191.998C10.7225 192.03 10.6776 192.06 10.6367 192.089C10.4993 192.324 10.3638 192.562 10.2298 192.8C10.1963 192.795 10.1617 192.788 10.1264 192.782C9.68401 192.707 9.50538 192.924 9.22422 193.266C9.10172 193.415 8.95922 193.588 8.76755 193.771C8.64415 193.888 8.47139 193.856 8.33022 193.83C8.28882 193.822 8.2498 193.814 8.21588 193.811C8.09928 193.801 8.13016 193.923 8.16776 194.066C8.21651 194.252 8.2757 194.475 8.03307 194.497C7.25843 194.568 7.38094 194.994 7.47399 195.316C7.48877 195.367 7.50161 195.416 7.51112 195.46C9.72961 194.704 12.3588 193.959 15.0926 193.276C22.4769 191.434 29.7498 189.158 36.7877 186.379C45.3619 182.993 53.6056 178.852 61.2224 173.813C66.5523 170.287 71.5541 166.307 76.0925 161.851C76.5603 161.392 77.0237 160.928 77.4789 160.462C81.0696 156.503 84.2005 152.202 86.2505 149.085C87.9435 146.524 89.1787 144.642 90.2052 143.008C90.9161 141.87 91.5049 140.877 92.043 139.81C92.3296 139.24 92.719 138.441 93.1528 137.498C93.9856 135.689 95.0147 133.277 96.0399 130.515C97.1795 127.469 98.0896 123.952 98.6075 120.544C98.7726 119.493 98.9111 118.37 99.0132 117.211C95.9783 119.537 92.7103 121.59 89.184 123.279C88.9087 123.419 88.6282 123.559 88.3438 123.698C82.8477 126.474 75.4448 128.42 70.7982 128.952C64.8761 129.683 60.88 129.627 57.6226 129.575C54.8112 129.582 52.0111 129.496 49.2168 129.349C32.3258 128.822 19.6473 111.992 21.5106 96.0942C21.5874 95.2605 21.6965 94.4344 21.8381 93.612C22.8809 87.5243 25.723 81.7765 29.9289 77.2602C33.7896 73.0973 38.8568 69.9803 44.4374 68.599C46.5743 68.0224 48.7147 67.7111 50.7729 67.6276C51.7524 67.5855 52.7095 67.5553 53.645 67.5378C57.5363 67.4613 61.0497 67.6336 63.951 68.0215C70.9563 68.8285 78.7681 71.9023 83.6663 75.4526C84.4733 76.0116 85.2247 76.5738 85.896 77.1035C89.7283 79.9714 93.0542 83.4295 95.9149 87.1674C96.0792 87.4352 96.2425 87.7086 96.4076 87.9889C96.4784 88.1093 96.5508 88.2304 96.6234 88.3531C98.5318 91.6652 101.031 95.6879 102.929 102.413C102.992 102.284 103.061 102.15 103.137 102.01C103.387 101.551 103.743 101.053 104.037 100.757C104.173 100.62 104.298 100.524 104.406 100.444C104.53 100.351 104.642 100.268 104.744 100.138C104.817 100.044 104.871 99.9279 104.939 99.7865C105.046 99.5604 105.186 99.2667 105.48 98.876C106.57 97.4287 107.785 95.7625 108.929 94.0788C110.2 92.2134 111.382 90.3321 112.266 88.7875C112.386 88.5778 112.514 88.3565 112.648 88.1257C113.557 86.5765 114.691 84.5315 115.625 82.373C116.371 80.6641 116.995 78.8917 117.418 77.3362C117.834 75.8114 118.096 74.1788 118.265 72.591C118.469 70.6836 118.538 68.8419 118.675 67.2727C118.702 66.9554 118.824 66.5626 118.967 66.0641C119.069 65.7107 119.181 65.3027 119.277 64.8339C119.239 62.8036 119.084 60.7695 118.822 58.745C118.798 58.676 118.772 58.6048 118.746 58.5336C118.746 58.5325 118.746 58.5313 118.745 58.5303C118.156 56.9127 117.316 54.7801 116.779 51.6147C116.64 50.8082 116.627 50.276 116.612 49.7948C116.597 49.3224 116.58 48.8968 116.416 48.3188C116.23 47.6617 115.899 46.9211 115.521 46.1256C114.99 45.0067 114.365 43.7827 113.919 42.4721C113.888 42.3826 113.855 42.2859 113.82 42.186C113.492 41.2368 112.975 39.8408 112.512 38.407C112.059 37.5009 111.587 36.6043 111.094 35.7179C109.447 32.7541 107.564 29.9161 105.466 27.2399C102.974 24.0617 100.178 21.1118 97.1221 18.4469C94.4938 16.1591 91.8667 13.8698 89.2399 11.5811C86.4078 9.11207 83.861 6.54063 82.1721 4.41886C80.4837 2.2965 79.7883 0.800194 80.2542 0.242065ZM73.6258 75.868C70.1983 74.4895 67.6298 73.8202 65.4289 73.3087C62.3228 72.6231 59.907 72.2756 56.2829 72.2836C54.476 72.2947 52.6285 72.3501 50.837 72.4218C48.7861 72.5052 46.8548 72.8303 45.2 73.2316C43.8313 73.5599 42.3042 74.1068 40.797 74.8503C38.7965 75.8286 36.8477 77.1591 35.1894 78.5312C33.8213 79.6605 32.7226 80.6586 31.7955 81.6022C31.5067 81.8971 31.2363 82.1873 30.982 82.4761C30.1292 83.6363 29.3673 84.8647 28.7078 86.1453C28.6211 86.3628 28.534 86.5932 28.4463 86.8345C28.008 88.0453 27.5468 89.5503 27.0964 91.4197C26.6731 93.1905 26.3854 94.8474 26.2126 96.4988C26.0976 97.6113 26.0377 98.7127 26.0485 99.8468C26.0733 102.034 26.3498 104.34 27.1654 106.836C27.7206 108.537 28.5844 110.397 29.652 112.097C31.2242 114.641 33.2595 116.769 34.7421 118.143C35.2958 118.662 35.7471 119.143 36.2137 119.605C36.2155 119.607 36.2172 119.61 36.219 119.612C36.2507 119.643 36.2834 119.674 36.3153 119.705C40.1358 122.464 44.7465 124.005 49.4167 124.094C49.7027 124.101 49.9882 124.107 50.2723 124.112C50.737 124.104 51.2039 124.095 51.664 124.084C53.9334 124.032 56.1175 123.921 57.5334 123.742C59.0702 123.552 62.9299 123.357 66.9052 122.785C69.5051 122.42 72.16 121.886 74.266 121.304C75.4943 120.966 76.688 120.748 77.9058 120.484C79.0421 120.237 80.2039 119.949 81.4138 119.47C82.0192 119.23 82.6583 118.936 83.3317 118.606C83.9237 118.315 84.5423 117.997 85.1908 117.663C85.79 117.354 87.1674 116.746 88.8718 115.83C89.9225 115.266 91.104 114.579 92.2982 113.796C94.6473 112.116 96.8502 110.239 98.9214 108.207C98.523 104.878 97.7445 102.019 97.1089 100.483C95.9057 97.4705 94.2674 94.202 92.3433 91.4151C92.0183 90.9417 91.6958 90.4849 91.3773 90.0472C89.19 87.0249 86.9565 84.6851 85.519 83.5478C83.8034 82.1958 82.4139 80.9779 80.1579 79.4038C78.5873 78.3285 76.5872 77.0819 73.6258 75.868Z" fill="currentColor"/>
</svg>
