<svg width="auto" height="auto" viewBox="0 0 600 539" fill="none" xmlns="http://www.w3.org/2000/svg">
<path opacity="0.5" d="M52.0143 33.4116C68.7 19.0647 89.2346 8.81723 110.934 3.90405C135.823 -1.78085 161.747 -1.04475 186.49 4.73155C230.867 23.8053 263.682 58.1581 283.469 98.9692C334.576 106.152 382.639 128.176 420.231 165.699C423.226 168.822 426.065 171.978 428.847 175.284C475.871 227.942 476.847 305.56 458.704 364.496C458.03 366.895 457.335 369.277 456.617 371.664C443.52 420.252 418.92 485.352 454.625 512.309C457.325 514.009 459.736 515.244 462.568 516.294C495.013 527.87 528.044 488.213 549.405 456.488C559.303 441.648 568.23 426.02 576.451 410.093C582.627 398.096 588.387 385.989 593.738 373.603C594.416 372.051 595.41 370.26 596.271 369.287C596.778 368.595 597.127 368.419 597.534 368.142C598.008 367.676 598.246 367.914 598.548 367.993C598.832 368.123 599.171 368.091 599.229 368.772C599.366 369.236 599.513 369.615 599.441 370.482C599.454 371.79 598.997 373.82 598.444 375.444C593.947 388.439 589.029 401.158 583.635 413.868C577.694 427.846 571.21 441.685 563.953 455.222C560.521 456.026 557.218 457.863 553.242 462.621C551.211 465.053 548.598 468.761 547.101 471.824C545.764 474.571 545.087 476.869 544.423 479.055C543.712 481.359 543.011 483.549 541.535 485.933C539.021 489.984 537.044 494.203 534.747 498.631C533.906 500.248 533.03 501.88 532.081 503.519C522.305 514.924 510.821 526.112 495.479 533.185C489.293 535.479 483.231 536.69 477.966 537.294C473.226 537.842 468.806 538.214 464.256 538.171C461.385 537.787 458.766 537.231 456.051 536.449C451.507 535.111 447.724 533.515 443.647 531.323C431.704 525.109 421.988 513.499 417.179 501.328C413.02 488.224 412.275 474.842 413.084 458.537C413.461 451.511 414.469 444.753 415.633 438.356C417.36 428.893 419.423 420.22 420.586 412.528C421.363 407.398 422.876 402.122 424.442 396.924C426.547 389.925 428.745 383.063 429.426 376.474C429.857 372.322 430.088 368.504 430.326 364.919C430.333 364.821 430.34 364.722 430.347 364.624C430.659 359.267 430.826 354.628 431.676 350.594C433.299 342.878 433.741 336.048 433.949 330.087C434.198 322.906 434.116 317.007 435.301 311.911C435.48 311.139 435.702 310.263 435.947 309.262C437.209 304.054 439.224 295.43 437.595 283.355C437.004 279.073 435.809 275.147 434.509 271.409C432.608 265.951 430.514 260.911 429.483 255.232C429.328 254.383 429.37 253.438 429.401 252.574C429.44 251.477 429.458 250.509 429.051 250.069C427.858 248.781 426.283 246.65 424.504 244.456C423.198 242.838 421.775 241.167 420.355 239.717C414.4 226.558 406.208 214.54 396.227 203.791C393.971 201.359 391.666 199.031 389.223 196.707C386.847 194.452 384.247 192.163 381.661 190.05C379.829 186.958 377.688 183.908 375.109 181.004C371.7 177.189 366.539 173.184 359.372 168.494C354.136 165.073 347.791 161.274 340.224 157.072C326.197 149.208 310.046 144.608 299.636 142.945C299.48 142.92 299.324 142.896 299.169 142.87C312.119 196.469 305.174 255.118 275.714 303.091C275.34 303.764 274.964 304.432 274.587 305.095C264.548 322.697 251.761 340.768 233.736 355.264C216.192 369.68 189.43 380.777 162.21 375.525C154.09 374.058 146.068 371.269 138.676 367.435C79.1556 331.866 73.5197 264.22 89.5553 211.46C92.9342 200.712 97.3075 190.56 102.784 180.699C128.156 131.187 184.732 99.1259 238.73 96.5024C238.368 95.8475 238.068 95.4117 237.867 95.4153C237.748 95.4184 237.631 95.4404 237.515 95.4711C236.94 94.4802 236.358 93.4983 235.771 92.5262C235.247 91.1167 234.071 89.3683 232.585 87.2765C232.224 86.768 231.843 86.2342 231.448 85.6821C230.205 83.8016 228.893 81.8946 227.591 80.0676C226.631 78.5769 225.615 76.9133 224.614 75.1128C222.639 71.5446 221.169 68.0628 219.691 64.7482C219.086 63.3709 218.401 61.9381 217.688 60.5663C218.129 60.9478 218.537 61.2869 218.88 61.5233C221.233 63.1555 222.791 63.1491 224.296 63.2069C225.289 63.2399 226.231 63.2792 227.28 63.8171C229.201 64.8095 229.785 64.0632 230.213 63.4949C230.436 63.2022 230.621 62.9648 230.931 63.0589C231.184 63.1384 231.557 63.4754 231.937 63.821C232.27 64.1231 232.615 64.438 232.891 64.5933C236.247 66.5036 236.188 65.1884 236.059 63.2026C235.989 62.113 235.9 60.8401 236.37 59.8199C236.928 58.8146 237.257 58.7027 238.839 59.9298C238.278 58.4228 237.684 56.9017 237.052 55.3661C236.624 54.9265 236.067 54.7967 235.225 54.6791C233.713 54.4532 231.003 51.9863 228.738 50.0427C227.707 49.1561 226.809 48.4085 226.242 48.0513C223.233 46.1827 223.143 47.689 223.084 49.0118C223.041 49.734 222.996 50.4005 222.481 50.4322C222.262 50.4468 222.294 50.7092 222.323 50.9755C222.346 51.1813 222.37 51.3917 222.279 51.4918C221.613 52.2156 219.702 51.3269 217.873 50.5115C216.835 50.0512 215.851 49.6373 215.182 49.5504C214.979 49.5238 214.799 49.523 214.628 49.5254C214.378 49.529 214.136 49.5304 213.839 49.4485C213.164 49.264 212.072 48.5595 210.824 47.7757C210.192 47.3793 209.534 46.9748 208.896 46.6249C208.069 46.1724 207.569 46.2619 207.045 46.3518C206.674 46.4161 206.29 46.4804 205.78 46.3748C204.86 46.1841 203.37 45.179 202.043 44.3419C201.463 43.9736 200.904 43.6299 200.418 43.3689C200.221 43.2628 200.096 43.2528 200.022 43.3121C197.732 41.99 195.616 40.9063 193.493 39.9047C188.048 37.3607 182.558 35.4541 178.445 34.7574C172.818 33.6189 166.796 32.3722 159.602 30.9445C156.706 30.3734 153.567 30.0845 150.401 30.014C140.301 28.9321 130.128 28.9122 120.119 30.1126C118.029 29.5534 115.448 29.2631 112.481 29.3299C106.879 29.4706 101.278 30.8283 94.9255 33.0074C90.2346 34.6279 85.0982 36.7091 79.1479 39.4102C69.1951 43.9452 59.4616 50.2376 50.1095 59.3408C41.0765 68.0241 32.4404 79.7859 27.0683 88.9753C26.8802 89.2919 26.6963 89.6047 26.5173 89.9136C23.6576 94.8308 20.396 99.9502 17.7312 104.975C13.9518 112.037 11.3681 119.027 11.8848 123.595C12.0454 125.057 12.5567 126.503 13.0752 127.901C13.4442 128.898 13.8167 129.868 14.0748 130.792C13.6544 133.098 13.2992 135.461 13.0125 137.804C11.7955 141.922 10.6658 148.617 12.0578 154.976C12.0779 157.47 12.1631 159.936 12.2993 162.354C12.6048 167.593 13.165 172.748 13.9633 177.925C14.2235 179.618 14.5088 181.311 14.8253 183.03C14.8281 183.046 14.8311 183.062 14.8339 183.078C15.4643 186.504 16.2017 189.95 17.0228 193.355C17.3715 194.803 17.7345 196.242 18.1199 197.697C19.0805 201.336 20.1762 205.049 21.3267 208.634C21.9334 210.528 22.5834 212.456 23.2493 214.359C24.344 217.48 25.4881 220.546 26.7192 223.644C28.6883 228.606 30.8181 233.51 33.0789 238.324C33.4454 239.106 33.7375 239.955 33.8274 240.589C33.921 241.23 33.8327 241.656 33.5763 241.798C33.3189 241.939 32.9078 241.785 32.4144 241.356C31.9264 240.935 31.3712 240.221 30.919 239.477C28.1329 234.886 25.4655 230.166 22.9518 225.351C21.3847 222.346 19.8987 219.361 18.4613 216.3C17.5847 214.436 16.7253 212.539 15.9061 210.671C14.3548 207.133 12.852 203.437 11.4852 199.793C10.9393 198.336 10.4154 196.893 9.90496 195.435C8.70256 191.998 7.58353 188.493 6.57182 184.98C6.56573 184.959 6.56006 184.937 6.55397 184.916C6.05278 183.171 5.58251 181.445 5.13782 179.713C3.77161 174.375 2.64614 168.995 1.7914 163.446C1.34212 160.56 0.965095 157.571 0.677288 154.558C0.517414 152.891 0.384476 151.216 0.281114 149.561C0.225776 148.663 0.178991 147.753 0.140571 146.833C-0.831031 125.742 3.21276 104.028 12.9179 84.5267C13.3914 83.5677 13.8801 82.6091 14.3839 81.6517C23.747 63.7737 36.1427 46.9571 52.0143 33.4116ZM190.166 154.552C184.254 157.555 177.299 161.735 170.981 166.681C160.983 174.349 152.817 184.105 148.91 190.117C147.505 192.236 146.069 194.6 144.685 197.094C143.666 198.926 142.624 200.904 141.547 203.079C138.612 209.074 135.643 216.079 133.056 225.26C129.558 238.274 128.688 246.556 127.957 255.193C127.707 258.717 126.893 261.847 126.204 265.207C125.24 269.895 124.49 275.126 126.612 281.495C127.108 282.967 127.779 284.46 128.538 286.039C129.927 288.918 131.538 291.854 132.732 295.068C133.146 296.184 133.346 297.229 133.563 298.264C133.81 299.416 134.073 300.542 134.657 301.655C136.822 305.784 139.384 309.51 141.873 312.573C145.032 316.476 148.031 319.274 149.768 321.106C152.834 324.364 157.041 326.819 161.267 328.395C164.506 329.615 167.736 330.354 170.805 330.978C179.522 332.987 192.344 330.056 204.049 319.609C208.398 315.77 212.586 312.749 217.873 308.085C221.062 305.268 224.812 301.593 228.839 296.634C231.218 293.681 232.449 290.821 233.561 288.136C234.592 285.644 235.535 283.263 237.083 281.068C237.13 281.001 237.178 280.935 237.225 280.87C238.539 279.091 239.983 278.288 241.359 277.511C242.94 276.617 244.433 275.754 245.389 273.534C245.904 272.338 246.172 270.819 246.539 268.856C246.678 268.092 246.823 267.279 246.982 266.43C247.13 266.548 247.273 266.629 247.385 266.683C248.176 267.066 249.673 265.017 251.077 263.001C251.639 262.196 252.189 261.393 252.689 260.755C254.526 258.456 256.811 253.191 258.176 249.28C258.759 247.633 259.562 246.159 260.468 244.446C261.271 242.926 262.159 241.209 263.025 238.958C263.519 237.672 264.048 236.746 264.49 235.955C264.812 235.374 265.085 234.878 265.251 234.396C265.394 233.978 265.242 233.569 265.069 233.113C264.944 232.784 264.809 232.428 264.763 232.025C264.656 231.06 264.834 229.913 265.131 229.152C265.268 228.8 265.432 228.536 265.594 228.273C265.783 227.967 265.971 227.662 266.114 227.216C266.767 225.183 266.925 223.044 267.044 220.836C267.174 218.412 267.258 215.92 267.907 213.259C268.112 212.414 268.425 211.499 268.719 210.627C269.028 209.711 269.318 208.82 269.455 208.05C270.014 204.913 269.639 201.958 269.24 199.162C268.973 197.322 268.692 195.611 268.663 194.042C268.606 191.179 267.852 189.606 267.299 188.468C267.011 187.877 266.772 187.399 266.696 186.899C266.714 186.439 266.734 185.973 266.754 185.517C266.802 185.098 266.85 184.665 266.823 184.261C266.82 184.231 266.816 184.201 266.814 184.171C266.935 181.634 267.075 179.108 267.158 176.581C267.348 170.964 267.253 165.27 265.942 159.535C265.656 158.282 265.115 157.055 264.553 155.824C263.864 154.315 263.14 152.796 262.805 151.171C262.039 147.469 261.537 143.707 260.931 139.948C258.01 139.967 254.868 140.036 251.476 140.168C231.641 141.111 215.551 144.768 204.122 148.72C198.279 150.73 193.62 152.788 190.166 154.552Z" fill="#C3DDEB"/>
</svg>
